<svg width="275" height="263" viewBox="0 0 275 263" fill="none" xmlns="http://www.w3.org/2000/svg">
<g clip-path="url(#clip0_2883_8026)">
<path d="M156.437 238.831C222.44 238.831 275.946 185.366 275.946 119.414C275.946 53.4626 222.44 -0.00195312 156.437 -0.00195312C90.4335 -0.00195312 36.9275 53.4626 36.9275 119.414C36.9275 185.366 90.4335 238.831 156.437 238.831Z" fill="#F2F2F2"/>
<path d="M159.923 35.0557H99.4038C94.8581 35.0557 91.1731 38.7378 91.1731 43.28V43.28C91.1731 47.8221 94.8581 51.5043 99.4038 51.5043H159.923C164.469 51.5043 168.154 47.8221 168.154 43.28C168.154 38.7378 164.469 35.0557 159.923 35.0557Z" fill="white"/>
<path d="M60.3086 67.9414H199.019C203.565 67.9414 207.25 71.6236 207.25 76.1657C207.25 80.7079 203.565 84.39 199.019 84.39H60.3086C55.7629 84.39 52.0779 80.7079 52.0779 76.1657C52.0779 71.6236 55.7629 67.9414 60.3086 67.9414Z" fill="white"/>
<path d="M60.3086 100.854H199.019C203.565 100.854 207.25 104.536 207.25 109.078C207.25 113.62 203.565 117.302 199.019 117.302H60.3086C55.7629 117.302 52.0779 113.62 52.0779 109.078C52.0779 104.536 55.7629 100.854 60.3086 100.854Z" fill="white"/>
<path d="M43.1183 262.268L42.7919 262.236C31.7158 261.094 21.703 255.142 15.4137 245.96C13.691 243.402 12.2975 240.637 11.2662 237.731L11.1671 237.453L11.4605 237.43C14.9644 237.148 18.5639 236.554 20.163 236.271L9.85192 232.78L9.78817 232.475C9.17686 229.605 10.3745 226.652 12.8128 225.017C15.2578 223.304 18.5 223.249 21.0016 224.879C22.1242 225.595 23.2984 226.305 24.4339 226.992C28.3359 229.35 32.3708 231.789 35.3959 235.126C39.9832 240.287 41.9939 247.241 40.8679 254.051L43.1183 262.268Z" fill="#F2F2F2"/>
<path d="M80.6 257.148L85.6815 257.148L88.0995 237.561L80.5986 237.561L80.6 257.148Z" fill="#A0616A"/>
<path d="M80.4199 262.443L96.0476 262.442V262.245C96.0473 258.888 93.3241 256.167 89.9648 256.167H89.9645L87.1099 254.003L81.7839 256.167L80.4197 256.167L80.4199 262.443Z" fill="#2F2E41"/>
<path d="M39.873 243.095L43.9378 246.142L57.6357 231.924L51.6358 227.427L39.873 243.095Z" fill="#A0616A"/>
<path d="M36.5435 247.211L49.0444 256.582L49.163 256.424C51.1788 253.739 50.6347 249.93 47.9478 247.915L47.9475 247.915L46.9637 244.472L41.4036 243.009L40.3123 242.191L36.5435 247.211H36.5435Z" fill="#2F2E41"/>
<path d="M56.7612 165.227C56.7612 165.227 57.0418 172.874 57.3956 179.006C57.4537 180.012 55.0957 181.104 55.1568 182.198C55.1973 182.924 55.6405 183.63 55.6817 184.387C55.7251 185.185 55.1132 185.892 55.1568 186.718C55.1993 187.526 55.8974 188.451 55.9395 189.277C56.3927 198.167 58.0355 208.81 56.3905 211.785C55.5798 213.251 45.2463 233.564 45.2463 233.564C45.2463 233.564 51.0038 242.194 52.6488 239.317C54.8214 235.518 71.5661 217.743 71.5661 214.349C71.5661 210.959 75.44 185.551 75.44 185.551L78.1412 200.587L79.3798 203.566L78.9906 205.315L79.791 207.676L79.8343 210.012L80.6135 214.349C80.6135 214.349 78.2695 248.144 79.5895 249.085C80.9137 250.03 87.3251 251.727 88.0817 250.03C88.8343 248.333 93.7329 214.76 93.7329 214.76C93.7329 214.76 94.5225 199.375 95.3779 185.075C95.4272 184.245 96.0113 183.242 96.0565 182.424C96.11 181.475 95.7399 180.242 95.7892 179.322C95.8426 178.266 96.3115 177.522 96.3567 176.511C96.7062 168.699 94.744 159.187 94.1189 158.25C92.2312 155.423 90.5328 153.162 90.5328 153.162C90.5328 153.162 65.1086 144.815 58.3148 153.297L56.7613 165.227L56.7612 165.227Z" fill="#2F2E41"/>
<path d="M82.1213 86.5943L72.0426 84.5801L67.3392 90.9583C58.5629 99.581 58.4307 107.191 59.9974 119.39V136.51L58.8635 147.987C58.8635 147.987 54.8493 156.377 58.9896 158.33C63.1298 160.284 90.3247 160.117 92.9212 159.337C95.5177 158.558 93.2671 157.6 92.5853 153.966C91.3045 147.14 92.1612 150.433 92.2493 148.26C93.5131 117.083 90.5696 104.283 90.2706 100.919L85.1449 91.6297L82.1213 86.5943Z" fill="#3F3D56"/>
<path d="M135.243 111.72C134.193 113.709 131.728 114.47 129.738 113.421C129.525 113.309 129.324 113.178 129.134 113.031L107.368 126.841L107.431 119.322L128.575 107.061C130.081 105.374 132.671 105.226 134.359 106.731C135.772 107.99 136.138 110.053 135.243 111.72Z" fill="#A0616A"/>
<path d="M74.166 95.2974L71.688 95.035C69.3983 94.7977 67.1518 95.7776 65.7692 97.6166C65.2397 98.314 64.8593 99.1128 64.6518 99.9634L64.6503 99.9702C64.0287 102.53 65.0036 105.213 67.1243 106.778L75.683 113.083C81.6892 121.193 92.9772 126.573 106.218 130.944L126.799 118.172L119.52 109.362L105.403 116.922L84.4191 100.691L84.407 100.681L76.4205 95.5396L74.166 95.2974L74.166 95.2974Z" fill="#3F3D56"/>
<path d="M78.7149 81.6473C85.206 81.6473 90.4681 76.3893 90.4681 69.9033C90.4681 63.4172 85.206 58.1592 78.7149 58.1592C72.2238 58.1592 66.9617 63.4172 66.9617 69.9033C66.9617 76.3893 72.2238 81.6473 78.7149 81.6473Z" fill="#A0616A"/>
<path d="M78.9906 81.6524C78.8958 81.6555 78.8008 81.6576 78.706 81.6601C78.6654 81.7655 78.6216 81.8699 78.571 81.9724L78.9906 81.6523V81.6524Z" fill="#2F2E41"/>
<path d="M82.2163 70.2314C82.2347 70.3472 82.2629 70.4613 82.3006 70.5723C82.2851 70.456 82.2568 70.3417 82.2163 70.2314Z" fill="#2F2E41"/>
<path d="M90.6194 58.6625C90.1356 60.1635 89.7038 58.2595 88.1124 58.602C86.1979 59.014 83.9701 58.8725 82.4023 57.6999C80.0664 55.9873 77.0391 55.5263 74.2986 56.4657C71.616 57.414 67.1217 58.0827 66.4227 60.8389C66.1798 61.797 66.0833 62.8367 65.4943 63.6307C64.9794 64.3249 64.1667 64.7208 63.4871 65.255C61.1923 67.0592 62.9462 72.1849 64.0323 74.8932C65.1185 77.6015 67.6099 79.5745 70.349 80.5851C72.9993 81.5629 75.8758 81.7354 78.7031 81.6585C79.1948 80.3842 78.9824 78.9123 78.5766 77.5912C78.1373 76.161 77.4869 74.7807 77.3034 73.2959C77.1199 71.8112 77.5229 70.1247 78.7688 69.2951C79.914 68.5326 81.7776 68.9971 82.2132 70.2299C81.959 68.6886 83.5216 67.1971 85.1328 66.9348C86.8626 66.6532 88.5924 67.2772 90.3172 67.5878C92.0421 67.8984 91.4299 60.6424 90.6194 58.6625Z" fill="#2F2E41"/>
<path d="M156.353 89.3477C157.448 76.1195 147.604 64.5084 134.366 63.4136C121.127 62.3188 109.507 72.1549 108.412 85.3831C107.316 98.6114 117.16 110.222 130.398 111.317C143.637 112.412 155.257 102.576 156.353 89.3477Z" fill="#FF3838"/>
<path d="M138.698 77.3329L132.38 83.6461L126.062 77.3329C125.039 76.3109 123.381 76.3109 122.358 77.3329C121.336 78.3549 121.336 80.0118 122.358 81.0337L128.676 87.347L122.358 93.6602C121.337 94.6831 121.338 96.34 122.362 97.361C123.384 98.3807 125.04 98.3807 126.062 97.361L132.38 91.0478L138.698 97.361C139.722 98.382 141.38 98.3805 142.402 97.3576C143.423 96.336 143.423 94.6817 142.402 93.6602L136.084 87.347L142.402 81.0337C143.425 80.0118 143.425 78.3549 142.402 77.3329C141.379 76.3109 139.721 76.3109 138.698 77.3329Z" fill="white"/>
<path d="M122.904 67.1544C123.613 69.2886 122.456 71.5931 120.32 72.3015C120.092 72.377 119.859 72.4323 119.621 72.4667L114.525 97.7214L109.139 92.4709L114.923 68.7371C114.747 66.483 116.433 64.5133 118.689 64.3377C120.576 64.1907 122.319 65.3552 122.904 67.1544Z" fill="#A0616A"/>
<path d="M68.7543 99.8304L66.8493 101.436C65.0928 102.922 64.2452 105.22 64.6161 107.49C64.7531 108.355 65.0667 109.182 65.5373 109.921L65.5411 109.927C66.9596 112.147 69.5721 113.302 72.1705 112.856L82.6491 111.05C92.6637 112.333 104.364 107.919 116.687 101.398L121.712 77.7153L110.31 76.8652L105.996 92.2778L79.7476 96.1713L79.7322 96.1732L70.49 98.3724L68.7543 99.8304L68.7543 99.8304Z" fill="#3F3D56"/>
<path d="M128.419 262.851L0.558416 262.996C0.249015 262.994 -0.00099918 262.743 3.00244e-06 262.433C0.000995775 262.125 0.250422 261.876 0.558416 261.875L128.419 261.73C128.728 261.731 128.978 261.983 128.977 262.292C128.977 262.6 128.727 262.85 128.419 262.851Z" fill="#CACACA"/>
</g>
<defs>
<clipPath id="clip0_2883_8026">
<rect width="274.955" height="263" fill="white"/>
</clipPath>
</defs>
</svg>
