<svg width="20" height="16" viewBox="0 0 20 16" fill="none" xmlns="http://www.w3.org/2000/svg">
<path d="M10.4974 2.25H5.62195C2.49695 2.25 1.24695 3.5 1.24695 6.625V10.375C1.24695 13.5 2.49695 14.75 5.62195 14.75H9.37195C13.1224 14.75 13.8724 13.375 13.8724 11.875" stroke="white" stroke-width="1.2" stroke-linecap="round" stroke-linejoin="round"/>
<path d="M3.53027 10.7505L4.41263 11.8755L6.17733 9.82422L7.94204 12.4713L9.26557 10.2654" stroke="white" stroke-width="1.2" stroke-linecap="round" stroke-linejoin="round"/>
<path d="M9.6977 6.71952C9.5102 6.90702 9.3227 7.27577 9.2852 7.54452L9.01645 9.42577C8.91645 10.107 9.3977 10.582 10.079 10.4883L11.9602 10.2195C12.2227 10.182 12.5915 9.99452 12.7852 9.80702L17.7102 4.88202C18.5602 4.03202 18.9602 3.04452 17.7102 1.79452C16.4602 0.544518 15.4727 0.944518 14.6227 1.79452L9.6977 6.71952Z" stroke="white" stroke-width="1.2" stroke-linecap="round" stroke-linejoin="round"/>
<path d="M13.9106 2.5C14.3294 3.99375 15.4981 5.1625 16.9981 5.5875" stroke="white" stroke-width="1.2" stroke-linecap="round" stroke-linejoin="round"/>
</svg>
