<svg width="519" height="263" viewBox="0 0 519 263" fill="none" xmlns="http://www.w3.org/2000/svg">
<g clip-path="url(#clip0_2551_13509)">
<path d="M495.036 145.401L493.414 158.235L489.386 190.113H408.478C409.109 182.969 409.973 172.684 410.896 161.582C410.987 160.474 411.082 159.358 411.173 158.235C413.487 130.328 416.019 98.748 416.019 98.748L426.656 100.716L447.293 104.528L455.703 106.08L478.222 110.245C489.45 112.317 497.173 128.464 495.036 145.401V145.401Z" fill="#F2F2F2"/>
<path d="M433.837 47.1055L443.786 64.399L424.663 77.8599L416.505 56.6029L433.837 47.1055Z" fill="#FFB6B6"/>
<path d="M421.17 63.466C434.783 63.466 445.818 52.505 445.818 38.984C445.818 25.4629 434.783 14.502 421.17 14.502C407.557 14.502 396.521 25.4629 396.521 38.984C396.521 52.505 407.557 63.466 421.17 63.466Z" fill="#FFB6B6"/>
<path d="M419.4 44.4576C417.443 41.499 418.211 39.9516 416.572 38.8643C416.572 38.8643 415.913 38.4268 411.194 38.1773C410.138 30.6246 408.819 29.7087 408.819 29.7086C407.299 28.653 405.043 28.996 403.639 29.6417C400.671 31.0071 401.015 33.9567 399.017 34.5212C396.256 35.3009 391.233 30.9053 390.739 25.8732C390.335 21.7685 392.997 17.7817 394.054 17.9926C395.101 18.2018 397.608 15.0229 398.961 15.072C399.886 15.1054 403.663 13.4749 404.679 13.6024C405.788 13.7416 409.447 15.6379 409.599 15.2047C410.659 12.194 410.347 11.3586 411.246 10.4974C412.839 8.97115 415.445 10.034 419.533 10.6045C427.944 11.7785 429.412 9.02384 433.723 10.891C435.9 11.8342 437.722 14.3778 441.277 19.4267C446.249 26.4874 448.735 30.0178 448.751 34.1354C448.767 38.3347 446.72 38.0681 445.821 44.2848C444.82 51.2051 446.947 54.3694 444.623 56.6176C442.827 58.3552 439.177 58.7677 437.259 57.2427C433.976 54.6317 438.273 48.3315 434.639 43.7286C432.409 40.9031 427.923 39.6459 425.868 41.0426C423.545 42.6218 424.825 47.2571 423.191 47.6966C421.792 48.073 419.741 44.9732 419.4 44.4576L419.4 44.4576Z" fill="#2F2E41"/>
<path d="M476.818 140.881C476.13 152.556 473.4 156.243 472.443 170.032C472.234 173.059 472.109 176.573 472.109 180.764C472.109 181.832 472.114 182.865 472.114 183.874C472.114 186.023 472.073 188.053 471.821 190.113C471.631 191.757 471.302 193.413 470.758 195.158H417.671C417.665 195.146 417.665 195.135 417.658 195.123C417.348 193.781 417.151 192.499 417.001 191.27C416.953 190.879 416.911 190.493 416.876 190.113C416.828 189.668 416.786 189.229 416.745 188.795C416.583 187.068 416.422 185.435 416.039 183.874C415.525 181.719 414.593 179.689 412.68 177.731C411.898 176.929 411.115 176.306 410.35 175.76C410.2 175.659 410.057 175.558 409.907 175.457C407.792 174.015 405.79 172.976 404.057 170.032C404.027 169.99 404.003 169.943 403.979 169.901C403.68 169.385 402.903 168.031 402.341 166.227C401.75 164.351 401.391 161.994 402.037 159.585C403.573 153.874 409.262 153.305 413.912 147.535C414.414 146.912 414.91 146.223 415.382 145.457C417.485 142.062 418.053 139.07 418.722 135.515C418.83 134.939 418.925 134.369 419.003 133.817C419.063 133.401 419.117 132.992 419.159 132.588C419.529 129.199 419.35 126.278 418.914 123.667C417.492 115.113 413.296 109.818 416.26 102.143C417.193 99.7331 418.513 97.9225 419.846 96.3733C422.667 93.0906 425.565 90.9597 425.063 86.7217C424.555 82.4477 421.292 81.8599 420.928 78.1262C420.742 76.2388 421.364 74.2502 422.529 72.2973V72.2915C426.259 66.0052 435.57 60.2177 441.486 60.4017C442.58 60.4316 443.548 60.6748 444.354 61.1437C447.277 62.8532 446.058 66.5869 450.534 71.8225C453.863 75.7104 457.628 77.2657 459.056 78.0016C464.716 80.9342 469.318 89.5827 472.443 100.641C472.467 100.724 472.491 100.807 472.515 100.897C474.445 107.824 475.808 115.689 476.483 123.667C476.77 127.044 476.937 130.439 476.973 133.799C477.003 136.482 476.943 138.809 476.818 140.881Z" fill="#EF6B29"/>
<path d="M437.064 180.883L435.982 183.875L435.301 185.751L433.723 190.114L431.894 195.159H420.139L422.111 190.114L423.026 187.763L424.544 183.875L427.09 177.346L437.064 180.883Z" fill="#FFB6B6"/>
<path d="M472.629 99.6207C472.599 100.007 472.557 100.434 472.515 100.897C472.049 105.61 470.949 114.045 469.342 123.667C468.493 128.742 467.501 134.15 466.383 139.522C463.981 151.114 460.993 162.529 457.616 170.032C457.013 171.386 456.391 172.609 455.757 173.689C455.274 174.514 454.765 175.327 454.233 176.128C452.512 178.758 450.582 181.251 448.58 183.578C448.502 183.679 448.412 183.774 448.323 183.875C448 184.255 447.665 184.629 447.331 185.003C445.693 186.837 444.02 188.546 442.401 190.113C440.429 192.025 438.528 193.717 436.825 195.159H417.736L417.659 195.123L414.91 193.912C414.91 193.912 415.692 192.998 417.001 191.271C417.27 190.921 417.557 190.535 417.868 190.113C418.25 189.597 418.663 189.027 419.105 188.41C420.025 187.116 421.071 185.596 422.194 183.875C424.37 180.545 426.85 176.449 429.354 171.706C429.641 171.154 429.934 170.596 430.227 170.032C430.233 170.015 430.245 169.997 430.251 169.979C430.747 169.017 431.237 168.026 431.727 167.017C435.88 158.433 437.07 151.31 437.411 149.002C437.889 145.737 438.552 141.172 438.372 136.15C438.253 132.838 437.769 129.336 436.616 125.857V125.852C436.376 125.121 436.107 124.391 435.803 123.667C435.259 122.367 434.613 121.085 433.848 119.821C430.472 114.253 427.729 114.021 425.547 107.955C424.902 106.156 423.438 102.096 423.886 97.8103V97.8045C423.94 97.2761 424.029 96.742 424.149 96.2075V96.2017C424.179 96.0533 424.221 95.8991 424.263 95.7507C424.603 94.4389 425.165 93.1387 426.019 91.904C427.687 89.5061 429.964 88.0813 432.002 87.2326L432.008 87.2266C434.362 86.2533 436.395 86.0455 436.789 86.0098C445.52 85.2383 452.291 92.5274 455.991 96.5104C457.419 98.0477 458.728 99.336 459.923 100.386C469.228 108.638 471.78 103.366 472.443 100.642C472.545 100.22 472.599 99.8583 472.629 99.6206V99.6207Z" fill="#EF6B29"/>
<path d="M472.658 99.3125C472.658 99.3411 472.652 99.4388 472.629 99.5998C472.64 99.5134 472.646 99.4273 472.652 99.3467C472.652 99.3296 472.652 99.3181 472.658 99.3125Z" fill="#EF6B29"/>
<path d="M425.195 224.565H104.836C101.86 224.565 99.4336 226.969 99.4336 229.926C99.4336 232.888 101.86 235.291 104.836 235.291H425.195C428.171 235.291 430.592 232.888 430.592 229.926C430.592 226.969 428.171 224.565 425.195 224.565Z" fill="#E6E6E6"/>
<path d="M354.101 252.274H175.924C172.948 252.274 170.527 254.678 170.527 257.634C170.527 260.59 172.948 263 175.924 263H354.101C357.077 263 359.503 260.59 359.503 257.634C359.503 254.678 357.077 252.274 354.101 252.274Z" fill="#E6E6E6"/>
<path d="M140.484 48.2442L160.674 39.8047L169.334 57.4375L148.117 66.0389L140.484 48.2442Z" fill="#FFB6B6"/>
<path opacity="0.1" d="M140.484 48.2442L160.674 39.8047L169.334 57.4375L148.117 66.0389L140.484 48.2442Z" fill="black"/>
<path d="M143.354 41.525L163.272 64.3186C163.272 64.3186 149.416 107.756 135.56 111.626C121.705 115.497 96.1579 134.42 96.1579 134.42L64.1162 113.777L79.7041 90.9829C79.7041 90.9829 117.375 39.8047 127.334 39.8047C137.292 39.8047 143.354 41.525 143.354 41.525V41.525Z" fill="#EF6B29"/>
<path d="M116.444 190.114H70.0787L67.1474 186.221L55.1793 170.33L52.4255 166.675C52.4255 166.675 42.0336 147.752 44.1986 130.549C46.3636 113.346 68.8793 109.476 68.8793 109.476H69.806L97.3704 133.534L95.7251 155.923L104.454 170.33L116.444 190.114Z" fill="#2F2E41"/>
<path d="M79.5739 190.114H67.147V171.836L79.5739 190.114Z" fill="#2F2E41"/>
<path d="M347.607 162.365L346.061 170.33L342.225 190.113H265.156C265.758 185.679 266.581 179.297 267.46 172.407C267.546 171.719 267.637 171.027 267.724 170.33C269.928 153.011 272.34 133.413 272.34 133.413L282.472 134.635L302.13 137L310.14 137.963L331.591 140.548C342.286 141.834 349.642 151.854 347.607 162.365H347.607Z" fill="#F2F2F2"/>
<path d="M456.674 190.113H414.873C415.51 189.369 415.869 188.939 415.869 188.939L428.4 186.883L454.219 182.651C454.219 182.651 455.397 185.675 456.674 190.113V190.113Z" fill="#2F2E41"/>
<path d="M279.364 56.8457L297.543 82.3807L265.833 83.3213L262.43 59.3244L279.364 56.8457Z" fill="#A0616A"/>
<path opacity="0.1" d="M279.364 56.8457L297.543 82.3807L265.833 83.3213L262.43 59.3244L279.364 56.8457Z" fill="black"/>
<path d="M189.715 109.752C187.382 103.069 182.02 98.8471 177.738 100.322C173.456 101.797 171.876 108.41 174.211 115.095C175.106 117.779 176.636 120.21 178.671 122.186L188.914 150.379L202.132 145.323L190.631 118.066C190.998 115.262 190.684 112.411 189.715 109.752Z" fill="#A0616A"/>
<path d="M312.767 96.741L312.742 122.764L310.305 132.376L305.291 152.147L301.64 170.33L298.921 183.877L297.951 188.715C297.22 189.201 296.492 189.666 295.765 190.113H232.43C228.832 187.967 226.819 186.299 226.819 186.299C226.819 186.299 227.815 185.37 228.954 183.877C230.876 181.357 233.201 177.228 231.777 173.285C231.478 172.459 231.4 171.453 231.491 170.33C232.071 162.924 239.891 150.401 239.891 150.401L238.272 131.813L237.561 123.668L242.568 83.9505L258.888 74.5277L261.705 74.257L289.517 72.7646L301.012 73.4226L301.535 73.5646L312.767 96.741V96.741Z" fill="#CCCCCC"/>
<path d="M314.002 190.114H300.146L299.536 183.878L299.523 183.753L303.446 183.486L313.652 182.794L313.829 186.527L313.968 189.391L314.002 190.114Z" fill="#FFB6B6"/>
<path d="M317.413 103.033L323.234 136.953L318.484 170.33L317.744 175.525L316.436 184.699L316.033 187.52L316.046 187.825L316.146 190.113H299.692L299.086 183.877L299.034 183.318L297.795 170.545L297.774 170.33L295.146 143.244L300.298 123.668L300.679 122.227V122.223L302.921 88.7031L301.185 73.4701L301.167 73.3281C301.202 73.3496 301.232 73.3712 301.267 73.3927C301.358 73.4486 301.449 73.5045 301.535 73.5647C311.65 79.9383 317.678 91.1201 317.413 103.033Z" fill="#CCCCCC"/>
<path d="M248.463 90.4504L242.135 83.9502C242.135 83.9502 228.59 90.0152 227.915 93.3801C227.24 96.7449 203.325 146.165 203.325 146.165L192.92 118.564L179.377 127.545C179.377 127.545 190.244 170.398 200.407 172.409C210.571 174.421 244.633 121.69 244.633 121.69L248.463 90.4504H248.463Z" fill="#CCCCCC"/>
<path d="M505.379 170.032H12.6459C5.67164 170.032 0 175.671 0 182.598C0 189.526 5.67163 195.159 12.6459 195.159H505.379C512.353 195.159 518.03 189.526 518.03 182.598C518.03 175.671 512.353 170.032 505.379 170.032Z" fill="#E6E6E6"/>
<path d="M309.883 131.741L308.925 176.143C308.833 180.441 305.298 183.878 300.97 183.878H218.734C214.508 183.878 211.019 180.596 210.789 176.405L208.345 132.003C208.095 127.475 211.725 123.668 216.29 123.668H301.927C306.389 123.668 309.979 127.311 309.883 131.741Z" fill="#3F3D56"/>
<path d="M177.128 58.962C187.994 58.962 196.803 50.2127 196.803 39.42C196.803 28.6272 187.994 19.8779 177.128 19.8779C166.262 19.8779 157.453 28.6272 157.453 39.42C157.453 50.2127 166.262 58.962 177.128 58.962Z" fill="#FFB6B6"/>
<path d="M144.22 90.5529L146.385 113.777L161.107 172.696L148.389 177.124L126.901 112.916L123.933 87.1123L144.22 90.5529Z" fill="#FFB6B6"/>
<path d="M138.364 131.741L137.406 176.143C137.314 180.441 133.779 183.878 129.45 183.878H47.2153C42.9892 183.878 39.5002 180.596 39.2695 176.405L36.8256 132.003C36.5764 127.475 40.2058 123.668 44.7714 123.668H130.408C134.87 123.668 138.46 127.311 138.364 131.741Z" fill="#3F3D56"/>
<path d="M163.451 184.178C172.033 184.178 178.99 181.122 178.99 177.352C178.99 173.582 172.033 170.525 163.451 170.525C154.87 170.525 147.913 173.582 147.913 177.352C147.913 181.122 154.87 184.178 163.451 184.178Z" fill="#FFB6B6"/>
<path d="M113.694 94.1031L122.571 47.1155C122.571 47.1155 147.251 43.6749 148.117 51.8463C148.983 60.0176 147.499 99.9519 147.499 99.9519L113.694 94.1031V94.1031Z" fill="#EF6B29"/>
<path d="M169.186 42.4927C169.186 42.4927 181.356 38.1783 186.49 35.8569C191.624 33.5356 201.824 49.727 202.051 41.1757C202.278 32.6245 198.753 29.0385 198.753 29.0385C198.753 29.0385 197.873 10.3315 178.898 12.6703C178.898 12.6703 183.072 3.31102 169.371 1.86377C155.671 0.416526 134.357 33.2771 136.266 38.1879C138.174 43.0987 140.463 47.1587 135.047 52.4095C129.632 57.6603 119.491 87.2942 127.206 95.2685C134.922 103.243 135.428 106.703 130.142 111.664C124.855 116.625 112.36 127.412 125.87 129.285C139.381 131.158 124.634 129.759 134.707 120.959C144.779 112.159 159.477 112.519 153.989 98.4C148.501 84.2814 158.036 64.0495 156.842 60.9802C155.649 57.9109 159.515 38.4209 159.515 38.4209C159.515 38.4209 168.513 37.1079 169.186 42.4927V42.4927Z" fill="#2F2E41"/>
<path d="M269.645 66.0878C281.473 66.0878 291.062 56.5636 291.062 44.8149C291.062 33.0662 281.473 23.542 269.645 23.542C257.816 23.542 248.227 33.0662 248.227 44.8149C248.227 56.5636 257.816 66.0878 269.645 66.0878Z" fill="#A0616A"/>
<path d="M271.354 16.2153C270.734 16.5746 269.904 16.031 269.705 15.3461C269.507 14.6612 269.738 13.9341 269.968 13.2588L271.123 9.85919C271.943 7.44814 272.813 4.95283 274.588 3.1177C277.267 0.347874 281.524 -0.356757 285.357 0.153724C290.279 0.809283 295.136 3.45648 297.424 7.83397C299.713 12.2115 298.738 18.3196 294.603 21.0507C300.497 27.7603 302.551 35.2379 302.227 44.1363C301.903 53.0348 292.139 61.2243 285.773 67.4929C284.351 66.6368 283.058 62.6249 283.84 61.1675C284.622 59.71 283.502 58.0215 284.47 56.6791C285.438 55.3366 286.248 57.4742 285.269 56.1394C284.652 55.2971 287.063 53.3593 286.144 52.8551C281.703 50.4167 280.226 44.9182 277.437 40.7075C274.072 35.6287 268.313 32.1893 262.219 31.6187C258.862 31.3044 255.317 31.8737 252.565 33.8094C249.814 35.7452 248.032 39.2043 248.67 42.4928C247.018 40.8263 246.195 38.384 246.505 36.0653C246.816 33.7466 248.252 31.6025 250.285 30.4225C249.049 26.3615 250.108 21.6902 252.978 18.5476C255.848 15.4051 267.489 15.9403 271.678 16.7674L271.354 16.2153Z" fill="#2F2E41"/>
<path d="M272.005 31.7422C277.554 32.3371 281.56 37.1112 284.943 41.5201C286.893 44.0613 288.936 46.8676 288.887 50.0623C288.837 53.2923 286.663 56.0626 285.624 59.1237C283.926 64.127 285.581 70.0798 289.624 73.508C285.629 74.261 281.31 71.2858 280.621 67.3055C279.818 62.6719 283.354 58.1998 282.935 53.5165C282.566 49.3905 279.293 46.2151 276.51 43.1301C273.727 40.0451 271.113 35.9514 272.393 32.0092L272.005 31.7422Z" fill="#2F2E41"/>
<path d="M354.96 172.721C349.464 175.826 346.622 181.159 348.612 184.633C350.602 188.107 356.67 188.405 362.168 185.299C364.381 184.087 366.27 182.367 367.677 180.283L390.797 166.834L384.212 156.192L362.119 170.58C359.594 170.715 357.14 171.45 354.96 172.721Z" fill="#FFB6B6"/>
<path d="M433.242 74.1043C432.551 73.8323 426.489 71.552 420.954 74.5627C414.596 78.0211 413.614 85.9159 413.27 88.685C412.474 95.0815 414.818 96.5152 415.313 102.991C416.239 115.106 418.68 101.285 414.782 106.815C413.432 108.729 399.651 138.393 392.051 144.203C377.27 155.503 367.883 163.462 367.883 163.462L378.599 175.023C378.599 175.023 395.532 170.542 410.498 160.89C425.85 150.989 433.526 146.038 439.465 136.354C439.976 135.52 452.213 114.88 445.641 92.0575C444.142 86.8517 441.396 77.3136 433.242 74.1043Z" fill="#EF6B29"/>
<path d="M488.574 131.741L487.616 176.143C487.524 180.441 483.989 183.878 479.66 183.878H397.425C393.199 183.878 389.71 180.596 389.479 176.405L387.036 132.003C386.786 127.475 390.416 123.668 394.981 123.668H480.618C485.08 123.668 488.67 127.311 488.574 131.741Z" fill="#3F3D56"/>
</g>
<defs>
<clipPath id="clip0_2551_13509">
<rect width="518.03" height="263" fill="white"/>
</clipPath>
</defs>
</svg>
