<svg width="80" height="80" viewBox="0 0 80 80" fill="none" xmlns="http://www.w3.org/2000/svg">
<path d="M40.0002 6.66797L48.7557 13.0547L59.5931 13.0341L62.9224 23.3475L71.7021 29.7008L68.3336 40.0013L71.7021 50.3018L62.9224 56.6551L59.5931 66.9685L48.7557 66.948L40.0002 73.3346L31.2447 66.948L20.4074 66.9685L17.0781 56.6551L8.29834 50.3018L11.6669 40.0013L8.29834 29.7008L17.0781 23.3475L20.4074 13.0341L31.2447 13.0547L40.0002 6.66797Z" fill="#FF3838" stroke="#FF3838" stroke-width="4" stroke-linecap="round" stroke-linejoin="round"/>
<path d="M48.0811 48.0812L39.9998 40M39.9998 40L31.9186 31.9188M39.9998 40L48.0811 31.9188M39.9998 40L31.9186 48.0812" stroke="white" stroke-width="2" stroke-linecap="round"/>
</svg>
