<svg width="263" height="263" viewBox="0 0 263 263" fill="none" xmlns="http://www.w3.org/2000/svg">
<g clip-path="url(#clip0_2949_9643)">
<path d="M143.258 243.886C209.391 243.886 263.002 237.901 263.002 230.518C263.002 223.135 209.391 217.15 143.258 217.15C77.1251 217.15 23.5139 223.135 23.5139 230.518C23.5139 237.901 77.1251 243.886 143.258 243.886Z" fill="#E6E6E6"/>
<path d="M202.641 215.727L204.706 222.084C204.706 222.084 214.652 232.351 211.055 235.133C207.457 237.916 199.387 223.247 199.387 223.247L197.899 216.07L202.641 215.727Z" fill="#FFB8B8"/>
<path d="M183.558 166.52L186.568 165.518C186.568 165.518 191.251 166.854 191.92 171.533C192.589 176.212 197.606 199.939 197.606 199.939C197.606 199.939 199.613 200.942 198.275 202.613C196.937 204.284 204.964 219.323 204.964 219.323L198.609 222.33C198.609 222.33 185.899 208.963 185.899 207.626C185.899 206.289 186.233 204.952 186.233 203.616C186.233 202.279 185.899 202.279 186.233 201.276C186.457 200.403 186.569 199.504 186.568 198.603L184.227 193.256L183.558 166.52Z" fill="#FF7B30"/>
<path d="M30.243 189.446C46.9457 189.446 60.4859 161.842 60.4859 127.791C60.4859 93.7405 46.9457 66.1367 30.243 66.1367C13.5402 66.1367 0 93.7405 0 127.791C0 161.842 13.5402 189.446 30.243 189.446Z" fill="#E6E6E6"/>
<path d="M29.9644 128.429C31.473 101.592 34.5126 83.4635 34.5431 83.2835L33.8836 83.1719C33.8531 83.352 30.8081 101.509 29.2971 128.382C27.9027 153.183 27.5662 190.697 33.8835 228.568L34.5433 228.458C28.2368 190.652 28.5724 153.195 29.9644 128.429Z" fill="#3F3D56"/>
<path d="M57.277 115.287L29.9326 129.91L30.2483 130.499L57.5927 115.877L57.277 115.287Z" fill="#3F3D56"/>
<path d="M1.37584 122.616L1.0603 123.205L28.4086 137.821L28.7241 137.231L1.37584 122.616Z" fill="#3F3D56"/>
<path d="M101.875 175.052C124.731 175.052 143.26 137.278 143.26 90.6822C143.26 44.0861 124.731 6.3125 101.875 6.3125C79.0187 6.3125 60.49 44.0861 60.49 90.6822C60.49 137.278 79.0187 175.052 101.875 175.052Z" fill="#E6E6E6"/>
<path d="M101.365 91.5467C103.429 54.8152 107.59 30.0045 107.631 29.7581L106.972 29.6465C106.93 29.893 102.764 54.7328 100.697 91.4989C98.7892 125.432 98.3289 176.757 106.972 228.569L107.631 228.459C98.9995 176.712 99.4591 125.443 101.365 91.5467Z" fill="#3F3D56"/>
<path d="M138.92 73.681L101.501 93.6914L101.817 94.2807L139.236 74.2703L138.92 73.681Z" fill="#3F3D56"/>
<path d="M62.3097 83.7094L61.9941 84.2988L99.4182 104.299L99.7338 103.71L62.3097 83.7094Z" fill="#3F3D56"/>
<path d="M67.3969 207.928C75.9366 207.928 82.8594 193.815 82.8594 176.406C82.8594 158.996 75.9366 144.883 67.3969 144.883C58.8571 144.883 51.9343 158.996 51.9343 176.406C51.9343 193.815 58.8571 207.928 67.3969 207.928Z" fill="#E6E6E6"/>
<path d="M67.3848 177.764L67.4763 177.935L81.4569 170.458L81.1413 169.869L67.4139 177.21C68.1736 163.241 69.7273 153.863 69.7586 153.678L69.0991 153.566C69.0649 153.768 67.2189 164.904 66.5637 181.019L52.7184 173.614L52.4028 174.204L66.3834 181.68L66.5503 181.369C66.0261 194.669 66.3199 211.299 69.0989 227.958L69.7587 227.849C66.7288 209.685 66.6621 191.555 67.3848 177.764Z" fill="#3F3D56"/>
<path d="M187.658 134.798C182.281 125.643 171.644 125.216 171.644 125.216C171.644 125.216 161.279 123.88 154.63 137.824C148.432 150.821 139.879 163.369 153.253 166.412L155.669 158.834L157.165 166.976C159.069 167.114 160.979 167.147 162.887 167.074C177.209 166.608 190.849 167.211 190.41 162.031C189.826 155.146 192.831 143.607 187.658 134.798Z" fill="#2F2E41"/>
<path d="M150.176 208.131C150.026 209.088 149.808 210.033 149.524 210.96C149.204 211.866 148.71 212.704 148.418 213.62C147.486 216.539 148.778 219.793 150.842 222.046C152.626 223.989 154.937 225.372 157.494 226.027C159.356 226.498 161.292 226.566 163.21 226.632C168.523 226.814 173.973 226.976 179.008 225.255C180.599 224.698 182.136 223.994 183.597 223.154C184.06 222.932 184.467 222.609 184.788 222.209C185.172 221.658 185.221 220.944 185.218 220.27C185.207 218 184.75 215.742 184.858 213.475C184.918 212.219 185.152 210.964 185.037 209.712C184.882 208.295 184.294 206.96 183.352 205.89C182.41 204.82 181.16 204.067 179.773 203.733C178.345 203.424 176.863 203.592 175.409 203.733C171.635 204.098 167.845 204.269 164.053 204.245C160.179 204.22 156.329 203.624 152.475 203.562C151.335 203.543 151.358 203.897 150.995 205.009C150.66 206.033 150.387 207.075 150.176 208.131Z" fill="#2F2E41"/>
<path d="M135.026 206.286C133.985 206.022 132.911 205.907 131.837 205.944C130.709 206.015 129.608 206.323 128.606 206.848C127.604 207.373 126.725 208.103 126.024 208.99C125.331 209.891 124.833 210.925 124.561 212.029C124.29 213.132 124.252 214.28 124.449 215.399C124.709 216.611 125.134 217.782 125.712 218.878C126.558 220.608 127.572 222.333 129.138 223.442C130.08 224.051 131.096 224.538 132.161 224.892L140.406 228.022C141.618 228.483 142.832 228.943 144.057 229.37C150.207 231.513 156.624 232.799 163.126 233.191C165.106 233.31 167.116 233.343 169.047 232.888C169.519 232.826 169.951 232.591 170.26 232.228C170.417 231.952 170.51 231.644 170.531 231.326L171.038 227.747C171.152 227.248 171.137 226.729 170.995 226.238C170.762 225.636 170.18 225.258 169.624 224.936C164.204 221.799 157.875 220.068 153.312 215.762C152.238 214.748 151.339 213.141 150.034 212.452C148.554 211.672 146.812 211.226 145.282 210.506C141.938 208.933 138.65 207.126 135.026 206.286Z" fill="#2F2E41"/>
<path opacity="0.1" d="M143.263 211.112C146.177 212.032 158.481 218.408 160.59 220.634C160.307 220.736 150.716 215.32 150.428 215.232C147.812 214.441 145.182 213.645 142.697 212.487C142.198 212.254 139.45 211.159 139.575 210.523C139.715 209.806 142.745 210.948 143.263 211.112Z" fill="black"/>
<path d="M179.621 235.047C179.786 235.059 179.951 235.01 180.083 234.91C180.141 234.834 180.184 234.748 180.208 234.656C180.233 234.564 180.239 234.468 180.227 234.374L180.214 229.498C178.822 228.829 177.266 228.615 175.738 228.409L168.61 227.449C168.773 227.471 167.495 230.543 167.691 230.953C168.037 231.676 170.677 232.317 171.422 232.658C174.012 233.845 176.703 235.149 179.621 235.047Z" fill="#FFB8B8"/>
<path d="M157.254 229.481C155.908 229.697 154.405 229.888 153.534 230.944C152.429 232.283 152.899 234.279 153.426 235.937C153.504 236.272 153.662 236.584 153.885 236.846C154.245 237.204 154.796 237.256 155.301 237.288C156.528 237.367 157.834 237.428 158.907 236.821C159.393 236.498 159.86 236.147 160.307 235.772C161.097 235.242 161.967 234.842 162.883 234.585C164.565 234.052 166.297 233.692 168.053 233.512C168.745 233.48 169.429 233.358 170.089 233.15C170.42 233.042 170.722 232.859 170.971 232.616C171.219 232.372 171.409 232.075 171.524 231.746C171.772 230.86 171.261 229.957 170.771 229.18C170.16 228.211 169.513 227.192 168.603 226.479C167.275 225.44 166.618 226.238 165.28 226.903C162.75 228.162 160.044 229.031 157.254 229.481Z" fill="#FFB8B8"/>
<path d="M153.738 230.704L145.193 228.158C144.168 227.799 143.097 227.589 142.012 227.537C140.929 227.538 139.795 227.896 139.092 228.727C138.429 229.511 138.239 230.582 138.074 231.599L137.721 233.772C137.485 234.868 137.418 235.994 137.523 237.11C137.685 238.218 138.246 239.324 139.221 239.86C140.403 240.511 141.853 240.193 143.172 239.921C145.838 239.372 148.55 239.079 151.271 239.046C152.294 239.034 153.367 239.046 154.27 238.564C155.345 237.99 155.988 236.776 156.098 235.556C156.266 233.699 155.652 231.274 153.738 230.704Z" fill="#2F2E41"/>
<path d="M182.98 228.485C184.088 228.289 185.066 227.655 186.127 227.28C187.621 226.753 189.24 226.753 190.824 226.759C191.405 226.761 192.024 226.774 192.507 227.099C193.205 227.567 193.383 228.503 193.502 229.339L194.217 234.381C194.352 235.329 194.486 236.303 194.276 237.238C194.066 238.172 193.434 239.073 192.514 239.314C191.396 239.607 190.301 238.887 189.246 238.415C186.609 237.234 183.543 237.536 180.793 236.653C180.283 236.489 179.736 236.238 179.528 235.741C179.434 235.461 179.401 235.164 179.43 234.87C179.477 233.249 179.138 231.036 179.622 229.487C180.057 228.094 181.743 228.485 182.98 228.485Z" fill="#2F2E41"/>
<path d="M201.065 204.256C202.772 203.824 204.543 203.702 206.293 203.896C207.69 204.051 209.13 204.443 210.151 205.418C211.393 206.604 211.792 208.439 211.825 210.164C211.881 213.594 210.752 216.938 208.627 219.633C208.11 220.312 207.494 220.91 206.799 221.406C206.051 221.878 205.253 222.265 204.42 222.562L185.956 229.901C181.098 231.832 176.224 233.769 171.157 235.042C171.018 235.109 170.867 235.147 170.713 235.155C170.559 235.163 170.405 235.14 170.26 235.087C170.116 235.034 169.983 234.952 169.87 234.847C169.758 234.742 169.667 234.615 169.605 234.475C167.986 232.144 166.629 229.642 165.558 227.014C165.51 226.93 165.48 226.837 165.471 226.74C165.462 226.644 165.474 226.547 165.506 226.455C165.573 226.354 165.668 226.273 165.778 226.221L178.838 218.659C179.797 218.155 180.69 217.535 181.497 216.813C182.062 216.261 182.524 215.613 182.861 214.899C183.132 214.329 183.157 212.984 183.503 212.563C183.842 212.15 185 212.118 185.535 211.955C186.289 211.722 187.028 211.441 187.746 211.113C190.668 209.796 193.269 207.882 196.07 206.34C197.639 205.435 199.318 204.735 201.065 204.256Z" fill="#2F2E41"/>
<path opacity="0.1" d="M193.655 209.904C191.411 211.602 188.506 213.164 186.282 214.907C185.523 215.502 172.871 222.67 172.692 223.622C174.767 223.974 187.983 214.657 189.874 213.727C191.765 212.797 193.441 211.486 195.102 210.185C195.525 209.853 197.319 208.856 196.104 208.486C195.419 208.277 194.16 209.565 193.655 209.904Z" fill="black"/>
<path d="M171.184 157.832C178.204 157.832 183.894 152.147 183.894 145.133C183.894 138.119 178.204 132.434 171.184 132.434C164.164 132.434 158.474 138.119 158.474 145.133C158.474 152.147 164.164 157.832 171.184 157.832Z" fill="#FFB8B8"/>
<path d="M176.54 155.827C176.54 155.827 174.533 160.84 178.213 162.845C181.892 164.85 166.84 180.892 166.84 180.892L160.151 161.508C160.151 161.508 165.837 159.503 164.833 154.156L176.54 155.827Z" fill="#FFB8B8"/>
<path d="M167.707 169.71L168 170.466L168.544 169.865L176.388 161.214L186.726 166.487L185.075 205.423L182.539 208.273L182.534 208.277C182.515 208.294 182.484 208.32 182.443 208.353C182.361 208.42 182.236 208.52 182.069 208.644C181.736 208.893 181.237 209.243 180.583 209.638C179.276 210.429 177.35 211.402 174.891 212.119C169.992 213.546 162.95 213.968 154.401 209.879C154.397 209.875 154.392 209.871 154.388 209.867C154.347 209.831 154.286 209.777 154.208 209.704C154.051 209.559 153.825 209.34 153.553 209.054C153.01 208.48 152.287 207.636 151.574 206.558C150.147 204.399 148.778 201.328 148.939 197.623C149.107 193.762 148.941 191.55 148.723 190.29C148.614 189.659 148.491 189.255 148.384 188.998C148.343 188.9 148.304 188.821 148.269 188.759L147.941 162.254L163.635 159.177L167.707 169.71Z" fill="#FF7B30" stroke="#FF7B30"/>
<path d="M131.033 212.051L128.968 218.408C128.968 218.408 119.022 228.675 122.619 231.458C126.216 234.24 134.287 219.571 134.287 219.571L135.774 212.394L131.033 212.051Z" fill="#FFB8B8"/>
<path d="M150.112 162.844L147.102 161.842C147.102 161.842 142.419 163.179 141.75 167.857C141.081 172.536 136.064 196.264 136.064 196.264C136.064 196.264 134.057 197.266 135.395 198.937C136.733 200.608 128.706 215.647 128.706 215.647L135.061 218.655C135.061 218.655 147.771 205.287 147.771 203.95C147.771 202.613 147.436 201.277 147.436 199.94C147.436 198.603 147.771 198.603 147.436 197.6C147.213 196.727 147.101 195.829 147.102 194.927L149.443 189.58L150.112 162.844Z" fill="#FF7B30"/>
<path d="M185.273 133.914L174.764 128.367L160.252 130.636L157.249 144.001L164.724 143.711L166.811 138.801V143.63L170.26 143.496L172.262 135.68L173.513 144.001L185.773 143.749L185.273 133.914Z" fill="#2F2E41"/>
<path d="M110.781 219.889V239.165H51.8521C51.8523 234.053 53.885 229.15 57.5031 225.535C61.1211 221.92 66.0282 219.889 71.1449 219.889C76.6705 218.168 83.0591 217.62 89.9895 217.8C96.5286 217.967 103.549 218.786 110.781 219.889Z" fill="#FFBECB"/>
<path d="M102.365 234.959H130.075C130.54 234.959 130.987 235.144 131.316 235.472C131.644 235.801 131.829 236.247 131.829 236.711C131.829 237.176 131.644 237.622 131.316 237.95C130.987 238.279 130.54 238.464 130.075 238.464H102.365V234.959Z" fill="#3F3D56"/>
<path d="M107.164 203.391L114.592 194.395C114.763 194.038 115.039 193.742 115.383 193.546C115.727 193.349 116.122 193.262 116.517 193.296C116.911 193.33 117.286 193.483 117.591 193.735C117.897 193.987 118.118 194.326 118.226 194.706L121.155 205.039L107.164 203.391Z" fill="#3F3D56"/>
<path d="M98.1565 207.973L100.963 196.653C100.963 196.257 101.083 195.871 101.308 195.546C101.533 195.22 101.852 194.971 102.223 194.831C102.593 194.691 102.997 194.667 103.382 194.762C103.766 194.858 104.112 195.068 104.374 195.364L111.486 203.417L98.1565 207.973Z" fill="#FFBECB"/>
<path d="M51.8521 239.166H57.4644V251.082C57.4644 251.818 57.3192 252.547 57.0372 253.228C56.7551 253.908 56.3417 254.526 55.8206 255.047C55.2994 255.568 54.6807 255.981 53.9998 256.263C53.3189 256.544 52.5891 256.689 51.8521 256.689V239.166Z" fill="#FFBECB"/>
<path d="M101.312 235.66H129.023C129.488 235.66 129.935 235.845 130.264 236.173C130.592 236.502 130.777 236.948 130.777 237.412C130.777 237.877 130.592 238.323 130.264 238.652C129.935 238.98 129.488 239.165 129.023 239.165H101.312V235.66Z" fill="#FFBECB"/>
<path opacity="0.2" d="M110.78 219.888V239.057C107.933 239.359 105.054 239.013 102.36 238.044C99.6667 237.075 97.2278 235.509 95.2269 233.463C93.2259 231.417 91.7151 228.945 90.8077 226.232C89.9004 223.519 89.6202 220.636 89.9883 217.799C96.5273 217.966 103.548 218.785 110.78 219.888Z" fill="black"/>
<path d="M110.778 239.165C121.239 239.165 129.72 230.692 129.72 220.24C129.72 209.788 121.239 201.314 110.778 201.314C100.317 201.314 91.8364 209.788 91.8364 220.24C91.8364 230.692 100.317 239.165 110.778 239.165Z" fill="#FFBECB"/>
<path d="M129.019 226.547C130.181 226.547 131.123 224.351 131.123 221.641C131.123 218.931 130.181 216.734 129.019 216.734C127.856 216.734 126.914 218.931 126.914 221.641C126.914 224.351 127.856 226.547 129.019 226.547Z" fill="#3F3D56"/>
<path d="M123.939 217.787C124.23 217.787 124.465 217.238 124.465 216.561C124.465 215.883 124.23 215.334 123.939 215.334C123.648 215.334 123.413 215.883 123.413 216.561C123.413 217.238 123.648 217.787 123.939 217.787Z" fill="#3F3D56"/>
<path d="M127.793 215.334C128.084 215.334 128.32 214.785 128.32 214.108C128.32 213.43 128.084 212.881 127.793 212.881C127.503 212.881 127.267 213.43 127.267 214.108C127.267 214.785 127.503 215.334 127.793 215.334Z" fill="#3F3D56"/>
<path d="M109.195 201.104C109.195 201.104 108.142 199.274 108.142 198.158L109.195 201.104Z" fill="#3F3D56"/>
<path d="M109.655 199.921C109.655 199.921 110.228 197.89 111.027 197.109L109.655 199.921Z" fill="#3F3D56"/>
</g>
<defs>
<clipPath id="clip0_2949_9643">
<rect width="263" height="263" fill="white"/>
</clipPath>
</defs>
</svg>
