<svg width="463" height="263" viewBox="0 0 463 263" fill="none" xmlns="http://www.w3.org/2000/svg">
<g clip-path="url(#clip0_2551_13771)">
<path d="M75.9443 119.582V45.6703C75.9443 44.6148 76.3652 43.6025 77.1143 42.8561C77.8634 42.1097 78.8794 41.6904 79.9388 41.6904C80.9982 41.6904 82.0141 42.1097 82.7632 42.8561C83.5123 43.6025 83.9332 44.6148 83.9332 45.6703V119.582C83.9332 120.638 83.5123 121.65 82.7632 122.396C82.0141 123.143 80.9982 123.562 79.9388 123.562C78.8794 123.562 77.8634 123.143 77.1143 122.396C76.3652 121.65 75.9443 120.638 75.9443 119.582Z" fill="#F0F0F0"/>
<path d="M66.3862 119.582V45.6703C66.3862 44.6148 66.8071 43.6025 67.5562 42.8561C68.3053 42.1097 69.3213 41.6904 70.3807 41.6904C71.44 41.6904 72.456 42.1097 73.2051 42.8561C73.9542 43.6025 74.3751 44.6148 74.3751 45.6703V119.582C74.3751 120.638 73.9542 121.65 73.2051 122.396C72.456 123.143 71.44 123.562 70.3807 123.562C69.3213 123.562 68.3053 123.143 67.5562 122.396C66.8071 121.65 66.3862 120.638 66.3862 119.582Z" fill="#F0F0F0"/>
<path d="M56.8281 119.582V45.6703C56.8281 44.6148 57.249 43.6025 57.9981 42.8561C58.7472 42.1097 59.7632 41.6904 60.8226 41.6904C61.8819 41.6904 62.8979 42.1097 63.647 42.8561C64.3961 43.6025 64.817 44.6148 64.817 45.6703V119.582C64.817 120.638 64.3961 121.65 63.647 122.396C62.8979 123.143 61.8819 123.562 60.8226 123.562C59.7632 123.562 58.7472 123.143 57.9981 122.396C57.249 121.65 56.8281 120.638 56.8281 119.582Z" fill="#F0F0F0"/>
<path d="M417.698 237.634C416.09 237.636 414.493 237.359 412.979 236.818L412.746 236.734L412.853 236.22C410.141 230.761 411.089 223.283 415.28 217.135C419.09 211.545 424.883 207.482 429.994 203.897C430.643 203.442 431.413 203.191 432.206 203.176C432.999 203.16 433.779 203.382 434.444 203.812C435.11 204.241 435.631 204.86 435.941 205.587C436.251 206.314 436.336 207.117 436.184 207.893L434.357 217.236C433.038 223.977 431.468 230.357 426.815 234.335C424.258 236.466 421.032 237.634 417.698 237.634Z" fill="#E6E6E6"/>
<path d="M429.668 253.78C427.898 253.77 426.158 253.319 424.607 252.468C423.057 251.618 421.743 250.395 420.787 248.91L420.655 248.705L420.971 248.427C421.788 243.982 425.634 240.022 430.799 238.318C435.492 236.77 440.674 237.023 445.242 237.246C445.846 237.275 446.427 237.482 446.913 237.841C447.398 238.2 447.766 238.695 447.969 239.262C448.172 239.829 448.201 240.443 448.054 241.027C447.906 241.611 447.587 242.138 447.138 242.542L441.998 247.165C438.263 250.523 434.538 253.556 430.044 253.773C429.919 253.778 429.793 253.78 429.668 253.78Z" fill="#E6E6E6"/>
<path d="M413.716 258.722C412.957 253.091 412.177 247.387 412.709 241.695C413.182 236.639 414.696 231.702 417.779 227.653C419.407 225.516 421.398 223.678 423.662 222.223C424.25 221.845 424.792 222.795 424.206 223.171C420.282 225.709 417.264 229.419 415.583 233.769C413.705 238.633 413.404 243.935 413.727 249.102C413.923 252.226 414.338 255.33 414.756 258.43C414.789 258.57 414.769 258.716 414.699 258.841C414.63 258.966 414.515 259.061 414.379 259.106C414.31 259.124 414.239 259.129 414.168 259.119C414.097 259.11 414.029 259.087 413.968 259.051C413.906 259.016 413.852 258.968 413.809 258.912C413.766 258.855 413.734 258.791 413.716 258.722V258.722Z" fill="#F2F2F2"/>
<path d="M411.571 261.959C415.224 255.374 419.462 248.056 427.034 245.717C429.137 245.07 431.346 244.837 433.538 245.033C434.229 245.094 434.057 246.178 433.367 246.118C429.685 245.81 426.012 246.799 422.988 248.915C420.061 250.944 417.782 253.765 415.854 256.756C414.672 258.589 413.614 260.499 412.556 262.406C412.217 263.016 411.229 262.576 411.571 261.959H411.571Z" fill="#F2F2F2"/>
<path d="M409.927 261.863L413.616 261.947L391.373 143.553L387.684 144.245L393.492 174.958H374.779L380.587 144.245L376.898 143.553L354.841 261.947L358.344 261.863L369.941 200.543H398.33L409.927 261.863ZM370.801 195.995L373.919 179.507H394.352L397.47 195.995H370.801Z" fill="#CACACA"/>
<path d="M248.846 121.468V82.5877C248.846 81.4333 250.638 80.4941 252.84 80.4941C255.043 80.4941 256.835 81.4333 256.835 82.5877V121.468C256.835 122.623 255.043 123.562 252.84 123.562C250.638 123.562 248.846 122.623 248.846 121.468Z" fill="#F0F0F0"/>
<path d="M239.288 121.468V82.5877C239.288 81.4333 241.079 80.4941 243.282 80.4941C245.485 80.4941 247.276 81.4333 247.276 82.5877V121.468C247.276 122.623 245.485 123.562 243.282 123.562C241.079 123.562 239.288 122.623 239.288 121.468Z" fill="#F0F0F0"/>
<path d="M229.729 121.468V82.5877C229.729 81.4333 231.521 80.4941 233.724 80.4941C235.926 80.4941 237.718 81.4333 237.718 82.5877V121.468C237.718 122.623 235.926 123.562 233.724 123.562C231.521 123.562 229.729 122.623 229.729 121.468Z" fill="#F0F0F0"/>
<path d="M310.14 92.8751C310.122 92.7569 310.079 92.6438 310.015 92.5431C309.95 92.4424 309.865 92.3563 309.765 92.2904L279.651 72.4827C280.105 72.294 280.485 71.9627 280.732 71.5393H280.732C281.033 71.0166 281.114 70.3964 280.958 69.8143C280.801 69.2323 280.42 68.7356 279.897 68.4327L277.426 67.0113C276.901 66.7115 276.279 66.6308 275.695 66.7868C275.11 66.9428 274.612 67.3227 274.308 67.8438C274.144 68.1301 274.045 68.449 274.019 68.7778L252.281 54.4796C251.551 52.718 250.444 51.1362 249.038 49.8444C247.632 48.5525 245.959 47.5817 244.138 46.9996V40.6953H236.149V46.9996C233.499 47.8441 231.186 49.5059 229.545 51.745C227.904 53.9842 227.019 56.685 227.019 59.4576V61.1632H235.008C235.008 62.5203 235.549 63.8219 236.512 64.7815C237.475 65.7411 238.782 66.2802 240.144 66.2802C241.506 66.2802 242.812 65.7411 243.775 64.7815C244.738 63.8219 245.279 62.5203 245.279 61.1632H253.268V59.4576C253.267 58.6399 253.19 57.8241 253.037 57.0208L308.029 93.1921L285.185 120.864C285.008 120.863 284.832 120.861 284.653 120.861C282.83 120.861 281.064 120.904 279.382 120.978C279.483 120.697 279.528 120.399 279.512 120.1C279.479 119.499 279.208 118.935 278.759 118.531C278.309 118.128 277.718 117.918 277.114 117.948L274.265 118.096C273.661 118.129 273.095 118.399 272.69 118.846C272.285 119.294 272.074 119.883 272.104 120.485C272.125 120.841 272.231 121.186 272.413 121.493C267.375 122.026 264.11 122.761 264.11 123.136C264.11 123.749 272.877 123.165 283.85 123.137C283.9 123.279 283.987 123.405 284.103 123.503C284.218 123.6 284.358 123.665 284.507 123.691C284.656 123.717 284.809 123.703 284.951 123.651C285.093 123.599 285.218 123.51 285.314 123.393L285.525 123.137C296.466 123.167 305.196 123.747 305.196 123.136C305.196 122.559 297.434 121.124 287.377 120.894L309.955 93.5439C310.031 93.4515 310.087 93.3443 310.118 93.229C310.15 93.1138 310.158 92.9933 310.14 92.8751Z" fill="#CCCCCC"/>
<path d="M310.964 262.147H240.653C239.232 262.145 237.869 261.582 236.865 260.581C235.86 259.58 235.295 258.223 235.293 256.807V141.836C235.292 140.571 234.787 139.359 233.889 138.464C232.991 137.57 231.774 137.067 230.505 137.065H66.0393C64.7697 137.067 63.5525 137.57 62.6548 138.464C61.757 139.359 61.252 140.571 61.2505 141.836V256.807C61.2489 258.223 60.6837 259.58 59.679 260.581C58.6743 261.582 57.312 262.145 55.8911 262.147H53.4854C52.0645 262.145 50.7022 261.582 49.6975 260.581C48.6927 259.58 48.1276 258.223 48.126 256.807V135.644C48.1298 132.252 49.4837 129.001 51.8907 126.603C54.2977 124.204 57.5612 122.855 60.9652 122.852H303.484C306.888 122.855 310.151 124.204 312.558 126.603C314.965 129.001 316.319 132.252 316.323 135.644V256.807C316.322 258.223 315.756 259.58 314.752 260.581C313.747 261.582 312.385 262.145 310.964 262.147Z" fill="#E4E4E4"/>
<path d="M316.038 152.7H235.579V156.112H316.038V152.7Z" fill="white"/>
<path d="M316.038 198.754H235.579V202.165H316.038V198.754Z" fill="white"/>
<path d="M168.976 122.29L166.664 121.32L165.078 109.77H143.953L142.233 121.273L140.164 122.303C140.065 122.352 139.986 122.434 139.939 122.534C139.892 122.633 139.881 122.746 139.906 122.853C139.931 122.961 139.992 123.056 140.079 123.125C140.166 123.193 140.273 123.23 140.384 123.23H168.786C168.899 123.23 169.009 123.191 169.097 123.12C169.185 123.048 169.245 122.949 169.267 122.838C169.29 122.727 169.273 122.612 169.22 122.512C169.167 122.412 169.081 122.334 168.976 122.29Z" fill="#E6E6E6"/>
<path d="M206.517 111.307H102.745C102.201 111.306 101.679 111.089 101.294 110.705C100.91 110.321 100.694 109.801 100.694 109.259V94.6787H208.568V109.259C208.568 109.801 208.352 110.321 207.967 110.705C207.583 111.089 207.061 111.306 206.517 111.307Z" fill="#CCCCCC"/>
<path d="M208.677 101.569H100.599V39.1851C100.6 38.5305 100.861 37.9028 101.326 37.4399C101.791 36.9769 102.42 36.7166 103.078 36.7158H206.198C206.855 36.7166 207.485 36.9769 207.95 37.4399C208.414 37.9028 208.676 38.5305 208.677 39.1851V101.569Z" fill="#3F3D56"/>
<path d="M202.222 97.041H107.054C106.548 97.0404 106.062 96.8397 105.704 96.4828C105.346 96.1259 105.144 95.642 105.144 95.1373V43.147C105.144 42.6422 105.346 42.1583 105.704 41.8014C106.062 41.4445 106.548 41.2437 107.054 41.2432H202.222C202.728 41.2437 203.214 41.4445 203.572 41.8014C203.93 42.1583 204.132 42.6422 204.132 43.147V95.1373C204.132 95.642 203.93 96.1259 203.572 96.4828C203.214 96.8397 202.728 97.0404 202.222 97.041Z" fill="white"/>
<path d="M308.906 47.2115C309.816 47.0808 310.744 47.1506 311.625 47.4159C312.505 47.6813 313.316 48.1357 314.001 48.7472C314.686 49.3587 315.228 50.1124 315.59 50.9553C315.951 51.7982 316.122 52.7096 316.091 53.6255L336.956 61.6276L327.503 68.3571L309.138 59.7265C307.597 59.573 306.167 58.8617 305.117 57.7274C304.067 56.593 303.472 55.1145 303.443 53.5718C303.414 52.0292 303.955 50.5297 304.961 49.3575C305.968 48.1852 307.372 47.4217 308.906 47.2115V47.2115Z" fill="#9E616A"/>
<path d="M388.131 43.2842L391.661 49.6786C390.808 53.7343 388.603 57.3833 385.405 60.0324C380.001 64.5737 351.743 81.4876 351.743 81.4876L316.068 63.6434L322.309 55.3805L350.317 64.7327C360.707 54.9575 373.245 47.7357 386.931 43.643L388.131 43.2842Z" fill="#E4E4E4"/>
<path d="M381.567 149.094C396.944 149.094 409.409 145.048 409.409 140.055C409.409 135.063 396.944 131.017 381.567 131.017C366.191 131.017 353.726 135.063 353.726 140.055C353.726 145.048 366.191 149.094 381.567 149.094Z" fill="#CACACA"/>
<path d="M319.107 254.203L311.714 252.167L316.079 222.785L326.99 225.791L319.107 254.203Z" fill="#9E616A"/>
<path d="M319.012 261.863L295.173 255.297L295.257 254.997C295.937 252.545 297.567 250.463 299.788 249.209C302.009 247.954 304.639 247.63 307.1 248.307L307.1 248.308L321.66 252.318L319.012 261.863Z" fill="#2F2E41"/>
<path d="M297.672 254.298L290.655 251.211L299.267 222.776L309.623 227.332L297.672 254.298Z" fill="#9E616A"/>
<path d="M296.458 261.863L273.833 251.909L273.96 251.623C274.991 249.296 276.908 247.473 279.289 246.554C281.669 245.635 284.319 245.696 286.654 246.723L286.655 246.724L300.474 252.803L296.458 261.863Z" fill="#2F2E41"/>
<path d="M403.235 117.956C403.235 117.956 406.954 129.437 384.135 143.956L354.747 173.134L324.211 245.912L306.083 237.814L309.638 228.358L312.024 222.013L313.245 218.766L314.553 215.286L333.961 163.669L350.264 135.228L350.737 119.796L354.747 108.917L383.84 98.6318L403.235 117.956Z" fill="#2F2E41"/>
<path d="M388.399 118.525C388.399 118.525 392.118 130.006 369.299 144.525L339.911 173.702L309.375 246.48L291.246 238.383L294.802 228.926L297.188 222.581L298.408 219.335L299.717 215.855L319.125 164.238L324.584 154.715C331.785 142.152 340.535 130.536 350.631 120.138L355.982 114.627L356.553 106.099L369.004 99.2002L388.399 118.525Z" fill="#2F2E41"/>
<path d="M370.818 62.3195L379.949 42.9887L395.881 40.8232C395.881 40.8232 408.323 56.616 405.056 78.8076C403.831 87.1295 402.833 95.4145 402.774 102.687C402.758 104.622 404.457 105.486 404.486 107.235C404.514 108.954 401.266 111.753 402.203 112.921C403.544 114.53 404.343 116.519 404.486 118.606C403.355 121.288 369.132 106.761 354.747 108.917L370.818 62.3195Z" fill="#E4E4E4"/>
<path d="M393.449 31.0911C397.516 24.2745 395.266 15.4637 388.425 11.4116C381.583 7.35956 372.74 9.60064 368.673 16.4172C364.606 23.2338 366.856 32.0446 373.697 36.0967C380.539 40.1488 389.382 37.9077 393.449 31.0911Z" fill="#9E616A"/>
<path d="M390.275 18.5991C390.247 18.9769 390.209 19.4773 390.165 20.0434C390.12 21.5931 390.558 23.1185 391.42 24.4098C392.226 25.7683 391.264 33.9733 391.264 33.9733C414.87 17.5783 396.217 1.107 388.921 2.57119C389.074 0.486235 383.123 1.3122 383.123 1.3122C380.856 -2.20591 375.886 2.46409 375.886 2.46409L376.845 0.856824C372.987 1.83458 369.174 13.7149 369.174 13.7149C370.482 18.8402 390.427 16.5141 390.275 18.5991Z" fill="#2F2E41"/>
<path d="M298.699 69.9241C306.811 59.1733 313.224 47.249 317.715 34.5651C317.975 33.8064 317.956 32.9804 317.662 32.234C317.369 31.4876 316.818 30.8693 316.11 30.4893L288.351 15.6698C287.902 15.4282 287.404 15.2919 286.894 15.2713C286.384 15.2507 285.876 15.3463 285.409 15.5508C284.933 15.7568 284.51 16.0684 284.173 16.4617C283.837 16.8549 283.594 17.3196 283.465 17.8203C280.234 30.0428 274.161 41.336 265.737 50.7861C265.39 51.1707 265.136 51.6291 264.994 52.1264C264.852 52.6237 264.825 53.1468 264.917 53.6557C265.005 54.1566 265.206 54.6309 265.506 55.0425C265.805 55.4541 266.195 55.7921 266.646 56.0308L294.405 70.8504C295.115 71.2276 295.936 71.3415 296.722 71.1719C297.509 71.0023 298.209 70.5601 298.699 69.9241Z" fill="#CCCCCC"/>
<path d="M296.805 68.5055C296.656 68.6912 296.446 68.8191 296.212 68.8672C295.978 68.9154 295.735 68.8807 295.524 68.7691L267.765 53.9493C267.63 53.8793 267.514 53.7792 267.424 53.6567C267.335 53.5342 267.275 53.3928 267.25 53.2434C267.221 53.0858 267.229 52.9236 267.273 52.7696C267.318 52.6156 267.398 52.474 267.506 52.3558C276.179 42.6273 282.431 31.0014 285.757 18.4187C285.795 18.2633 285.869 18.1188 285.973 17.9966C286.077 17.8744 286.208 17.7778 286.356 17.7144C286.495 17.6525 286.646 17.6235 286.798 17.6297C286.95 17.636 287.099 17.6774 287.233 17.7505L314.991 32.5699C315.201 32.6831 315.365 32.8659 315.454 33.0868C315.544 33.3077 315.553 33.5527 315.48 33.7795C311.07 46.2363 304.772 57.9472 296.805 68.5055Z" fill="white"/>
<path d="M287.093 31.8309L296.666 37.4216L306.239 43.0122C308.144 44.1247 309.869 41.1773 307.967 40.0666L288.822 28.8853C286.917 27.7728 285.192 30.7202 287.093 31.8309Z" fill="#EF6B29"/>
<path d="M283.67 38.0848L302.816 49.2661C304.721 50.3786 306.446 47.4312 304.544 46.3205L285.398 35.1392C283.493 34.0268 281.768 36.9741 283.67 38.0848V38.0848Z" fill="#CCCCCC"/>
<path d="M279.675 44.9071L298.821 56.0884C300.726 57.2008 302.451 54.2535 300.549 53.1428L281.403 41.9615C279.498 40.849 277.773 43.7964 279.675 44.9071V44.9071Z" fill="#CCCCCC"/>
<path d="M275.681 50.5926L294.827 61.7739C296.732 62.8864 298.457 59.939 296.555 58.8283L277.409 47.647C275.504 46.5346 273.779 49.4819 275.681 50.5926V50.5926Z" fill="#CCCCCC"/>
<path d="M362.962 116.363L370.15 132.467C370.323 132.853 370.397 133.275 370.365 133.696C370.334 134.118 370.197 134.524 369.968 134.88C369.698 135.305 369.308 135.64 368.847 135.845C368.386 136.049 367.874 136.113 367.377 136.028C367.208 136.002 367.041 135.958 366.882 135.896C366.246 135.652 365.734 135.166 365.457 134.546L358.269 118.442C358.132 118.135 358.057 117.804 358.048 117.468C358.04 117.132 358.098 116.798 358.219 116.484C358.463 115.851 358.95 115.34 359.572 115.064C360.194 114.789 360.901 114.771 361.537 115.014C362.172 115.258 362.685 115.743 362.962 116.363Z" fill="#EF6B29"/>
<path d="M369.57 131.168L371.01 134.418L371.746 139.026C371.795 139.33 371.742 139.641 371.595 139.911C371.448 140.181 371.215 140.395 370.934 140.52C370.652 140.644 370.337 140.673 370.037 140.601C369.737 140.529 369.47 140.36 369.276 140.121L366.296 136.427L364.877 133.247L369.57 131.168Z" fill="#3F3D56"/>
<path d="M356.672 111.882L357.702 118.329C357.736 118.54 357.818 118.741 357.942 118.916C358.065 119.09 358.228 119.234 358.416 119.336C358.605 119.438 358.815 119.495 359.029 119.504C359.243 119.512 359.457 119.471 359.653 119.384L360.674 118.932L362.645 123.348C362.706 123.485 362.82 123.593 362.961 123.647C363.103 123.701 363.259 123.697 363.398 123.635C363.536 123.574 363.644 123.461 363.698 123.32C363.753 123.18 363.749 123.023 363.688 122.886L361.717 118.47L362.738 118.017C363.076 117.867 363.341 117.589 363.475 117.245C363.608 116.901 363.599 116.518 363.45 116.18C363.4 116.068 363.336 115.963 363.258 115.868L359.143 110.787C358.949 110.548 358.682 110.379 358.382 110.307C358.082 110.235 357.767 110.264 357.485 110.389C357.204 110.514 356.971 110.728 356.824 110.998C356.677 111.268 356.623 111.579 356.672 111.882Z" fill="#3F3D56"/>
<path d="M359.654 123.519C359.816 122.617 360.174 121.761 360.704 121.012C361.234 120.263 361.922 119.639 362.72 119.183C363.518 118.728 364.407 118.452 365.324 118.376C366.24 118.3 367.162 118.425 368.025 118.742L382.215 101.527L385.651 112.585L371.65 127.238C371.018 128.646 369.891 129.776 368.48 130.412C367.069 131.047 365.473 131.145 363.994 130.687C362.515 130.229 361.257 129.246 360.457 127.925C359.657 126.603 359.371 125.036 359.654 123.519Z" fill="#9E616A"/>
<path d="M377.517 122.4L371.268 113.406L389.014 89.8309L379.872 70.3125L380.537 47.0955L388.092 45.7051L388.186 45.7519C391.858 47.8583 394.697 51.1531 396.231 55.0891C398.116 59.7833 402.323 77.4051 404.663 87.4911C405.122 89.4456 405.072 91.4849 404.517 93.4146C403.961 95.3443 402.919 97.1001 401.49 98.5149L377.517 122.4Z" fill="#E4E4E4"/>
<path d="M201.555 78.9408C201.503 79.3776 201.486 79.8178 201.503 80.2574L169.506 103.451L160.716 99.5748L153.111 112.028L168.003 120.397C169.206 121.073 170.597 121.342 171.967 121.163C173.336 120.985 174.611 120.368 175.599 119.407L207.803 88.0663C209.451 88.4836 211.188 88.391 212.782 87.8008C214.377 87.2107 215.753 86.1508 216.728 84.7624C217.703 83.3739 218.23 81.7226 218.241 80.028C218.251 78.3335 217.743 76.676 216.784 75.2761C215.826 73.8762 214.462 72.8002 212.875 72.1913C211.288 71.5823 209.552 71.4692 207.899 71.867C206.246 72.2648 204.753 73.1547 203.62 74.4183C202.487 75.6819 201.767 77.2593 201.555 78.9407V78.9408Z" fill="#FFB6B6"/>
<path d="M168.472 104.299L159.141 119.791C158.875 120.232 158.518 120.611 158.092 120.901C157.666 121.192 157.183 121.388 156.675 121.475C156.166 121.563 155.645 121.54 155.146 121.409C154.647 121.278 154.182 121.041 153.784 120.715L139.813 109.283C137.558 107.916 135.938 105.715 135.309 103.161C134.681 100.607 135.094 97.9082 136.459 95.6572C137.824 93.4062 140.029 91.7862 142.59 91.1523C145.152 90.5184 147.861 90.9224 150.125 92.2756L166.77 99.1546C167.246 99.3517 167.675 99.6489 168.025 100.026C168.376 100.403 168.642 100.85 168.803 101.339C168.965 101.827 169.019 102.344 168.961 102.855C168.904 103.366 168.737 103.859 168.472 104.299L168.472 104.299Z" fill="#EF6B29"/>
<path d="M128.492 238.953H146.782V208.754H128.492V238.953Z" fill="#CACACA"/>
<path d="M145.865 224.734L143.518 228.181L187.414 257.859L189.762 254.412L145.865 224.734Z" fill="#CACACA"/>
<path d="M129.408 224.734L85.5117 254.412L87.8592 257.859L131.756 228.181L129.408 224.734Z" fill="#CACACA"/>
<path d="M188.588 261.863C191.763 261.863 194.336 259.299 194.336 256.136C194.336 252.972 191.763 250.408 188.588 250.408C185.413 250.408 182.84 252.972 182.84 256.136C182.84 259.299 185.413 261.863 188.588 261.863Z" fill="#CACACA"/>
<path d="M137.376 261.863C140.55 261.863 143.124 259.299 143.124 256.136C143.124 252.972 140.55 250.408 137.376 250.408C134.201 250.408 131.627 252.972 131.627 256.136C131.627 259.299 134.201 261.863 137.376 261.863Z" fill="#CACACA"/>
<path d="M86.6853 261.863C89.8601 261.863 92.4337 259.299 92.4337 256.136C92.4337 252.972 89.8601 250.408 86.6853 250.408C83.5106 250.408 80.937 252.972 80.937 256.136C80.937 259.299 83.5106 261.863 86.6853 261.863Z" fill="#CACACA"/>
<path d="M139.466 226.457H135.285V256.135H139.466V226.457Z" fill="#CACACA"/>
<path d="M133.718 222.292H141.556V182.2H133.718V222.292Z" fill="#CACACA"/>
<path d="M115.166 188.448V179.076C115.168 177.35 115.857 175.696 117.081 174.476C118.306 173.256 119.966 172.569 121.698 172.567H156.711C158.443 172.569 160.103 173.256 161.328 174.476C162.552 175.696 163.241 177.35 163.243 179.076V188.448C163.241 190.173 162.552 191.828 161.328 193.048C160.103 194.268 158.443 194.954 156.711 194.956H121.698C119.966 194.954 118.306 194.268 117.081 193.048C115.857 191.828 115.168 190.173 115.166 188.448Z" fill="#3F3D56"/>
<path d="M178.403 252.511L188.085 252.511L192.693 227.488L178.402 227.489L178.403 252.511Z" fill="#FFB8B8"/>
<path d="M175.934 261.863L207.156 261.862V261.468C207.156 259.878 206.842 258.304 206.231 256.835C205.62 255.366 204.725 254.031 203.597 252.907C202.468 251.782 201.129 250.891 199.654 250.282C198.18 249.674 196.6 249.36 195.004 249.36H195.003L175.933 249.361L175.934 261.863Z" fill="#2F2E41"/>
<path d="M192.886 236.994L212.19 193.864C213.802 190.228 213.98 186.122 212.689 182.361C211.398 178.601 208.733 175.463 205.225 173.573L163.354 151.202L144.247 149.583L126.622 147.986L126.495 148.201C126.332 148.474 122.543 154.996 125.105 162.147C127.048 167.571 132.101 171.808 140.126 174.739C158.856 181.582 180.493 187.431 188.926 189.627C189.299 189.722 189.647 189.894 189.948 190.133C190.249 190.372 190.496 190.671 190.673 191.012C190.85 191.348 190.955 191.718 190.982 192.097C191.008 192.476 190.956 192.856 190.828 193.214L172.894 233.36C172.706 233.869 172.639 234.415 172.697 234.954C172.754 235.493 172.935 236.012 173.226 236.47C173.517 236.929 173.909 237.315 174.373 237.598C174.837 237.881 175.361 238.055 175.902 238.105L189.303 239.077C189.417 239.088 189.53 239.093 189.643 239.093C190.329 239.093 191.001 238.895 191.576 238.522C192.152 238.15 192.607 237.619 192.886 236.994Z" fill="#2F2E41"/>
<path d="M172.084 252.511L181.767 252.511L186.374 227.488L172.083 227.489L172.084 252.511Z" fill="#FFB8B8"/>
<path d="M169.615 261.863L200.837 261.862V261.468C200.837 259.878 200.523 258.304 199.912 256.835C199.302 255.366 198.407 254.031 197.278 252.907C196.15 251.782 194.81 250.891 193.336 250.282C191.861 249.674 190.281 249.36 188.685 249.36H188.684L169.615 249.361L169.615 261.863Z" fill="#2F2E41"/>
<path d="M185.777 239.355L205.081 196.224C206.693 192.589 206.871 188.482 205.581 184.722C204.29 180.962 201.625 177.824 198.116 175.934L156.245 153.563L137.138 151.943L123.334 150.75L123.336 150.562C123.173 150.835 119.384 157.357 121.945 164.508C123.888 169.932 124.993 174.168 133.017 177.1C151.748 183.943 173.385 189.791 181.818 191.988C182.191 192.083 182.539 192.255 182.84 192.494C183.141 192.733 183.388 193.032 183.564 193.373C183.741 193.709 183.847 194.079 183.873 194.458C183.9 194.837 183.847 195.217 183.719 195.575L165.785 235.721C165.598 236.23 165.53 236.775 165.588 237.315C165.646 237.854 165.827 238.373 166.118 238.831C166.408 239.29 166.801 239.675 167.265 239.959C167.729 240.242 168.252 240.416 168.794 240.466L182.195 241.438C182.308 241.449 182.422 241.454 182.534 241.454C183.221 241.454 183.892 241.255 184.468 240.883C185.043 240.51 185.498 239.98 185.777 239.355Z" fill="#2F2E41"/>
<path d="M173.668 53.5793C176.147 43.1943 169.707 32.7734 159.284 30.3037C148.861 27.834 138.402 34.2506 135.923 44.6357C133.444 55.0207 139.885 65.4416 150.308 67.9113C160.731 70.381 171.19 63.9644 173.668 53.5793Z" fill="#FFB8B8"/>
<path d="M221.664 123.368C229.776 112.618 236.188 100.693 240.679 88.0095C240.939 87.2508 240.921 86.4247 240.627 85.6783C240.333 84.9319 239.783 84.3137 239.075 83.9336L211.316 69.1141C210.867 68.8725 210.368 68.7363 209.858 68.7156C209.349 68.695 208.841 68.7906 208.373 68.9951C207.897 69.2012 207.475 69.5127 207.138 69.906C206.801 70.2993 206.559 70.764 206.429 71.2647C203.198 83.4872 197.125 94.7803 188.701 104.23C188.354 104.615 188.1 105.073 187.958 105.571C187.816 106.068 187.79 106.591 187.881 107.1C187.969 107.601 188.171 108.075 188.47 108.487C188.77 108.898 189.16 109.236 189.61 109.475L217.369 124.295C218.079 124.672 218.901 124.786 219.687 124.616C220.473 124.447 221.174 124.004 221.664 123.368Z" fill="#CCCCCC"/>
<path d="M219.77 121.95C219.62 122.136 219.411 122.263 219.177 122.312C218.943 122.36 218.699 122.325 218.488 122.213L190.73 107.394C190.595 107.324 190.478 107.223 190.389 107.101C190.299 106.979 190.24 106.837 190.214 106.688C190.185 106.53 190.193 106.368 190.238 106.214C190.283 106.06 190.362 105.918 190.471 105.8C199.143 96.0717 205.395 84.4458 208.721 71.8631C208.76 71.7076 208.834 71.5631 208.938 71.4409C209.042 71.3187 209.173 71.2222 209.32 71.1588C209.459 71.0968 209.611 71.0678 209.763 71.0741C209.915 71.0803 210.064 71.1217 210.197 71.1949L237.955 86.0142C238.166 86.1274 238.33 86.3103 238.419 86.5311C238.508 86.752 238.517 86.997 238.445 87.2239C234.034 99.6807 227.736 111.392 219.77 121.95Z" fill="white"/>
<path d="M210.058 85.2753L229.204 96.4565C231.109 97.569 232.834 94.6217 230.932 93.5109L211.786 82.3297C209.881 81.2172 208.156 84.1645 210.058 85.2752V85.2753Z" fill="#CCCCCC"/>
<path d="M206.634 91.5292L225.78 102.71C227.685 103.823 229.41 100.876 227.509 99.7649L208.363 88.5836C206.458 87.4711 204.733 90.4184 206.634 91.5292V91.5292Z" fill="#CCCCCC"/>
<path d="M203.944 97.7589L221.357 108.058C223.089 109.083 224.942 106.964 223.212 105.941L205.8 95.642C204.068 94.6173 202.215 96.7358 203.944 97.7589Z" fill="#CCCCCC"/>
<path d="M198.645 104.037L217.791 115.218C219.696 116.331 221.421 113.383 219.519 112.273L200.374 101.091C198.469 99.9789 196.744 102.926 198.645 104.037V104.037Z" fill="#CCCCCC"/>
<path d="M165.981 152.767L127.592 152.538L127.582 152.266C126.85 133.075 129.204 115.691 134.778 99.1205C134.857 98.5003 134.942 97.8374 135.026 97.1867C135.978 89.7733 136.734 83.8873 143.81 81.6952C143.22 80.9143 142.873 79.9787 142.81 79.0035C142.765 78.3554 142.851 77.705 143.061 77.0901C143.271 76.4751 143.602 75.908 144.034 75.4217C144.448 74.9521 144.951 74.5691 145.514 74.2951C146.078 74.0212 146.691 73.8617 147.317 73.826L160.981 73.3624C161.699 73.3575 162.397 73.5936 162.964 74.0325C164.005 74.8025 164.736 75.9163 165.027 77.1745C165.318 78.4327 165.15 79.7531 164.553 80.899C164.392 81.2183 164.33 81.3638 164.307 81.4271C164.793 83.9628 166.234 86.9749 167.759 90.1625C169.943 94.7264 172.418 99.8989 173.055 105.433C173.398 108.421 173.256 111.444 172.632 114.387C172.347 115.973 172.281 117.59 172.437 119.193C172.562 121.571 172.679 123.815 171.331 125.986C170.987 126.575 170.593 127.202 170.132 127.897L168.234 132.416L165.981 152.767Z" fill="#EF6B29"/>
<path d="M108.373 179.623V101.469C108.375 98.9223 109.392 96.4807 111.199 94.6799C113.007 92.8791 115.457 91.8661 118.013 91.8633H120.68C123.236 91.8661 125.686 92.8791 127.494 94.6799C129.301 96.4807 130.318 98.9223 130.321 101.469V179.623C130.318 182.17 129.301 184.612 127.494 186.412C125.686 188.213 123.236 189.226 120.68 189.229H118.013C115.457 189.226 113.007 188.213 111.199 186.412C109.392 184.612 108.375 182.17 108.373 179.623Z" fill="#3F3D56"/>
<path d="M211.317 109.27C211.041 109.613 210.793 109.978 210.575 110.361L171.112 113.232L165.699 105.316L152.643 111.894L160.858 126.834C161.521 128.041 162.56 129.001 163.818 129.569C165.076 130.138 166.485 130.285 167.833 129.988L211.789 120.306C212.968 121.527 214.492 122.362 216.159 122.699C217.826 123.037 219.556 122.86 221.12 122.194C222.683 121.527 224.006 120.402 224.912 118.968C225.819 117.534 226.265 115.859 226.193 114.166C226.121 112.473 225.533 110.842 224.507 109.49C223.482 108.139 222.068 107.13 220.453 106.598C218.838 106.066 217.099 106.037 215.467 106.515C213.835 106.992 212.387 107.953 211.317 109.27Z" fill="#FFB6B6"/>
<path d="M169.784 113.407L153.651 121.658C153.192 121.893 152.688 122.026 152.172 122.049C151.657 122.072 151.143 121.984 150.664 121.791C150.186 121.598 149.755 121.305 149.401 120.931C149.047 120.557 148.778 120.112 148.612 119.625L142.802 102.568C141.611 100.226 141.399 97.5097 142.213 95.0127C143.026 92.5157 144.799 90.4414 147.144 89.2433C139.993 92.9006 154.886 82.512 160.571 93.546L171.064 108.143C171.364 108.561 171.57 109.038 171.669 109.543C171.767 110.048 171.755 110.567 171.634 111.067C171.512 111.567 171.284 112.034 170.965 112.438C170.646 112.842 170.243 113.173 169.784 113.407H169.784Z" fill="#EF6B29"/>
<path d="M146.033 67.9074C144.865 67.9074 143.577 67.3466 142.124 66.2106C137.85 62.8667 134.795 58.218 133.427 52.9776C132.06 47.7372 132.456 42.1946 134.554 37.1999C135.611 34.6864 137.586 31.2701 140.998 29.268C143.451 27.8294 146.333 27.3097 148.841 26.9355C151.013 26.6112 153.212 26.353 155.377 26.1692C157.964 25.9488 160.952 25.8 163.677 26.8316C165.674 27.5878 167.374 28.9232 169.018 30.2146C169.59 30.6643 170.183 31.1302 170.776 31.561C172.214 32.6785 173.872 33.4809 175.642 33.9158C176.016 33.9929 176.369 34.1491 176.676 34.3737C176.984 34.5983 177.24 34.8862 177.426 35.2177C177.617 35.5548 177.732 35.9286 177.765 36.314C177.798 36.6993 177.747 37.0872 177.617 37.4514C177.361 38.1677 177.129 38.8134 177.597 39.513C177.771 39.7594 178.002 39.9598 178.271 40.0965C178.541 40.2331 178.839 40.302 179.141 40.297C179.301 40.2944 179.458 40.3315 179.6 40.405C179.741 40.4785 179.862 40.5861 179.951 40.7178C180.041 40.8485 180.098 40.9991 180.117 41.1567C180.135 41.3143 180.114 41.4739 180.057 41.6217L179.982 41.8144C180.182 41.8331 180.376 41.9001 180.545 42.0097C180.714 42.1192 180.854 42.2681 180.952 42.4435C181.099 42.6932 181.155 42.9852 181.113 43.2713C181.07 43.5574 180.931 43.8205 180.718 44.017C178.987 45.6588 176.828 46.7843 174.488 47.2657C172.886 47.5787 171.238 47.5749 169.638 47.2546L169.38 47.2046L169.412 46.9203C162.939 44.62 157.095 48.5238 153.764 52.9867L153.283 52.6841C153.366 52.5178 153.414 52.3365 153.424 52.1512C153.435 51.9659 153.408 51.7804 153.344 51.6059C153.277 51.3964 153.169 51.2022 153.027 51.0343C152.884 50.8664 152.71 50.7282 152.514 50.6275C152.117 50.4645 151.681 50.4221 151.26 50.5058C150.839 50.5895 150.452 50.7955 150.149 51.0978C149.84 51.4206 149.602 51.804 149.449 52.2235C149.297 52.6431 149.234 53.0896 149.265 53.5347C149.352 54.4781 149.593 55.4009 149.979 56.267C150.135 56.6812 150.297 57.1098 150.429 57.5418C151.166 59.9958 150.97 62.6344 149.877 64.953C149.373 66.0107 148.461 67.3593 146.981 67.7774C146.672 67.8642 146.353 67.908 146.033 67.9074Z" fill="#2F2E41"/>
<path d="M461.348 263H0.679431C0.499573 263 0.327263 262.928 0.200267 262.801C0.0732721 262.675 0.00195312 262.503 0.00195312 262.323C0.00195312 262.144 0.0732721 261.972 0.200267 261.845C0.327263 261.719 0.499573 261.647 0.679431 261.646H461.348C461.528 261.646 461.701 261.718 461.828 261.845C461.956 261.972 462.027 262.144 462.027 262.323C462.027 262.503 461.956 262.675 461.828 262.802C461.701 262.929 461.528 263 461.348 263Z" fill="#CACACA"/>
</g>
<defs>
<clipPath id="clip0_2551_13771">
<rect width="462.027" height="263" fill="white"/>
</clipPath>
</defs>
</svg>
