<svg width="14" height="9" viewBox="0 0 14 9" fill="none" xmlns="http://www.w3.org/2000/svg">
<path d="M13.9999 1.49331C14.0004 1.68542 13.9675 1.87524 13.9034 2.04882C13.8394 2.22239 13.746 2.37531 13.63 2.49634L7.63053 8.70746C7.45162 8.8966 7.2272 9 6.99559 9C6.76399 9 6.53957 8.8966 6.36065 8.70746L0.361218 2.27773C0.157021 2.05946 0.0286082 1.7458 0.00423077 1.40577C-0.0201467 1.06573 0.0615075 0.727163 0.23123 0.464551C0.400953 0.201939 0.644841 0.0367936 0.909242 0.00544258C1.17364 -0.0259084 1.4369 0.0791039 1.6411 0.297378L7.00059 6.04556L12.3601 0.49027C12.5069 0.333021 12.6856 0.233132 12.8751 0.202424C13.0646 0.171717 13.257 0.211474 13.4296 0.316993C13.6021 0.422512 13.7475 0.589377 13.8485 0.797842C13.9496 1.00631 14.0022 1.24765 13.9999 1.49331Z" fill="#CACACA"/>
</svg>
