<svg width="28" height="34" viewBox="0 0 28 34" fill="none" xmlns="http://www.w3.org/2000/svg">
<path d="M18.8996 5.65065C19.5297 4.92445 20.0101 4.08094 20.3133 3.16855C20.6165 2.25616 20.7364 1.29286 20.6663 0.333984C18.7319 0.490129 16.9363 1.39991 15.6663 2.86732C15.0581 3.57061 14.5972 4.38878 14.311 5.27339C14.0247 6.158 13.9188 7.09106 13.9996 8.01732C14.9432 8.02518 15.8759 7.81581 16.7256 7.40542C17.5753 6.99502 18.3192 6.39461 18.8996 5.65065ZM23.0996 18.0507C23.1108 16.7735 23.4472 15.5203 24.0771 14.4093C24.7069 13.2983 25.6095 12.3661 26.6996 11.7007C26.0116 10.7094 25.1022 9.89204 24.0433 9.31344C22.9845 8.73484 21.8054 8.41091 20.5996 8.36732C17.9996 8.10065 15.5996 9.88398 14.2163 9.88398C12.8329 9.88398 10.8829 8.40065 8.71628 8.43398C7.29982 8.48064 5.91964 8.89362 4.71035 9.63263C3.50106 10.3716 2.50395 11.4115 1.81628 12.6507C-1.11706 17.7507 1.06628 25.334 3.99961 29.4506C5.33294 31.4673 6.99961 33.7506 9.19961 33.6673C11.3996 33.584 12.1163 32.3007 14.6663 32.3007C17.2163 32.3007 17.9996 33.6673 20.1663 33.6173C22.3329 33.5673 23.8663 31.5507 25.2663 29.534C26.258 28.0699 27.0327 26.47 27.5663 24.784C26.2454 24.2207 25.1185 23.2828 24.3247 22.0862C23.5309 20.8895 23.105 19.4866 23.0996 18.0507Z" fill="black"/>
</svg>
