<svg width="19" height="38" viewBox="0 0 19 38" fill="none" xmlns="http://www.w3.org/2000/svg">
<path d="M15.8475 37.9998C15.4419 38.0012 15.0412 37.9117 14.6747 37.7379C14.3083 37.5642 13.9854 37.3105 13.7299 36.9956L0.617579 20.7114C0.218285 20.2258 0 19.6167 0 18.988C0 18.3594 0.218285 17.7503 0.617579 17.2646L14.1915 0.98045C14.6523 0.426199 15.3144 0.0776517 16.0323 0.0114844C16.7501 -0.0546829 17.4649 0.16695 18.0193 0.627625C18.5737 1.0883 18.9223 1.75028 18.9885 2.46794C19.0547 3.18561 18.833 3.90016 18.3722 4.45441L6.23716 19.0016L17.965 33.5488C18.297 33.9472 18.5078 34.4323 18.5727 34.9467C18.6375 35.4612 18.5536 35.9834 18.3308 36.4517C18.108 36.9199 17.7558 37.3146 17.3157 37.5889C16.8756 37.8633 16.3661 38.0059 15.8475 37.9998Z" fill="#EF6A28"/>
</svg>
