<svg width="19" height="19" viewBox="0 0 19 19" fill="none" xmlns="http://www.w3.org/2000/svg">
<path d="M16.6247 6.33325C16.4648 6.33325 12.7851 6.35621 9.49967 7.92292C6.21426 6.35621 2.53459 6.33325 2.37467 6.33325C2.16471 6.33325 1.96335 6.41666 1.81488 6.56513C1.66642 6.71359 1.58301 6.91496 1.58301 7.12492V14.949C1.58301 15.0552 1.60439 15.1603 1.64587 15.2581C1.68735 15.3559 1.74809 15.4443 1.82447 15.5182C1.97884 15.667 2.20447 15.7596 2.40159 15.7398L2.50213 15.739C3.04284 15.739 5.90313 15.8166 9.1648 17.3422C9.17747 17.3485 9.19172 17.3461 9.20438 17.3509C9.29859 17.3897 9.39755 17.4166 9.49967 17.4166C9.6018 17.4166 9.70076 17.3897 9.79576 17.3509C9.80842 17.3461 9.82267 17.3485 9.83534 17.3422C13.097 15.8158 15.9573 15.739 16.498 15.739L16.5985 15.7398C16.787 15.7596 17.0205 15.667 17.1757 15.5182C17.3293 15.3685 17.4163 15.1627 17.4163 14.949V7.12492C17.4163 6.91496 17.3329 6.71359 17.1845 6.56513C17.036 6.41666 16.8346 6.33325 16.6247 6.33325ZM3.16634 7.95538C4.34197 8.04325 6.63463 8.33538 8.70801 9.29488V15.424C6.33301 14.4938 4.28259 14.2412 3.16634 14.1763V7.95538ZM15.833 14.1763C14.7168 14.2412 12.6663 14.4938 10.2913 15.424V9.29488C12.3647 8.33538 14.6574 8.04325 15.833 7.95538V14.1763Z" fill="#222380"/>
<path d="M9.5 6.33325C10.8117 6.33325 11.875 5.26993 11.875 3.95825C11.875 2.64658 10.8117 1.58325 9.5 1.58325C8.18832 1.58325 7.125 2.64658 7.125 3.95825C7.125 5.26993 8.18832 6.33325 9.5 6.33325Z" fill="#222380"/>
</svg>
