<svg width="16" height="17" viewBox="0 0 16 17" fill="none" xmlns="http://www.w3.org/2000/svg">
<path d="M14.6758 1.5H12.1758V0.25H10.9258V1.5H5.92578V0.25H4.67578V1.5H2.17578C1.48828 1.5 0.925781 2.0625 0.925781 2.75V15.25C0.925781 15.9375 1.48828 16.5 2.17578 16.5H14.6758C15.3633 16.5 15.9258 15.9375 15.9258 15.25V2.75C15.9258 2.0625 15.3633 1.5 14.6758 1.5ZM14.6758 15.25H2.17578V6.5H14.6758V15.25ZM14.6758 5.25H2.17578V2.75H4.67578V4H5.92578V2.75H10.9258V4H12.1758V2.75H14.6758V5.25Z" fill="#8F8799"/>
</svg>
