<svg width="22" height="24" viewBox="0 0 22 24" fill="none" xmlns="http://www.w3.org/2000/svg">
<path d="M19.9146 18.7729C19.7587 19.1209 19.5571 19.4496 19.2912 19.7589C18.8421 20.2809 18.3471 20.6579 17.7879 20.8996C17.2379 21.1413 16.6421 21.2669 16.0004 21.2669C15.0654 21.2669 14.0662 21.0349 13.0121 20.5613C11.9579 20.0876 10.9037 19.4496 9.85872 18.6473C8.80456 17.8353 7.80539 16.9363 6.85206 15.9406C5.90789 14.9353 5.05539 13.8816 4.29456 12.7796C3.54289 11.6776 2.93789 10.5756 2.49789 9.48326C2.05789 8.38126 1.83789 7.32759 1.83789 6.32226C1.83789 5.66493 1.94789 5.03659 2.16789 4.45659C2.38789 3.86693 2.73622 3.32559 3.22206 2.84226C3.80872 2.23326 4.45039 1.93359 5.12872 1.93359C5.38539 1.93359 5.64206 1.99159 5.87122 2.10759C6.10956 2.22359 6.32039 2.39759 6.48539 2.64893L8.61206 5.80993C8.77706 6.05159 8.89622 6.27393 8.97872 6.48659C9.06122 6.68959 9.10706 6.89259 9.10706 7.07626C9.10706 7.30826 9.04289 7.54026 8.91456 7.76259C8.79539 7.98493 8.62122 8.21693 8.40122 8.44893L7.70456 9.21259C7.60372 9.31893 7.55789 9.44459 7.55789 9.59926C7.55789 9.67659 7.56706 9.74426 7.58539 9.82159C7.61289 9.89893 7.64039 9.95693 7.65872 10.0149C7.82372 10.3339 8.10789 10.7496 8.51122 11.2523C8.92372 11.7549 9.36372 12.2673 9.84039 12.7796C10.3354 13.2919 10.8121 13.7656 11.2979 14.2006C11.7746 14.6259 12.1687 14.9159 12.4804 15.0899C12.5262 15.1093 12.5812 15.1383 12.6454 15.1673C12.7187 15.1963 12.7921 15.2059 12.8746 15.2059C13.0304 15.2059 13.1496 15.1479 13.2504 15.0416L13.9471 14.3166C14.1762 14.0749 14.3962 13.8913 14.6071 13.7753C14.8179 13.6399 15.0287 13.5723 15.2579 13.5723C15.4321 13.5723 15.6154 13.6109 15.8171 13.6979C16.0187 13.7849 16.2296 13.9106 16.4587 14.0749L19.4929 16.3466C19.7312 16.5206 19.8962 16.7236 19.9971 16.9653C20.0887 17.2069 20.1437 17.4486 20.1437 17.7193C20.1437 18.0673 20.0704 18.4249 19.9146 18.7729Z" stroke="#0667BF" stroke-width="1.15278"/>
</svg>
