<svg width="20" height="20" viewBox="0 0 20 20" fill="none" xmlns="http://www.w3.org/2000/svg">
<g clip-path="url(#clip0_1012_146)">
<path d="M10 20C15.5229 20 20 15.5228 20 10C20 4.47715 15.5229 0 10 0C4.47716 0 0 4.47715 0 10C0 15.5228 4.47716 20 10 20Z" fill="#E0E0E0"/>
<path d="M10 19.696C15.4389 19.696 19.848 15.2869 19.848 9.84802C19.848 4.40911 15.4389 0 10 0C4.5611 0 0.151978 4.40911 0.151978 9.84802C0.151978 15.2869 4.5611 19.696 10 19.696Z" fill="white"/>
<mask id="mask0_1012_146" style="mask-type:alpha" maskUnits="userSpaceOnUse" x="3" y="3" width="14" height="14">
<path d="M16.383 8.6928H10.152V11.2764H13.7386C13.4043 12.9177 12.0061 13.86 10.152 13.86C7.96357 13.86 6.20065 12.0971 6.20065 9.90861C6.20065 7.72016 7.96357 5.95724 10.152 5.95724C11.0943 5.95724 11.9453 6.2916 12.614 6.83871L14.5593 4.89341C13.3739 3.85998 11.8541 3.22168 10.152 3.22168C6.44381 3.22168 3.46509 6.2004 3.46509 9.90861C3.46509 13.6168 6.44381 16.5955 10.152 16.5955C13.4955 16.5955 16.535 14.1639 16.535 9.90861C16.535 9.51347 16.4742 9.08794 16.383 8.6928Z" fill="white"/>
</mask>
<g mask="url(#mask0_1012_146)">
<path d="M2.85718 13.8598V5.95703L8.02435 9.9084L2.85718 13.8598Z" fill="#FBBC05"/>
</g>
<mask id="mask1_1012_146" style="mask-type:alpha" maskUnits="userSpaceOnUse" x="3" y="3" width="14" height="14">
<path d="M16.383 8.6928H10.152V11.2764H13.7386C13.4043 12.9177 12.0061 13.86 10.152 13.86C7.96357 13.86 6.20065 12.0971 6.20065 9.90861C6.20065 7.72016 7.96357 5.95724 10.152 5.95724C11.0943 5.95724 11.9453 6.2916 12.614 6.83871L14.5593 4.89341C13.3739 3.85998 11.8541 3.22168 10.152 3.22168C6.44381 3.22168 3.46509 6.2004 3.46509 9.90861C3.46509 13.6168 6.44381 16.5955 10.152 16.5955C13.4955 16.5955 16.535 14.1639 16.535 9.90861C16.535 9.51347 16.4742 9.08794 16.383 8.6928Z" fill="white"/>
</mask>
<g mask="url(#mask1_1012_146)">
<path d="M2.85718 5.95723L8.02435 9.9086L10.152 8.05451L17.4468 6.86909V2.61377H2.85718V5.95723Z" fill="#EA4335"/>
</g>
<mask id="mask2_1012_146" style="mask-type:alpha" maskUnits="userSpaceOnUse" x="3" y="3" width="14" height="14">
<path d="M16.383 8.6928H10.152V11.2764H13.7386C13.4043 12.9177 12.0061 13.86 10.152 13.86C7.96357 13.86 6.20065 12.0971 6.20065 9.90861C6.20065 7.72016 7.96357 5.95724 10.152 5.95724C11.0943 5.95724 11.9453 6.2916 12.614 6.83871L14.5593 4.89341C13.3739 3.85998 11.8541 3.22168 10.152 3.22168C6.44381 3.22168 3.46509 6.2004 3.46509 9.90861C3.46509 13.6168 6.44381 16.5955 10.152 16.5955C13.4955 16.5955 16.535 14.1639 16.535 9.90861C16.535 9.51347 16.4742 9.08794 16.383 8.6928Z" fill="white"/>
</mask>
<g mask="url(#mask2_1012_146)">
<path d="M2.85718 13.86L11.9757 6.86909L14.3769 7.17304L17.4468 2.61377V17.2034H2.85718V13.86Z" fill="#34A853"/>
</g>
<mask id="mask3_1012_146" style="mask-type:alpha" maskUnits="userSpaceOnUse" x="3" y="3" width="14" height="14">
<path d="M16.383 8.6928H10.152V11.2764H13.7386C13.4043 12.9177 12.0061 13.86 10.152 13.86C7.96357 13.86 6.20065 12.0971 6.20065 9.90861C6.20065 7.72016 7.96357 5.95724 10.152 5.95724C11.0943 5.95724 11.9453 6.2916 12.614 6.83871L14.5593 4.89341C13.3739 3.85998 11.8541 3.22168 10.152 3.22168C6.44381 3.22168 3.46509 6.2004 3.46509 9.90861C3.46509 13.6168 6.44381 16.5955 10.152 16.5955C13.4955 16.5955 16.535 14.1639 16.535 9.90861C16.535 9.51347 16.4742 9.08794 16.383 8.6928Z" fill="white"/>
</mask>
<g mask="url(#mask3_1012_146)">
<path d="M17.4469 17.2032L8.0244 9.9084L6.80859 8.99654L17.4469 5.95703V17.2032Z" fill="#4285F4"/>
</g>
</g>
<defs>
<clipPath id="clip0_1012_146">
<rect width="19.9696" height="20" fill="white"/>
</clipPath>
</defs>
</svg>
