<svg width="19" height="19" viewBox="0 0 19 19" fill="none" xmlns="http://www.w3.org/2000/svg">
<g clip-path="url(#clip0_3046_17016)">
<path d="M17.1524 9.16812C17.1524 9.16812 17.7184 8.34312 16.8929 7.77762C16.0684 7.21212 15.5029 8.03712 15.5029 8.03712L12.8774 11.8661C12.7874 11.7151 12.6879 11.5661 12.5779 11.4191L16.2219 6.10462C16.2219 6.10462 16.7874 5.28012 15.9624 4.71462C15.1379 4.14862 14.5724 4.97362 14.5724 4.97362L11.1444 9.97212C11.0169 9.86762 10.8869 9.76362 10.7519 9.66112L14.7254 3.86612C14.7254 3.86612 15.2909 3.04162 14.4664 2.47612C13.6419 1.91012 13.0764 2.73512 13.0764 2.73512L9.10242 8.52962C8.95642 8.43962 8.81192 8.36212 8.66742 8.28062L12.3809 2.86462C12.3809 2.86462 12.9464 2.04012 12.1214 1.47462C11.2969 0.908617 10.7314 1.73362 10.7314 1.73362L6.80442 7.46012L6.48992 7.91912L6.20742 8.33162C8.68142 10.0281 8.91692 13.2211 7.50342 15.2826C7.22042 15.6951 6.80842 15.4126 6.80842 15.4126C8.50492 12.9381 7.98642 10.1576 5.51192 8.46112L6.24292 4.81012C6.24292 4.81012 6.51542 3.84762 5.55342 3.57512C4.59142 3.30262 4.31892 4.26462 4.31892 4.26462L3.47642 6.76662C3.14242 7.75862 2.78692 8.74712 2.31642 9.68162C0.987918 12.3216 1.78142 15.6031 4.28692 17.3211C7.01942 19.1946 10.7544 18.4986 12.6284 15.7661C12.7274 15.6211 12.8104 15.4796 12.8894 15.3381L12.9114 15.3536L17.1524 9.16812Z" fill="#FFCE6B"/>
<path d="M1.521 4H0.520996C0.522055 3.07764 0.888931 2.19335 1.54114 1.54114C2.19335 0.888935 3.07763 0.522058 4 0.521V1.521C3.34277 1.52179 2.71269 1.78323 2.24796 2.24796C1.78322 2.71269 1.52179 3.34277 1.521 4" fill="#77B255"/>
<path d="M2.5 6.5H1.5C1.5 3.743 3.743 1.5 6.5 1.5V2.5C4.2945 2.5 2.5 4.2945 2.5 6.5Z" fill="#77B255"/>
<path d="M15 18.5V17.5C16.5 17.5 17.5 16.5 17.5 15H18.5C18.5 17 17 18.5 15 18.5Z" fill="#77B255"/>
<path d="M12.5 17.5215V16.5215C14.5 16.5215 16.521 14.5005 16.521 12.5005H17.521C17.521 15.5005 15.5 17.5215 12.5 17.5215Z" fill="#77B255"/>
</g>
<defs>
<clipPath id="clip0_3046_17016">
<rect width="19" height="19" fill="white"/>
</clipPath>
</defs>
</svg>
