<svg width="24" height="30" viewBox="0 0 24 30" fill="none" xmlns="http://www.w3.org/2000/svg">
<path d="M12 29.25C12.7949 29.2476 13.5566 28.9308 14.1187 28.3687C14.6808 27.8066 14.9976 27.0449 15 26.25H9C9.00237 27.0449 9.31921 27.8066 9.8813 28.3687C10.4434 28.9308 11.2051 29.2476 12 29.25ZM21 20.25V12.75C21 8.15 18.555 4.29 14.25 3.27V2.25C14.25 1.65326 14.0129 1.08097 13.591 0.65901C13.169 0.237053 12.5967 0 12 0C11.4033 0 10.831 0.237053 10.409 0.65901C9.98705 1.08097 9.75 1.65326 9.75 2.25V3.27C5.46 4.29 3 8.13 3 12.75V20.25L0 23.25V24.75H24V23.25L21 20.25ZM18 21.75H6V12.75C6 9.03 8.265 6 12 6C15.735 6 18 9.03 18 12.75V21.75Z" fill="#2E4765" fill-opacity="0.8"/>
</svg>
