<svg width="24" height="24" viewBox="0 0 24 24" fill="none" xmlns="http://www.w3.org/2000/svg">
<path d="M23.04 0H0.96C0.429 0 0 0.417828 0 0.935V22.44C0 22.9572 0.429 23.375 0.96 23.375H23.04C23.571 23.375 24 22.9572 24 22.44V0.935C24 0.417828 23.571 0 23.04 0ZM20.268 6.82258H18.351C16.848 6.82258 16.557 7.51798 16.557 8.54064V10.7934H20.145L19.677 14.3201H16.557V23.375H12.816V14.323H9.687V10.7934H12.816V8.19294C12.816 5.17464 14.709 3.52963 17.475 3.52963C18.801 3.52963 19.938 3.62605 20.271 3.66988V6.82258H20.268Z" fill="#3764B9"/>
</svg>
