<svg width="36" height="36" viewBox="0 0 36 36" fill="none" xmlns="http://www.w3.org/2000/svg">
<path d="M27 12C27 9.61305 26.0518 7.32387 24.364 5.63604C22.6761 3.94821 20.3869 3 18 3C15.6131 3 13.3239 3.94821 11.636 5.63604C9.94821 7.32387 9 9.61305 9 12C9 22.5 4.5 25.5 4.5 25.5H31.5C31.5 25.5 27 22.5 27 12Z" stroke="#4E4E54" stroke-width="2" stroke-linecap="round" stroke-linejoin="round"/>
<path d="M20.5953 31.5C20.3316 31.9546 19.953 32.332 19.4976 32.5943C19.0422 32.8566 18.5258 32.9947 18.0003 32.9947C17.4747 32.9947 16.9584 32.8566 16.5029 32.5943C16.0475 32.332 15.669 31.9546 15.4053 31.5" stroke="#4E4E54" stroke-width="2" stroke-linecap="round" stroke-linejoin="round"/>
</svg>
