<svg width="14" height="18" viewBox="0 0 14 18" fill="none" xmlns="http://www.w3.org/2000/svg">
<path d="M9.44932 3.32508C9.76436 2.96198 10.0046 2.54022 10.1562 2.08403C10.3077 1.62783 10.3677 1.14619 10.3326 0.666748C9.36546 0.744821 8.46765 1.19971 7.83265 1.93341C7.52856 2.28506 7.29813 2.69415 7.15499 3.13645C7.01185 3.57876 6.95891 4.04528 6.99932 4.50841C7.4711 4.51235 7.93747 4.40766 8.36231 4.20246C8.78716 3.99727 9.15909 3.69706 9.44932 3.32508ZM11.5493 9.52508C11.5549 8.88653 11.7231 8.25993 12.038 7.70442C12.353 7.1489 12.8043 6.6828 13.3493 6.35008C13.0053 5.85445 12.5506 5.44578 12.0212 5.15648C11.4918 4.86718 10.9022 4.70521 10.2993 4.68341C8.99932 4.55008 7.79932 5.44175 7.10765 5.44175C6.41598 5.44175 5.44098 4.70008 4.35765 4.71675C3.64942 4.74008 2.95933 4.94657 2.35469 5.31607C1.75004 5.68558 1.25149 6.20548 0.907649 6.82508C-0.559017 9.37508 0.532649 13.1667 1.99932 15.2251C2.66598 16.2334 3.49932 17.3751 4.59932 17.3334C5.69932 17.2917 6.05765 16.6501 7.33265 16.6501C8.60765 16.6501 8.99932 17.3334 10.0826 17.3084C11.166 17.2834 11.9326 16.2751 12.6326 15.2667C13.1285 14.5347 13.5159 13.7347 13.7826 12.8917C13.1222 12.6101 12.5587 12.1412 12.1618 11.5428C11.765 10.9445 11.552 10.2431 11.5493 9.52508Z" fill="black"/>
</svg>
