<svg width="20" height="20" viewBox="0 0 20 20" fill="none" xmlns="http://www.w3.org/2000/svg">
<path d="M3.33398 9.99984C3.33398 10.2209 3.42178 10.4328 3.57806 10.5891C3.73434 10.7454 3.9463 10.8332 4.16732 10.8332H10.4923L8.57565 12.7415C8.49754 12.819 8.43555 12.9111 8.39324 13.0127C8.35093 13.1142 8.32915 13.2232 8.32915 13.3332C8.32915 13.4432 8.35093 13.5521 8.39324 13.6537C8.43555 13.7552 8.49754 13.8474 8.57565 13.9248C8.65312 14.0029 8.74529 14.0649 8.84684 14.1072C8.94839 14.1496 9.05731 14.1713 9.16732 14.1713C9.27733 14.1713 9.38625 14.1496 9.4878 14.1072C9.58935 14.0649 9.68152 14.0029 9.75898 13.9248L13.0923 10.5915C13.1682 10.5123 13.2277 10.4188 13.2673 10.3165C13.3507 10.1136 13.3507 9.88605 13.2673 9.68317C13.2277 9.58088 13.1682 9.48742 13.0923 9.40817L9.75898 6.07484C9.68129 5.99714 9.58904 5.9355 9.48753 5.89345C9.38601 5.8514 9.2772 5.82976 9.16732 5.82976C9.05744 5.82976 8.94863 5.8514 8.84711 5.89345C8.74559 5.9355 8.65335 5.99714 8.57565 6.07484C8.49795 6.15254 8.43632 6.24478 8.39427 6.3463C8.35222 6.44781 8.33057 6.55662 8.33057 6.6665C8.33058 6.77639 8.35222 6.88519 8.39427 6.98671C8.43632 7.08823 8.49795 7.18047 8.57565 7.25817L10.4923 9.1665H4.16732C3.9463 9.1665 3.73434 9.2543 3.57806 9.41058C3.42178 9.56686 3.33398 9.77882 3.33398 9.99984ZM14.1673 1.6665H5.83398C5.17094 1.6665 4.53506 1.9299 4.06622 2.39874C3.59738 2.86758 3.33398 3.50346 3.33398 4.1665V6.6665C3.33398 6.88752 3.42178 7.09948 3.57806 7.25576C3.73434 7.41204 3.9463 7.49984 4.16732 7.49984C4.38833 7.49984 4.60029 7.41204 4.75657 7.25576C4.91285 7.09948 5.00065 6.88752 5.00065 6.6665V4.1665C5.00065 3.94549 5.08845 3.73353 5.24473 3.57725C5.40101 3.42097 5.61297 3.33317 5.83398 3.33317H14.1673C14.3883 3.33317 14.6003 3.42097 14.7566 3.57725C14.9129 3.73353 15.0007 3.94549 15.0007 4.1665V15.8332C15.0007 16.0542 14.9129 16.2661 14.7566 16.4224C14.6003 16.5787 14.3883 16.6665 14.1673 16.6665H5.83398C5.61297 16.6665 5.40101 16.5787 5.24473 16.4224C5.08845 16.2661 5.00065 16.0542 5.00065 15.8332V13.3332C5.00065 13.1122 4.91285 12.9002 4.75657 12.7439C4.60029 12.5876 4.38833 12.4998 4.16732 12.4998C3.9463 12.4998 3.73434 12.5876 3.57806 12.7439C3.42178 12.9002 3.33398 13.1122 3.33398 13.3332V15.8332C3.33398 16.4962 3.59738 17.1321 4.06622 17.6009C4.53506 18.0698 5.17094 18.3332 5.83398 18.3332H14.1673C14.8304 18.3332 15.4662 18.0698 15.9351 17.6009C16.4039 17.1321 16.6673 16.4962 16.6673 15.8332V4.1665C16.6673 3.50346 16.4039 2.86758 15.9351 2.39874C15.4662 1.9299 14.8304 1.6665 14.1673 1.6665Z" fill="#586C84"/>
</svg>
