<svg width="40" height="40" viewBox="0 0 40 40" fill="none" xmlns="http://www.w3.org/2000/svg">
<path d="M20 40C31.0457 40 40 31.0457 40 20C40 8.9543 31.0457 0 20 0C8.95432 0 0 8.9543 0 20C0 31.0457 8.95432 40 20 40Z" fill="#E0E0E0"/>
<path d="M20.0008 39.3921C30.8786 39.3921 39.6968 30.5739 39.6968 19.696C39.6968 8.81822 30.8786 0 20.0008 0C9.12292 0 0.304688 8.81822 0.304688 19.696C0.304688 30.5739 9.12292 39.3921 20.0008 39.3921Z" fill="white"/>
<mask id="mask0_7532_22725" style="mask-type:luminance" maskUnits="userSpaceOnUse" x="6" y="6" width="28" height="28">
<path d="M32.7656 17.3876H20.3035V22.5547H27.4768C26.8081 25.8374 24.0118 27.7219 20.3035 27.7219C15.9266 27.7219 12.4008 24.1961 12.4008 19.8192C12.4008 15.4423 15.9266 11.9164 20.3035 11.9164C22.188 11.9164 23.8902 12.5851 25.2275 13.6794L29.1181 9.78878C26.7473 7.72191 23.7078 6.44531 20.3035 6.44531C12.8871 6.44531 6.92969 12.4028 6.92969 19.8192C6.92969 27.2356 12.8871 33.193 20.3035 33.193C26.9905 33.193 33.0695 28.3298 33.0695 19.8192C33.0695 19.0289 32.9479 18.1778 32.7656 17.3876Z" fill="white"/>
</mask>
<g mask="url(#mask0_7532_22725)">
<path d="M5.71484 27.7234V11.918L16.0492 19.8207L5.71484 27.7234Z" fill="#FBBC05"/>
</g>
<mask id="mask1_7532_22725" style="mask-type:luminance" maskUnits="userSpaceOnUse" x="6" y="6" width="28" height="28">
<path d="M32.7656 17.3876H20.3035V22.5547H27.4768C26.8081 25.8374 24.0118 27.7219 20.3035 27.7219C15.9266 27.7219 12.4008 24.1961 12.4008 19.8192C12.4008 15.4423 15.9266 11.9164 20.3035 11.9164C22.188 11.9164 23.8902 12.5851 25.2275 13.6794L29.1181 9.78878C26.7473 7.72191 23.7078 6.44531 20.3035 6.44531C12.8871 6.44531 6.92969 12.4028 6.92969 19.8192C6.92969 27.2356 12.8871 33.193 20.3035 33.193C26.9905 33.193 33.0695 28.3298 33.0695 19.8192C33.0695 19.0289 32.9479 18.1778 32.7656 17.3876Z" fill="white"/>
</mask>
<g mask="url(#mask1_7532_22725)">
<path d="M5.71484 11.9174L16.0492 19.8201L20.3045 16.1119L34.8942 13.7411V5.23047H5.71484V11.9174Z" fill="#EA4335"/>
</g>
<mask id="mask2_7532_22725" style="mask-type:luminance" maskUnits="userSpaceOnUse" x="6" y="6" width="28" height="28">
<path d="M32.7656 17.3876H20.3035V22.5547H27.4768C26.8081 25.8374 24.0118 27.7219 20.3035 27.7219C15.9266 27.7219 12.4008 24.1961 12.4008 19.8192C12.4008 15.4423 15.9266 11.9164 20.3035 11.9164C22.188 11.9164 23.8902 12.5851 25.2275 13.6794L29.1181 9.78878C26.7473 7.72191 23.7078 6.44531 20.3035 6.44531C12.8871 6.44531 6.92969 12.4028 6.92969 19.8192C6.92969 27.2356 12.8871 33.193 20.3035 33.193C26.9905 33.193 33.0695 28.3298 33.0695 19.8192C33.0695 19.0289 32.9479 18.1778 32.7656 17.3876Z" fill="white"/>
</mask>
<g mask="url(#mask2_7532_22725)">
<path d="M5.71484 27.7229L23.9519 13.7411L28.7544 14.349L34.8942 5.23047V34.4098H5.71484V27.7229Z" fill="#34A853"/>
</g>
<mask id="mask3_7532_22725" style="mask-type:luminance" maskUnits="userSpaceOnUse" x="6" y="6" width="28" height="28">
<path d="M32.7656 17.3876H20.3035V22.5547H27.4768C26.8081 25.8374 24.0118 27.7219 20.3035 27.7219C15.9266 27.7219 12.4008 24.1961 12.4008 19.8192C12.4008 15.4423 15.9266 11.9164 20.3035 11.9164C22.188 11.9164 23.8902 12.5851 25.2275 13.6794L29.1181 9.78878C26.7473 7.72191 23.7078 6.44531 20.3035 6.44531C12.8871 6.44531 6.92969 12.4028 6.92969 19.8192C6.92969 27.2356 12.8871 33.193 20.3035 33.193C26.9905 33.193 33.0695 28.3298 33.0695 19.8192C33.0695 19.0289 32.9479 18.1778 32.7656 17.3876Z" fill="white"/>
</mask>
<g mask="url(#mask3_7532_22725)">
<path d="M34.8938 34.4104L16.0488 19.8207L13.6172 17.997L34.8938 11.918V34.4104Z" fill="#4285F4"/>
</g>
</svg>
