<svg width="23" height="18" viewBox="0 0 23 18" fill="none" xmlns="http://www.w3.org/2000/svg">
<path d="M9.59728 17.2496C9.42007 17.2484 9.25044 17.1775 9.12513 17.0522C8.99982 16.9269 8.9289 16.7572 8.92773 16.58V3.18908C8.9289 3.01186 8.99982 2.84224 9.12513 2.71693C9.25044 2.59162 9.42007 2.5207 9.59728 2.51953C9.7745 2.5207 9.94412 2.59162 10.0694 2.71693C10.1947 2.84224 10.2657 3.01186 10.2668 3.18908V16.58C10.2669 16.668 10.2497 16.7551 10.2161 16.8364C10.1825 16.9177 10.1332 16.9915 10.071 17.0537C10.0088 17.1159 9.93493 17.1652 9.85365 17.1988C9.77236 17.2325 9.68524 17.2497 9.59728 17.2496Z" fill="#586C84"/>
<path d="M17.5041 10.713C17.486 10.713 17.474 10.713 17.4559 10.713C17.4258 10.7069 17.3837 10.7069 17.3476 10.713C15.6017 10.6587 14.2832 9.28478 14.2832 7.59143C14.2832 5.86796 15.6859 4.46387 17.4078 4.46387C19.1296 4.46387 20.5323 5.86796 20.5323 7.59143C20.5263 9.28478 19.2018 10.6587 17.5222 10.713C17.5161 10.713 17.5101 10.713 17.5041 10.713ZM17.4078 5.36779C16.1856 5.36779 15.1863 6.36813 15.1863 7.59143C15.1863 8.79666 16.1254 9.76687 17.3235 9.80905C17.3596 9.80303 17.4379 9.80303 17.5161 9.80905C18.6961 9.75482 19.6232 8.78461 19.6293 7.59143C19.6293 6.36813 18.6299 5.36779 17.4078 5.36779Z" fill="#586C84"/>
<path d="M17.4081 16.9618C16.1368 16.9618 14.859 16.697 13.8926 16.1673C12.991 15.68 12.498 15.0126 12.498 14.287C12.498 13.5613 12.991 12.8886 13.8926 12.396C15.8384 11.342 18.9907 11.342 20.9236 12.396C21.8186 12.8833 22.3181 13.5507 22.3181 14.2764C22.3181 15.002 21.8251 15.6747 20.9236 16.1673C19.9506 16.697 18.6793 16.9618 17.4081 16.9618ZM14.4309 13.0634C13.8082 13.4024 13.471 13.8367 13.471 14.2923C13.471 14.7425 13.8147 15.1768 14.4309 15.5105C16.046 16.3951 18.7701 16.3951 20.3852 15.5105C21.0079 15.1715 21.3452 14.7372 21.3452 14.2817C21.3452 13.8314 21.0014 13.3971 20.3852 13.0634C18.7701 12.1841 16.046 12.1841 14.4309 13.0634Z" fill="#586C84"/>
<path fill-rule="evenodd" clip-rule="evenodd" d="M9.597 17.9995C9.33228 18.0021 9.07122 17.9376 8.83818 17.812C6.8096 16.7835 4.63616 16.0701 2.39267 15.6963L2.13378 15.6605C1.54947 15.5711 1.01534 15.2787 0.625162 14.8346C0.234985 14.3906 0.0136991 13.8233 0.000151289 13.2323V2.44815C-0.00364556 2.10851 0.0640626 1.77188 0.198876 1.46013C0.333689 1.14837 0.53259 0.868472 0.782653 0.638616C1.03272 0.40876 1.32835 0.234091 1.65033 0.125962C1.97231 0.0178325 2.31345 -0.0213382 2.65156 0.0109953C4.97937 0.283564 7.2272 1.02778 9.25776 2.19818L9.47201 2.32317C9.55133 2.35709 9.64044 2.36027 9.72198 2.33209L9.86482 2.24282C11.8994 1.06774 14.1486 0.311919 16.4799 0.0199226H16.5871C16.9181 -0.00817602 17.2514 0.0337411 17.5651 0.142946C17.8789 0.252152 18.1662 0.426198 18.4082 0.653761C18.6594 0.883469 18.8593 1.16365 18.9946 1.47595C19.13 1.78826 19.1979 2.12564 19.1938 2.466V4.08047C18.71 4.17898 18.2579 4.36483 17.8547 4.62084V2.45707C17.8571 2.30216 17.8273 2.14845 17.7674 2.00557C17.7075 1.8627 17.6187 1.73375 17.5066 1.62684C17.3899 1.5246 17.254 1.44667 17.1069 1.39762C16.9597 1.34857 16.8042 1.32937 16.6496 1.34116H16.5424C14.4467 1.62067 12.4247 2.30273 10.5879 3.3498L10.4451 3.448C10.1938 3.59625 9.90777 3.67518 9.61606 3.67675C9.32434 3.67831 9.03744 3.60246 8.78461 3.45693L8.57036 3.33195C6.71023 2.2826 4.66344 1.6058 2.54443 1.33938H2.4373C2.16014 1.33596 1.89205 1.43809 1.68741 1.62505C1.57545 1.73021 1.48666 1.85757 1.42671 1.99899C1.36676 2.14041 1.33697 2.29278 1.33925 2.44636V13.2305C1.35133 13.4968 1.45319 13.7512 1.62826 13.9522C1.80333 14.1532 2.04129 14.289 2.30339 14.3375L2.57121 14.3732C4.96411 14.7672 7.28241 15.5259 9.44523 16.6229C9.52089 16.6565 9.60509 16.6659 9.68627 16.6497C10.757 16.0989 11.8671 15.6328 13.0064 15.2546C13.0296 15.7181 13.116 16.165 13.257 16.5868C12.2572 16.9274 11.2816 17.3397 10.338 17.821C10.111 17.9446 9.85539 18.0062 9.597 17.9995Z" fill="#586C84"/>
</svg>
