<svg width="26" height="18" viewBox="0 0 26 18" fill="none" xmlns="http://www.w3.org/2000/svg">
<path d="M9.59728 17.2496C9.42007 17.2484 9.25044 17.1775 9.12513 17.0522C8.99982 16.9269 8.9289 16.7572 8.92773 16.58V3.18908C8.9289 3.01186 8.99982 2.84224 9.12513 2.71693C9.25044 2.59162 9.42007 2.5207 9.59728 2.51953C9.7745 2.5207 9.94412 2.59162 10.0694 2.71693C10.1947 2.84224 10.2657 3.01186 10.2668 3.18908V16.58C10.2669 16.668 10.2497 16.7551 10.2161 16.8364C10.1825 16.9177 10.1332 16.9915 10.071 17.0537C10.0088 17.1159 9.93493 17.1652 9.85365 17.1988C9.77236 17.2325 9.68524 17.2497 9.59728 17.2496Z" fill="#586C84"/>
<path d="M19.2721 15.986H15.6596C13.5468 15.986 12.7969 14.5041 12.7969 13.1233V8.30263C12.7969 6.2434 13.6003 5.43994 15.6596 5.43994H19.2721C21.3314 5.43994 22.1348 6.2434 22.1348 8.30263V13.1233C22.1348 15.1826 21.3314 15.986 19.2721 15.986ZM15.6596 6.34457C14.1062 6.34457 13.7015 6.74928 13.7015 8.30263V13.1233C13.7015 13.8554 13.9574 15.0814 15.6596 15.0814H19.2721C20.8255 15.0814 21.2302 14.6767 21.2302 13.1233V8.30263C21.2302 6.74928 20.8255 6.34457 19.2721 6.34457H15.6596Z" fill="#586C84"/>
<path d="M23.974 14.3495C23.7181 14.3495 23.3908 14.2662 23.0158 14.0044L21.4268 12.8914C21.3077 12.8081 21.2363 12.6712 21.2363 12.5224V8.90388C21.2363 8.75509 21.3077 8.61821 21.4268 8.53489L23.0158 7.42195C23.7241 6.92797 24.2419 7.07081 24.4859 7.19579C24.7299 7.32673 25.1465 7.66596 25.1465 8.52894V12.8914C25.1465 13.7544 24.7299 14.0996 24.4859 14.2246C24.3728 14.29 24.1942 14.3495 23.974 14.3495ZM22.135 12.2844L23.5336 13.2604C23.8014 13.4449 23.9919 13.4628 24.0693 13.4211C24.1526 13.3794 24.2419 13.2128 24.2419 12.8914V8.53489C24.2419 8.20755 24.1466 8.04686 24.0693 8.0052C23.9919 7.96354 23.8014 7.98139 23.5336 8.16589L22.135 9.14194V12.2844Z" fill="#586C84"/>
<path fill-rule="evenodd" clip-rule="evenodd" d="M8.83818 17.812C9.07122 17.9376 9.33228 18.0021 9.597 17.9995C9.85539 18.0062 10.111 17.9446 10.338 17.821C11.2816 17.3397 12.2572 16.9274 13.257 16.5868C13.116 16.165 13.0296 15.7181 13.0064 15.2546C11.8671 15.6328 10.757 16.0989 9.68627 16.6497C9.60509 16.6659 9.52089 16.6565 9.44523 16.6229C7.28241 15.5259 4.96411 14.7672 2.57121 14.3732L2.30339 14.3375C2.04129 14.289 1.80333 14.1532 1.62826 13.9522C1.45319 13.7512 1.35133 13.4968 1.33925 13.2305V2.44636C1.33697 2.29278 1.36676 2.14041 1.42671 1.99899C1.48666 1.85757 1.57545 1.73021 1.68741 1.62505C1.89205 1.43809 2.16014 1.33596 2.4373 1.33938H2.54443C4.66344 1.6058 6.71023 2.2826 8.57036 3.33195L8.78461 3.45693C9.03744 3.60246 9.32434 3.67831 9.61606 3.67675C9.90777 3.67518 10.1938 3.59625 10.4451 3.448L10.5879 3.3498C12.4247 2.30273 14.4467 1.62067 16.5424 1.34116H16.6496C16.8042 1.32937 16.9597 1.34857 17.1069 1.39762C17.254 1.44667 17.3899 1.5246 17.5066 1.62684C17.6187 1.73375 17.7075 1.8627 17.7674 2.00557C17.8273 2.14845 17.8571 2.30216 17.8547 2.45707V4.62084C18.2036 4.39933 18.589 4.23034 19 4.12501V4H19.1938V2.466C19.1979 2.12564 19.13 1.78826 18.9946 1.47595C18.8593 1.16365 18.6594 0.883469 18.4082 0.653761C18.1662 0.426198 17.8789 0.252152 17.5651 0.142946C17.2514 0.0337411 16.9181 -0.00817602 16.5871 0.0199226H16.4799C14.1486 0.311919 11.8994 1.06774 9.86482 2.24282L9.72198 2.33209C9.64044 2.36027 9.55133 2.35709 9.47201 2.32317L9.25776 2.19818C7.2272 1.02778 4.97937 0.283564 2.65156 0.0109953C2.31345 -0.0213382 1.97231 0.0178325 1.65033 0.125962C1.32835 0.234091 1.03272 0.40876 0.782653 0.638616C0.53259 0.868472 0.333689 1.14837 0.198876 1.46013C0.0640626 1.77188 -0.00364556 2.10851 0.000151289 2.44815V13.2323C0.0136991 13.8233 0.234985 14.3906 0.625162 14.8346C1.01534 15.2787 1.54947 15.5711 2.13378 15.6605L2.39267 15.6963C4.63616 16.0701 6.8096 16.7835 8.83818 17.812Z" fill="#586C84"/>
</svg>
