<svg width="42" height="42" viewBox="0 0 42 42" fill="none" xmlns="http://www.w3.org/2000/svg">
<path d="M6.3 42C4.55 42 3.0625 41.3875 1.8375 40.1625C0.6125 38.9375 0 37.45 0 35.7V6.3C0 4.55 0.6125 3.0625 1.8375 1.8375C3.0625 0.6125 4.55 0 6.3 0H35.7C37.45 0 38.9375 0.6125 40.1625 1.8375C41.3875 3.0625 42 4.55 42 6.3V35.7C42 37.45 41.3875 38.9375 40.1625 40.1625C38.9375 41.3875 37.45 42 35.7 42H6.3ZM6.3 37.8H35.7C36.295 37.8 36.7934 37.5984 37.1952 37.1952C37.5984 36.7934 37.8 36.295 37.8 35.7V6.3C37.8 5.705 37.5984 5.2059 37.1952 4.8027C36.7934 4.4009 36.295 4.2 35.7 4.2H6.3C5.705 4.2 5.2059 4.4009 4.8027 4.8027C4.4009 5.2059 4.2 5.705 4.2 6.3V35.7C4.2 36.295 4.4009 36.7934 4.8027 37.1952C5.2059 37.5984 5.705 37.8 6.3 37.8ZM8.4 33.6L16.8 25.2L20.58 28.9275L25.2 23.1L33.6 33.6H8.4ZM12.6 16.8C11.445 16.8 10.4566 16.3884 9.6348 15.5652C8.8116 14.7434 8.4 13.755 8.4 12.6C8.4 11.445 8.8116 10.4566 9.6348 9.6348C10.4566 8.8116 11.445 8.4 12.6 8.4C13.755 8.4 14.7441 8.8116 15.5673 9.6348C16.3891 10.4566 16.8 11.445 16.8 12.6C16.8 13.755 16.3891 14.7434 15.5673 15.5652C14.7441 16.3884 13.755 16.8 12.6 16.8Z" fill="#FD9C41"/>
</svg>
