<svg width="98" height="98" viewBox="0 0 98 98" fill="none" xmlns="http://www.w3.org/2000/svg">
<path d="M50.411 42.2369L38.3278 86.259C38.3278 86.259 60.0267 78.4763 73.832 78.2336C73.832 78.2336 81.8585 51.1673 93.5097 39.7307L50.411 42.2369Z" fill="#076170"/>
<path d="M51.5454 82.7181C51.5454 82.7181 62.9508 43.8859 64.8731 42.3229C66.8336 40.621 79.3483 41.816 79.3483 41.816C79.3483 41.816 64.4629 77.005 64.9259 79.6707C65.1028 79.57 59.5317 80.2808 51.5454 82.7181Z" fill="#B3690E"/>
<path d="M38.3303 86.2589C38.3303 86.2589 28.5274 71.9202 10.2316 60.7756C10.2316 60.7756 17.8961 38.8367 15.3633 19.7734L50.4136 42.2368L38.3303 86.2589Z" fill="#3BAACF"/>
<path d="M17.2941 66.5967C17.2941 66.5967 27.6633 74.5202 28.0772 76.2765C28.4912 78.0328 39.6977 37.2047 39.6977 37.2047C39.6977 37.2047 24.9473 28.3773 23.5586 27.9961C23.5586 27.9961 23.8831 45.8559 17.2941 66.5967Z" fill="#E9C243"/>
<path opacity="0.3" d="M50.4096 42.2359L48.3893 49.596L87.4336 47.1716C89.2442 44.3833 91.2945 41.81 93.3694 39.6915L50.4096 42.2359ZM15.7625 28.0966C15.7924 25.2674 15.6452 22.539 15.2204 19.7344L50.2707 42.1978L48.2505 49.5579L15.7625 28.0966Z" fill="black"/>
<path d="M13.2354 15.0099L50.4122 34.6223L97.0536 36.0751L54.7904 21.936L13.2354 15.0099Z" fill="#4FC7E8"/>
<path d="M13.2344 15.0098L14.027 24.6353L47.5905 44.8986L50.4112 34.6221L13.2344 15.0098Z" fill="#3BAACF"/>
<path d="M47.59 44.8969C47.59 44.8969 83.9957 41.7482 92.3415 43.4416C92.3415 43.4416 94.2311 38.7336 97.0139 36.2121L50.4107 34.6204L47.59 44.8969Z" fill="#076170"/>
<path d="M24.4922 21.2905L30.2375 32.4709L40.2937 29.7519L54.3207 28.1747L69.7894 34.4202L77.7316 38.4831L86.0854 33.7496L24.4922 21.2905Z" fill="#F0AE11"/>
<path d="M40.2077 30.5171L54.2375 28.9189L69.7164 35.2142L86.0168 34.5298L54.8113 22.9557L24.3939 21.9858L40.2077 30.5171Z" fill="#F0AE11"/>
<path d="M24.3125 20.8887L21.6443 30.6096L36.6724 39.5133L40.2637 29.1497L24.3125 20.8887Z" fill="#F8D048"/>
<path d="M69.8214 35.1712L67.5453 44.5518L82.5759 44.1974L86.0883 35.7535L69.8214 35.1712Z" fill="#C47116"/>
<path d="M62.8645 26.2423C62.8645 26.2423 65.5327 16.5214 77.3011 10.6422C77.3011 10.6422 71.0357 11.1625 68.4107 9.84462C65.2303 8.37432 65.2247 4.04212 65.2247 4.04212C65.2247 4.04212 52.3674 19.3291 54.1183 22.199C55.8311 25.2078 62.8645 26.2423 62.8645 26.2423Z" fill="#EA9F07"/>
<path d="M48.9428 28.5436C48.9428 28.5436 46.5762 15.9473 36.6508 6.95097C36.6508 6.95097 45.9062 8.59538 48.2942 8.05618C51.2758 7.53057 53.7563 4.47808 53.7563 4.47808C53.7563 4.47808 58.9522 24.7203 57.3947 27.1301C55.8373 29.54 48.9428 28.5436 48.9428 28.5436Z" fill="#F8D048"/>
<path d="M55.1165 28.8945C55.1165 28.8945 45.7305 29.9022 34.8986 26.929C12.1618 20.5389 13.4657 3.27541 35.5435 10.978C53.6322 17.4364 55.1165 28.8945 55.1165 28.8945Z" fill="#EA9F07"/>
<path d="M53.6279 28.3373C53.6279 28.3373 63.3979 31.915 73.3502 32.1081C94.1644 32.4452 90.9836 15.7427 70.9373 16.9604C54.5289 17.982 53.6279 28.3373 53.6279 28.3373Z" fill="#F0AE11"/>
<path d="M54.9016 28.6478C54.9016 28.6478 49.0525 29.7782 42.3276 28.2295C28.3288 25.0055 29.3972 13.0298 42.9629 17.3101C54.1005 20.866 54.9016 28.6478 54.9016 28.6478Z" fill="#824000"/>
<path d="M55.1184 29.9889C55.1184 29.9889 61.7796 32.1477 68.7078 31.7815C83.1529 31.0214 81.2283 18.6265 67.4857 20.5157C56.0037 22.1102 55.1184 29.9889 55.1184 29.9889Z" fill="#824000"/>
</svg>
