<svg width="14" height="14" viewBox="0 0 14 14" fill="none" xmlns="http://www.w3.org/2000/svg">
<path d="M6.99984 5.10425C5.95281 5.10425 5.104 5.95306 5.104 7.00008C5.104 8.04711 5.95281 8.89591 6.99984 8.89591C8.04686 8.89591 8.89567 8.04711 8.89567 7.00008C8.89567 5.95306 8.04686 5.10425 6.99984 5.10425Z" fill="#515151"/>
<path fill-rule="evenodd" clip-rule="evenodd" d="M5.03619 4.35307C5.20943 4.5215 5.21332 4.79849 5.04488 4.97173C3.95704 6.09061 3.95704 7.90956 5.04488 9.02845C5.21332 9.2017 5.20943 9.47866 5.03619 9.64707C4.86294 9.81554 4.58596 9.81163 4.41753 9.63838C2.9995 8.17993 2.9995 5.82024 4.41753 4.36177C4.58596 4.18853 4.86294 4.18463 5.03619 4.35307ZM8.96351 4.35307C9.13671 4.18463 9.41373 4.18853 9.58214 4.36177C11.0002 5.82024 11.0002 8.17993 9.58214 9.63838C9.41373 9.81163 9.13671 9.81554 8.96351 9.64707C8.79026 9.47866 8.78636 9.2017 8.95482 9.02845C10.0426 7.90956 10.0426 6.09061 8.95482 4.97173C8.78636 4.79849 8.79026 4.5215 8.96351 4.35307Z" fill="#515151"/>
<path fill-rule="evenodd" clip-rule="evenodd" d="M3.80339 3.19091C3.9741 3.36191 3.97386 3.63892 3.80286 3.80963C2.03772 5.57171 2.03772 8.42829 3.80286 10.1904C3.97386 10.3611 3.9741 10.6381 3.80339 10.8091C3.63269 10.9801 3.35568 10.9803 3.18467 10.8096C1.07711 8.70573 1.07711 5.29429 3.18467 3.19037C3.35568 3.01967 3.63269 3.01991 3.80339 3.19091ZM10.1963 3.19091C10.367 3.01991 10.644 3.01967 10.815 3.19037C12.9225 5.29429 12.9225 8.70573 10.815 10.8096C10.644 10.9803 10.367 10.9801 10.1963 10.8091C10.0256 10.6381 10.0258 10.3611 10.1968 10.1904C11.962 8.42829 11.962 5.57171 10.1968 3.80963C10.0258 3.63892 10.0256 3.36191 10.1963 3.19091Z" fill="#515151"/>
</svg>
