<svg width="8" height="8" viewBox="0 0 8 8" fill="none" xmlns="http://www.w3.org/2000/svg">
<path d="M7.7843 3.62832C7.874 3.55831 7.94053 3.46063 7.97458 3.34899C8.00862 3.23735 8.00847 3.11734 7.97414 3.0058C7.93981 2.89425 7.87302 2.79676 7.78314 2.727C7.69326 2.65723 7.5848 2.61869 7.47296 2.61678L5.30085 2.5308C5.29017 2.53002 5.27993 2.52603 5.27137 2.5193C5.26281 2.51257 5.25628 2.50339 5.25258 2.49286L4.502 0.36862C4.46429 0.260547 4.39579 0.167226 4.30579 0.101293C4.21578 0.0353602 4.10861 0 3.99879 0C3.88897 0 3.78181 0.0353602 3.6918 0.101293C3.6018 0.167226 3.5333 0.260547 3.49559 0.36862L2.74742 2.50045C2.74372 2.51098 2.73719 2.52016 2.72863 2.52689C2.72007 2.53362 2.70983 2.53761 2.69915 2.53838L0.527038 2.62437C0.4152 2.62628 0.306737 2.66482 0.216859 2.73458C0.126981 2.80435 0.0601933 2.90184 0.0258619 3.01338C-0.00846955 3.12493 -0.00862358 3.24493 0.0254214 3.35657C0.0594663 3.46822 0.126003 3.56589 0.215702 3.63591L1.9196 5.03943C1.92813 5.04646 1.9345 5.05596 1.93793 5.06674C1.94137 5.07753 1.9417 5.08913 1.93891 5.10012L1.35244 7.27747C1.32205 7.38835 1.32499 7.50634 1.36087 7.6154C1.39675 7.72446 1.46382 7.81929 1.55296 7.887C1.6421 7.9547 1.74898 7.99199 1.85906 7.99378C1.96914 7.99558 2.07708 7.9618 2.16819 7.89704L3.96863 6.63261C3.97749 6.62619 3.98802 6.62276 3.99879 6.62276C4.00957 6.62276 4.02009 6.62619 4.02896 6.63261L5.8294 7.89704C5.91928 7.96402 6.02683 8 6.13712 8C6.2474 8 6.35495 7.96402 6.44483 7.89704C6.53399 7.82998 6.60113 7.73561 6.637 7.62692C6.67287 7.51823 6.67572 7.40057 6.64515 7.29012L6.05385 5.10518C6.05072 5.09421 6.05089 5.0825 6.05435 5.07163C6.0578 5.06077 6.06437 5.05129 6.07316 5.04449L7.7843 3.62832Z" fill="#FFCE6B"/>
</svg>
