<svg width="10" height="10" viewBox="0 0 10 10" fill="none" xmlns="http://www.w3.org/2000/svg">
<path d="M0.916015 5.58325L7.83435 5.58325L5.71685 8.12659C5.61783 8.24571 5.5702 8.39929 5.58442 8.55354C5.59864 8.70779 5.67356 8.85007 5.79268 8.94909C5.91181 9.0481 6.06539 9.09574 6.21964 9.08152C6.37389 9.06729 6.51617 8.99238 6.61518 8.87325L9.53185 5.37325C9.55147 5.34542 9.56902 5.31617 9.58435 5.28575C9.58435 5.25659 9.58435 5.23909 9.62518 5.20992C9.65162 5.14304 9.66547 5.07184 9.66602 4.99992C9.66547 4.928 9.65162 4.85681 9.62518 4.78992C9.62518 4.76075 9.62518 4.74325 9.58435 4.71409C9.56902 4.68367 9.55147 4.65443 9.53185 4.62659L6.61518 1.12659C6.56034 1.06074 6.49165 1.00778 6.41402 0.97149C6.33639 0.935194 6.25171 0.91645 6.16602 0.916589C6.02972 0.916322 5.89763 0.963791 5.79268 1.05075C5.73361 1.09973 5.68479 1.15987 5.649 1.22774C5.61321 1.29561 5.59116 1.36987 5.58412 1.44627C5.57707 1.52267 5.58517 1.59972 5.60795 1.67299C5.63072 1.74625 5.66773 1.81431 5.71685 1.87325L7.83435 4.41659L0.916015 4.41659C0.761306 4.41659 0.612932 4.47805 0.503535 4.58744C0.394139 4.69684 0.332682 4.84521 0.332682 4.99992C0.332682 5.15463 0.394139 5.303 0.503535 5.4124C0.612932 5.5218 0.761306 5.58325 0.916015 5.58325Z" fill="#FF7F2E"/>
</svg>
