<svg width="21" height="22" viewBox="0 0 21 22" fill="none" xmlns="http://www.w3.org/2000/svg">
<path d="M18.3762 6.38867C18.3587 6.38867 18.3324 6.38867 18.3062 6.38867C13.6774 5.92492 9.05743 5.74992 4.48118 6.21367L2.69618 6.38867C2.32868 6.42367 2.00493 6.16117 1.96993 5.79367C1.93493 5.42617 2.19743 5.11117 2.55618 5.07617L4.34118 4.90117C8.99618 4.42867 13.7124 4.61242 18.4374 5.07617C18.7962 5.11117 19.0587 5.43492 19.0237 5.79367C18.9974 6.13492 18.7087 6.38867 18.3762 6.38867Z" fill="white"/>
<path d="M7.4362 5.50695C7.4012 5.50695 7.3662 5.50695 7.32245 5.4982C6.97245 5.43695 6.72745 5.0957 6.7887 4.7457L6.9812 3.59945C7.1212 2.75945 7.3137 1.5957 9.35245 1.5957H11.6449C13.6924 1.5957 13.8849 2.8032 14.0162 3.6082L14.2087 4.7457C14.2699 5.10445 14.0249 5.4457 13.6749 5.4982C13.3162 5.55945 12.9749 5.31445 12.9224 4.96445L12.7299 3.82695C12.6074 3.0657 12.5812 2.91695 11.6537 2.91695H9.3612C8.4337 2.91695 8.4162 3.03945 8.28495 3.8182L8.0837 4.9557C8.0312 5.27945 7.7512 5.50695 7.4362 5.50695Z" fill="white"/>
<path d="M13.3081 20.4056H7.69061C4.63686 20.4056 4.51436 18.7169 4.41811 17.3519L3.84936 8.54064C3.82311 8.18189 4.10311 7.86689 4.46186 7.84064C4.82936 7.82314 5.13561 8.09439 5.16186 8.45314L5.73061 17.2644C5.82686 18.5944 5.86186 19.0931 7.69061 19.0931H13.3081C15.1456 19.0931 15.1806 18.5944 15.2681 17.2644L15.8369 8.45314C15.8631 8.09439 16.1781 7.82314 16.5369 7.84064C16.8956 7.86689 17.1756 8.17314 17.1494 8.54064L16.5806 17.3519C16.4844 18.7169 16.3619 20.4056 13.3081 20.4056Z" fill="white"/>
<path d="M11.9528 15.5938H9.03906C8.68031 15.5938 8.38281 15.2962 8.38281 14.9375C8.38281 14.5788 8.68031 14.2812 9.03906 14.2812H11.9528C12.3116 14.2812 12.6091 14.5788 12.6091 14.9375C12.6091 15.2962 12.3116 15.5938 11.9528 15.5938Z" fill="white"/>
<path d="M12.6895 12.0957H8.31445C7.9557 12.0957 7.6582 11.7982 7.6582 11.4395C7.6582 11.0807 7.9557 10.7832 8.31445 10.7832H12.6895C13.0482 10.7832 13.3457 11.0807 13.3457 11.4395C13.3457 11.7982 13.0482 12.0957 12.6895 12.0957Z" fill="white"/>
</svg>
