<svg width="165" height="54" viewBox="0 0 165 54" fill="none" xmlns="http://www.w3.org/2000/svg">
<path d="M84.5544 46.854L87.144 43.8389H88.4835L85.4766 47.26L88.501 51.3962H87.1569L84.7611 48.0338L84.5544 48.2686V51.3962H83.5508V43.8389H84.5544V46.854Z" fill="black"/>
<path d="M89.207 46.6282H90.1809V47.0689C90.5196 46.6873 90.9017 46.4961 91.3273 46.4961C91.8149 46.4961 92.196 46.671 92.4687 47.0199C92.7041 47.3167 92.8221 47.8014 92.8221 48.4737V51.3958H91.8483V48.7334C91.8483 48.2637 91.7909 47.9388 91.6757 47.7595C91.5638 47.5768 91.3599 47.4851 91.0643 47.4851C90.7428 47.4851 90.5142 47.6062 90.3793 47.8475C90.2472 48.0856 90.1809 48.5018 90.1809 49.0954V51.3958H89.207V46.6282Z" fill="black"/>
<path d="M93.8555 48.9776C93.8555 48.289 94.0722 47.7032 94.5057 47.2205C94.9395 46.7374 95.4676 46.4961 96.0909 46.4961C96.7171 46.4961 97.2485 46.7391 97.6851 47.2254C98.1161 47.7118 98.3314 48.309 98.3314 49.0167C98.3314 49.7317 98.1143 50.3302 97.6812 50.8133C97.2445 51.2931 96.7088 51.5328 96.074 51.5328C95.4447 51.5328 94.9179 51.2882 94.4927 50.7986C94.0679 50.3155 93.8555 49.7085 93.8555 48.9776ZM94.8462 48.9975C94.8462 49.4741 94.9581 49.8508 95.182 50.128C95.412 50.4089 95.7149 50.5487 96.0913 50.5487C96.4705 50.5487 96.7734 50.4101 97.0005 50.1325C97.2269 49.8553 97.341 49.4851 97.341 49.0216C97.341 48.5581 97.2273 48.1879 97.0005 47.9107C96.7705 47.6298 96.4677 47.4896 96.0913 47.4896C95.721 47.4896 95.421 47.6298 95.191 47.9107C94.9614 48.1912 94.8462 48.5536 94.8462 48.9975Z" fill="black"/>
<path d="M99.7108 46.6287L100.81 49.3503L101.994 46.1934L103.187 49.3503L104.273 46.6287H105.359L103.161 51.7535L101.994 48.6846L100.814 51.7535L98.6211 46.6287H99.7108Z" fill="black"/>
<path d="M107.059 43.1289V51.396H106.09V43.1289H107.059Z" fill="black"/>
<path d="M112.109 49.2719H109.102C109.128 49.6633 109.24 49.9751 109.438 50.2067C109.637 50.435 109.891 50.5491 110.201 50.5491C110.442 50.5491 110.641 50.4843 110.8 50.3534C110.955 50.223 111.132 49.9812 111.329 49.629L112.148 50.148C112.022 50.3926 111.888 50.6021 111.747 50.7766C111.607 50.9515 111.456 51.0946 111.295 51.2075C111.134 51.32 110.961 51.4024 110.774 51.4545C110.587 51.5067 110.384 51.5328 110.166 51.5328C109.54 51.5328 109.037 51.3045 108.659 50.8475C108.279 50.3873 108.09 49.7774 108.09 49.0167C108.09 48.2633 108.274 47.653 108.641 47.1863C109.011 46.726 109.503 46.4961 110.114 46.4961C110.732 46.4961 111.22 46.7195 111.579 47.1667C111.936 47.6107 112.114 48.2258 112.114 49.0122L112.109 49.2719ZM111.114 48.3714C110.979 47.7839 110.653 47.49 110.136 47.49C110.018 47.49 109.908 47.5104 109.805 47.5511C109.701 47.5919 109.607 47.6506 109.522 47.7272C109.438 47.8039 109.365 47.8964 109.305 48.0041C109.245 48.1117 109.198 48.234 109.167 48.371H111.114V48.3714Z" fill="black"/>
<path d="M116.263 43.1289H117.237V51.396H116.263V50.897C115.882 51.321 115.449 51.533 114.967 51.533C114.393 51.533 113.916 51.2949 113.537 50.8183C113.16 50.3324 112.973 49.725 112.973 48.9977C112.973 48.2863 113.16 47.6923 113.537 47.2158C113.91 46.7359 114.38 46.4962 114.945 46.4962C115.437 46.4962 115.876 46.7245 116.264 47.1815V43.1289H116.263ZM113.963 48.9981C113.963 49.4547 114.07 49.8269 114.286 50.1139C114.507 50.4041 114.786 50.5493 115.122 50.5493C115.481 50.5493 115.771 50.409 115.992 50.1285C116.214 49.8383 116.324 49.4693 116.324 49.0221C116.324 48.5749 116.213 48.2064 115.992 47.9157C115.771 47.632 115.484 47.4901 115.131 47.4901C114.797 47.4901 114.519 47.634 114.295 47.921C114.074 48.2113 113.963 48.5704 113.963 48.9981Z" fill="black"/>
<path d="M122.522 51.2825C122.522 51.5079 122.515 51.7061 122.502 51.8773C122.489 52.0485 122.471 52.1994 122.448 52.3302C122.379 52.689 122.244 52.9976 122.043 53.2556C121.664 53.7513 121.143 53.9996 120.479 53.9996C119.919 53.9996 119.458 53.8284 119.096 53.4855C118.723 53.1333 118.507 52.6453 118.45 52.022H119.424C119.462 52.2572 119.523 52.4382 119.609 52.5654C119.81 52.8622 120.103 53.011 120.488 53.011C121.198 53.011 121.552 52.5165 121.552 51.5275V50.8622C121.167 51.3094 120.724 51.5328 120.221 51.5328C119.65 51.5328 119.182 51.2976 118.817 50.828C118.449 50.3514 118.266 49.7562 118.266 49.0416C118.266 48.3465 118.436 47.7558 118.778 47.2694C119.145 46.7541 119.631 46.4961 120.234 46.4961C120.762 46.4961 121.202 46.7195 121.552 47.1667V46.6282H122.522V51.2825H122.522ZM121.591 49.0212C121.591 48.5577 121.482 48.1875 121.263 47.9103C121.042 47.6261 120.76 47.4843 120.415 47.4843C120.047 47.4843 119.757 47.6392 119.545 47.9494C119.352 48.2266 119.256 48.5858 119.256 49.0265C119.256 49.4602 119.352 49.8161 119.545 50.0933C119.754 50.3966 120.044 50.5483 120.415 50.5483C120.786 50.5483 121.078 50.395 121.294 50.088C121.491 49.8112 121.591 49.4553 121.591 49.0212Z" fill="black"/>
<path d="M127.566 49.2719H124.559C124.585 49.6633 124.697 49.9751 124.895 50.2067C125.094 50.435 125.348 50.5491 125.658 50.5491C125.899 50.5491 126.098 50.4843 126.257 50.3534C126.412 50.223 126.589 49.9812 126.786 49.629L127.605 50.148C127.479 50.3926 127.345 50.6021 127.204 50.7766C127.064 50.9515 126.913 51.0946 126.752 51.2075C126.591 51.32 126.418 51.4024 126.231 51.4545C126.044 51.5067 125.841 51.5328 125.623 51.5328C124.997 51.5328 124.494 51.3045 124.116 50.8475C123.736 50.3873 123.547 49.7774 123.547 49.0167C123.547 48.2633 123.731 47.653 124.098 47.1863C124.468 46.726 124.96 46.4961 125.571 46.4961C126.189 46.4961 126.677 46.7195 127.036 47.1667C127.393 47.6107 127.571 48.2258 127.571 49.0122L127.566 49.2719ZM126.571 48.3714C126.436 47.7839 126.11 47.49 125.593 47.49C125.475 47.49 125.365 47.5104 125.262 47.5511C125.158 47.5919 125.064 47.6506 124.979 47.7272C124.895 47.8039 124.822 47.8964 124.762 48.0041C124.702 48.1117 124.655 48.234 124.624 48.371H126.571V48.3714Z" fill="black"/>
<path d="M131.199 44.6482C131.199 44.4554 131.261 44.2891 131.384 44.1488C131.508 44.0086 131.656 43.9385 131.828 43.9385C132.003 43.9385 132.153 44.009 132.276 44.1488C132.4 44.2862 132.461 44.4542 132.461 44.6531C132.461 44.8521 132.399 45.0221 132.276 45.1619C132.155 45.3021 132.008 45.3727 131.833 45.3727C131.657 45.3727 131.508 45.3021 131.384 45.1619C131.261 45.0216 131.199 44.8504 131.199 44.6482ZM132.315 46.6303V51.398H131.345V46.6303H132.315Z" fill="black"/>
<path d="M135.988 47.4407L135.187 47.9254C135.06 47.6314 134.904 47.4847 134.717 47.4847C134.628 47.4847 134.552 47.5185 134.489 47.585C134.426 47.6518 134.394 47.7378 134.394 47.8422C134.394 48.0248 134.581 48.2058 134.954 48.3856C135.468 48.6368 135.815 48.8683 135.993 49.0803C136.171 49.2927 136.26 49.5781 136.26 49.9368C136.26 50.3971 136.111 50.7819 135.812 51.0921C135.522 51.3861 135.171 51.5324 134.76 51.5324C134.057 51.5324 133.558 51.1427 133.266 50.3624L134.093 49.927C134.208 50.1553 134.295 50.3008 134.356 50.3624C134.473 50.4867 134.614 50.5483 134.778 50.5483C135.105 50.5483 135.269 50.3791 135.269 50.0395C135.269 49.8434 135.143 49.6608 134.89 49.4912C134.792 49.4358 134.694 49.3824 134.597 49.3298C134.499 49.2776 134.4 49.2238 134.299 49.1679C134.018 49.0114 133.82 48.8549 133.706 48.6983C133.559 48.4994 133.486 48.2434 133.486 47.9299C133.486 47.5157 133.61 47.1728 133.861 46.9021C134.116 46.6314 134.426 46.4961 134.791 46.4961C135.327 46.4961 135.726 46.8112 135.988 47.4407Z" fill="black"/>
<path d="M141.035 48.3269V51.3958H140.031V43.8389H141.169C141.726 43.8389 142.146 43.8829 142.431 43.971C142.718 44.059 142.971 44.2253 143.189 44.4699C143.571 44.8943 143.762 45.4296 143.762 46.0753C143.762 46.7671 143.558 47.3155 143.15 47.7203C142.742 48.1251 142.192 48.3273 141.5 48.3273H141.035V48.3269ZM141.035 47.2698H141.41C142.332 47.2698 142.793 46.867 142.793 46.0607C142.793 45.2808 142.317 44.8911 141.366 44.8911H141.035V47.2698Z" fill="black"/>
<path d="M144.16 48.9776C144.16 48.289 144.377 47.7032 144.81 47.2205C145.244 46.7374 145.772 46.4961 146.396 46.4961C147.022 46.4961 147.553 46.7391 147.99 47.2254C148.421 47.7118 148.636 48.309 148.636 49.0167C148.636 49.7317 148.419 50.3302 147.986 50.8133C147.549 51.2931 147.013 51.5328 146.379 51.5328C145.75 51.5328 145.223 51.2882 144.797 50.7986C144.373 50.3155 144.16 49.7085 144.16 48.9776ZM145.151 48.9975C145.151 49.4741 145.263 49.8508 145.487 50.128C145.717 50.4089 146.02 50.5487 146.396 50.5487C146.775 50.5487 147.078 50.4101 147.305 50.1325C147.532 49.8553 147.646 49.4851 147.646 49.0216C147.646 48.5581 147.532 48.1879 147.305 47.9107C147.075 47.6298 146.772 47.4896 146.396 47.4896C146.026 47.4896 145.726 47.6298 145.496 47.9107C145.266 48.1912 145.151 48.5536 145.151 48.9975Z" fill="black"/>
<path d="M150.016 46.6287L151.114 49.3503L152.299 46.1934L153.492 49.3503L154.578 46.6287H155.663L153.466 51.7535L152.299 48.6846L151.119 51.7535L148.926 46.6287H150.016Z" fill="black"/>
<path d="M160.007 49.2719H157.001C157.026 49.6633 157.138 49.9751 157.336 50.2067C157.535 50.435 157.789 50.5491 158.099 50.5491C158.34 50.5491 158.539 50.4843 158.698 50.3534C158.853 50.223 159.03 49.9812 159.227 49.629L160.046 50.148C159.92 50.3926 159.786 50.6021 159.645 50.7766C159.505 50.9515 159.354 51.0946 159.193 51.2075C159.033 51.32 158.859 51.4024 158.672 51.4545C158.485 51.5067 158.283 51.5328 158.065 51.5328C157.439 51.5328 156.936 51.3045 156.557 50.8475C156.178 50.3873 155.988 49.7774 155.988 49.0167C155.988 48.2633 156.172 47.653 156.539 47.1863C156.91 46.726 157.401 46.4961 158.013 46.4961C158.631 46.4961 159.119 46.7195 159.478 47.1667C159.834 47.6107 160.012 48.2258 160.012 49.0122L160.007 49.2719ZM159.012 48.3714C158.877 47.7839 158.551 47.49 158.034 47.49C157.916 47.49 157.806 47.5104 157.703 47.5511C157.599 47.5919 157.505 47.6506 157.42 47.7272C157.336 47.8039 157.263 47.8964 157.203 48.0041C157.143 48.1117 157.096 48.234 157.065 48.371H159.012V48.3714Z" fill="black"/>
<path d="M161.066 46.6282H162.036V47.0542C162.214 46.8418 162.372 46.6967 162.51 46.6184C162.651 46.5369 162.817 46.4961 163.01 46.4961C163.265 46.4961 163.532 46.5907 163.811 46.7798L163.367 47.7884C163.183 47.6384 163.004 47.563 162.828 47.563C162.3 47.563 162.036 48.0167 162.036 48.9237V51.3958H161.066V46.6282Z" fill="black"/>
<path d="M74.2495 36.2423H68.1323L67.1018 41.6055H60.7188L67.5672 15.3555H74.9474L81.7958 41.6055H75.2796L74.2495 36.2423ZM73.2853 31.2569L71.1912 20.3416L69.0965 31.2569H73.2853Z" fill="#003194"/>
<path d="M89.1029 41.6051H82.9531V15.3555H89.1029V41.6051ZM95.6191 27.0641L103.165 41.6055H96.1175L89.3028 27.6307L96.1512 15.3555H102.568L95.6191 27.0641Z" fill="#003194"/>
<path d="M120.32 18.1517L117.561 21.8533C115.965 20.4179 114.37 19.7004 112.541 19.7004C110.746 19.7004 109.749 20.4938 109.749 21.9287C109.749 23.44 110.613 23.9687 114.071 25.2524C118.625 26.8766 120.919 29.1049 120.919 33.864C120.919 38.8119 117.395 42.2868 111.478 42.2868C107.256 42.2868 104.364 40.5493 102.469 38.4723L105.494 34.6573C107.189 36.2436 109.018 37.2256 111.245 37.2256C113.373 37.2256 114.537 36.0927 114.537 34.3927C114.537 32.6553 113.738 31.9003 110.547 30.8049C105.162 28.8782 103.433 26.3479 103.433 22.4954C103.433 17.6984 107.123 14.6768 112.076 14.6768C115.667 14.6768 118.26 15.9234 120.32 18.1517Z" fill="#003194"/>
<path d="M135.638 30.6899H129.521V41.6051H123.371V15.3555H129.521V25.2887H135.638V15.3555H141.788V41.6055H135.638V30.6899Z" fill="#003194"/>
<path d="M156.456 36.2423H150.339L149.309 41.6055H142.926L149.774 15.3555H157.154L164.003 41.6055H157.487L156.456 36.2423ZM155.492 31.2569L153.398 20.3416L151.303 31.2569H155.492Z" fill="#003194"/>
<path d="M16.4482 13.3884C18.2161 13.3884 19.9007 13.3884 21.5857 13.3884C22.5653 13.3884 23.5452 13.4084 24.5237 13.3786C24.9045 13.3672 25.1484 13.4956 25.391 13.8397C28.0082 17.5556 30.6416 21.2568 33.271 24.9613C33.5175 25.3086 33.7669 25.6539 34.1082 26.1296C34.1082 21.8157 34.1082 17.6546 34.1082 13.4414C36.9349 13.4414 39.6946 13.4414 42.4991 13.4414C42.4991 23.0049 42.4991 32.5532 42.4991 42.1591C42.3043 42.1738 42.1306 42.1974 41.9573 42.1978C39.799 42.2003 37.6404 42.1909 35.4821 42.208C35.1218 42.2109 34.8911 42.0865 34.6632 41.7628C32.0475 38.0457 29.4173 34.3413 26.7904 30.6343C23.4968 25.9869 20.2072 21.3359 16.9021 16.6987C16.5763 16.2417 16.3969 15.7908 16.4399 15.1944C16.4805 14.6249 16.4482 14.0484 16.4482 13.3884Z" fill="#EF6A28"/>
<path d="M16.5782 20.7751C17.3608 21.8741 18.1409 22.9753 18.926 24.0715C19.9507 25.5024 20.9867 26.9227 22.0046 28.3597C22.8762 29.5901 23.7406 30.8277 24.5799 32.0866C24.7094 32.2811 24.7643 32.6239 24.7223 32.8693C23.8009 38.2383 20.9048 41.4527 16.1351 42.3985C13.3524 42.9505 10.5727 42.933 7.82339 42.1499C3.50859 40.9207 0.854052 37.5669 0.231143 32.5546C0.09228 31.4364 0.0180045 30.299 0.012981 29.1698C-0.00962456 24.1612 0.00401055 19.1522 0.00472819 14.1432C0.00472819 13.923 0.00472819 13.7025 0.00472819 13.4473C2.8699 13.4473 5.67335 13.4473 8.54928 13.4473C8.54928 13.6825 8.54928 13.9006 8.54928 14.1191C8.54964 19.1073 8.53026 24.0959 8.5683 29.0837C8.57512 29.9928 8.71721 30.9374 8.97233 31.7984C9.36308 33.1172 10.2382 33.9806 11.4672 34.1714C12.2247 34.2892 13.0324 34.2998 13.7787 34.1335C15.2513 33.8057 16.2445 32.3842 16.355 30.6696C16.3949 30.0536 16.4207 29.4364 16.434 28.8192" fill="#003194"/>
<path d="M64.1562 41.4679L52.8667 28.6407L64.1562 15.8135H54.5797L43.2891 28.6407L54.5797 41.4679H64.1562Z" fill="#003194"/>
<path d="M37.5291 10.9393C40.188 10.9393 42.3434 8.49048 42.3434 5.46967C42.3434 2.44885 40.188 0 37.5291 0C34.8703 0 32.7148 2.44885 32.7148 5.46967C32.7148 8.49048 34.8703 10.9393 37.5291 10.9393Z" fill="#0E348E"/>
<path d="M29.9647 8.54625C30.3221 8.82387 33.6551 7.83813 37.867 5.89886C42.0788 3.95959 44.9299 1.90087 45.217 1.52378C45.6372 0.972206 42.4792 2.24005 42.4792 2.24005C42.4792 2.24005 44.1728 1.65831 43.6192 2.15689C43.0655 2.65546 32.5787 7.84873 31.921 7.39173C31.2633 6.93474 32.7168 6.47775 32.7168 6.47775C32.7168 6.47775 29.1502 7.91436 29.9647 8.54625Z" fill="#EF6A28"/>
</svg>
