<svg width="19" height="16" viewBox="0 0 19 16" fill="none" xmlns="http://www.w3.org/2000/svg">
<path fill-rule="evenodd" clip-rule="evenodd" d="M14.694 4.87529H14.7596C15.2759 4.87538 15.7871 4.97732 16.2639 5.17529C16.7407 5.37327 17.1737 5.66337 17.5382 6.02898C18.2754 6.76788 18.6894 7.76903 18.6894 8.81279C18.6894 9.85656 18.2754 10.8577 17.5382 11.5966C17.1737 11.9622 16.7407 12.2523 16.2639 12.4503C15.7871 12.6483 15.2759 12.7502 14.7596 12.7503H12.7975C12.435 12.7503 12.1412 12.4565 12.1412 12.094C12.1412 11.7316 12.435 11.4378 12.7975 11.4378H14.7596C15.4355 11.4076 16.0737 11.1178 16.5413 10.6288C17.0089 10.1398 17.2698 9.48935 17.2698 8.81279C17.2698 8.13623 17.0089 7.48574 16.5413 6.99677C16.0737 6.5078 15.4355 6.21803 14.7596 6.18779H13.56L13.3986 5.06298C13.3001 4.35826 12.9743 3.70495 12.4706 3.20227C11.967 2.6996 11.3131 2.37502 10.6082 2.27785C9.90289 2.18151 9.18545 2.31922 8.56594 2.66987C7.94643 3.02053 7.45907 3.56474 7.17864 4.21904L6.74158 5.21917L5.67976 4.9711C5.43706 4.9109 5.18824 4.87875 4.9382 4.87529C4.06933 4.87529 3.23589 5.22048 2.62295 5.83604C2.16616 6.29535 1.85535 6.87945 1.7296 7.5149C1.60386 8.15036 1.66878 8.80881 1.91621 9.40747C2.16364 10.0061 2.58254 10.5183 3.12024 10.8795C3.65793 11.2408 4.29043 11.435 4.9382 11.4378H7.55533C7.91776 11.4378 8.21158 11.7316 8.21158 12.094C8.21158 12.4565 7.91776 12.7503 7.55533 12.7503H4.9382C4.2881 12.7561 3.64422 12.6234 3.04946 12.3608C2.4547 12.0983 1.92272 11.7121 1.48895 11.2278C0.833105 10.4974 0.428311 9.57626 0.33384 8.59919C0.239369 7.62212 0.460184 6.64048 0.963952 5.79798C1.29761 5.2398 1.74607 4.7589 2.27962 4.38714C2.81318 4.01537 3.41964 3.76123 4.05883 3.64154C4.6967 3.52342 5.35427 3.54048 5.98558 3.69535C6.38338 2.7845 7.06697 2.02795 7.93296 1.54014C8.79895 1.05232 9.80024 0.85977 10.7854 0.991604C11.7709 1.12497 12.686 1.57646 13.3915 2.27745C14.097 2.97844 14.5543 3.89061 14.694 4.87529ZM12.9752 9.46847C12.719 9.7247 12.3036 9.72477 12.0473 9.46865L10.7867 8.20904V14.6915C10.7867 15.0517 10.4947 15.3438 10.1344 15.3438C9.77413 15.3438 9.48208 15.0517 9.48208 14.6915V8.25629L8.26933 9.46904C8.01277 9.72559 7.59678 9.72545 7.34041 9.46871C7.08429 9.21224 7.08444 8.79674 7.34073 8.54045L9.36485 6.51633C9.57521 6.30597 9.86052 6.18779 10.158 6.18779C10.4555 6.18779 10.7408 6.30597 10.9512 6.51633L12.9752 8.54036C13.2315 8.79665 13.2315 9.21218 12.9752 9.46847Z" fill="#222380"/>
</svg>
