<svg width="18" height="18" viewBox="0 0 18 18" fill="none" xmlns="http://www.w3.org/2000/svg">
<path d="M9.03085 0.871094C4.54363 0.871094 0.90625 4.50871 0.90625 8.99593C0.90625 13.4827 4.54363 17.1203 9.03085 17.1203C13.5178 17.1203 17.1554 13.4827 17.1554 8.99593C17.1554 4.50871 13.5178 0.871094 9.03085 0.871094ZM9.03085 15.9716C5.17819 15.9716 2.05501 12.8481 2.05501 8.99587C2.05501 5.14321 5.17813 2.02021 9.03085 2.02021C12.8833 2.02021 16.0065 5.14321 16.0065 8.99587C16.0064 12.8481 12.8833 15.9716 9.03085 15.9716Z" fill="#A3D179"/>
<path d="M15.3156 8.99558C15.3156 12.4667 12.5017 15.2802 9.03091 15.2802C5.55979 15.2802 2.74609 12.4666 2.74609 8.99558C2.74609 5.52452 5.55979 2.71094 9.03091 2.71094C12.5017 2.71088 15.3156 5.52452 15.3156 8.99558Z" fill="#A3D179"/>
<path d="M8.23141 12.6847L4.91797 7.56027V7.49583L8.02237 8.89863L13.1428 5.30859L8.23141 12.6847Z" fill="white"/>
</svg>
