<svg width="16" height="8" viewBox="0 0 16 8" fill="none" xmlns="http://www.w3.org/2000/svg">
<mask id="path-1-inside-1_3705_26921" fill="white">
<path d="M7.99999 1.44C6.59199 1.44 5.43999 2.592 5.43999 4C5.43999 5.408 6.59199 6.56 7.99999 6.56C9.40799 6.56 10.56 5.408 10.56 4C10.56 2.592 9.40799 1.44 7.99999 1.44ZM7.99999 5.92C6.94399 5.92 6.07999 5.056 6.07999 4C6.07999 2.944 6.94399 2.08 7.99999 2.08C9.05599 2.08 9.91999 2.944 9.91999 4C9.91999 5.056 9.05599 5.92 7.99999 5.92ZM15.104 3.776L13.728 2.384C12.208 0.848 10.176 0 7.99999 0C5.82399 0 3.79199 0.848 2.27199 2.384L0.895988 3.776C0.767988 3.904 0.767988 4.096 0.895988 4.224L2.27199 5.616C3.79199 7.152 5.82399 8 7.99999 8C10.176 8 12.208 7.152 13.728 5.616L15.104 4.224C15.232 4.096 15.232 3.904 15.104 3.776V3.776ZM13.28 5.168C11.872 6.576 9.99999 7.36 7.99999 7.36C5.99999 7.36 4.12799 6.576 2.71999 5.168L1.56799 4L2.71999 2.832C4.12799 1.424 5.99999 0.64 7.99999 0.64C9.99999 0.64 11.872 1.424 13.28 2.832L14.432 4L13.28 5.168Z"/>
</mask>
<path d="M7.99999 1.44C6.59199 1.44 5.43999 2.592 5.43999 4C5.43999 5.408 6.59199 6.56 7.99999 6.56C9.40799 6.56 10.56 5.408 10.56 4C10.56 2.592 9.40799 1.44 7.99999 1.44ZM7.99999 5.92C6.94399 5.92 6.07999 5.056 6.07999 4C6.07999 2.944 6.94399 2.08 7.99999 2.08C9.05599 2.08 9.91999 2.944 9.91999 4C9.91999 5.056 9.05599 5.92 7.99999 5.92ZM15.104 3.776L13.728 2.384C12.208 0.848 10.176 0 7.99999 0C5.82399 0 3.79199 0.848 2.27199 2.384L0.895988 3.776C0.767988 3.904 0.767988 4.096 0.895988 4.224L2.27199 5.616C3.79199 7.152 5.82399 8 7.99999 8C10.176 8 12.208 7.152 13.728 5.616L15.104 4.224C15.232 4.096 15.232 3.904 15.104 3.776V3.776ZM13.28 5.168C11.872 6.576 9.99999 7.36 7.99999 7.36C5.99999 7.36 4.12799 6.576 2.71999 5.168L1.56799 4L2.71999 2.832C4.12799 1.424 5.99999 0.64 7.99999 0.64C9.99999 0.64 11.872 1.424 13.28 2.832L14.432 4L13.28 5.168Z" fill="#222380"/>
<path d="M13.728 2.384L15.1504 0.977984L15.1496 0.97721L13.728 2.384ZM2.27199 2.384L0.850389 0.97721L0.849624 0.977984L2.27199 2.384ZM0.895988 3.776L2.31022 5.19024L2.31835 5.18202L0.895988 3.776ZM0.895988 4.224L2.31838 2.81796L2.3102 2.80979L0.895988 4.224ZM2.27199 5.616L0.849624 7.02202L0.85039 7.02279L2.27199 5.616ZM13.728 5.616L15.1496 7.02279L15.1504 7.02202L13.728 5.616ZM15.104 4.224L13.6898 2.80976L13.6816 2.81798L15.104 4.224ZM13.28 5.168L14.6942 6.58225L14.7039 6.57243L13.28 5.168ZM2.71999 5.168L1.29602 6.57246L1.30577 6.58221L2.71999 5.168ZM1.56799 4L0.144055 2.59557L-1.24113 4L0.144055 5.40443L1.56799 4ZM2.71999 2.832L1.30574 1.41775L1.29606 1.42757L2.71999 2.832ZM13.28 2.832L14.704 1.42754L14.6942 1.41779L13.28 2.832ZM14.432 4L15.8559 5.40443L17.2411 4L15.8559 2.59557L14.432 4ZM7.99999 -0.56C5.48742 -0.56 3.43999 1.48743 3.43999 4H7.43999C7.43999 3.69657 7.69656 3.44 7.99999 3.44V-0.56ZM3.43999 4C3.43999 6.51257 5.48742 8.56 7.99999 8.56V4.56C7.69656 4.56 7.43999 4.30343 7.43999 4H3.43999ZM7.99999 8.56C10.5126 8.56 12.56 6.51257 12.56 4H8.55999C8.55999 4.30343 8.30342 4.56 7.99999 4.56V8.56ZM12.56 4C12.56 1.48743 10.5126 -0.56 7.99999 -0.56V3.44C8.30342 3.44 8.55999 3.69657 8.55999 4H12.56ZM7.99999 3.92C8.01095 3.92 8.02449 3.92262 8.03651 3.92773C8.04714 3.93224 8.05387 3.93746 8.0582 3.94179C8.06253 3.94612 8.06774 3.95285 8.07226 3.96347C8.07737 3.97549 8.07999 3.98903 8.07999 4H4.07999C4.07999 6.16057 5.83942 7.92 7.99999 7.92V3.92ZM8.07999 4C8.07999 4.01097 8.07737 4.02451 8.07226 4.03653C8.06774 4.04715 8.06253 4.05388 8.0582 4.05821C8.05387 4.06254 8.04714 4.06776 8.03651 4.07227C8.02449 4.07738 8.01095 4.08 7.99999 4.08V0.08C5.83942 0.08 4.07999 1.83943 4.07999 4H8.07999ZM7.99999 4.08C7.98902 4.08 7.97548 4.07738 7.96346 4.07227C7.95284 4.06776 7.94611 4.06254 7.94177 4.05821C7.93744 4.05388 7.93223 4.04715 7.92772 4.03653C7.92261 4.02451 7.91999 4.01097 7.91999 4H11.92C11.92 1.83943 10.1606 0.08 7.99999 0.08V4.08ZM7.91999 4C7.91999 3.98903 7.92261 3.97549 7.92772 3.96347C7.93223 3.95285 7.93744 3.94612 7.94177 3.94179C7.94611 3.93746 7.95284 3.93224 7.96346 3.92773C7.97548 3.92262 7.98902 3.92 7.99999 3.92V7.92C10.1606 7.92 11.92 6.16057 11.92 4H7.91999ZM16.5264 2.36998L15.1504 0.977985L12.3056 3.79002L13.6816 5.18202L16.5264 2.36998ZM15.1496 0.97721C13.2526 -0.93978 10.7081 -2 7.99999 -2V2C9.64387 2 11.1634 2.63578 12.3064 3.79079L15.1496 0.97721ZM7.99999 -2C5.29187 -2 2.74741 -0.93978 0.85039 0.97721L3.69359 3.79079C4.83656 2.63578 6.35611 2 7.99999 2V-2ZM0.849624 0.977984L-0.526376 2.36998L2.31835 5.18202L3.69435 3.79002L0.849624 0.977984ZM-0.518226 2.36179C-1.42727 3.27083 -1.42727 4.72917 -0.518226 5.63821L2.3102 2.80979C2.96325 3.46284 2.96325 4.53716 2.3102 5.19021L-0.518226 2.36179ZM-0.526376 5.63002L0.849624 7.02202L3.69435 4.20998L2.31835 2.81798L-0.526376 5.63002ZM0.85039 7.02279C2.74741 8.93978 5.29187 10 7.99999 10V6C6.35611 6 4.83656 5.36422 3.69359 4.20921L0.85039 7.02279ZM7.99999 10C10.7081 10 13.2526 8.93978 15.1496 7.02279L12.3064 4.20921C11.1634 5.36422 9.64387 6 7.99999 6V10ZM15.1504 7.02202L16.5264 5.63002L13.6816 2.81798L12.3056 4.20998L15.1504 7.02202ZM16.5182 5.63821C17.4273 4.72917 17.4273 3.27083 16.5182 2.36179L13.6898 5.19021C13.0367 4.53716 13.0367 3.46284 13.6898 2.80979L16.5182 5.63821ZM11.8658 3.75379C10.8295 4.79002 9.4649 5.36 7.99999 5.36V9.36C10.5351 9.36 12.9144 8.36198 14.6942 6.58221L11.8658 3.75379ZM7.99999 5.36C6.53507 5.36 5.17043 4.79002 4.1342 3.75379L1.30577 6.58221C3.08554 8.36198 5.4649 9.36 7.99999 9.36V5.36ZM4.14392 3.76357L2.99192 2.59557L0.144055 5.40443L1.29606 6.57243L4.14392 3.76357ZM2.99192 5.40443L4.14392 4.23643L1.29606 1.42757L0.144055 2.59557L2.99192 5.40443ZM4.1342 4.24621C5.17043 3.20998 6.53507 2.64 7.99999 2.64V-1.36C5.4649 -1.36 3.08554 -0.361983 1.30577 1.41779L4.1342 4.24621ZM7.99999 2.64C9.4649 2.64 10.8295 3.20998 11.8658 4.24621L14.6942 1.41779C12.9144 -0.361983 10.5351 -1.36 7.99999 -1.36V2.64ZM11.8561 4.23643L13.0081 5.40443L15.8559 2.59557L14.7039 1.42757L11.8561 4.23643ZM13.0081 2.59557L11.8561 3.76357L14.7039 6.57243L15.8559 5.40443L13.0081 2.59557Z" fill="#222380" mask="url(#path-1-inside-1_3705_26921)"/>
</svg>
