<svg width="22" height="24" viewBox="0 0 22 24" fill="none" xmlns="http://www.w3.org/2000/svg">
<path d="M6.0508 20.4009C7.50669 21.3221 9.25375 21.8339 11.0008 21.8339C16.339 21.8339 20.7067 17.228 20.7067 11.5986C20.7067 5.96916 16.339 1.36328 11.0008 1.36328C5.66257 1.36328 1.29492 5.96916 1.29492 11.5986C1.29492 13.4409 1.78022 15.1809 2.55669 16.7162L1.71475 20.131C1.52933 20.8831 2.2325 21.5514 2.97417 21.3279L6.0508 20.4009Z" stroke="#3B8617" stroke-miterlimit="10" stroke-linecap="round" stroke-linejoin="round"/>
<path d="M15.3681 14.5136C15.3681 14.6794 15.3331 14.8498 15.2588 15.0156C15.1844 15.1814 15.0882 15.338 14.9613 15.4854C14.747 15.7342 14.5108 15.9138 14.2439 16.0289C13.9815 16.1441 13.6972 16.204 13.391 16.204C12.9448 16.204 12.468 16.0934 11.965 15.8677C11.4619 15.642 10.9589 15.338 10.4602 14.9558C9.95721 14.5689 9.48042 14.1405 9.0255 13.6661C8.57496 13.1871 8.16816 12.6851 7.8051 12.16C7.44642 11.6349 7.15772 11.1098 6.94776 10.5894C6.73779 10.0643 6.63281 9.56227 6.63281 9.08326C6.63281 8.77006 6.6853 8.47068 6.79028 8.19432C6.89526 7.91336 7.06148 7.65543 7.29332 7.42514C7.57327 7.13497 7.87946 6.99219 8.20315 6.99219C8.32563 6.99219 8.44811 7.01982 8.55746 7.07509C8.67119 7.13036 8.7718 7.21327 8.85054 7.33302L9.86535 8.83915C9.94409 8.95429 10.001 9.06023 10.0403 9.16156C10.0797 9.25828 10.1016 9.35501 10.1016 9.44252C10.1016 9.55306 10.0709 9.6636 10.0097 9.76953C9.95284 9.87547 9.86973 9.98601 9.76475 10.0966L9.43231 10.4604C9.38419 10.5111 9.36232 10.571 9.36232 10.6447C9.36232 10.6815 9.36669 10.7137 9.37544 10.7506C9.38856 10.7874 9.40169 10.8151 9.41044 10.8427C9.48917 10.9947 9.62477 11.1928 9.81724 11.4323C10.0141 11.6718 10.224 11.9159 10.4515 12.16C10.6877 12.4041 10.9152 12.6298 11.147 12.8371C11.3745 13.0397 11.5625 13.1779 11.7113 13.2608C11.7331 13.27 11.7594 13.2838 11.79 13.2976C11.825 13.3115 11.86 13.3161 11.8994 13.3161C11.9737 13.3161 12.0306 13.2884 12.0787 13.2378L12.4111 12.8923C12.5205 12.7772 12.6255 12.6897 12.7261 12.6344C12.8267 12.5699 12.9273 12.5377 13.0367 12.5377C13.1198 12.5377 13.2072 12.5561 13.3035 12.5975C13.3997 12.639 13.5003 12.6989 13.6097 12.7772L15.0575 13.8596C15.1713 13.9425 15.25 14.0392 15.2981 14.1543C15.3419 14.2695 15.3681 14.3846 15.3681 14.5136Z" stroke="#3B8617" stroke-width="0.7" stroke-miterlimit="10"/>
</svg>
