<svg width="420" height="320" viewBox="0 0 420 320" fill="none" xmlns="http://www.w3.org/2000/svg">
<g clip-path="url(#clip0_1282_2136)">
<path d="M202.775 1.37289C226.435 -1.35287 253.908 2.6224 273.303 17.5779C303.152 40.5659 283.776 70.0669 292.021 100.586C299.886 129.648 333.691 134.901 358.06 142.075C398.153 153.861 423.384 188.133 419.914 230.718C416.648 270.876 395.216 321.507 348.601 319.968C311.944 318.772 278.178 301.814 241.936 297.776C188.555 291.823 136.727 306.026 83.6754 307.657C41.4016 308.969 3.50279 280.462 0.579801 236.169C-0.810283 215.043 6.29247 190.719 20.1695 174.577C36.0222 156.124 64.4999 154.609 86.0224 146.354C105.027 139.07 121.727 127.39 131.624 109.009C143.787 86.378 137.189 59.8778 147.115 36.581C152.594 23.729 163.896 14.0754 176.487 8.31031C184.085 4.83195 193.126 2.48732 202.775 1.37289Z" fill="#F4F3FF"/>
<g opacity="0.1">
<path d="M57.2203 184.016C57.2203 173.403 66.1511 164.719 77.486 163.923C76.9243 163.884 76.3578 163.841 75.7818 163.841C63.6519 163.841 53.8213 172.872 53.8213 184.016C53.8213 195.161 63.6519 204.197 75.7818 204.197C76.3578 204.197 76.9243 204.119 77.486 204.119C66.1511 203.314 57.2203 194.63 57.2203 184.016Z" fill="white"/>
</g>
<path d="M59.2924 183.355C60.5777 182.54 65.2098 185.705 65.2098 185.705C64.8575 184.638 56.7598 184.064 56.7598 184.064C58.5878 182.135 67.8138 180.996 67.8138 180.996L59.2924 183.355Z" fill="white"/>
<path d="M217.762 108.396C225.884 108.393 233.927 110.012 241.432 113.16C248.936 116.308 255.755 120.923 261.499 126.742C267.243 132.562 271.799 139.47 274.908 147.074C278.016 154.678 279.616 162.828 279.616 171.059V255.968H122.718V171.059C122.718 162.83 124.318 154.682 127.427 147.079C130.535 139.477 135.09 132.569 140.832 126.751C146.575 120.932 153.392 116.317 160.894 113.168C168.396 110.02 176.437 108.4 184.557 108.4L217.762 108.396Z" fill="#EF6B29"/>
<path d="M217.762 108.396C225.884 108.393 233.927 110.012 241.432 113.16C248.936 116.308 255.755 120.923 261.499 126.742C267.243 132.562 271.799 139.47 274.908 147.074C278.016 154.678 279.616 162.828 279.616 171.059V255.968H122.718V171.059C122.718 162.83 124.318 154.682 127.427 147.079C130.535 139.477 135.09 132.569 140.832 126.751C146.575 120.932 153.392 116.317 160.894 113.168C168.396 110.02 176.437 108.4 184.557 108.4L217.762 108.396Z" fill="url(#paint0_linear_1282_2136)"/>
<path d="M214.132 111.811C222.252 111.81 230.294 113.43 237.796 116.579C245.299 119.728 252.116 124.344 257.859 130.163C263.601 135.981 268.156 142.89 271.264 150.493C274.372 158.096 275.971 166.245 275.971 174.474V252.551H126.352V174.474C126.352 166.243 127.952 158.092 131.061 150.487C134.17 142.883 138.728 135.973 144.473 130.154C150.218 124.335 157.038 119.72 164.543 116.572C172.049 113.425 180.092 111.807 188.215 111.811H214.132Z" fill="#222380"/>
<path d="M20.4423 259.967L40.4366 242.233C42.3357 240.542 44.7738 239.605 47.3013 239.594H349.178C351.956 239.594 354.62 240.712 356.584 242.702C358.548 244.693 359.651 247.392 359.651 250.207V260.338C359.669 262.687 359.057 264.996 357.88 267.018C356.702 269.041 355.004 270.701 352.968 271.82L352.896 271.859C352.511 272.066 352.125 272.274 351.735 272.472C351.111 272.79 350.487 273.099 349.83 273.403C348.504 274.046 347.145 274.641 345.755 275.188C338.662 278.032 331.19 279.787 323.585 280.393C321.443 280.573 319.283 280.662 317.106 280.659H43.6452C34.3594 280.692 25.1922 278.546 16.8623 274.387V267.961C16.8618 266.447 17.181 264.95 17.7985 263.571C18.416 262.192 19.3174 260.964 20.4423 259.967Z" fill="#222380"/>
<path d="M187.739 127.032C184.217 126.607 180.684 126.187 177.133 126.105C165.203 125.826 153.544 129.386 142.129 132.903C139.148 133.824 135.911 134.939 134.288 137.631C133.336 139.194 133.098 141.07 132.941 142.894C131.232 162.635 137.806 182.27 137.258 202.055C137.02 208.116 136.188 214.137 134.773 220.031H252.455C252.455 209.702 251.95 198.041 251.95 187.707C259.28 196.037 265.667 205.172 270.992 214.941C271.468 215.804 271.944 216.75 271.83 217.734C271.602 219.664 269.364 220.528 267.503 220.986C255.021 224.073 242.508 227.018 229.966 229.819C231.251 232.936 232.555 236.091 232.87 239.468C233.184 242.845 232.394 246.468 229.985 248.818C252.147 246.432 274.159 242.789 295.919 237.905C297.651 237.538 299.413 237.109 300.865 236.067C304.011 233.799 304.621 229.274 304.083 225.391C303.564 221.642 302.26 218.043 300.708 214.594C293.567 198.673 281.232 185.498 274.444 169.394C272.539 164.888 271.083 160.16 269.064 155.688C265.792 148.476 261.093 142.021 255.259 136.724C253.965 135.474 252.505 134.413 250.922 133.573C248.884 132.57 246.637 132.198 244.385 131.856C236.527 130.669 228.639 129.81 220.721 129.28C209.914 128.575 198.475 128.315 187.739 127.032Z" fill="#FFB9B3"/>
<path d="M275.865 247.805C275.874 247.691 275.861 247.576 275.827 247.468C275.792 247.359 275.737 247.259 275.664 247.172C275.591 247.085 275.502 247.013 275.402 246.961C275.301 246.909 275.192 246.878 275.08 246.869L238.381 244.008L229.664 276.394H266.444C266.626 276.394 266.803 276.335 266.95 276.225C267.096 276.116 267.204 275.962 267.258 275.786L275.827 247.988C275.845 247.928 275.858 247.867 275.865 247.805Z" fill="#E3E0FC"/>
<path d="M208.472 130.862C204.121 127.996 196.347 127.451 191.334 127.036C186.321 126.622 180.232 127.437 178.171 132.063C177.081 134.519 177.024 138.055 174.481 138.856C173.612 139.054 172.709 139.044 171.844 138.827C166.198 137.925 159.31 138.292 156.272 143.198C154.882 145.432 154.62 148.182 154.587 150.82C154.463 159.282 156.282 167.638 158.196 175.873C160.19 184.48 162.366 193.207 166.931 200.733C171.497 208.259 178.914 214.521 187.578 215.481C192 215.964 196.48 215.076 200.717 213.696C212.575 209.837 223.363 201.828 229.242 190.699C232.608 184.326 234.288 177.19 235.907 170.171L238.087 160.807C239.177 156.142 239.953 150.401 236.359 147.299C234.603 145.774 232.198 145.316 229.918 144.915L218.202 142.855C216.384 142.537 214.523 142.199 212.923 141.268C208.058 138.388 212.656 133.602 208.472 130.862Z" fill="#FBBEBE"/>
<path fill-rule="evenodd" clip-rule="evenodd" d="M210.783 98.2549C210.421 103.735 208.003 124.147 209.445 127.799C210.887 131.451 220.518 136.44 220.518 136.44C207.512 149.075 190.86 152.62 175.445 141.558C171.118 138.451 171.637 136.44 171.637 136.44C175.023 134.894 177.918 132.423 179.996 129.304C183.605 123.998 177.949 98.4286 177.949 98.4286L210.783 98.2549Z" fill="#FFB9B3"/>
<path fill-rule="evenodd" clip-rule="evenodd" d="M216.524 91.8143C217.824 91.5827 219.352 80.3902 218.69 77.1724C218.029 73.9546 215.448 58.6324 213.454 57.9329C212.432 57.6079 211.467 57.1193 210.597 56.4856C210.597 56.4856 209.217 53.3256 202.685 50.2139C196.154 47.1022 194.678 47.5171 189.461 47.6763C184.243 47.8355 178.278 43.8699 178.673 44.444C179.068 45.0181 181.667 48.3035 181.087 48.1346C180.506 47.9658 174.56 42.7892 174.755 43.3103C174.95 43.8313 176.926 49.8521 176.926 49.8521C176.926 49.8521 169.309 44.1738 170.018 45.7996C170.728 47.4254 172.351 51.8301 172.351 51.8301C172.351 51.8301 171.37 52.4572 168.276 51.941C165.182 51.4248 159.269 53.3883 159.826 53.3883C160.383 53.3883 166.191 55.9211 166.191 55.9211C163.811 57.8802 161.802 60.262 160.264 62.9502C158.065 67.0509 157.546 71.2674 158.326 74.1813C159.107 77.0952 165.201 96.0646 166.2 97.3382C167.2 98.6118 171.204 103.089 171.204 103.089C171.204 103.089 164.101 74.548 164.886 74.3598C165.672 74.1717 209.702 64.1418 209.702 64.1418L216.524 91.8143Z" fill="#222380"/>
<path fill-rule="evenodd" clip-rule="evenodd" d="M214.847 83.1115C216.084 82.2046 219.331 79.8358 220.774 81.0274C222.216 82.219 223.563 90.1454 222.925 92.8905C222.287 95.6356 218.393 99.0705 218.108 99.0367C217.822 99.003 214.847 83.1115 214.847 83.1115Z" fill="#FFB9B3"/>
<path fill-rule="evenodd" clip-rule="evenodd" d="M170.922 92.5374C169.38 92.2093 162.044 91.8861 161.967 93.7676C161.891 95.6491 164.614 105.804 166.076 107.551C167.537 109.297 175.345 110.547 175.121 109.939C174.897 109.331 170.922 92.5374 170.922 92.5374Z" fill="#FFB9B3"/>
<path fill-rule="evenodd" clip-rule="evenodd" d="M165.801 81.1225C165.801 81.1225 173.77 114.546 175.646 119.1C177.522 123.654 192.17 130.403 194.483 131.161C196.797 131.918 207.532 128.705 209.513 127.813C211.493 126.92 219.034 112.654 219.91 108.752C220.786 104.849 213.131 64.6039 211.498 63.9912C209.865 63.3785 164.368 73.6399 164.368 73.6399L165.801 81.1225Z" fill="#FFB9B3"/>
<path fill-rule="evenodd" clip-rule="evenodd" d="M201.376 68.7484C199.379 70.5858 197.258 72.2816 195.03 73.8236C195.283 73.674 200.034 65.9117 200.034 65.9117C200.034 65.9117 193.569 71.0641 187.452 73.539C181.334 76.0139 178.473 77.0607 178.735 76.9546C178.997 76.8485 185.243 70.3452 185.171 70.0365C185.1 69.7277 177.773 73.4135 174.641 75.2275C171.509 77.0414 168.995 78.8602 168.995 78.8602L174.541 69.8773C174.541 69.8773 172.275 69.3948 168.9 70.7746C165.525 72.1544 160.726 76.1393 160.859 75.8739C160.992 75.6086 160.145 71.4645 164.353 65.2121C166.797 61.5263 169.898 58.3356 173.498 55.8046C173.498 55.8046 169.952 56.0459 167.348 54.8928C164.744 53.7398 163.692 53.3105 163.692 53.3105C163.692 53.3105 171.547 53.7929 173.237 53.7012C174.927 53.6096 175.174 53.4648 175.174 53.4648L172.703 49.8369C172.703 49.8369 178.464 53.349 181.472 54.6323C184.481 55.9156 189.484 55.631 189.265 55.7274C189.046 55.8239 180.744 58.4773 176.736 60.8557C174.424 62.2347 172.336 63.9678 170.547 65.9937C170.771 65.7042 184.034 59.751 188.204 58.6365C192.374 57.5221 194.155 57.1892 193.06 57.6138C191.965 58.0383 184.134 66.2108 184.134 66.2108C184.134 66.2108 192.279 62.6938 195.921 59.915C199.563 57.1362 200.819 56.1037 200.819 56.1037C200.127 57.9944 199.332 59.845 198.439 61.6469C197.449 63.4319 197.106 63.8372 197.435 63.5767C197.763 63.3162 203.266 60.6242 205.389 58.0673C207.513 55.5104 208.108 53.9955 208.127 54.3284C208.541 61.0391 207.446 63.1328 201.376 68.7484Z" fill="#222380"/>
<path d="M208.472 130.862C204.121 127.996 196.347 127.451 191.334 127.036C186.321 126.622 180.232 127.437 178.171 132.063C177.081 134.519 177.024 138.055 174.481 138.856C173.612 139.054 172.709 139.044 171.844 138.827C166.198 137.925 159.31 138.292 156.272 143.198C154.882 145.432 154.62 148.182 154.587 150.82C154.463 159.282 156.282 167.638 158.196 175.873C160.19 184.48 162.366 193.207 166.931 200.733C171.497 208.259 178.914 214.521 187.578 215.481C192 215.964 196.48 215.076 200.717 213.696C212.575 209.837 223.363 201.828 229.242 190.699C232.608 184.326 234.288 177.19 235.907 170.171L238.087 160.807C239.177 156.142 239.953 150.401 236.359 147.299C234.603 145.774 232.198 145.316 229.918 144.915L218.202 142.855C216.384 142.537 214.523 142.199 212.923 141.268C208.058 138.388 212.656 133.602 208.472 130.862Z" fill="#FFB9B3"/>
<path d="M171.076 125.764L176.67 125.884C176.67 125.884 198.568 152.539 217.254 128.658L221.062 128.456L221.3 130.95L210.827 145.544L191.666 157.001L171.671 136.44L171.076 125.764Z" fill="white"/>
<path fill-rule="evenodd" clip-rule="evenodd" d="M265.892 209.18C265.892 209.18 284.301 190.529 290.013 192.459C290.013 192.459 270.652 135.049 241.851 129.902L221.061 128.454C221.061 128.454 200.115 162.707 172.185 125.724C172.185 125.724 146.306 127.48 135.457 134.099C134.412 134.733 133.546 135.629 132.942 136.7C132.338 137.771 132.015 138.982 132.006 140.216C131.944 150.217 132.006 180.22 134.895 184.499L139.58 223.653L244.626 232.019L265.892 209.18Z" fill="#EF6B29"/>
<path fill-rule="evenodd" clip-rule="evenodd" d="M265.892 209.18C265.892 209.18 284.301 190.529 290.013 192.459C290.013 192.459 270.652 135.049 241.851 129.902L221.061 128.454C221.061 128.454 200.115 162.707 172.185 125.724C172.185 125.724 146.306 127.48 135.457 134.099C134.412 134.733 133.546 135.629 132.942 136.7C132.338 137.771 132.015 138.982 132.006 140.216C131.944 150.217 132.006 180.22 134.895 184.499L139.58 223.653L244.626 232.019L265.892 209.18Z" fill="url(#paint1_linear_1282_2136)"/>
<path d="M142.093 199.779C140.188 186.657 140.779 173.322 144.259 160.538C144.958 157.962 146.682 140.961 146.796 136.98C153.708 140.087 153.018 140.121 160.521 139.151C161.04 146.726 162.449 185.914 160.416 200.421C154.013 201.386 148.51 200.551 142.093 199.779Z" fill="white"/>
<path d="M143.183 199.214C141.278 186.092 147.277 143.55 147.391 139.575C154.303 142.677 153.58 143.015 161.078 142.045C161.597 149.619 163.539 185.349 161.506 199.831C155.103 200.835 149.6 199.986 143.183 199.214Z" fill="#FFB9B3"/>
<path d="M89.3441 213.007L89.0061 215.342L83.0554 256.349C82.9745 256.687 73.401 265.033 61.0949 256.349L56.3724 215.549L56.082 213.026L89.3441 213.007Z" fill="white"/>
<path d="M89.3441 213.007L89.0061 215.342C85.031 217.344 70.2399 223.702 56.3724 215.53L56.082 213.007H89.3441Z" fill="white"/>
<path d="M55.1699 210.793V214.474C71.6938 225.276 90.0363 214.474 90.0363 214.474V210.793H55.1699Z" fill="#EF6B29"/>
<path d="M56.9885 205.93C57.1151 206.573 56.9984 207.241 56.6616 207.802C56.3247 208.362 55.7923 208.773 55.1699 208.954V211.762H90.0363V208.622C88.4367 208.404 87.9036 205.92 87.9036 205.92L56.9885 205.93Z" fill="#EF6B29"/>
<path d="M72.7085 210.792C81.3927 210.792 88.4327 208.736 88.4327 206.199C88.4327 203.663 81.3927 201.606 72.7085 201.606C64.0243 201.606 56.9844 203.663 56.9844 206.199C56.9844 208.736 64.0243 210.792 72.7085 210.792Z" fill="#6C63FF"/>
<path d="M72.7085 210.792C81.3927 210.792 88.4327 208.736 88.4327 206.199C88.4327 203.663 81.3927 201.606 72.7085 201.606C64.0243 201.606 56.9844 203.663 56.9844 206.199C56.9844 208.736 64.0243 210.792 72.7085 210.792Z" fill="#EF6B29"/>
<path d="M72.2185 202.582C75.3596 202.54 78.4951 202.864 81.5635 203.546C84.0342 204.154 85.5576 204.994 85.5576 205.935C85.5576 206.499 85.0006 207.03 84.0152 207.502C81.8348 208.549 77.5646 209.249 72.6231 209.283H72.228C64.8682 209.283 58.8984 207.773 58.8984 205.935C58.8984 204.096 64.8682 202.582 72.2185 202.582Z" fill="#222380"/>
<path d="M81.5749 203.527L84.017 207.498C81.8367 208.545 77.5665 209.244 72.625 209.278L81.5749 203.527Z" fill="white"/>
<path d="M84.9314 207.28C84.7484 207.406 84.5942 207.571 84.4792 207.763C84.4507 207.814 84.4338 207.872 84.4297 207.931C84.4256 207.99 84.4343 208.05 84.4554 208.105C84.4901 208.17 84.5432 208.222 84.6077 208.256C84.6722 208.289 84.7452 208.302 84.8172 208.293C84.9558 208.279 85.0902 208.236 85.2123 208.168C85.9275 207.854 86.533 207.33 86.9499 206.663C87.0014 206.579 87.0263 206.481 87.0213 206.383C86.988 206.195 86.7357 206.127 86.5453 206.166C85.9169 206.296 85.417 206.894 84.9314 207.28Z" fill="white"/>
<path d="M75.7641 244.801C80.5494 242.792 82.8217 237.233 80.8396 232.383C78.8575 227.534 73.3715 225.231 68.5863 227.24C63.8011 229.249 61.5287 234.808 63.5108 239.657C65.4929 244.507 70.9789 246.81 75.7641 244.801Z" fill="#EF6B29"/>
<path d="M336.677 245.243V258.915H314.121V245.243C314.121 242.803 315.078 240.463 316.78 238.738C318.483 237.012 320.792 236.043 323.199 236.043H327.598C330.006 236.043 332.315 237.012 334.018 238.738C335.72 240.463 336.677 242.803 336.677 245.243Z" fill="#363F5E"/>
<path d="M336.677 245.243V258.915H314.121V245.243C314.121 242.803 315.078 240.463 316.78 238.738C318.483 237.012 320.792 236.043 323.199 236.043H327.598C330.006 236.043 332.315 237.012 334.018 238.738C335.72 240.463 336.677 242.803 336.677 245.243Z" fill="#C2C4C3"/>
<path d="M326.3 241.07C327.297 241.07 328.105 240.251 328.105 239.242C328.105 238.232 327.297 237.413 326.3 237.413C325.304 237.413 324.496 238.232 324.496 239.242C324.496 240.251 325.304 241.07 326.3 241.07Z" fill="#363F5E"/>
<path d="M326.3 218.213C327.297 218.213 328.105 217.394 328.105 216.384C328.105 215.374 327.297 214.556 326.3 214.556C325.304 214.556 324.496 215.374 324.496 216.384C324.496 217.394 325.304 218.213 326.3 218.213Z" fill="#363F5E"/>
<path d="M318.764 210.455C318.457 212.268 318.794 214.132 319.715 215.716C320.636 217.3 322.083 218.502 323.796 219.107C325.51 219.712 327.38 219.681 329.073 219.02C330.767 218.359 332.173 217.11 333.044 215.497C333.914 213.883 334.191 212.009 333.825 210.207C333.46 208.406 332.475 206.795 331.047 205.66C329.619 204.525 327.84 203.941 326.027 204.01C324.214 204.08 322.483 204.8 321.145 206.041C321.685 206.685 322.26 207.299 322.868 207.879C322.416 207.85 321.968 207.802 321.521 207.734C321.009 207.677 320.515 207.513 320.069 207.252C319.598 207.904 319.23 208.627 318.979 209.394C319.334 209.831 319.724 210.237 320.145 210.61C319.693 210.581 319.245 210.533 318.798 210.465L318.764 210.455Z" fill="#EF6B29"/>
<path d="M312.789 219.563C311.884 220.237 311.259 221.229 311.036 222.345C310.814 223.461 311.011 224.62 311.587 225.597C312.164 226.574 313.08 227.298 314.155 227.627C315.23 227.957 316.388 227.868 317.402 227.378C318.416 226.888 319.213 226.033 319.638 224.979C320.063 223.925 320.085 222.748 319.699 221.679C319.313 220.61 318.548 219.725 317.553 219.197C316.557 218.669 315.404 218.537 314.317 218.825C314.727 219.327 315.174 219.796 315.655 220.229C315.179 220.2 314.755 220.152 314.308 220.084C313.769 220.034 313.25 219.859 312.789 219.573V219.563Z" fill="#EF6B29"/>
<path d="M318.764 210.455C318.457 212.268 318.794 214.132 319.715 215.716C320.636 217.3 322.083 218.502 323.796 219.107C325.51 219.712 327.38 219.681 329.073 219.02C330.767 218.359 332.173 217.11 333.044 215.497C333.914 213.883 334.191 212.009 333.825 210.207C333.46 208.406 332.475 206.795 331.047 205.66C329.619 204.525 327.84 203.941 326.027 204.01C324.214 204.08 322.483 204.8 321.145 206.041C321.685 206.685 322.26 207.299 322.868 207.879C322.416 207.85 321.968 207.802 321.521 207.734C321.009 207.677 320.515 207.513 320.069 207.252C319.598 207.904 319.23 208.627 318.979 209.394C319.334 209.831 319.724 210.237 320.145 210.61C319.693 210.581 319.245 210.533 318.798 210.465L318.764 210.455Z" fill="url(#paint2_linear_1282_2136)"/>
<path d="M312.789 219.563C311.884 220.237 311.259 221.229 311.036 222.345C310.814 223.461 311.011 224.62 311.587 225.597C312.164 226.574 313.08 227.298 314.155 227.627C315.23 227.957 316.388 227.868 317.402 227.378C318.416 226.888 319.213 226.033 319.638 224.979C320.063 223.925 320.085 222.748 319.699 221.679C319.313 220.61 318.548 219.725 317.553 219.197C316.557 218.669 315.404 218.537 314.317 218.825C314.727 219.327 315.174 219.796 315.655 220.229C315.179 220.2 314.755 220.152 314.308 220.084C313.769 220.034 313.25 219.859 312.789 219.573V219.563Z" fill="url(#paint3_linear_1282_2136)"/>
<path d="M332.308 221.493C331.403 222.167 330.778 223.158 330.556 224.274C330.334 225.39 330.53 226.55 331.107 227.527C331.684 228.504 332.599 229.228 333.674 229.557C334.75 229.886 335.908 229.797 336.922 229.307C337.936 228.818 338.733 227.962 339.158 226.908C339.583 225.854 339.604 224.678 339.219 223.609C338.833 222.54 338.068 221.655 337.072 221.127C336.077 220.599 334.923 220.466 333.837 220.755C334.247 221.256 334.694 221.726 335.174 222.159C334.698 222.13 334.275 222.081 333.827 222.014C333.289 221.964 332.769 221.789 332.308 221.502V221.493Z" fill="#EF6B29"/>
<path d="M332.308 221.493C331.403 222.167 330.778 223.158 330.556 224.274C330.334 225.39 330.53 226.55 331.107 227.527C331.684 228.504 332.599 229.228 333.674 229.557C334.75 229.886 335.908 229.797 336.922 229.307C337.936 228.818 338.733 227.962 339.158 226.908C339.583 225.854 339.604 224.678 339.219 223.609C338.833 222.54 338.068 221.655 337.072 221.127C336.077 220.599 334.923 220.466 333.837 220.755C334.247 221.256 334.694 221.726 335.174 222.159C334.698 222.13 334.275 222.081 333.827 222.014C333.289 221.964 332.769 221.789 332.308 221.502V221.493Z" fill="url(#paint4_linear_1282_2136)"/>
<path d="M326.3 238.784C327.297 238.784 328.105 237.965 328.105 236.955C328.105 235.946 327.297 235.127 326.3 235.127C325.304 235.127 324.496 235.946 324.496 236.955C324.496 237.965 325.304 238.784 326.3 238.784Z" fill="#222380"/>
<path d="M328.093 234.98C328.253 233.984 327.585 233.044 326.601 232.883C325.618 232.721 324.691 233.398 324.531 234.394C324.372 235.391 325.04 236.33 326.023 236.492C327.007 236.654 327.934 235.977 328.093 234.98Z" fill="#222380"/>
<path d="M326.3 234.209C327.297 234.209 328.105 233.39 328.105 232.38C328.105 231.37 327.297 230.552 326.3 230.552C325.304 230.552 324.496 231.37 324.496 232.38C324.496 233.39 325.304 234.209 326.3 234.209Z" fill="#222380"/>
<path d="M326.3 231.928C327.297 231.928 328.105 231.11 328.105 230.1C328.105 229.09 327.297 228.271 326.3 228.271C325.304 228.271 324.496 229.09 324.496 230.1C324.496 231.11 325.304 231.928 326.3 231.928Z" fill="#222380"/>
<path d="M326.3 229.642C327.297 229.642 328.105 228.824 328.105 227.814C328.105 226.804 327.297 225.985 326.3 225.985C325.304 225.985 324.496 226.804 324.496 227.814C324.496 228.824 325.304 229.642 326.3 229.642Z" fill="#222380"/>
<path d="M326.3 227.354C327.297 227.354 328.105 226.535 328.105 225.526C328.105 224.516 327.297 223.697 326.3 223.697C325.304 223.697 324.496 224.516 324.496 225.526C324.496 226.535 325.304 227.354 326.3 227.354Z" fill="#222380"/>
<path d="M323.587 228.266C324.584 228.266 325.392 227.448 325.392 226.438C325.392 225.428 324.584 224.609 323.587 224.609C322.591 224.609 321.783 225.428 321.783 226.438C321.783 227.448 322.591 228.266 323.587 228.266Z" fill="#222380"/>
<path d="M321.787 227.354C322.783 227.354 323.591 226.535 323.591 225.526C323.591 224.516 322.783 223.697 321.787 223.697C320.79 223.697 319.982 224.516 319.982 225.526C319.982 226.535 320.79 227.354 321.787 227.354Z" fill="#222380"/>
<path d="M319.982 226.437C320.978 226.437 321.786 225.619 321.786 224.609C321.786 223.599 320.978 222.78 319.982 222.78C318.986 222.78 318.178 223.599 318.178 224.609C318.178 225.619 318.986 226.437 319.982 226.437Z" fill="#222380"/>
<path d="M326.3 225.067C327.297 225.067 328.105 224.248 328.105 223.239C328.105 222.229 327.297 221.41 326.3 221.41C325.304 221.41 324.496 222.229 324.496 223.239C324.496 224.248 325.304 225.067 326.3 225.067Z" fill="#222380"/>
<path d="M326.3 222.786C327.297 222.786 328.105 221.967 328.105 220.957C328.105 219.948 327.297 219.129 326.3 219.129C325.304 219.129 324.496 219.948 324.496 220.957C324.496 221.967 325.304 222.786 326.3 222.786Z" fill="#222380"/>
<path d="M326.3 220.495C327.297 220.495 328.105 219.676 328.105 218.666C328.105 217.656 327.297 216.838 326.3 216.838C325.304 216.838 324.496 217.656 324.496 218.666C324.496 219.676 325.304 220.495 326.3 220.495Z" fill="#222380"/>
<path d="M329.007 228.266C330.004 228.266 330.812 227.448 330.812 226.438C330.812 225.428 330.004 224.609 329.007 224.609C328.011 224.609 327.203 225.428 327.203 226.438C327.203 227.448 328.011 228.266 329.007 228.266Z" fill="#222380"/>
<path d="M330.813 227.354C331.809 227.354 332.617 226.535 332.617 225.526C332.617 224.516 331.809 223.697 330.813 223.697C329.817 223.697 329.009 224.516 329.009 225.526C329.009 226.535 329.817 227.354 330.813 227.354Z" fill="#222380"/>
<path d="M336.677 246.613V258.713C336.675 259.126 336.512 259.523 336.223 259.815C335.934 260.107 335.542 260.271 335.134 260.271H315.659C315.457 260.271 315.257 260.231 315.07 260.152C314.884 260.074 314.714 259.959 314.571 259.814C314.429 259.67 314.315 259.498 314.238 259.309C314.161 259.12 314.121 258.917 314.121 258.713V246.613C314.121 244.173 315.078 241.833 316.78 240.108C318.483 238.382 320.792 237.413 323.199 237.413H327.598C330.006 237.413 332.315 238.382 334.018 240.108C335.72 241.833 336.677 244.173 336.677 246.613Z" fill="#E3E0FC"/>
<g opacity="0.1">
<path d="M318.653 211.515C318.863 211.515 319.063 211.568 319.272 211.568C319.067 211.394 318.873 211.208 318.691 211.009C318.667 211.177 318.654 211.346 318.653 211.515Z" fill="white"/>
<path d="M320.804 207.589C320.549 207.522 320.305 207.416 320.08 207.275C319.842 207.61 319.631 207.964 319.447 208.332C319.82 208.497 320.214 208.606 320.618 208.655C321.094 208.723 321.518 208.771 321.97 208.8C321.551 208.428 321.161 208.023 320.804 207.589Z" fill="white"/>
<path d="M331.246 217.744L331.332 217.667C332.726 216.267 333.537 214.378 333.598 212.39C333.658 210.401 332.964 208.465 331.657 206.981C330.351 205.496 328.533 204.576 326.577 204.41C324.621 204.244 322.676 204.845 321.145 206.088L321.259 206.214C322.804 205.204 324.655 204.79 326.476 205.049C328.296 205.307 329.964 206.219 331.176 207.62C332.388 209.021 333.063 210.816 333.078 212.679C333.092 214.542 332.446 216.348 331.256 217.768L331.246 217.744Z" fill="white"/>
</g>
<g opacity="0.1">
<path d="M314.642 220.123L314.276 220.075C313.738 220.022 313.219 219.848 312.757 219.563C312.192 219.99 311.733 220.544 311.418 221.183C311.103 221.821 310.941 222.526 310.943 223.24C310.943 223.404 310.943 223.563 310.967 223.722C311.03 223.084 311.225 222.466 311.538 221.908C311.851 221.351 312.276 220.866 312.786 220.485C313.246 220.773 313.766 220.949 314.304 221.001C314.752 221.069 315.199 221.117 315.652 221.146C315.29 220.832 314.952 220.49 314.642 220.123Z" fill="white"/>
<path d="M319.956 223.698C319.969 223.537 319.969 223.376 319.956 223.215C319.956 222.816 319.904 222.419 319.804 222.033C319.651 221.454 319.388 220.911 319.028 220.435C318.668 219.96 318.22 219.56 317.708 219.26C317.196 218.96 316.631 218.765 316.045 218.686C315.458 218.607 314.862 218.646 314.291 218.801C314.529 219.066 314.767 219.336 314.996 219.592C315.143 219.592 315.295 219.563 315.472 219.558C316.593 219.559 317.674 219.984 318.504 220.749C319.333 221.515 319.851 222.566 319.956 223.698Z" fill="white"/>
</g>
<path d="M266.483 272.39C266.458 273.841 265.866 275.222 264.837 276.23C263.808 277.239 262.426 277.792 260.994 277.769L124.49 275.357C123.155 275.337 121.874 274.817 120.894 273.897C119.915 272.977 119.307 271.721 119.187 270.373L111.794 184.76C111.794 184.616 111.794 184.476 111.77 184.336C111.756 182.886 112.311 181.489 113.312 180.453C114.314 179.418 115.68 178.827 117.111 178.812L257.476 177.452C258.879 177.435 260.233 177.974 261.25 178.953C262.267 179.933 262.867 181.275 262.922 182.696L266.479 272.076C266.483 272.183 266.483 272.303 266.483 272.39Z" fill="#1D1140"/>
<path d="M188.087 225.424C191.497 225.424 194.261 222.128 194.261 218.062C194.261 213.996 191.497 210.7 188.087 210.7C184.676 210.7 181.912 213.996 181.912 218.062C181.912 222.128 184.676 225.424 188.087 225.424Z" fill="white"/>
<path d="M147.607 136.092C147.449 138.861 147.035 141.462 149.592 142.682C151.91 143.778 158.67 143.396 161.174 143.165C161.098 140.111 160.936 137.94 163.293 135.446C165.335 133.289 169.143 135.19 172.085 135.33C172.806 135.443 173.542 135.299 174.17 134.925C175.123 134.206 175.018 132.667 174.275 131.76C173.533 130.853 172.371 130.453 171.219 130.187C167.068 129.247 162.74 129.652 158.508 130.057C161.684 124.75 168.396 123.139 174.218 121.103C175.037 120.823 175.989 120.346 176.051 119.472C176.146 118.136 174.275 117.774 172.961 117.919L163.916 118.884L173.728 113.736C174.961 113.09 176.389 111.628 175.489 110.557C175.051 110.036 174.285 110.007 173.613 110.036C169.496 110.258 165.521 111.652 161.641 113.032C160.487 113.384 159.382 113.887 158.356 114.527C156.571 115.743 155.433 117.712 154.376 119.612C151.786 124.263 147.94 130.665 147.607 136.092Z" fill="#FFB9B3"/>
<g opacity="0.1">
<path d="M334.152 222.057L333.79 222.008C333.252 221.958 332.733 221.783 332.272 221.497C331.705 221.923 331.246 222.478 330.931 223.118C330.616 223.757 330.454 224.463 330.458 225.178C330.454 225.339 330.462 225.501 330.482 225.66C330.544 225.022 330.737 224.403 331.049 223.844C331.362 223.286 331.786 222.8 332.296 222.419C332.755 222.708 333.275 222.885 333.814 222.935C334.262 223.002 334.714 223.05 335.161 223.079C334.799 222.766 334.462 222.424 334.152 222.057Z" fill="white"/>
<path d="M339.47 225.632C339.479 225.481 339.479 225.329 339.47 225.178C339.474 224.777 339.423 224.378 339.317 223.991C339.165 223.412 338.901 222.869 338.542 222.393C338.182 221.918 337.734 221.518 337.222 221.218C336.71 220.918 336.145 220.723 335.558 220.644C334.972 220.565 334.376 220.604 333.805 220.759C334.043 221.024 334.281 221.299 334.509 221.55C334.659 221.531 334.81 221.521 334.962 221.521C336.083 221.514 337.167 221.932 338.001 222.692C338.834 223.452 339.358 224.501 339.47 225.632Z" fill="white"/>
</g>
<path d="M100.405 123.264C118.152 123.264 132.539 108.684 132.539 90.6991C132.539 72.7143 118.152 58.1348 100.405 58.1348C82.6583 58.1348 68.2715 72.7143 68.2715 90.6991C68.2715 108.684 82.6583 123.264 100.405 123.264Z" fill="#F4F3FF"/>
<path d="M50.0634 144.974C59.7257 144.974 67.5585 137.036 67.5585 127.244C67.5585 117.452 59.7257 109.515 50.0634 109.515C40.4012 109.515 32.5684 117.452 32.5684 127.244C32.5684 137.036 40.4012 144.974 50.0634 144.974Z" fill="#F4F3FF"/>
</g>
<defs>
<linearGradient id="paint0_linear_1282_2136" x1="122.718" y1="182.184" x2="279.597" y2="182.184" gradientUnits="userSpaceOnUse">
<stop stop-color="#FE3054" stop-opacity="0"/>
<stop offset="1" stop-color="#FE3054" stop-opacity="0.5"/>
</linearGradient>
<linearGradient id="paint1_linear_1282_2136" x1="131.996" y1="178.869" x2="290.013" y2="178.869" gradientUnits="userSpaceOnUse">
<stop stop-color="#FE3054" stop-opacity="0"/>
<stop offset="1" stop-color="#FE3054" stop-opacity="0.5"/>
</linearGradient>
<linearGradient id="paint2_linear_1282_2136" x1="318.655" y1="211.792" x2="333.97" y2="211.792" gradientUnits="userSpaceOnUse">
<stop stop-color="#FE3054" stop-opacity="0"/>
<stop offset="1" stop-color="#FE3054" stop-opacity="0.5"/>
</linearGradient>
<linearGradient id="paint3_linear_1282_2136" x1="310.937" y1="223.254" x2="319.977" y2="223.254" gradientUnits="userSpaceOnUse">
<stop stop-color="#FE3054" stop-opacity="0"/>
<stop offset="1" stop-color="#FE3054" stop-opacity="0.5"/>
</linearGradient>
<linearGradient id="paint4_linear_1282_2136" x1="330.457" y1="225.183" x2="339.497" y2="225.183" gradientUnits="userSpaceOnUse">
<stop stop-color="#FE3054" stop-opacity="0"/>
<stop offset="1" stop-color="#FE3054" stop-opacity="0.5"/>
</linearGradient>
<clipPath id="clip0_1282_2136">
<rect width="420" height="320" fill="white"/>
</clipPath>
</defs>
</svg>
