<svg width="64" height="64" viewBox="0 0 64 64" fill="none" xmlns="http://www.w3.org/2000/svg">
<path d="M31.9004 30.2992V61.9992C31.9004 61.9992 45.0004 52.7992 54.2004 50.0992C54.2004 50.0992 54.6004 30.4992 60.3004 20.6992L31.9004 30.2992Z" fill="#076170"/>
<path d="M40.0996 57.1992C40.0996 57.1992 40.5996 29.0992 41.5996 27.6992C42.5996 26.1992 51.1996 24.6992 51.1996 24.6992C51.1996 24.6992 47.6996 50.9992 48.4996 52.6992C48.5996 52.5992 44.9996 54.0992 40.0996 57.1992Z" fill="#B3690E"/>
<path d="M31.9008 61.9992C31.9008 61.9992 22.7008 54.1992 8.40078 50.0992C8.40078 50.0992 9.50078 33.9992 4.30078 21.6992L31.9008 30.2992V61.9992Z" fill="#3BAACF"/>
<path d="M14.2008 52.6992C14.2008 52.6992 22.6008 56.0992 23.2008 57.1992C23.8008 58.2992 23.8008 28.8992 23.8008 28.8992C23.8008 28.8992 12.3008 25.6992 11.3008 25.6992C11.3008 25.6992 14.8008 37.5992 14.2008 52.6992Z" fill="#E9C243"/>
<path opacity="0.3" d="M31.8992 30.2992V35.5992L57.5992 26.7992C58.2992 24.5992 59.1992 22.4992 60.1992 20.6992L31.8992 30.2992ZM6.09922 27.1992C5.59922 25.2992 4.99922 23.4992 4.19922 21.6992L31.7992 30.2992V35.5992L6.09922 27.1992Z" fill="black"/>
<path d="M2 18.9004L30.5 25.2004L62 17.6004L31.1 15.9004L2 18.9004Z" fill="#4FC7E8"/>
<path d="M2 18.9004L4.3 25.2004L30.5 32.6004V25.2004L2 18.9004Z" fill="#3BAACF"/>
<path d="M30.5 32.5992C30.5 32.5992 54.3 23.7992 60.2 23.3992C60.2 23.3992 60.6 19.8992 62 17.6992L30.5 25.1992V32.5992Z" fill="#076170"/>
<path d="M10.5 20.7984L16.3 26.2984L22.7 23.3984L32 20.5984L43.6 21.9984L49.7 23.1984L54.6 19.3984L10.5 20.7984Z" fill="#F0AE11"/>
<path d="M22.7 23.3992L32 20.5992L43.6 21.9992L54.6 19.3992L31.4 17.1992L10.5 20.7992L22.7 23.3992Z" fill="#F0AE11"/>
<path d="M10.5 20.8008V27.8008L22.2 31.0008L22.7 23.4008L10.5 20.8008Z" fill="#F8D048"/>
<path d="M43.5996 22.0004L43.7996 28.7004L53.7996 25.7004L54.5996 19.4004L43.5996 22.0004Z" fill="#C47116"/>
<path d="M37.3007 17.3C37.3007 17.3 37.3007 10.3 44.1007 4.2C44.1007 4.2 40.0007 5.7 38.0007 5.3C35.6007 4.9 34.8007 2 34.8007 2C34.8007 2 29.0007 14.6 30.7007 16.2C32.4007 17.9 37.3007 17.3 37.3007 17.3Z" fill="#EA9F07"/>
<path d="M28.3992 21.4004C28.3992 21.4004 24.4992 13.4004 16.1992 9.20039C16.1992 9.20039 22.6992 8.60039 24.1992 7.80039C26.0992 6.90039 27.1992 4.40039 27.1992 4.40039C27.1992 4.40039 34.3992 17.0004 33.7992 18.9004C33.1992 20.8004 28.3992 21.4004 28.3992 21.4004Z" fill="#F8D048"/>
<path d="M32.5992 20.4997C32.5992 20.4997 26.4992 22.8997 18.6992 22.8997C2.29924 22.7997 -0.000757217 10.9997 16.1992 12.0997C29.4992 13.0997 32.5992 20.4997 32.5992 20.4997Z" fill="#EA9F07"/>
<path d="M31.5001 20.4003C31.5001 20.4003 38.7001 21.0003 45.4001 19.3003C59.4001 15.7003 54.2001 5.10027 41.0001 9.60027C30.2001 13.3003 31.5001 20.4003 31.5001 20.4003Z" fill="#F0AE11"/>
<path d="M32.6001 20.5006C32.6001 20.5006 28.8001 22.0006 23.9001 22.0006C13.7001 22.0006 12.2001 14.6006 22.3001 15.3006C30.6001 15.9006 32.6001 20.5006 32.6001 20.5006Z" fill="#824000"/>
<path d="M32.5994 20.5007C32.5994 20.5007 37.5994 20.9007 42.2994 19.7007C52.0994 17.2007 48.3994 9.80067 39.2994 12.9007C31.6994 15.5007 32.5994 20.5007 32.5994 20.5007Z" fill="#824000"/>
</svg>
