<svg width="19" height="18" viewBox="0 0 19 18" fill="none" xmlns="http://www.w3.org/2000/svg">
<g clip-path="url(#clip0_1044_1812)">
<path d="M9.42542 1.24758C9.25998 1.24758 9.10131 1.18186 8.98433 1.06488C8.86734 0.947896 8.80162 0.789232 8.80162 0.623792C8.80162 0.458352 8.86734 0.299688 8.98433 0.182704C9.10131 0.0657208 9.25998 0 9.42542 0C11.4043 0.000398324 13.3278 0.653181 14.8981 1.85727C16.4685 3.06136 17.598 4.74958 18.1119 6.66053C18.6258 8.57148 18.4954 10.5985 17.7408 12.4279C16.9862 14.2572 15.6495 15.7867 13.9378 16.7796C12.2261 17.7724 10.2347 18.1733 8.27217 17.92C6.3096 17.6668 4.48526 16.7735 3.08165 15.3787C1.67804 13.9838 0.773448 12.1651 0.507949 10.2041C0.24245 8.24317 0.630854 6.24938 1.61302 4.53149L1.03121 4.75342C0.842707 4.8252 0.633406 4.81916 0.449353 4.73662C0.265301 4.65409 0.121573 4.50182 0.04979 4.31331C-0.0219934 4.12481 -0.015953 3.9155 0.0665824 3.73145C0.149118 3.5474 0.301387 3.40367 0.489893 3.33189L2.46923 2.58214C2.54235 2.55179 2.61976 2.53307 2.69866 2.52666C2.88001 2.49576 3.0664 2.53262 3.22234 2.63023C3.37829 2.72783 3.4929 2.87936 3.54438 3.05598L4.16517 5.08181C4.21546 5.27187 4.19002 5.47403 4.09419 5.6457C3.99837 5.81738 3.83965 5.94515 3.65148 6.00211C3.46331 6.05906 3.26037 6.04076 3.08543 5.95104C2.91049 5.86133 2.7772 5.70721 2.71365 5.52116L2.63568 5.24825C1.81177 6.73688 1.50016 8.45511 1.74884 10.1383C1.99753 11.8214 2.79272 13.3761 4.01191 14.5629C5.23111 15.7497 6.80668 16.5026 8.49593 16.7059C10.1852 16.9091 11.8944 16.5513 13.3603 15.6876C14.8262 14.8238 15.9674 13.5021 16.6082 11.9259C17.249 10.3498 17.3538 8.60669 16.9065 6.96512C16.4592 5.32355 15.4845 3.87459 14.1327 2.84143C12.7809 1.80827 11.1268 1.24823 9.42542 1.24758ZM6.155 12.6033C5.82811 12.6033 5.5627 12.3829 5.5627 12.1115C5.5627 11.8401 5.82811 11.6196 6.155 11.6196H6.72332C6.80734 10.9174 7.08979 10.2537 7.53754 9.70626C7.76048 9.4294 8.02625 9.18995 8.32478 8.997C8.02599 8.80078 7.76027 8.55833 7.53754 8.27874C7.09005 7.73173 6.80762 7.06857 6.72332 6.36688H6.155C5.82811 6.36688 5.5627 6.14645 5.5627 5.87354C5.5627 5.60063 5.82811 5.38171 6.155 5.38171H12.6793C13.0062 5.38171 13.2791 5.60213 13.2791 5.87354C13.2791 6.14495 13.0137 6.36688 12.6793 6.36688H12.1095C12.0257 7.06843 11.7438 7.7316 11.2968 8.27874C11.0735 8.55838 10.8073 8.80082 10.5081 8.997C10.8076 9.19218 11.0739 9.43417 11.2968 9.71376C11.7442 10.2613 12.0261 10.925 12.1095 11.6271H12.6793C13.0062 11.6271 13.2791 11.8475 13.2791 12.119C13.2791 12.3904 13.0137 12.6108 12.6793 12.6108L6.155 12.6033ZM11.3958 11.5791C11.3101 11.0537 11.0872 10.5602 10.7495 10.1486C10.3626 9.66878 9.86777 9.34188 9.41792 9.34188C8.96807 9.34188 8.47473 9.66878 8.08786 10.1486C7.74969 10.5601 7.52622 11.0536 7.44008 11.5791H11.3958ZM10.7495 7.83039C11.0869 7.41809 11.3098 6.92418 11.3958 6.39837H7.43858C7.52502 6.92431 7.74844 7.41821 8.08636 7.83039C8.47323 8.31023 8.96657 8.63562 9.41642 8.63562C9.86627 8.63562 10.3611 8.31023 10.748 7.83039H10.7495Z" fill="#515151"/>
</g>
<defs>
<clipPath id="clip0_1044_1812">
<rect width="18.4259" height="18" fill="white"/>
</clipPath>
</defs>
</svg>
