<svg width="28" height="24" viewBox="0 0 28 24" fill="none" xmlns="http://www.w3.org/2000/svg">
<path d="M25.5604 0.78125H2.44039C1.31839 0.78125 0.400391 1.69925 0.400391 2.82125V17.1012C0.400391 18.2232 1.31839 19.1412 2.44039 19.1412H9.92039V20.5692C9.88639 20.7052 9.61439 21.0792 9.47839 21.2492C9.10439 21.7252 8.73039 22.2012 9.00239 22.7452C9.10439 22.9832 9.37639 23.2212 9.92039 23.2212H17.7404C18.0804 23.2212 18.8624 23.2212 19.1344 22.6092C19.4064 21.9972 18.9304 21.5212 18.5224 21.0792C18.3864 20.9092 18.1484 20.6712 18.0804 20.5352V19.1412H25.5604C26.6824 19.1412 27.6004 18.2232 27.6004 17.1012V2.82125C27.6004 1.69925 26.6824 0.78125 25.5604 0.78125ZM10.7024 21.8612C11.0084 21.4872 11.2804 21.0452 11.2804 20.5692V19.1412H16.7204V20.5692C16.7204 21.0452 17.0604 21.4872 17.4004 21.8612H10.7024ZM26.2404 17.1012C26.2404 17.4752 25.9344 17.7812 25.5604 17.7812H2.44039C2.06639 17.7812 1.76039 17.4752 1.76039 17.1012V15.0612H26.2404V17.1012ZM26.2404 13.7012H1.76039V2.82125C1.76039 2.44725 2.06639 2.14125 2.44039 2.14125H25.5604C25.9344 2.14125 26.2404 2.44725 26.2404 2.82125V13.7012Z" fill="#363F5E"/>
</svg>
