<svg width="14" height="14" viewBox="0 0 14 14" fill="none" xmlns="http://www.w3.org/2000/svg">
<path d="M13.6027 6.30027C13.7584 6.17869 13.874 6.00908 13.9331 5.81523C13.9922 5.62137 13.9919 5.41299 13.9323 5.2193C13.8727 5.02562 13.7567 4.85633 13.6007 4.73519C13.4446 4.61405 13.2563 4.54713 13.0621 4.54381L9.29041 4.39451C9.27186 4.39317 9.25408 4.38624 9.23921 4.37455C9.22434 4.36286 9.21301 4.34692 9.20659 4.32864L7.90327 0.640077C7.83778 0.452416 7.71885 0.290373 7.56256 0.175886C7.40627 0.0613999 7.22019 0 7.02949 0C6.8388 0 6.65271 0.0613999 6.49643 0.175886C6.34014 0.290373 6.2212 0.452416 6.15572 0.640077L4.85659 4.34182C4.85017 4.36009 4.83884 4.37604 4.82397 4.38772C4.8091 4.39941 4.79132 4.40634 4.77277 4.40768L1.00109 4.55698C0.806895 4.56031 0.61856 4.62723 0.462494 4.74837C0.306428 4.86951 0.190458 5.03879 0.130844 5.23248C0.0712309 5.42616 0.0709634 5.63454 0.13008 5.8284C0.189196 6.02225 0.304731 6.19186 0.460485 6.31344L3.41916 8.75053C3.43397 8.76274 3.44503 8.77923 3.45099 8.79796C3.45695 8.81669 3.45754 8.83684 3.45268 8.85592L2.43433 12.6367C2.38156 12.8292 2.38667 13.0341 2.44897 13.2235C2.51127 13.4129 2.62774 13.5775 2.78252 13.6951C2.9373 13.8126 3.12289 13.8774 3.31403 13.8805C3.50518 13.8836 3.6926 13.825 3.85081 13.7125L6.97711 11.517C6.99251 11.5058 7.01078 11.4998 7.02949 11.4998C7.04821 11.4998 7.06648 11.5058 7.08188 11.517L10.2082 13.7125C10.3642 13.8288 10.551 13.8913 10.7425 13.8913C10.934 13.8913 11.1208 13.8288 11.2768 13.7125C11.4316 13.5961 11.5482 13.4322 11.6105 13.2435C11.6728 13.0548 11.6777 12.8504 11.6247 12.6587L10.5979 8.8647C10.5925 8.84565 10.5928 8.82531 10.5988 8.80645C10.6048 8.78759 10.6162 8.77113 10.6314 8.75931L13.6027 6.30027Z" fill="#DADADA"/>
</svg>
