<svg width="169" height="105" viewBox="0 0 169 105" fill="none" xmlns="http://www.w3.org/2000/svg">
<g filter="url(#filter0_d_2629_10675)">
<rect x="25" y="20" width="119" height="55" rx="15" fill="white" shape-rendering="crispEdges"/>
<path d="M69.4658 38.4379H73.3119V39.401H70.5845V40.9002H72.8034V41.8543H70.5845V44.1168H69.4658V38.4379ZM74.6247 39.1648C74.1992 39.1648 73.959 38.9103 73.959 38.5196C73.959 38.138 74.1992 37.8745 74.6247 37.8745C75.0592 37.8745 75.2996 38.138 75.2996 38.5196C75.2994 38.9103 75.059 39.1648 74.6247 39.1648ZM74.079 44.1166V39.9551L75.1699 39.8006V44.1166H74.079ZM78.9816 44.1166V41.5633C78.9816 40.9455 78.7322 40.7365 78.2422 40.7365C77.8631 40.7365 77.5118 40.9273 77.2991 41.1272V44.1166H76.2082V39.946L77.2991 39.8006V40.4639C77.6782 40.055 78.1867 39.7915 78.7042 39.7915C79.564 39.7915 80.0725 40.3367 80.0725 41.2362V44.1166H78.9816ZM83.9314 38.0472L85.0226 37.9018V44.1168H83.9314V43.7079C83.6451 43.9805 83.2565 44.2531 82.7296 44.2531C81.6019 44.2531 80.8713 43.3535 80.8713 42.0542C80.8713 40.7185 81.8143 39.7917 83.0254 39.7917C83.3305 39.7917 83.6636 39.8462 83.9314 39.928V38.0472ZM83.1271 40.6456C82.3967 40.6456 81.9807 41.2362 81.9807 42.0086C81.9807 42.8263 82.3967 43.3442 83.0531 43.3442C83.4137 43.3442 83.6911 43.217 83.9312 42.999V40.8909C83.7188 40.7367 83.4507 40.6456 83.1271 40.6456ZM89.3494 39.9278V42.481C89.3494 43.0989 89.608 43.2988 90.0705 43.2988C90.4586 43.2988 90.8007 43.1262 91.0041 42.9354V39.9278H92.095V44.0893L91.0041 44.2347V43.6168C90.653 43.9894 90.1445 44.2529 89.599 44.2529C88.7672 44.2529 88.2587 43.7077 88.2587 42.8081V39.9278H89.3494ZM94.5227 44.262C93.9679 44.262 93.293 44.1075 92.8678 43.8712L93.1084 43.0353C93.5334 43.2715 94.0789 43.426 94.5504 43.426C94.9759 43.426 95.253 43.2534 95.253 42.9626C95.253 42.6355 94.8927 42.5174 94.3934 42.3993C93.5889 42.2175 92.951 41.8904 92.951 41.0999C92.951 40.3094 93.6259 39.7915 94.6521 39.7915C95.1791 39.7915 95.8078 39.9278 96.2055 40.1277L95.9649 40.9636C95.5491 40.7547 95.0036 40.6184 94.6246 40.6184C94.2268 40.6184 93.9867 40.7637 93.9867 41.0363C93.9867 41.3543 94.3474 41.4634 94.8467 41.5815C95.66 41.7723 96.298 42.0812 96.298 42.899C96.2978 43.6804 95.6136 44.262 94.5227 44.262ZM101.198 44.2529C99.9494 44.2529 99.0436 43.4169 99.0436 42.0267C99.0436 40.6456 99.9956 39.7824 101.253 39.7824C102.511 39.7824 103.407 40.6365 103.407 42.0176C103.407 43.3897 102.446 44.2529 101.198 44.2529ZM101.216 40.6456C100.504 40.6456 100.116 41.209 100.116 42.0176C100.116 42.8172 100.523 43.3806 101.235 43.3806C101.938 43.3806 102.325 42.8354 102.325 42.0267C102.325 41.2181 101.919 40.6456 101.216 40.6456ZM106.993 44.1166V41.5633C106.993 40.9455 106.743 40.7365 106.253 40.7365C105.874 40.7365 105.523 40.9273 105.31 41.1272V44.1166H104.219V39.946L105.31 39.8006V40.4639C105.689 40.055 106.198 39.7915 106.715 39.7915C107.575 39.7915 108.084 40.3367 108.084 41.2362V44.1166H106.993Z" fill="#465B94"/>
<path d="M69.4658 47.9061H75.5473V49.429H71.2347V51.7997H74.7434V53.3082H71.2347V56.8859H69.4658V47.9061ZM79.7627 56.1243C79.2802 56.6991 78.6954 57.1012 77.862 57.1012C76.6485 57.1012 75.7715 56.2824 75.7715 55.2335C75.7715 54.0123 76.678 52.9777 79.7625 52.8774V52.7193C79.7625 51.8284 79.3821 51.4551 78.4174 51.4551C77.7304 51.4551 76.8971 51.7568 76.1807 52.1589L75.83 50.8228C76.4879 50.4207 77.5404 50.0471 78.6513 50.0471C80.7272 50.0471 81.5313 50.9521 81.4873 52.7768V55.1475C81.4873 55.6504 81.575 55.7222 82.0867 55.751L81.9551 57.0296C80.6687 57.1735 80.0693 56.7855 79.8207 56.1246H79.7627V56.1243ZM79.7627 53.7678C78.0816 53.969 77.4675 54.2995 77.4675 55.0036C77.4675 55.5065 77.862 55.8657 78.4761 55.8657C79.017 55.8657 79.4554 55.6214 79.7625 55.2909V53.7678H79.7627ZM86.1034 57.1012C83.9104 57.1012 82.6094 55.7651 82.6094 53.5956C82.6094 51.4405 84.0422 50.0469 86.1619 50.0469C87.0828 50.0469 87.8723 50.2478 88.4864 50.6071L88.1211 51.9719C87.5655 51.6271 86.9222 51.4403 86.2935 51.4403C85.051 51.4403 84.3784 52.2735 84.3784 53.5523C84.3784 54.903 85.1533 55.6931 86.2935 55.6931C86.9953 55.6931 87.6386 55.5063 88.1647 55.176L88.4427 56.5552C87.8575 56.9003 87.0097 57.1012 86.1034 57.1012ZM90.7613 53.9405C90.8344 55.0181 91.5803 55.7507 92.7787 55.7507C93.4951 55.7507 94.27 55.5208 94.8839 55.1472L95.1034 56.5554C94.4601 56.9003 93.568 57.1012 92.662 57.1012C90.4986 57.1012 89.0656 55.7507 89.0656 53.6387C89.0656 51.4836 90.5274 50.0469 92.5448 50.0469C94.3283 50.0469 95.3227 51.11 95.3227 52.7335C95.3227 53.0927 95.264 53.5525 95.1765 53.8397L90.7613 53.8971V53.9405ZM93.7 52.8915V52.7766C93.7 51.8859 93.3053 51.3255 92.4134 51.3255C91.4631 51.3255 90.8934 52.0871 90.8054 52.9059L93.7 52.8915ZM99.7071 57.0869C99.2687 57.0869 98.64 57.0006 98.2016 56.8569L96.5495 57.101V47.2883L98.2745 47.0583V50.8944C98.7275 50.4636 99.3416 50.0469 100.16 50.0469C101.944 50.0469 103.113 51.469 103.113 53.5094C103.114 55.6214 101.622 57.0869 99.7071 57.0869ZM99.6635 51.469C99.0933 51.469 98.6549 51.6847 98.2747 52.015V55.3628C98.5964 55.6068 99.0348 55.7364 99.5463 55.7364C100.702 55.7364 101.359 54.8168 101.359 53.5812C101.359 52.288 100.731 51.469 99.6635 51.469ZM107.338 57.1012C105.364 57.1012 103.931 55.7795 103.931 53.5812C103.931 51.3974 105.437 50.0325 107.425 50.0325C109.413 50.0325 110.832 51.3832 110.832 53.5671C110.832 55.7364 109.311 57.1012 107.338 57.1012ZM107.367 51.3974C106.241 51.3974 105.627 52.2882 105.627 53.5671C105.627 54.8313 106.27 55.722 107.396 55.722C108.507 55.722 109.121 54.8601 109.121 53.5812C109.121 52.3026 108.478 51.3974 107.367 51.3974ZM115.075 57.1012C113.101 57.1012 111.669 55.7795 111.669 53.5812C111.669 51.3974 113.174 50.0325 115.162 50.0325C117.151 50.0325 118.569 51.3832 118.569 53.5671C118.569 55.7364 117.048 57.1012 115.075 57.1012ZM115.104 51.3974C113.978 51.3974 113.364 52.2882 113.364 53.5671C113.364 54.8313 114.008 55.722 115.134 55.722C116.244 55.722 116.858 54.8601 116.858 53.5812C116.858 52.3026 116.215 51.3974 115.104 51.3974ZM121.483 53.696V56.8857H119.758V47.2883L121.483 47.0583V53.2076H121.512L123.924 50.2624H125.986L123.193 53.4088L126 56.8857H123.939L121.512 53.696H121.483Z" fill="#465B94"/>
<path d="M63.1859 37H44.1791C44.0242 36.9999 43.8709 37.0299 43.7278 37.0881C43.5847 37.1463 43.4547 37.2317 43.3452 37.3393C43.2357 37.4469 43.1489 37.5747 43.0896 37.7153C43.0304 37.8559 42.9999 38.0066 43 38.1588V56.8385C43 57.1459 43.1242 57.4406 43.3453 57.6579C43.5665 57.8752 43.8664 57.9973 44.1791 57.9973H63.1859C63.4985 57.9972 63.7984 57.8751 64.0194 57.6578C64.2405 57.4405 64.3647 57.1458 64.3648 56.8385V38.1588C64.3648 38.0066 64.3343 37.856 64.2751 37.7154C64.2158 37.5748 64.129 37.447 64.0195 37.3394C63.9101 37.2318 63.7801 37.1465 63.6371 37.0882C63.494 37.03 63.3407 37 63.1859 37Z" fill="#485A95"/>
<path d="M60.5181 49.8684L60.9337 46.6994H57.7409V44.6762C57.7409 43.7589 58 43.1336 59.3388 43.1336L61.046 43.133V40.2983C60.7507 40.2598 59.7374 40.1736 58.5581 40.1736C56.0963 40.1736 54.4109 41.6504 54.4109 44.3626V46.6996H51.627V49.8686H54.4111V58H57.7411V49.8684H60.5181Z" fill="white"/>
</g>
<defs>
<filter id="filter0_d_2629_10675" x="0" y="0" width="169" height="105" filterUnits="userSpaceOnUse" color-interpolation-filters="sRGB">
<feFlood flood-opacity="0" result="BackgroundImageFix"/>
<feColorMatrix in="SourceAlpha" type="matrix" values="0 0 0 0 0 0 0 0 0 0 0 0 0 0 0 0 0 0 127 0" result="hardAlpha"/>
<feOffset dy="5"/>
<feGaussianBlur stdDeviation="12.5"/>
<feComposite in2="hardAlpha" operator="out"/>
<feColorMatrix type="matrix" values="0 0 0 0 0 0 0 0 0 0.4025 0 0 0 0 0.875 0 0 0 0.15 0"/>
<feBlend mode="normal" in2="BackgroundImageFix" result="effect1_dropShadow_2629_10675"/>
<feBlend mode="normal" in="SourceGraphic" in2="effect1_dropShadow_2629_10675" result="shape"/>
</filter>
</defs>
</svg>
