<svg width="14" height="14" viewBox="0 0 14 14" fill="none" xmlns="http://www.w3.org/2000/svg">
<path d="M13.5168 6.30027C13.6725 6.17869 13.788 6.00908 13.8472 5.81523C13.9063 5.62137 13.906 5.41299 13.8464 5.2193C13.7868 5.02562 13.6708 4.85633 13.5147 4.73519C13.3587 4.61405 13.1703 4.54713 12.9761 4.54381L9.20447 4.39451C9.18592 4.39317 9.16815 4.38624 9.15328 4.37455C9.1384 4.36286 9.12708 4.34692 9.12065 4.32864L7.81733 0.640077C7.75185 0.452416 7.63291 0.290373 7.47662 0.175886C7.32034 0.0613999 7.13425 0 6.94356 0C6.75286 0 6.56678 0.0613999 6.41049 0.175886C6.2542 0.290373 6.13527 0.452416 6.06978 0.640077L4.77065 4.34182C4.76423 4.36009 4.7529 4.37604 4.73803 4.38772C4.72316 4.39941 4.70538 4.40634 4.68683 4.40768L0.915155 4.55698C0.720958 4.56031 0.532622 4.62723 0.376556 4.74837C0.220491 4.86951 0.10452 5.03879 0.0449069 5.23248C-0.0147066 5.42616 -0.0149741 5.63454 0.044142 5.8284C0.103258 6.02225 0.218793 6.19186 0.374548 6.31344L3.33322 8.75053C3.34803 8.76274 3.3591 8.77923 3.36505 8.79796C3.37101 8.81669 3.3716 8.83684 3.36675 8.85592L2.34839 12.6367C2.29562 12.8292 2.30073 13.0341 2.36304 13.2235C2.42534 13.4129 2.5418 13.5775 2.69658 13.6951C2.85136 13.8126 3.03695 13.8774 3.2281 13.8805C3.41924 13.8836 3.60666 13.825 3.76487 13.7125L6.89117 11.517C6.90657 11.5058 6.92484 11.4998 6.94356 11.4998C6.96227 11.4998 6.98054 11.5058 6.99594 11.517L10.1222 13.7125C10.2783 13.8288 10.4651 13.8913 10.6566 13.8913C10.8481 13.8913 11.0348 13.8288 11.1909 13.7125C11.3457 13.5961 11.4623 13.4322 11.5246 13.2435C11.5869 13.0548 11.5918 12.8504 11.5387 12.6587L10.512 8.8647C10.5065 8.84565 10.5068 8.82531 10.5128 8.80645C10.5188 8.78759 10.5303 8.77113 10.5455 8.75931L13.5168 6.30027Z" fill="#FFCE6B"/>
</svg>
