<svg width="166" height="105" viewBox="0 0 166 105" fill="none" xmlns="http://www.w3.org/2000/svg">
<g filter="url(#filter0_d_2629_10728)">
<rect x="25" y="20" width="115.058" height="55" rx="15" fill="white" shape-rendering="crispEdges"/>
<path d="M101.25 38.5043C101.25 37.6739 101.939 37 102.788 37H120.52C121.37 37 122.058 37.6739 122.058 38.5043V56.4959C122.058 57.3266 121.37 58 120.52 58H102.788C101.939 58 101.25 57.3266 101.25 56.4962V38.5041V38.5043Z" fill="#006699"/>
<path d="M43 54.594H51.6839V51.7346H46.1432V40.8267H43V54.594ZM56.0805 54.594V45.1114H52.9376V54.594H56.0805ZM54.5093 43.8169C55.6051 43.8169 56.2873 43.0887 56.2873 42.1782C56.2669 41.2478 55.6051 40.5403 54.5302 40.5403C53.455 40.5403 52.7519 41.2481 52.7519 42.1782C52.7519 43.0887 53.4341 43.8169 54.4887 43.8169H54.5093V43.8169ZM57.5396 54.594H60.6825V49.2983C60.6825 49.0149 60.7028 48.7315 60.786 48.5296C61.0129 47.9633 61.53 47.3767 62.3984 47.3767C63.5359 47.3767 63.991 48.2465 63.991 49.5205V54.5937H67.1333V49.1567C67.1333 46.2439 65.5827 44.8886 63.5148 44.8886C61.8195 44.8886 61.0749 45.839 60.6613 46.4865H60.6825V45.1114H57.5396C57.5811 46.0013 57.5396 54.594 57.5396 54.594V54.594ZM71.5673 40.8267H68.4244V54.594H71.5673V51.5195L72.3527 50.5277L74.8134 54.594H78.6797L74.5448 48.7075L78.1628 44.7029H74.3795C74.3795 44.7029 71.7949 48.2856 71.5673 48.7108V40.8267Z" fill="black"/>
<path d="M87.0846 50.6348C87.1261 50.3913 87.1881 49.9242 87.1881 49.3959C87.1881 46.9447 85.9473 44.4561 82.6806 44.4561C79.1862 44.4561 77.5732 47.2276 77.5732 49.7413C77.5732 52.8502 79.5377 54.7916 82.9698 54.7916C84.3347 54.7916 85.5955 54.59 86.6298 54.1651L86.2162 52.0835C85.3681 52.3655 84.4997 52.5068 83.4248 52.5068C81.9569 52.5068 80.6752 51.9022 80.5717 50.6144L87.0846 50.6342V50.6348ZM80.5511 48.5025C80.6337 47.6933 81.1718 46.4994 82.5155 46.4994C83.942 46.4994 84.2732 47.774 84.2732 48.5025H80.5514H80.5511ZM94.9457 40.823V45.5888H94.9042C94.4491 44.9218 93.4981 44.4767 92.2375 44.4767C89.818 44.4767 87.6885 46.4184 87.7088 49.7355C87.7088 52.8103 89.6321 54.8128 92.0302 54.8128C93.333 54.8128 94.5733 54.246 95.1939 53.1537H95.2557L95.3801 54.5903H98.1712C98.13 53.9227 98.0883 52.7698 98.0883 51.637V40.8228H94.9454L94.9457 40.823ZM94.9457 50.201C94.9457 50.4433 94.9251 50.6865 94.8833 50.8881C94.6979 51.7585 93.9534 52.3647 93.0436 52.3647C91.7413 52.3647 90.8932 51.3131 90.8932 49.6546C90.8932 48.0973 91.6174 46.8431 93.0644 46.8431C94.0361 46.8431 94.7183 47.5104 94.9045 48.3394C94.9457 48.522 94.9457 48.7245 94.9457 48.9062V50.2007V50.201Z" fill="black"/>
<path d="M107.555 54.5825V45.0999H104.412V54.5825H107.555H107.555ZM105.984 43.8054C107.08 43.8054 107.762 43.0772 107.762 42.1673C107.741 41.2366 107.08 40.5288 106.005 40.5288C104.929 40.5288 104.227 41.2366 104.227 42.1673C104.227 43.0772 104.908 43.8054 105.963 43.8054H105.984H105.984ZM109.294 54.5825H112.437V49.2876C112.437 49.0045 112.458 48.7208 112.541 48.5187C112.768 47.9521 113.285 47.3658 114.153 47.3658C115.29 47.3658 115.745 48.2353 115.745 49.5102V54.5825H118.888V49.1455C118.888 46.233 117.338 44.8776 115.27 44.8776C113.574 44.8776 112.83 45.8278 112.416 46.4751H112.437V45.1002H109.295C109.336 45.9898 109.294 54.5828 109.294 54.5828V54.5825Z" fill="white"/>
</g>
<defs>
<filter id="filter0_d_2629_10728" x="0" y="0" width="165.059" height="105" filterUnits="userSpaceOnUse" color-interpolation-filters="sRGB">
<feFlood flood-opacity="0" result="BackgroundImageFix"/>
<feColorMatrix in="SourceAlpha" type="matrix" values="0 0 0 0 0 0 0 0 0 0 0 0 0 0 0 0 0 0 127 0" result="hardAlpha"/>
<feOffset dy="5"/>
<feGaussianBlur stdDeviation="12.5"/>
<feComposite in2="hardAlpha" operator="out"/>
<feColorMatrix type="matrix" values="0 0 0 0 0 0 0 0 0 0.4025 0 0 0 0 0.875 0 0 0 0.15 0"/>
<feBlend mode="normal" in2="BackgroundImageFix" result="effect1_dropShadow_2629_10728"/>
<feBlend mode="normal" in="SourceGraphic" in2="effect1_dropShadow_2629_10728" result="shape"/>
</filter>
</defs>
</svg>
