<svg width="172" height="105" viewBox="0 0 172 105" fill="none" xmlns="http://www.w3.org/2000/svg">
<g filter="url(#filter0_d_2629_10667)">
<rect x="25" y="20" width="122" height="54.9987" rx="15" fill="white" shape-rendering="crispEdges"/>
<path d="M129 46.4978V44.768H127.121V42.0789L127.058 42.1011L125.294 42.7184L125.259 42.7305V44.7681H122.475V43.633C122.475 43.1044 122.578 42.7 122.782 42.4302C122.984 42.1637 123.274 42.0282 123.643 42.0282C123.908 42.0282 124.182 42.0997 124.459 42.2406L124.528 42.276V40.4543L124.495 40.4406C124.238 40.3346 123.887 40.2812 123.452 40.2812C122.905 40.2812 122.407 40.4176 121.973 40.6878C121.538 40.9584 121.197 41.3447 120.957 41.8359C120.719 42.3264 120.598 42.893 120.598 43.52V44.768H119.29V46.4978H120.598V53.785H122.475V46.4978H125.259V51.1287C125.259 53.0359 126.046 54.0024 127.597 54.0024C127.852 54.0024 128.12 53.9682 128.394 53.9013C128.673 53.8326 128.863 53.764 128.975 53.6908L129 53.674V51.9283L128.923 51.986C128.821 52.0637 128.694 52.1271 128.546 52.1743C128.396 52.2224 128.272 52.2464 128.175 52.2464C127.812 52.2464 127.543 52.1344 127.376 51.9134C127.207 51.6904 127.122 51.3004 127.122 50.7548V46.4978H129ZM115.098 52.2467C114.416 52.2467 113.879 51.9883 113.5 51.4793C113.12 50.9677 112.927 50.2383 112.927 49.3115C112.927 48.3554 113.12 47.6071 113.501 47.0864C113.879 46.5692 114.412 46.3067 115.082 46.3067C115.733 46.3067 116.252 46.5574 116.623 47.0523C116.996 47.5497 117.185 48.292 117.185 49.2593C117.185 50.2385 117.007 50.9906 116.656 51.4937C116.307 51.9931 115.783 52.2467 115.098 52.2467ZM115.181 44.5508C113.881 44.5508 112.849 44.9864 112.112 45.8457C111.377 46.7051 111.004 47.8943 111.004 49.3807C111.004 50.7925 111.368 51.9281 112.086 52.7554C112.804 53.583 113.782 54.0022 114.991 54.0022C116.251 54.0022 117.263 53.5604 117.999 52.6892C118.735 51.819 119.108 50.641 119.108 49.1894C119.108 47.7555 118.758 46.6115 118.068 45.7897C117.377 44.9675 116.406 44.5508 115.181 44.5508ZM107.977 44.5508C107.092 44.5508 106.361 44.8095 105.802 45.3196C105.24 45.8327 104.955 46.5057 104.955 47.32C104.955 47.7433 105.016 48.1193 105.137 48.4383C105.259 48.7583 105.448 49.04 105.699 49.2764C105.947 49.511 106.331 49.7566 106.84 50.0066C107.267 50.2078 107.586 50.378 107.789 50.5122C107.987 50.6437 108.127 50.7758 108.206 50.9046C108.284 51.0306 108.323 51.203 108.323 51.4157C108.323 52.0215 107.926 52.3163 107.11 52.3163C106.807 52.3163 106.462 52.244 106.084 52.1014C105.708 51.9611 105.354 51.7555 105.033 51.4919L104.955 51.428V53.4952L104.983 53.5105C105.249 53.6507 105.584 53.769 105.979 53.862C106.373 53.9552 106.73 54.0026 107.041 54.0026C108.001 54.0026 108.774 53.7426 109.338 53.2295C109.905 52.7128 110.193 52.024 110.193 51.1815C110.193 50.5737 110.038 50.0524 109.733 49.6321C109.43 49.2152 108.904 48.8324 108.17 48.494C107.585 48.2257 107.211 48.003 107.057 47.832C106.908 47.6668 106.832 47.4332 106.832 47.1374C106.832 46.8752 106.925 46.6651 107.117 46.495C107.31 46.324 107.579 46.2371 107.916 46.2371C108.229 46.2371 108.549 46.2936 108.867 46.4043C109.185 46.5151 109.464 46.6634 109.698 46.8449L109.774 46.9048V44.9438L109.745 44.9294C109.53 44.8238 109.246 44.7335 108.901 44.6603C108.558 44.5875 108.247 44.5508 107.977 44.5508ZM100.061 52.2467C99.3794 52.2467 98.842 51.9883 98.4635 51.4793C98.0825 50.9677 97.8898 50.2385 97.8898 49.3115C97.8898 48.3554 98.0828 47.6071 98.4639 47.0864C98.8424 46.5692 99.3744 46.3067 100.046 46.3067C100.696 46.3067 101.215 46.5574 101.586 47.0523C101.959 47.5497 102.148 48.292 102.148 49.2593C102.148 50.2385 101.97 50.9906 101.619 51.4937C101.27 51.9931 100.746 52.2467 100.061 52.2467ZM100.144 44.5508C98.844 44.5508 97.8114 44.9864 97.0756 45.8457C96.3398 46.7051 95.9666 47.8943 95.9666 49.3807C95.9666 50.7931 96.3309 51.9281 97.0492 52.7554C97.7675 53.583 98.7449 54.0022 99.9542 54.0022C101.214 54.0022 102.226 53.5604 102.962 52.6892C103.698 51.819 104.071 50.641 104.071 49.1894C104.071 47.7555 103.721 46.6115 103.031 45.7897C102.34 44.9675 101.369 44.5508 100.144 44.5508ZM93.1168 46.3295V44.768H91.2624V53.7848H93.1168V49.1723C93.1168 48.388 93.2723 47.7437 93.5791 47.257C93.882 46.7762 94.2856 46.5325 94.7785 46.5325C94.9455 46.5325 95.133 46.564 95.3361 46.6263C95.5371 46.6882 95.6826 46.7555 95.7685 46.8263L95.8465 46.8909V44.7526L95.8164 44.7378C95.6437 44.6539 95.3994 44.6116 95.0903 44.6116C94.6242 44.6116 94.2072 44.7828 93.85 45.12C93.5364 45.4164 93.3098 45.8228 93.1366 46.3295H93.1168ZM87.9414 44.5508C87.0906 44.5508 86.3317 44.7594 85.6863 45.1707C85.0395 45.583 84.5392 46.1716 84.1989 46.92C83.8601 47.6666 83.6881 48.5388 83.6881 49.5113C83.6881 50.3633 83.8548 51.1451 84.1845 51.8342C84.5144 52.5244 84.9812 53.0643 85.5722 53.4388C86.1624 53.8128 86.8444 54.0025 87.5996 54.0025C88.4809 54.0025 89.2334 53.8009 89.8367 53.4035L89.861 53.3875V51.4443L89.7831 51.5094C89.5098 51.7371 89.2044 51.9188 88.8758 52.0498C88.5481 52.1806 88.2493 52.2467 87.9872 52.2467C87.2595 52.2467 86.6754 51.9863 86.2514 51.4729C85.8264 50.9588 85.611 50.2369 85.611 49.3286C85.611 48.4145 85.8357 47.6741 86.2785 47.1277C86.72 46.583 87.3052 46.3067 88.0178 46.3067C88.6273 46.3067 89.2213 46.5428 89.7833 47.009L89.861 47.0736V45.0261L89.8359 45.01C89.6245 44.8746 89.336 44.7628 88.978 44.678C88.6214 44.5934 88.2727 44.5508 87.9414 44.5508ZM82.4108 44.7681H80.5564V53.7848H82.4108V44.7681ZM81.5026 40.9269C81.1974 40.9269 80.9312 41.0458 80.7124 41.2812C80.4928 41.5174 80.3814 41.8147 80.3814 42.1656C80.3814 42.511 80.4915 42.8029 80.709 43.0328C80.9252 43.262 81.1922 43.3782 81.5027 43.3782C81.813 43.3782 82.0811 43.262 82.2998 43.0332C82.5199 42.8029 82.6315 42.5111 82.6315 42.1656C82.6315 41.827 82.5229 41.5327 82.3089 41.2908C82.095 41.0493 81.8236 40.9269 81.5026 40.9269ZM76.8756 44.1028V53.7848H78.7681V41.2029H76.1488L72.8193 50.5484L69.5883 41.2029H66.8623V53.7847H68.6408V44.1019H68.7019L72.1137 53.7848H73.4559L76.8145 44.1028H76.8756Z" fill="#706D6E"/>
<path d="M51.7239 46.9779H43V37H51.7239V46.9779Z" fill="#F1511B"/>
<path d="M61.3585 46.9779H52.6348V37H61.3585V46.9779Z" fill="#80CC28"/>
<path d="M51.7237 57.9988H43V48.021H51.7237V57.9988Z" fill="#00ADEF"/>
<path d="M61.3585 57.9988H52.6348V48.021H61.3585V57.9988Z" fill="#FBBC09"/>
</g>
<defs>
<filter id="filter0_d_2629_10667" x="0" y="0" width="172" height="104.999" filterUnits="userSpaceOnUse" color-interpolation-filters="sRGB">
<feFlood flood-opacity="0" result="BackgroundImageFix"/>
<feColorMatrix in="SourceAlpha" type="matrix" values="0 0 0 0 0 0 0 0 0 0 0 0 0 0 0 0 0 0 127 0" result="hardAlpha"/>
<feOffset dy="5"/>
<feGaussianBlur stdDeviation="12.5"/>
<feComposite in2="hardAlpha" operator="out"/>
<feColorMatrix type="matrix" values="0 0 0 0 0 0 0 0 0 0.4025 0 0 0 0 0.875 0 0 0 0.15 0"/>
<feBlend mode="normal" in2="BackgroundImageFix" result="effect1_dropShadow_2629_10667"/>
<feBlend mode="normal" in="SourceGraphic" in2="effect1_dropShadow_2629_10667" result="shape"/>
</filter>
</defs>
</svg>
