<svg width="78" height="21" viewBox="0 0 78 21" fill="none" xmlns="http://www.w3.org/2000/svg">
<path d="M65.8889 19.6652C66.9639 19.7697 68.0383 19.882 69.1102 19.9981L71.4767 14.1379L73.7262 20.5387C74.8804 20.6837 76.0341 20.8359 77.1842 20.9948L73.2404 9.77057L77.1854 0.00077407H73.8443L73.8096 0.0487664L71.6784 5.32663L69.8074 0.00154814H66.5085L69.9142 9.69419L65.8892 19.6652H65.8889ZM63.394 19.4356V0.00077407H60.0964V19.1629C61.1963 19.248 62.2967 19.3394 63.394 19.4353M38.6223 18.3488C39.5125 18.3488 40.4017 18.3555 41.2894 18.3627V11.2227H45.2508V8.18218H41.2896V3.04493H45.8521V0.00077407H37.9791V18.3514C38.1929 18.3514 38.4077 18.348 38.6223 18.3488ZM28.3838 18.5346C29.4824 18.4954 30.582 18.4623 31.6832 18.4355V3.04545H34.7656V0.00154814H25.3015V3.04545H28.3843V18.5346H28.3838ZM3.16336 20.5838V9.00501L7.06797 20.1163C8.26873 19.9811 9.47129 19.8539 10.6772 19.7336V0.00103209H7.51307V11.9947L3.29972 0.00103209H0V21H0.0198112C1.06517 20.855 2.11414 20.7172 3.16336 20.5838ZM22.1216 3.04467V0.00103209H14.2478V19.4046C16.8675 19.1779 19.4902 18.9877 22.1152 18.8342V15.7877C20.5931 15.8764 19.0741 15.9786 17.5586 16.0924V11.224H21.5201V8.18166H17.5586V3.04467H22.1216ZM52.3875 15.6421V0H49.0754V18.5457C51.71 18.6427 54.3344 18.7779 56.95 18.9482V15.8999C55.432 15.8016 53.9114 15.7162 52.3875 15.6419" fill="#B81D24"/>
</svg>
