<svg width="22" height="14" viewBox="0 0 22 14" fill="none" xmlns="http://www.w3.org/2000/svg">
<path d="M18.534 12.9603C18.4749 13.0238 18.4031 13.0756 18.3228 13.1128C18.2425 13.1499 18.1553 13.1717 18.0661 13.1768C17.9769 13.1819 17.8876 13.1703 17.8032 13.1426C17.7187 13.1149 17.6409 13.0716 17.5742 13.0153C17.4414 12.9014 17.3616 12.7423 17.3521 12.5728C17.3425 12.4033 17.404 12.237 17.5232 12.1103C18.2632 11.3402 18.868 10.4624 19.3145 9.51043C19.6976 8.68513 19.8917 7.79218 19.884 6.89052C19.8581 5.98755 19.6298 5.10015 19.2143 4.28728C18.7326 3.34803 18.0965 2.48733 17.3298 1.73736C17.2062 1.61243 17.1399 1.44609 17.1455 1.27485C17.1511 1.10362 17.2281 0.94149 17.3597 0.824063C17.4247 0.765867 17.5012 0.72042 17.5847 0.690334C17.6683 0.660248 17.7573 0.646115 17.8467 0.648748C17.9361 0.651381 18.024 0.670727 18.1054 0.705676C18.1869 0.740624 18.2602 0.790485 18.3213 0.852395C19.2017 1.71377 19.9279 2.70568 20.4711 3.78896C20.9508 4.7523 21.2113 5.80051 21.2358 6.86552C21.2479 7.93034 21.0245 8.98574 20.5801 9.96374C20.0751 11.0627 19.3839 12.0761 18.534 12.9636V12.9603ZM7.42242 9.75375C7.47877 9.8195 7.52083 9.89517 7.54618 9.97641C7.57152 10.0576 7.57965 10.1428 7.57008 10.2271C7.56153 10.3114 7.5354 10.3933 7.49318 10.4681C7.45097 10.5428 7.39353 10.6088 7.32419 10.6623C7.25485 10.7158 7.17499 10.7557 7.08925 10.7797C7.00352 10.8037 6.91361 10.8113 6.82474 10.802C6.73565 10.7937 6.64921 10.7686 6.57044 10.7283C6.49167 10.6879 6.42215 10.6331 6.36594 10.5671C5.89792 10.0303 5.52129 9.4275 5.24968 8.78045C4.99975 8.18185 4.86979 7.5443 4.86647 6.90052C4.86494 6.26063 4.99078 5.62623 5.23738 5.03058C5.50649 4.38839 5.88084 3.7905 6.3466 3.25898C6.40283 3.19319 6.47221 3.13857 6.55075 3.09826C6.62929 3.05795 6.71546 3.03273 6.8043 3.02406C6.89315 3.01539 6.98292 3.02343 7.06848 3.04773C7.15404 3.07203 7.2337 3.1121 7.30289 3.16565C7.37171 3.21903 7.42876 3.28475 7.47078 3.35904C7.5128 3.43334 7.53897 3.51476 7.54778 3.59865C7.5566 3.68254 7.54789 3.76725 7.52216 3.84795C7.49642 3.92864 7.45417 4.00374 7.39781 4.06895C7.03119 4.48789 6.73474 4.95781 6.51887 5.46223C6.12608 6.38388 6.12987 7.41477 6.52942 8.3338C6.74983 8.84544 7.05158 9.32206 7.42418 9.74708L7.42242 9.75375ZM15.6264 10.5671C15.5129 10.6998 15.3483 10.7844 15.169 10.8022C14.9897 10.82 14.8103 10.7696 14.6702 10.6621C14.53 10.5539 14.4409 10.3975 14.4223 10.2271C14.4129 10.1427 14.4212 10.0574 14.4469 9.97619C14.4725 9.89493 14.515 9.81932 14.5717 9.75375C14.9438 9.32867 15.2449 8.85205 15.4647 8.34047C15.8666 7.42246 15.8704 6.39121 15.4753 5.47057C15.26 4.96637 14.9635 4.49691 14.5963 4.07895L14.5858 4.06728C14.4762 3.93539 14.425 3.76827 14.443 3.60125C14.4611 3.43422 14.5469 3.2804 14.6825 3.17231L14.6965 3.16065C14.8371 3.05589 15.0154 3.00752 15.1932 3.0259C15.371 3.04428 15.5341 3.12795 15.6475 3.25898C16.1128 3.79024 16.486 4.38824 16.7532 5.03058C16.9997 5.62689 17.1261 6.26172 17.1259 6.90218C17.1248 7.54523 16.9984 8.18256 16.7532 8.78212C16.4812 9.4288 16.1039 10.0311 15.6352 10.5671H15.6264ZM4.47798 12.1053C4.59927 12.2328 4.66246 12.4005 4.65376 12.572C4.6482 12.6576 4.62474 12.7412 4.58475 12.8182C4.54476 12.8951 4.48904 12.9637 4.42082 13.02C4.35261 13.0763 4.27326 13.1191 4.18741 13.1461C4.10155 13.173 4.0109 13.1835 3.92073 13.177C3.74046 13.1655 3.57203 13.0878 3.45137 12.9603C2.60145 12.0727 1.91028 11.0594 1.4052 9.96041C0.962834 8.98321 0.741846 7.92883 0.756548 6.86552C0.781038 5.8005 1.04157 4.75229 1.52122 3.78896C2.06513 2.70604 2.79124 1.71423 3.67111 0.852395C3.79682 0.735468 3.96536 0.66917 4.14145 0.667378C4.31754 0.665587 4.48755 0.728439 4.61587 0.842781C4.7442 0.957123 4.8209 1.11409 4.82993 1.28083C4.83896 1.44757 4.77961 1.61116 4.66431 1.73736C3.89648 2.48677 3.25973 3.34757 2.77811 4.28728C2.36635 5.09926 2.14107 5.98485 2.11715 6.88552C2.11053 7.78742 2.30585 8.68039 2.69021 9.50543C3.13797 10.4571 3.74329 11.3348 4.48325 12.1053H4.47798Z" fill="#222380"/>
<path fill-rule="evenodd" clip-rule="evenodd" d="M12.8322 6.8648C13.1469 6.68147 13.1452 6.47481 12.8322 6.31148L10.2622 4.61654C10.0056 4.46988 9.73487 4.55654 9.74542 4.85987L9.75421 8.28808C9.77706 8.6214 9.98449 8.70807 10.2816 8.55474L12.8322 6.8648Z" fill="#222380"/>
</svg>
