<svg width="156" height="106" viewBox="0 0 156 106" fill="none" xmlns="http://www.w3.org/2000/svg">
<g filter="url(#filter0_d_2629_10684)">
<rect x="25" y="20" width="106" height="55.0015" rx="15" fill="white" shape-rendering="crispEdges"/>
<path d="M67.8867 45.2387C67.8867 43.1534 69.4028 41.6973 72.158 41.6973C73.8391 41.6973 75.2148 42.2356 75.96 42.7629C76.0667 42.8382 76.257 43.0208 76.1429 43.3606C75.9967 43.7265 75.7285 44.2767 75.5361 44.6342C75.4241 44.8424 75.1381 44.815 74.9916 44.7405C74.4608 44.4708 73.59 44.0144 72.7902 43.9302C72.5876 43.9081 72.3839 43.8993 72.1802 43.9038C71.4757 43.9195 70.8872 44.1648 70.6799 44.7038C70.6393 44.8058 70.6167 44.9141 70.613 45.0238C70.5936 45.7341 71.5793 45.9909 72.7733 46.1967C74.9932 46.578 76.6726 47.2307 76.6726 49.5221C76.6726 51.4679 75.1306 53.2265 72.1092 53.1726C70.1173 53.1322 68.7042 52.4573 67.947 51.8023C67.9212 51.7801 67.633 51.4857 67.7875 51.1316C67.9643 50.6758 68.2628 50.1534 68.497 49.876C68.6272 49.6979 68.9709 49.6696 69.1495 49.7806C69.7737 50.1696 70.8009 50.7933 71.985 50.8347C72.0784 50.8379 72.171 50.8385 72.262 50.8361C73.3271 50.8102 73.9715 50.4052 73.958 49.7229C73.9465 49.1219 73.102 48.7707 71.7572 48.5166C69.6124 48.1114 67.887 47.4024 67.887 45.2387M87.3716 48.208C85.8592 48.2278 84.4725 48.6424 84.4325 49.8278C84.4321 50.7684 85.1929 51.2304 86.2608 51.1699C87.2852 51.071 88.0664 50.6254 88.4106 50.0342C88.5379 49.8151 88.5573 48.9952 88.5496 48.6448C88.5476 48.5702 88.4005 48.429 88.3361 48.4019C88.0148 48.2661 87.7769 48.2241 87.3715 48.2077M82.3391 43.4316C83.0463 42.7969 84.4486 41.809 86.6835 41.8611C89.6327 41.9226 91.1908 43.3092 91.3359 46.6262C91.3957 47.9941 91.2966 51.8095 91.273 52.7601C91.2695 52.8965 91.2235 52.9908 91.0402 52.9943C90.5546 53.0139 89.4325 53.0061 88.9169 52.9994C88.6568 52.9867 88.6266 52.8572 88.6232 52.7217C88.621 52.633 88.6134 52.3702 88.6079 52.1558C88.605 52.0421 88.4985 52.0454 88.4713 52.0745C87.7794 52.8153 86.6464 53.173 85.4416 53.173C83.6103 53.173 81.7846 52.0926 81.7902 49.9531C81.7959 47.762 83.3451 46.6812 85.047 46.4263C86.1368 46.2637 87.3652 46.4083 88.2954 46.779C88.3549 46.8029 88.4764 46.7683 88.4774 46.6837C88.4812 46.4045 88.4677 45.8724 88.4143 45.6202C88.2777 44.9777 87.7432 44.4606 86.6203 44.3213C86.3891 44.2927 86.1563 44.2833 85.9232 44.3019C85.0306 44.3723 83.9563 45.0703 83.5115 45.3316C83.4068 45.393 83.2429 45.3481 83.1899 45.2795C82.9303 44.9432 82.2777 43.9595 82.2264 43.8023C82.175 43.6455 82.2474 43.5135 82.3388 43.4311L82.3391 43.4316ZM92.3084 47.5105C92.2908 44.4546 94.414 41.8766 97.8616 41.8539C100.013 41.8398 101.576 42.8179 101.851 43.2792C101.907 43.3876 101.878 43.4781 101.84 43.5871C101.658 43.9727 101.198 44.7177 100.87 45.1399C100.73 45.3198 100.579 45.1657 100.402 45.0482C99.9137 44.7217 98.985 44.3224 98.0711 44.3224C96.413 44.3227 95.1782 45.4629 95.192 47.5606C95.2049 49.5736 96.3876 50.6799 98.0768 50.72C98.9599 50.7422 99.8155 50.2332 100.276 49.8162C100.42 49.6897 100.57 49.753 100.735 49.8825C101.059 50.2148 101.524 50.7277 101.782 51.0808C101.951 51.277 101.824 51.4689 101.764 51.5461C101.064 52.4336 99.7135 53.1806 97.9258 53.1908C94.1827 53.2171 92.3259 50.5777 92.3087 47.5109M110.176 53.053C110.352 53.0398 112.227 52.7802 112.802 52.6481C112.945 52.6155 112.996 52.495 112.916 52.3757C112.594 51.8924 111.75 50.52 110.865 49.2914C110.051 48.1618 109.193 47.1683 108.915 46.786C108.848 46.6932 108.852 46.6017 108.925 46.5296C109.453 46.0118 111.661 43.841 112.491 42.9446C112.812 42.5958 112.619 42.4458 112.346 42.3643C111.819 42.2067 110.966 42.0103 110.481 41.9077C110.277 41.8643 110.03 41.8795 109.852 42.0639C109.022 42.84 106.489 45.3893 105.733 46.1514C105.597 46.2888 105.517 46.2583 105.517 46.0618C105.511 44.5926 105.482 38.3023 105.429 37.2677C105.426 37.1309 105.262 37.0271 105.169 37.0221C104.694 36.9972 103.493 36.99 103.019 37.0179C102.887 37.033 102.76 37.1685 102.749 37.283C102.639 38.9374 102.795 51.0821 102.86 52.7809C102.864 52.9038 102.955 52.9991 103.072 53.006C103.544 53.0334 104.712 53.0316 105.257 53.0213C105.526 53.0213 105.558 52.8322 105.558 52.8322L105.599 49.5733C105.599 49.5733 105.626 49.4284 105.671 49.3805C105.863 49.1729 106.395 48.6013 106.622 48.3804C106.677 48.3273 106.762 48.3311 106.818 48.4061C107.087 48.7706 107.856 49.9555 108.568 51.0138C109.222 51.986 109.833 52.8488 109.876 52.9097C109.974 53.0504 110.089 53.0561 110.176 53.0534V53.053H110.176ZM78.2888 53.0417C78.4537 53.0472 79.7047 53.0458 80.259 53.0451C80.4456 53.0488 80.5426 52.907 80.5488 52.7819C80.6665 50.4 80.6161 39.0592 80.5417 37.2684C80.5356 37.1136 80.4695 37.0555 80.3641 37.0414C79.8884 36.9775 78.5365 36.9924 78.1031 37.1061C78.0184 37.1282 77.9684 37.1928 77.9657 37.2759C77.8597 41.8918 77.9312 52.5337 77.9537 52.7352C77.976 52.937 78.0812 53.0347 78.2891 53.0417H78.2888Z" fill="#443642"/>
<path d="M44.8056 48.3053C44.0346 48.3113 43.3816 47.8505 43.1408 47.1314C43.1318 47.1042 43.1235 47.0769 43.1158 47.0493C42.8534 46.1284 43.3622 45.165 44.2742 44.8565L58.902 39.9418C59.0756 39.8914 59.2554 39.8651 59.4362 39.8636C60.2276 39.8574 60.8987 40.3283 61.1454 41.0626L61.1673 41.1335C61.4409 42.0927 60.761 42.9489 59.9464 43.2233C59.9459 43.2238 59.7977 43.274 45.3997 48.2039C45.2084 48.2693 45.0078 48.3036 44.8056 48.3053Z" fill="#70CADB"/>
<path d="M47.2466 55.5182C46.4696 55.5238 45.8143 55.0696 45.5763 54.3607C45.5672 54.3337 45.5588 54.3066 45.551 54.2792C45.285 53.3473 45.7932 52.3738 46.7083 52.0649L61.3366 47.1051C61.5257 47.0418 61.7209 47.0095 61.9172 47.0076C62.6963 47.0017 63.3808 47.4791 63.6223 48.1959L63.6448 48.2705C63.7861 48.766 63.7026 49.3229 63.4216 49.7624C63.2123 50.0892 62.5519 50.3768 62.5519 50.3768L47.868 55.412C47.6677 55.4799 47.458 55.5159 47.2466 55.5185V55.5182Z" fill="#E01765"/>
<path d="M59.4226 55.5493C59.0434 55.553 58.6728 55.4362 58.3639 55.2157C58.055 54.9952 57.8236 54.6823 57.7028 54.3218L52.8208 39.7788L52.7964 39.6972C52.5319 38.7698 53.0406 37.8024 53.9523 37.4942C54.1347 37.4328 54.3233 37.4007 54.5132 37.399C54.7952 37.3969 55.0682 37.4606 55.3253 37.588C55.537 37.693 55.726 37.839 55.8813 38.0175C56.0366 38.196 56.1552 38.4036 56.2302 38.6282L61.1118 53.1699L61.126 53.2166C61.4002 54.1795 60.8926 55.1474 59.9809 55.4556C59.8008 55.516 59.6124 55.5476 59.4226 55.5493Z" fill="#E8A723"/>
<path d="M52.1674 58.0013C51.788 58.005 51.4172 57.8881 51.1082 57.6674C50.7991 57.4467 50.5677 57.1335 50.447 56.7728L45.5663 42.2304C45.4906 42.0061 45.4599 41.769 45.4757 41.5327C45.4916 41.2964 45.5538 41.0655 45.6587 40.8534C45.7637 40.6412 45.9093 40.4519 46.0873 40.2963C46.2653 40.1406 46.4722 40.0217 46.696 39.9464C46.8764 39.8859 47.0651 39.8542 47.2552 39.8524C47.6345 39.8486 48.0051 39.9654 48.3141 40.1859C48.6231 40.4064 48.8545 40.7194 48.9752 41.08L53.8561 55.6229C53.9318 55.8473 53.9625 56.0846 53.9466 56.321C53.9307 56.5574 53.8684 56.7883 53.7633 57.0005C53.6583 57.2127 53.5125 57.4021 53.3343 57.5577C53.1562 57.7133 52.9491 57.8321 52.7251 57.9073C52.5451 57.9678 52.3567 57.9995 52.1669 58.0012H52.1674V58.0013Z" fill="#3EB890"/>
<path d="M57.0171 52.2756L60.4212 51.1084L59.3084 47.7942L55.9004 48.9492L57.0171 52.2756Z" fill="#CC2027"/>
<path d="M49.772 54.7617L53.1758 53.5946L52.0546 50.2551L48.6475 51.4105L49.772 54.7617Z" fill="#361238"/>
<path d="M54.5914 45.0542L57.9958 43.8885L56.896 40.613L53.4854 41.759L54.5914 45.0542Z" fill="#65863A"/>
<path d="M47.3471 47.5381L50.7514 46.3724L49.6382 43.0552L46.2275 44.201L47.3471 47.5381Z" fill="#1A937D"/>
</g>
<defs>
<filter id="filter0_d_2629_10684" x="0" y="0" width="156" height="105.001" filterUnits="userSpaceOnUse" color-interpolation-filters="sRGB">
<feFlood flood-opacity="0" result="BackgroundImageFix"/>
<feColorMatrix in="SourceAlpha" type="matrix" values="0 0 0 0 0 0 0 0 0 0 0 0 0 0 0 0 0 0 127 0" result="hardAlpha"/>
<feOffset dy="5"/>
<feGaussianBlur stdDeviation="12.5"/>
<feComposite in2="hardAlpha" operator="out"/>
<feColorMatrix type="matrix" values="0 0 0 0 0 0 0 0 0 0.4025 0 0 0 0 0.875 0 0 0 0.15 0"/>
<feBlend mode="normal" in2="BackgroundImageFix" result="effect1_dropShadow_2629_10684"/>
<feBlend mode="normal" in="SourceGraphic" in2="effect1_dropShadow_2629_10684" result="shape"/>
</filter>
</defs>
</svg>
