<svg width="192" height="105" viewBox="0 0 192 105" fill="none" xmlns="http://www.w3.org/2000/svg">
<g filter="url(#filter0_d_2551_8687)">
<rect x="25" y="20" width="142" height="55" rx="15" fill="white" shape-rendering="crispEdges"/>
<path d="M136.823 40.7891V51.5025L129.015 40.781L127.735 40.7791V53.8224H129.171V43.3463L136.822 53.8312L138.261 53.8325V40.7891H136.823ZM120.27 40.4863C116.641 40.4863 114.104 43.2915 114.104 47.3073C114.104 51.3294 116.641 54.134 120.27 54.134C123.895 54.134 126.424 51.3294 126.424 47.3073C126.424 43.2915 123.896 40.4863 120.27 40.4863ZM120.27 52.7522C117.506 52.7522 115.568 50.5129 115.568 47.3073C115.568 44.1043 117.506 41.865 120.27 41.865C123.031 41.865 124.956 44.1043 124.956 47.3073C124.957 50.5129 123.031 52.7522 120.27 52.7522ZM141.323 52.5564V47.7304H148.428V46.4531H141.323V42.0564H148.912V40.7803H139.876V53.8337H149V52.5564H141.323Z" fill="#6B6B6B"/>
<path d="M112.484 53.5768L108.358 47.916L104.234 53.5768H102.535L107.497 46.7375L102.966 40.5215H104.665L108.358 45.5918L112.048 40.5215H113.745L109.217 46.7375L114.181 53.5768H112.484ZM89.7697 47.2311C89.5134 47.0117 89.2289 46.8285 88.9238 46.6865C89.8613 46.1722 90.4761 45.2002 90.4761 44.0727C90.4761 43.2373 90.1715 40.5215 86.2771 40.5215H81.0317V46.1495H79.2838C78.962 46.5795 78.6492 47.0163 78.3457 47.4596H81.0317V53.5755L86.2771 53.5761C89.1188 53.5761 90.8841 52.1175 90.8841 49.7649C90.8841 48.7375 90.4998 47.8631 89.7697 47.2311ZM82.4818 41.8838H86.2771C87.3049 41.8838 89.0247 42.1425 89.0247 43.9587C89.0247 45.3318 88.0225 46.1501 86.2771 46.1501H82.4818V41.8838ZM86.2765 52.2145H82.4811V47.4615H86.2765C87.716 47.4615 89.4371 47.8631 89.4371 49.7366C89.4377 51.8915 87.4581 52.2145 86.2765 52.2145Z" fill="#177D3E"/>
<path d="M95.2801 40.4902C91.6524 40.4902 89.1159 43.2954 89.1159 47.3112C89.1159 51.3333 91.6517 54.1366 95.2801 54.1366C98.9054 54.1366 101.434 51.3333 101.434 47.3112C101.434 43.2954 98.9054 40.4902 95.2801 40.4902ZM95.2801 52.7554C92.5157 52.7554 90.5797 50.5162 90.5797 47.3112C90.5797 44.1082 92.5157 41.8695 95.2801 41.8695C98.0402 41.8695 99.9662 44.1082 99.9662 47.3112C99.9662 50.5162 98.0402 52.7554 95.2801 52.7554ZM77.8993 53.8458L72.9335 47.0072L77.4645 40.7918H75.7671L72.0733 45.8633L68.3826 40.7918H66.6902L71.2181 47.0072L66.2529 53.8458H67.9541L72.0758 48.1863L76.2 53.8458H77.8993Z" fill="#177D3E"/>
<path d="M64.0167 47.5C64.0167 53.2993 59.3119 58 53.5083 58C47.7048 58 43 53.2993 43 47.5C43 41.7014 47.7048 37 53.5083 37C59.3119 37 64.0167 41.7007 64.0167 47.5Z" fill="#666666"/>
<path d="M64.0167 47.5C64.0167 53.2993 59.3119 58 53.5083 58C47.7048 58 43 53.2993 43 47.5C43 41.7014 47.7048 37 53.5083 37C59.3119 37 64.0167 41.7007 64.0167 47.5Z" fill="url(#paint0_radial_2551_8687)"/>
<path d="M64.0167 47.5C64.0167 53.2993 59.3119 58 53.5083 58C47.7048 58 43 53.2993 43 47.5C43 41.7014 47.7048 37 53.5083 37C59.3119 37 64.0167 41.7007 64.0167 47.5Z" fill="url(#paint1_radial_2551_8687)"/>
<path d="M64.0167 47.5C64.0167 53.2993 59.3119 58 53.5083 58C47.7048 58 43 53.2993 43 47.5C43 41.7014 47.7048 37 53.5083 37C59.3119 37 64.0167 41.7007 64.0167 47.5Z" fill="url(#paint2_radial_2551_8687)"/>
<path d="M50.8464 42.9004C49.6859 44.3219 44.8254 50.0991 45.2565 54.0054C45.5567 54.3894 45.8875 54.7495 46.2369 55.0882C46.1858 52.0979 49.6579 48.898 52.3675 46.4824L50.8458 42.9004H50.8464Z" fill="#00A54D"/>
<path d="M50.8456 42.8984C49.6859 44.3199 44.8253 50.0969 45.2565 54.0033C45.5565 54.3876 45.8872 54.7474 46.2367 55.0857C46.1859 52.0961 49.6576 48.8954 52.3675 46.4803L50.8456 42.8984Z" fill="url(#paint3_linear_2551_8687)"/>
<path d="M47.9851 38.5719C47.3818 38.9408 46.8169 39.3695 46.2988 39.8516C47.9657 40.1717 49.6375 41.6548 50.5544 42.8835C51.3527 44.1449 51.7863 45.301 52.3499 46.4944C52.742 46.1557 53.1387 45.8224 53.5398 45.4944L53.5373 40.3116C52.2953 39.5315 50.2425 38.5052 48.0046 38.5719C47.9996 38.5751 47.9895 38.5688 47.9851 38.5719Z" fill="#02A74D"/>
<path d="M47.9851 38.5719C47.3818 38.9408 46.8169 39.3695 46.2988 39.8516C47.9657 40.1717 49.6375 41.6548 50.5544 42.8835C51.3527 44.1449 51.7863 45.301 52.3499 46.4944C52.742 46.1557 53.1387 45.8224 53.5398 45.4944L53.5373 40.3116C52.2953 39.5315 50.2425 38.5052 48.0046 38.5719C47.9996 38.5751 47.9895 38.5688 47.9851 38.5719Z" fill="url(#paint4_linear_2551_8687)"/>
<path d="M56.1867 42.9064C57.3428 44.3291 62.1871 50.1114 61.7573 54.0202C61.4583 54.4042 61.1288 54.7649 60.7806 55.1042C60.831 52.1114 57.3708 48.9084 54.6699 46.491L56.1867 42.9058V42.9064Z" fill="#00A54D"/>
<path d="M56.1895 42.9077C57.3454 44.3303 62.1899 50.1129 61.7602 54.022C61.4595 54.4054 61.1331 54.7676 60.7832 55.106C60.8338 52.1132 57.3736 48.9104 54.6727 46.4927L56.1895 42.9077Z" fill="url(#paint5_linear_2551_8687)"/>
<path d="M59.0345 38.5734C59.6357 38.943 60.199 39.372 60.7158 39.8542C59.0545 40.1745 57.3875 41.6589 56.4743 42.8886C55.6787 44.1511 55.2458 45.3082 54.6841 46.5032C54.3038 46.1759 53.9173 45.8429 53.4982 45.5024L53.5007 40.3145C54.7386 39.5338 56.7846 38.5066 59.0151 38.5734C59.0195 38.5766 59.0301 38.5703 59.0345 38.5734Z" fill="#02A74D"/>
<path d="M59.0345 38.5734C59.6357 38.943 60.199 39.372 60.7158 39.8542C59.0545 40.1745 57.3875 41.6589 56.4743 42.8886C55.6787 44.1511 55.2458 45.3082 54.6841 46.5032C54.3038 46.1759 53.9173 45.8429 53.4982 45.5024L53.5007 40.3145C54.7386 39.5338 56.7846 38.5066 59.0151 38.5734C59.0195 38.5766 59.0301 38.5703 59.0345 38.5734Z" fill="url(#paint6_linear_2551_8687)"/>
</g>
<defs>
<filter id="filter0_d_2551_8687" x="0" y="0" width="192" height="105" filterUnits="userSpaceOnUse" color-interpolation-filters="sRGB">
<feFlood flood-opacity="0" result="BackgroundImageFix"/>
<feColorMatrix in="SourceAlpha" type="matrix" values="0 0 0 0 0 0 0 0 0 0 0 0 0 0 0 0 0 0 127 0" result="hardAlpha"/>
<feOffset dy="5"/>
<feGaussianBlur stdDeviation="12.5"/>
<feComposite in2="hardAlpha" operator="out"/>
<feColorMatrix type="matrix" values="0 0 0 0 0 0 0 0 0 0.4025 0 0 0 0 0.875 0 0 0 0.15 0"/>
<feBlend mode="normal" in2="BackgroundImageFix" result="effect1_dropShadow_2551_8687"/>
<feBlend mode="normal" in="SourceGraphic" in2="effect1_dropShadow_2551_8687" result="shape"/>
</filter>
<radialGradient id="paint0_radial_2551_8687" cx="0" cy="0" r="1" gradientUnits="userSpaceOnUse" gradientTransform="translate(53.3201 46.3746) rotate(90) scale(15.2998 13.4429)">
<stop stop-color="white"/>
<stop offset="1" stop-color="white" stop-opacity="0"/>
</radialGradient>
<radialGradient id="paint1_radial_2551_8687" cx="0" cy="0" r="1" gradientUnits="userSpaceOnUse" gradientTransform="translate(53.3201 46.3746) rotate(90) scale(15.2998 13.4429)">
<stop stop-color="white"/>
<stop offset="1" stop-color="white" stop-opacity="0"/>
</radialGradient>
<radialGradient id="paint2_radial_2551_8687" cx="0" cy="0" r="1" gradientUnits="userSpaceOnUse" gradientTransform="translate(53.3201 46.3746) rotate(90) scale(15.2998 13.4429)">
<stop stop-color="white"/>
<stop offset="1" stop-color="white" stop-opacity="0"/>
</radialGradient>
<linearGradient id="paint3_linear_2551_8687" x1="49.7118" y1="50.4416" x2="47.2183" y2="47.5091" gradientUnits="userSpaceOnUse">
<stop stop-color="#97CA43"/>
<stop offset="1" stop-color="#97CA43" stop-opacity="0"/>
</linearGradient>
<linearGradient id="paint4_linear_2551_8687" x1="49.5968" y1="43.4223" x2="51.8778" y2="38.346" gradientUnits="userSpaceOnUse">
<stop stop-color="#97CA43"/>
<stop offset="1" stop-color="#97CA43" stop-opacity="0"/>
</linearGradient>
<linearGradient id="paint5_linear_2551_8687" x1="57.3568" y1="50.4151" x2="54.8563" y2="47.498" gradientUnits="userSpaceOnUse">
<stop stop-color="#97CA43"/>
<stop offset="1" stop-color="#97CA43" stop-opacity="0"/>
</linearGradient>
<linearGradient id="paint6_linear_2551_8687" x1="57.4436" y1="43.164" x2="59.4042" y2="39.9883" gradientUnits="userSpaceOnUse">
<stop stop-color="#97CA43"/>
<stop offset="1" stop-color="#97CA43" stop-opacity="0"/>
</linearGradient>
</defs>
</svg>
