<svg width="24" height="24" viewBox="0 0 24 24" fill="none" xmlns="http://www.w3.org/2000/svg">
<path d="M12 9.024C11.4114 9.024 10.836 9.19854 10.3466 9.52555C9.85722 9.85255 9.47578 10.3173 9.25053 10.8611C9.02529 11.4049 8.96635 12.0033 9.08118 12.5806C9.19601 13.1579 9.47945 13.6881 9.89565 14.1044C10.3119 14.5206 10.8421 14.804 11.4194 14.9188C11.9967 15.0336 12.5951 14.9747 13.1389 14.7495C13.6827 14.5242 14.1474 14.1428 14.4745 13.6534C14.8015 13.164 14.976 12.5886 14.976 12C14.976 11.6092 14.899 11.2222 14.7495 10.8611C14.5999 10.5001 14.3807 10.172 14.1044 9.89565C13.828 9.6193 13.4999 9.40009 13.1389 9.25053C12.7778 9.10098 12.3908 9.024 12 9.024ZM23.916 6.084C23.9097 5.15731 23.739 4.23909 23.412 3.372C23.1711 2.73751 22.7985 2.16131 22.3186 1.68142C21.8387 1.20153 21.2625 0.828861 20.628 0.588C19.7609 0.260957 18.8427 0.0903131 17.916 0.0839999C16.368 -8.04663e-08 15.912 0 12 0C8.088 0 7.632 -8.04663e-08 6.084 0.0839999C5.15731 0.0903131 4.23909 0.260957 3.372 0.588C2.73751 0.828861 2.16131 1.20153 1.68142 1.68142C1.20153 2.16131 0.828861 2.73751 0.588 3.372C0.260957 4.23909 0.0903131 5.15731 0.0839999 6.084C-8.04663e-08 7.632 0 8.088 0 12C0 15.912 -8.04663e-08 16.368 0.0839999 17.916C0.0969167 18.846 0.267329 19.767 0.588 20.64C0.827794 21.2716 1.20015 21.8444 1.68 22.32C2.15783 22.8028 2.73527 23.1754 3.372 23.412C4.23909 23.739 5.15731 23.9097 6.084 23.916C7.632 24 8.088 24 12 24C15.912 24 16.368 24 17.916 23.916C18.8427 23.9097 19.7609 23.739 20.628 23.412C21.2647 23.1754 21.8422 22.8028 22.32 22.32C22.7998 21.8444 23.1722 21.2716 23.412 20.64C23.7387 19.7687 23.9093 18.8466 23.916 17.916C24 16.368 24 15.912 24 12C24 8.088 24 7.632 23.916 6.084ZM20.868 15.684C20.8295 16.4245 20.6714 17.1539 20.4 17.844C20.167 18.4196 19.8207 18.9425 19.3816 19.3816C18.9425 19.8207 18.4196 20.167 17.844 20.4C17.1474 20.6563 16.4139 20.7981 15.672 20.82H8.328C7.58608 20.7981 6.85259 20.6563 6.156 20.4C5.56092 20.1789 5.02353 19.8261 4.584 19.368C4.1492 18.9375 3.81341 18.4174 3.6 17.844C3.34267 17.1481 3.20473 16.4138 3.192 15.672V8.328C3.20473 7.58619 3.34267 6.85186 3.6 6.156C3.82114 5.56092 4.17393 5.02353 4.632 4.584C5.0644 4.15155 5.58392 3.81611 6.156 3.6C6.85259 3.34369 7.58608 3.20185 8.328 3.18H15.672C16.4139 3.20185 17.1474 3.34369 17.844 3.6C18.4391 3.82114 18.9765 4.17393 19.416 4.632C19.8508 5.0625 20.1866 5.58256 20.4 6.156C20.6563 6.85259 20.7981 7.58608 20.82 8.328V12C20.82 14.472 20.904 14.724 20.868 15.672V15.684ZM18.948 6.756C18.8051 6.36838 18.5799 6.01637 18.2877 5.72426C17.9956 5.43214 17.6436 5.20688 17.256 5.064C16.7238 4.87951 16.1632 4.79015 15.6 4.8H8.4C7.83392 4.80553 7.27328 4.91116 6.744 5.112C6.36232 5.24839 6.01403 5.46446 5.7223 5.74584C5.43057 6.02723 5.20207 6.36749 5.052 6.744C4.87773 7.27844 4.79259 7.83791 4.8 8.4V15.6C4.8119 16.1654 4.91732 16.725 5.112 17.256C5.25488 17.6436 5.48014 17.9956 5.77226 18.2877C6.06437 18.5799 6.41638 18.8051 6.804 18.948C7.316 19.1363 7.85478 19.2416 8.4 19.26H15.6C16.1661 19.2545 16.7267 19.1488 17.256 18.948C17.6436 18.8051 17.9956 18.5799 18.2877 18.2877C18.5799 17.9956 18.8051 17.6436 18.948 17.256C19.1488 16.7267 19.2545 16.1661 19.26 15.6V8.4C19.2603 7.83336 19.1545 7.27167 18.948 6.744V6.756ZM12 16.584C11.3986 16.584 10.8031 16.4653 10.2476 16.2348C9.69211 16.0043 9.18756 15.6665 8.76286 15.2407C8.33815 14.8148 8.00163 14.3094 7.77257 13.7533C7.54352 13.1972 7.42642 12.6014 7.428 12C7.428 11.0929 7.69716 10.2061 8.20138 9.45202C8.70561 8.69793 9.42225 8.1104 10.2606 7.7638C11.0989 7.4172 12.0212 7.32713 12.9107 7.50498C13.8003 7.68283 14.617 8.1206 15.2576 8.76289C15.8982 9.40517 16.3339 10.2231 16.5094 11.1131C16.6849 12.0031 16.5924 12.9251 16.2436 13.7626C15.8948 14.6 15.3054 15.315 14.55 15.8173C13.7946 16.3195 12.9071 16.5864 12 16.584ZM16.8 8.316C16.5347 8.28792 16.2892 8.16267 16.1108 7.96437C15.9324 7.76606 15.8337 7.50875 15.8337 7.242C15.8337 6.97525 15.9324 6.71794 16.1108 6.51964C16.2892 6.32134 16.5347 6.19608 16.8 6.168C17.0653 6.19608 17.3108 6.32134 17.4892 6.51964C17.6676 6.71794 17.7663 6.97525 17.7663 7.242C17.7663 7.50875 17.6676 7.76606 17.4892 7.96437C17.3108 8.16267 17.0653 8.28792 16.8 8.316Z" fill="#CD2390"/>
</svg>
