<svg width="24" height="24" viewBox="0 0 24 24" fill="none" xmlns="http://www.w3.org/2000/svg">
<path d="M23.04 0H0.96C0.429 0 0 0.429 0 0.96V23.04C0 23.571 0.429 24 0.96 24H23.04C23.571 24 24 23.571 24 23.04V0.96C24 0.429 23.571 0 23.04 0ZM18.459 8.691C18.468 8.832 18.468 8.979 18.468 9.123C18.468 13.527 15.114 18.6 8.985 18.6C7.095 18.6 5.343 18.051 3.867 17.106C4.137 17.136 4.395 17.148 4.671 17.148C6.231 17.148 7.665 16.62 8.808 15.726C7.344 15.696 6.114 14.736 5.694 13.416C6.207 13.491 6.669 13.491 7.197 13.356C6.44318 13.2029 5.76562 12.7934 5.27945 12.1973C4.79327 11.6012 4.52846 10.8552 4.53 10.086V10.044C4.971 10.293 5.49 10.446 6.033 10.467C5.57653 10.1628 5.20217 9.75063 4.94313 9.26709C4.68409 8.78355 4.54837 8.24356 4.548 7.695C4.548 7.074 4.71 6.507 5.001 6.015C5.83771 7.04501 6.88179 7.88743 8.06539 8.4875C9.249 9.08757 10.5456 9.43186 11.871 9.498C11.4 7.233 13.092 5.4 15.126 5.4C16.086 5.4 16.95 5.802 17.559 6.45C18.312 6.309 19.032 6.027 19.674 5.649C19.425 6.42 18.903 7.071 18.21 7.482C18.882 7.41 19.53 7.224 20.13 6.963C19.677 7.629 19.11 8.22 18.459 8.691Z" fill="#00B7FF"/>
</svg>
