<svg width="26" height="20" viewBox="0 0 26 20" fill="none" xmlns="http://www.w3.org/2000/svg">
<path d="M25.8329 4.41603C25.8329 2.07234 24.1519 0.186974 22.0747 0.186974C19.261 0.0520817 16.3915 0 13.459 0H12.5449C9.61949 0 6.74491 0.0520818 3.93127 0.187495C1.85914 0.187495 0.178066 2.08328 0.178066 4.42696C0.0510965 6.28056 -0.00273842 8.13467 0.000308844 9.98879C-0.00476992 11.8429 0.0527894 13.6988 0.172987 15.5563C0.172987 17.9 1.85406 19.801 3.92619 19.801C6.88204 19.9416 9.91406 20.0041 12.9969 19.9989C16.0848 20.0094 19.1083 19.9434 22.0675 19.801C24.1448 19.801 25.8258 17.9 25.8258 15.5563C25.9477 13.697 26.0036 11.8429 25.9985 9.98358C26.01 8.12947 25.9548 6.27361 25.8329 4.41603ZM10.5134 15.098V4.86393L17.8776 9.97837L10.5134 15.098Z" fill="#FF0000"/>
</svg>
