<svg width="16" height="16" viewBox="0 0 16 16" fill="none" xmlns="http://www.w3.org/2000/svg">
<path d="M5.96201 14.9999C5.88349 14.9636 5.80363 14.9328 5.72712 14.8898C5.41975 14.7247 5.31439 14.4596 5.4466 14.1341C5.56399 13.8261 5.74674 13.5471 5.98227 13.3165C6.2178 13.0858 6.50052 12.9089 6.81096 12.798C6.92371 12.7564 7.03981 12.7235 7.08813 12.708C6.80291 12.4141 6.45661 12.141 6.22173 11.7927C5.96939 11.4182 5.99959 10.9685 6.17005 10.541C6.42373 9.90617 7.09618 9.51693 7.81225 9.59612C8.46256 9.66793 8.99944 10.2048 9.12695 10.9202C9.25446 11.6175 8.8726 12.2208 7.99949 12.6577C8.11492 12.7013 8.20082 12.7369 8.28471 12.7637C8.83433 12.9309 9.29994 13.3005 9.58733 13.7979C9.95577 14.4106 9.86853 14.7039 9.23567 14.9999H5.96201Z" fill="#FFA775"/>
<path d="M0.0144032 14.2005C0.262713 13.7548 0.506996 13.3005 0.971403 13.0381C1.2271 12.8938 1.50426 12.7851 1.81163 12.6415C1.29823 12.4401 0.888186 12.122 0.769399 11.5932C0.695561 11.2709 0.701551 10.9355 0.786848 10.6161C0.988181 9.93087 1.65929 9.53827 2.40288 9.59531C3.02969 9.64363 3.62631 10.1859 3.74509 10.8147C3.89408 11.6033 3.53839 12.2113 2.63575 12.6589C2.76997 12.7099 2.87601 12.7535 2.98339 12.7931C3.50704 12.9645 3.94803 13.3248 4.22024 13.8038C4.59673 14.4481 4.49875 14.7367 3.82294 15.0018H0.615716C0.414831 14.8461 0.213499 14.6895 0.0117188 14.532L0.0144032 14.2005Z" fill="#FFA775"/>
<path d="M11.3749 15.0004C10.7091 14.7447 10.6091 14.4635 10.9608 13.8327C11.2628 13.2904 11.6044 13.0354 12.4486 12.6978C12.1742 12.4207 11.8366 12.1562 11.601 11.82C11.3474 11.4576 11.3749 11.0147 11.5178 10.5979C11.7373 9.95635 12.3607 9.56308 13.0869 9.59126C13.7264 9.61744 14.2949 10.1 14.464 10.7617C14.6579 11.5167 14.3479 12.0791 13.3902 12.671C13.5439 12.7227 13.6781 12.7596 13.8063 12.8119C14.32 13.0114 14.7444 13.3896 15.0015 13.877C15.3203 14.4736 15.227 14.7252 14.5848 14.9991L11.3749 15.0004Z" fill="#FFA775"/>
<path d="M7.56506 8.44925C6.0743 8.44925 4.58332 8.44925 3.09212 8.44925C1.88748 8.44657 1.08618 7.64795 1.08215 6.43995C1.07678 4.95994 1.07678 3.48014 1.08215 2.00057C1.08752 0.845596 1.86064 0.0208043 3.01226 0.0140933C6.07251 -0.00469776 9.13254 -0.00469776 12.1923 0.0140933C13.344 0.0214755 14.1137 0.847609 14.1184 2.00393C14.1242 3.49513 14.1242 4.98611 14.1184 6.47686C14.1124 7.63855 13.2977 8.44589 12.1387 8.44791C10.6139 8.45149 9.08937 8.45193 7.56506 8.44925ZM6.45102 4.2112C6.45102 4.65548 6.43155 5.10109 6.46108 5.54402C6.47249 5.71046 6.55638 5.94669 6.67919 6.01044C6.80201 6.0742 7.04763 5.99367 7.17917 5.89635C7.73082 5.48564 8.26099 5.04539 8.79788 4.61387C9.14552 4.33402 9.14417 4.12396 8.79117 3.83941C8.25428 3.40789 7.72209 2.96697 7.17246 2.55692C7.0483 2.46297 6.79999 2.36968 6.71342 2.42941C6.5792 2.52068 6.47652 2.73946 6.46242 2.91194C6.42619 3.34279 6.45102 3.77767 6.45102 4.2112Z" fill="#FFA775"/>
</svg>
