<svg width="17" height="18" viewBox="0 0 17 18" fill="none" xmlns="http://www.w3.org/2000/svg">
<path d="M16.1173 12.2169C15.4275 10.4419 13.4687 9.55699 11.6466 10.1991C9.88018 10.8213 8.927 12.7442 9.48949 14.5511C10.0467 16.342 11.9318 17.3662 13.7533 16.8813C15.1575 16.5072 15.9011 15.5049 16.3488 14.2088V12.7429C16.2712 12.5664 16.1903 12.3933 16.1173 12.2169ZM14.8524 12.7382C13.941 13.6961 13.0044 14.63 11.9902 15.6568C11.4987 15.1626 11.0489 14.7235 10.6211 14.2638C10.5607 14.1975 10.6052 14.0363 10.6012 13.9189C10.7551 13.9249 10.9667 13.8692 11.0516 13.9488C11.3375 14.2181 11.5822 14.5358 11.9504 14.9656C12.8704 14.0111 13.6551 13.1747 14.4676 12.3727C14.6049 12.2368 14.8597 12.2182 15.0606 12.1452C14.9963 12.3449 14.9837 12.5976 14.8524 12.7349V12.7382Z" fill="#FFA775"/>
<path d="M11.4912 9.56036C11.1131 9.48938 10.9062 9.41775 10.6992 9.41708C7.44765 9.41045 4.19632 9.41045 0.945209 9.41708C0.281898 9.41708 -0.0729757 9.77328 0.0125915 10.418C0.251383 12.209 0.539924 13.9893 0.808565 15.7908H9.39778C8.0632 13.1502 8.97923 10.8823 11.4912 9.56036ZM5.863 14.3455C5.48424 14.3526 5.1177 14.2114 4.84159 13.952C4.56549 13.6926 4.40169 13.3356 4.38514 12.9572C4.35529 12.1519 5.0186 11.478 5.84111 11.478C6.22052 11.4799 6.58425 11.6296 6.85518 11.8952C7.12612 12.1608 7.28295 12.5215 7.29243 12.9008C7.30371 13.6769 6.64968 14.3335 5.863 14.3455Z" fill="#FFA775"/>
<path d="M10.4434 8.82635C10.3326 7.5906 9.37016 6.55451 8.22395 6.5167C6.63532 6.4643 5.04338 6.48619 3.45276 6.50874C2.41467 6.524 1.10065 7.74449 1.26383 8.82635H10.4434Z" fill="#FFA775"/>
<path d="M1.50393 16.3824C1.31091 16.3824 1.11722 16.4036 0.923538 16.4155C0.796845 16.8898 1.00778 16.9992 1.3925 16.9986C4.42383 16.9946 7.45516 16.9926 10.4865 16.9926L10.5681 16.7538C10.18 16.6284 9.794 16.4003 9.40397 16.395C6.77195 16.3658 4.13794 16.3804 1.50393 16.3824Z" fill="#FFA775"/>
<path d="M5.8257 12.0353C5.34082 12.0432 4.93554 12.4532 4.94549 12.9254C4.95544 13.3977 5.38925 13.8063 5.85356 13.7964C6.31788 13.7864 6.74771 13.3533 6.73975 12.8989C6.73179 12.4445 6.30064 12.0273 5.8257 12.0353Z" fill="#FFA775"/>
<path d="M5.84847 6.07195C7.5252 6.07195 8.88445 4.7127 8.88445 3.03597C8.88445 1.35925 7.5252 0 5.84847 0C4.17175 0 2.8125 1.35925 2.8125 3.03597C2.8125 4.7127 4.17175 6.07195 5.84847 6.07195Z" fill="#FFA775"/>
</svg>
