<svg width="14" height="18" viewBox="0 0 14 18" fill="none" xmlns="http://www.w3.org/2000/svg">
<path d="M4.24492 17.2133C4.20001 17.1967 4.1551 17.1774 4.10705 17.163C3.59685 17.0058 3.33951 16.5899 3.43337 16.0653C3.78952 14.1027 4.16319 12.1432 4.49733 10.1766C4.63521 9.36814 4.71021 8.54671 4.77533 7.72798C4.81306 7.24742 4.65137 7.06643 4.18923 6.91957C3.1931 6.60519 2.19247 6.30518 1.20082 5.97643C0.91493 5.88075 0.643066 5.74738 0.392417 5.57986C-0.322125 5.1038 0.0645633 4.06275 0.560386 3.8328C0.760691 3.73984 0.961445 3.74523 1.16534 3.80765C2.51792 4.21768 3.89897 4.52706 5.2972 4.73328C6.52508 4.91697 7.74937 4.88373 8.975 4.68612C10.2761 4.47208 11.5631 4.17947 12.8289 3.8099C13.247 3.68909 13.5834 3.81529 13.8016 4.19389C14.1106 4.72968 14.1115 5.36159 13.4208 5.70202C12.9474 5.93556 12.4386 6.09904 11.9387 6.27958C11.2722 6.5212 10.6008 6.74935 9.93117 6.98334C9.90512 6.99277 9.87817 7.00041 9.85212 7.01119C9.2319 7.26718 9.14162 7.34758 9.20405 8.07649C9.31678 9.39779 9.55032 10.702 9.80137 12.0035C10.0628 13.3585 10.3107 14.7162 10.5577 16.0743C10.6524 16.5957 10.3947 16.9986 9.88895 17.158C9.84404 17.1724 9.79913 17.1931 9.75422 17.2106H9.2539C8.81287 17.07 8.57484 16.7498 8.46346 16.3173C8.4455 16.2472 8.43023 16.1763 8.41496 16.1053C8.13471 14.8235 7.86749 13.5391 7.56793 12.2618C7.46688 11.8302 7.29846 11.4121 7.13273 10.9984C7.05099 10.7936 6.93063 10.7968 6.83632 10.9957C6.72762 11.2221 6.63649 11.4565 6.5637 11.6968C6.15366 13.0747 5.88689 14.4854 5.62056 15.896C5.51233 16.4718 5.38478 17.0269 4.7138 17.2106L4.24492 17.2133Z" fill="#5096EE"/>
<path d="M7.00351 2.60875e-05C7.37604 0.00092348 7.73991 0.112368 8.04905 0.320242C8.35818 0.528117 8.59866 0.823068 8.74002 1.16773C8.88138 1.51239 8.91727 1.89126 8.84313 2.25633C8.76898 2.6214 8.58816 2.95626 8.32355 3.21847C8.05894 3.48069 7.72245 3.65847 7.35672 3.72929C6.99099 3.80011 6.61247 3.76078 6.2691 3.61629C5.92574 3.4718 5.63299 3.22865 5.42793 2.91764C5.22287 2.60663 5.11474 2.24176 5.11723 1.86924C5.11817 1.6226 5.16773 1.37857 5.26306 1.15109C5.3584 0.923622 5.49765 0.717178 5.67284 0.543569C5.84804 0.369961 6.05574 0.232597 6.28407 0.13933C6.5124 0.0460637 6.75687 -0.00127445 7.00351 2.60875e-05Z" fill="#5096EE"/>
</svg>
