<svg width="15" height="20" viewBox="0 0 15 20" fill="none" xmlns="http://www.w3.org/2000/svg">
<path d="M6.92231 0C7.29221 0.163372 7.6674 0.315295 8.02937 0.49452C8.18614 0.572463 8.32221 0.698844 8.45608 0.815979C8.73042 1.05685 8.77709 1.37303 8.66877 1.69669C8.57018 1.9878 8.44226 2.26813 8.28698 2.53337C8.12096 2.81872 7.83253 2.91603 7.51063 2.91427C7.41199 2.91427 7.31335 2.90326 7.21471 2.89842C6.89105 2.88169 6.57928 2.88873 6.47536 3.30971L5.7633 2.96227C5.94649 2.34974 6.31462 2.1256 6.98264 2.20398C7.09216 2.22231 7.20334 2.22866 7.31423 2.22292C7.62821 2.19033 8.00031 1.64781 7.91224 1.3422C7.8824 1.24238 7.81791 1.1565 7.73037 1.10001C7.49928 0.971285 7.25977 0.858297 7.01347 0.761815C6.81267 0.682551 6.65282 0.781631 6.51895 1.03616C6.47492 1.11762 6.44321 1.20349 6.39653 1.30786L5.68359 0.960856C5.89012 0.564536 6.07111 0.173059 6.51411 0.00220124L6.92231 0Z" fill="#33C9DB"/>
<path d="M13.7978 19.0012H0.418065V18.7942C0.418065 18.1134 0.431716 17.4326 0.414983 16.7527C0.390763 15.7676 0.846531 15.0203 1.55991 14.4065C1.79065 14.2074 2.06631 14.0542 2.34022 13.9142C2.95671 13.6037 3.58686 13.3162 4.21173 13.0202C4.26061 12.9969 4.31125 12.9762 4.37246 12.9507C4.8705 13.9864 5.3637 15.012 5.87715 16.0807C6.14137 15.3634 6.39149 14.6892 6.63456 14.0326H7.58793L8.30571 15.9786L9.78222 12.9102C9.89892 12.9656 10.0024 13.0145 10.1072 13.0647C10.8294 13.417 11.5718 13.7288 12.2672 14.1255C13.0497 14.5725 13.5508 15.2705 13.7644 16.156C13.7959 16.3006 13.8107 16.4484 13.8084 16.5964C13.8124 17.3577 13.8084 18.1187 13.8084 18.8796C13.8084 18.917 13.8018 18.9532 13.7978 19.0012Z" fill="#33C9DB"/>
<path d="M10.5813 8.36023C10.5104 9.86492 10.0088 11.1684 8.88236 12.1913C8.42131 12.6088 7.87879 12.869 7.25041 12.906C6.54584 12.9474 5.93814 12.696 5.41324 12.2455C4.39073 11.3723 3.86759 10.2335 3.69321 8.91904C3.60074 8.22019 3.65755 7.53588 3.94246 6.88504C4.32953 6.0008 5.01032 5.44243 5.92934 5.18658C7.08924 4.86336 8.21082 4.9532 9.23773 5.62298C9.98634 6.10737 10.3827 6.83219 10.5192 7.70454C10.5531 7.9256 10.5619 8.14577 10.5813 8.36023Z" fill="#33C9DB"/>
<path d="M11.9768 5.43942L11.2031 5.17213C11.333 4.91452 11.4396 4.6644 11.5801 4.43585C11.7536 4.1527 12.0407 4.0686 12.3529 4.10294C12.8387 4.15911 13.3083 4.3123 13.7338 4.55343C14.235 4.83217 14.3873 5.17257 14.2477 5.7283C14.1871 5.96081 14.1059 6.18746 14.0051 6.40556C13.8501 6.74684 13.5463 6.8697 13.1944 6.90184C13.0407 6.91594 12.8862 6.9243 12.7334 6.94588C12.5334 6.97186 12.3877 7.06962 12.3322 7.27615C12.3161 7.31984 12.2963 7.36212 12.2732 7.40253L11.5554 7.15505C11.7029 6.502 11.9346 6.32498 12.4656 6.27742C12.6136 6.26421 12.7615 6.25364 12.9095 6.24395C13.1125 6.23118 13.2702 6.14091 13.3433 5.95024C13.41 5.77915 13.4607 5.60225 13.4947 5.42181C13.5088 5.35027 13.4961 5.27607 13.4592 5.21321C13.4223 5.15034 13.3637 5.10315 13.2944 5.08053C13.0433 4.97969 12.7857 4.89598 12.5233 4.82997C12.2895 4.77537 12.1424 4.90395 12.049 5.19062C12.0248 5.26504 12.005 5.34122 11.9768 5.43942Z" fill="#33C9DB"/>
<path d="M2.2322 7.2423L1.61086 7.51356C1.34664 7.04326 1.32462 6.81384 1.63596 6.4479C1.69709 6.37023 1.7647 6.2979 1.83808 6.23168C2.22075 5.91331 2.05253 5.53901 1.79404 5.22811C1.74032 5.16294 1.58135 5.12859 1.49592 5.15678C1.26994 5.23649 1.05055 5.33381 0.839793 5.44785C0.7788 5.47411 0.730455 5.52312 0.705044 5.58447C0.679632 5.64582 0.679158 5.71466 0.703721 5.77636C0.743353 5.89878 0.789152 6.01943 0.842875 6.17268L0.199957 6.45671C0.131702 6.20526 0.0528769 5.97892 0.0110431 5.74597C-0.0395978 5.46282 0.0876646 5.23868 0.316209 5.07707C0.698421 4.80293 1.13541 4.6147 1.5972 4.52531C1.93892 4.46013 2.21722 4.57771 2.39337 4.86702C2.53634 5.10322 2.65328 5.35422 2.74213 5.61563C2.82404 5.85738 2.74213 6.09121 2.58316 6.29069C2.52959 6.3587 2.47179 6.42327 2.4101 6.48401C2.19785 6.69494 2.01951 6.90983 2.2322 7.2423Z" fill="#33C9DB"/>
<path d="M5.80454 4.63374L5.08984 4.28146L5.46679 3.51172L6.18237 3.85916L5.80454 4.63374Z" fill="#33C9DB"/>
<path d="M11.0508 8.54394C11.1455 8.26828 11.2344 8.01111 11.3286 7.73633L12.0773 7.99085C11.9843 8.26255 11.8945 8.52501 11.8007 8.80023L11.0508 8.54394Z" fill="#33C9DB"/>
<path d="M2.10633 8.70701L1.80469 8.02181L2.4388 7.74219C2.54008 7.96985 2.63652 8.18651 2.74264 8.4243L2.10633 8.70701Z" fill="#33C9DB"/>
</svg>
