<svg width="16" height="13" viewBox="0 0 16 13" fill="none" xmlns="http://www.w3.org/2000/svg">
<path d="M15.7852 11.5764V6.22656C15.7341 6.24902 15.6838 6.27623 15.6307 6.2946C13.3235 7.06343 11.0137 7.82546 8.70988 8.60789C8.25249 8.77341 7.75183 8.7751 7.29333 8.61266C5.28893 7.93228 3.27909 7.26823 1.26993 6.59941C0.929738 6.48511 0.580023 6.37693 0.205133 6.25922V11.0525C0.205133 12.2629 0.932459 12.9977 2.13401 12.9984C6.03894 12.9984 9.94387 12.9984 13.8488 12.9984C14.0177 13.002 14.1866 12.9888 14.353 12.9589C15.1197 12.8011 15.5382 12.2745 15.7852 11.5764Z" fill="#FFA775"/>
<path d="M15.7852 5.27839V3.38285C15.4001 2.24185 14.6476 1.90506 13.6236 1.94793C12.7445 1.98467 11.8634 1.95609 10.983 1.95473C10.8633 1.95473 10.7442 1.94453 10.5911 1.93704C10.5911 1.74041 10.5911 1.57372 10.5911 1.40634C10.5755 0.513686 10.0645 0.00544304 9.1739 0.00204114C8.39555 -0.00068038 7.61697 -0.00068038 6.83816 0.00204114C5.92305 0.00204114 5.4148 0.507564 5.39779 1.41859C5.39779 1.59277 5.38283 1.76627 5.37534 1.92752C5.3392 1.93801 5.30237 1.94597 5.26512 1.95133C4.18195 1.95133 3.09879 1.95133 2.01562 1.95745C0.955592 1.96698 0.211256 2.7222 0.206493 3.77611C0.206493 4.15984 0.220781 4.54426 0.20037 4.92663C0.188123 5.15524 0.258883 5.26002 0.481367 5.33486C2.88787 6.12546 5.28961 6.93035 7.6934 7.71619C7.88305 7.77535 8.08602 7.77677 8.27648 7.72027C10.3421 7.04738 12.4016 6.35611 14.4679 5.67505C14.9027 5.53081 15.3456 5.4097 15.7852 5.27839ZM9.26303 1.3281V1.93296H6.71909V1.3281H9.26303Z" fill="#FFA775"/>
</svg>
