<svg width="18" height="15" viewBox="0 0 18 15" fill="none" xmlns="http://www.w3.org/2000/svg">
<path d="M0 14.9998V4.77932C0.0577903 4.77606 0.115579 4.76953 0.17337 4.76953H17.6657C17.7267 4.76953 17.7882 4.77512 17.8493 4.77792V14.9998H17.6163H0ZM8.69511 13.329C9.19145 11.092 9.68594 8.86938 10.1818 6.63793L9.16535 6.41376C8.66761 8.6508 8.17406 10.8739 7.67818 13.1044L8.69511 13.329ZM7.08584 8.16751L6.38676 7.4661L3.98287 9.87325L6.40307 12.293L7.12592 11.5669L5.3936 9.86021L7.08584 8.16751ZM10.7788 11.5762C11.0216 11.8209 11.2607 12.0618 11.4737 12.2753L13.8771 9.87325L11.4583 7.45492L10.7369 8.17869L12.4613 9.89609L10.7788 11.5762Z" fill="#5096EE"/>
<path d="M0 0H17.8497V3.72841H0.2265C0.151 3.72841 0.0755002 3.7312 0 3.73214V0ZM3.58486 1.34083H2.55955V2.35915H3.58486V1.34083ZM7.94616 2.36614V1.34456H6.93157V2.36661L7.94616 2.36614ZM5.76318 1.34456H4.74952V2.36474H5.76318V1.34456Z" fill="#5096EE"/>
</svg>
