<svg width="14" height="19" viewBox="0 0 14 19" fill="none" xmlns="http://www.w3.org/2000/svg">
<path d="M0.390625 18.9998C0.390625 18.3123 0.415206 17.6233 0.395542 16.9357C0.357617 15.6261 0.939123 14.6803 1.99749 14.0575C2.69979 13.6414 3.45407 13.314 4.21958 12.9291C4.70487 13.9702 5.1726 14.9764 5.67334 16.0518C5.93389 15.3293 6.17127 14.6694 6.41216 14.0059C6.66967 13.995 6.92754 13.9984 7.18469 14.0161C7.26335 14.0255 7.35886 14.1463 7.39538 14.2343C7.60116 14.7691 7.79219 15.3104 8.02184 15.9433C8.51345 14.8899 8.96714 13.9135 9.44892 12.8789C10.5726 13.5715 11.9252 13.8138 12.754 14.9713C13.1234 15.4879 13.3453 16.0554 13.3341 16.7175C13.3207 17.4778 13.3341 18.2388 13.3341 18.9991L0.390625 18.9998Z" fill="#FFA775"/>
<path d="M10.2064 8.47797C10.1495 9.78319 9.71055 11.012 8.76033 12.0153C7.68721 13.1467 6.30719 13.2471 5.17016 12.1899C3.87863 10.9887 3.34418 9.43615 3.5956 7.65656C3.78733 6.30259 4.60973 5.46955 5.88862 5.13851C6.76228 4.9137 7.63173 4.96099 8.45202 5.35241C9.6958 5.94755 10.1916 7.02578 10.2064 8.47797Z" fill="#FFA775"/>
<path d="M5.56338 2.97104C5.82464 2.29224 6.06623 2.14454 6.75729 2.21075C7.24891 2.25804 7.51086 2.0827 7.59584 1.57633C7.62042 1.43082 7.49893 1.24747 7.41887 1.09614C7.38516 1.03212 7.28683 1.00229 7.2152 0.963005C6.60981 0.628332 6.5129 0.657434 6.15613 1.30423L5.51492 0.987739C5.51071 0.933173 5.50509 0.919349 5.5093 0.909891C5.98125 -0.0730294 6.35839 -0.214174 7.31282 0.268919C7.60415 0.416775 7.87978 0.595756 8.13521 0.802943C8.26076 0.895414 8.35296 1.02861 8.39723 1.18147C8.44149 1.33432 8.4353 1.4981 8.37961 1.6469C8.27092 1.97634 8.12972 2.29329 7.95823 2.59272C7.75386 2.93248 7.39639 2.94194 7.05086 2.91357C6.70532 2.88519 6.38999 2.89247 6.22284 3.30717L5.56338 2.97104Z" fill="#FFA775"/>
<path d="M11.8359 7.41008L11.1701 7.16126C11.2466 6.5181 11.5212 6.2831 12.2236 6.254C12.7433 6.23217 12.9891 6.01536 12.9961 5.50171C12.9961 5.3562 12.8619 5.21069 12.7742 5.07173C12.7475 5.02953 12.6709 5.02153 12.6175 4.99898C11.9321 4.69559 11.8317 4.73415 11.5248 5.43551L10.8555 5.19032C11.0957 4.18703 11.522 3.91856 12.4251 4.2205C12.7768 4.34024 13.1149 4.49904 13.4336 4.69413C13.5859 4.80096 13.6966 4.96028 13.7461 5.14376C13.7975 5.34111 13.8067 5.54771 13.773 5.74912C13.7394 5.95053 13.6637 6.1419 13.5513 6.3099C13.4389 6.47789 13.2925 6.61844 13.1222 6.72176C12.952 6.82507 12.762 6.88865 12.5656 6.90807C12.2383 6.94008 11.9335 7.00047 11.8359 7.41008Z" fill="#FFA775"/>
<path d="M0.78463 6.20079L0.25369 6.42851C-0.177524 5.73297 -0.0609416 5.22805 0.618184 4.88028C0.890227 4.74528 1.172 4.63241 1.46095 4.5427C1.79665 4.43357 2.09793 4.5347 2.29247 4.83372C2.81709 5.64057 2.81428 6.01817 2.28334 6.56602C2.13867 6.71589 2.10987 6.98727 2.02771 7.20262L2.12111 7.26301L1.55927 7.50965C1.26571 6.95526 1.30714 6.73917 1.69973 6.29027C1.82895 6.14476 1.98627 5.91122 1.95818 5.7497C1.92096 5.53144 1.68498 5.16766 1.58806 5.18876C1.27694 5.24478 0.97074 5.41794 0.710186 5.61365C0.645574 5.66531 0.750919 5.9636 0.78463 6.20079Z" fill="#FFA775"/>
<path d="M5.96752 3.86558L5.61636 4.64042L4.91406 4.29556L5.27926 3.51562L5.96752 3.86558Z" fill="#FFA775"/>
<path d="M11.6538 7.99005C11.5555 8.28107 11.474 8.52844 11.382 8.80418L10.6523 8.54881C10.745 8.26943 10.8272 8.02425 10.9206 7.74414L11.6538 7.99005Z" fill="#FFA775"/>
<path d="M1.73828 8.02233L2.3528 7.74805L2.64917 8.4254L2.03184 8.71642L1.73828 8.02233Z" fill="#FFA775"/>
</svg>
