<svg width="16" height="17" viewBox="0 0 16 17" fill="none" xmlns="http://www.w3.org/2000/svg">
<path d="M1.21815 0H6.43678C6.45508 0.0104174 6.47452 0.0186911 6.49471 0.024657C7.13735 0.154594 7.57843 0.654776 7.65671 1.37569C7.7522 2.25982 7.86844 3.1412 7.97803 4.02375C8.09544 4.9885 8.22068 5.95285 8.34044 6.9176C8.44964 7.80016 8.55453 8.6831 8.66411 9.56527C8.79288 10.6024 8.92594 11.6396 9.05549 12.6759C9.08797 12.935 8.86332 13.1847 8.60815 13.1847H1.51208C0.588036 13.1847 0.000186178 12.5977 0.000186178 11.6736V4.69183C0.000186178 3.6085 0.000186178 2.52569 0.000186178 1.4434C-0.00523016 1.1075 0.107685 0.780393 0.31916 0.519359C0.551638 0.226608 0.867087 0.0833634 1.21815 0ZM3.56642 7.09959H4.8971C4.91041 7.15321 4.92489 7.20213 4.93624 7.25223C5.02195 7.68509 5.10532 8.11835 5.19259 8.55082C5.24895 8.82948 5.483 9.00599 5.72761 8.96098C6.01057 8.90854 6.16517 8.67019 6.10489 8.36765C5.80118 6.83476 5.49604 5.30199 5.18946 3.76936C5.13506 3.49735 4.95659 3.3498 4.67284 3.34432C4.38127 3.33923 4.08969 3.33845 3.79811 3.34432C3.51554 3.3498 3.33903 3.50087 3.28463 3.77249C2.97857 5.30512 2.67356 6.83789 2.36959 8.37078C2.35415 8.43614 2.35031 8.5037 2.35824 8.57039C2.37523 8.67944 2.43008 8.77902 2.51317 8.85167C2.59626 8.92431 2.70228 8.96536 2.81263 8.96764C3.04236 8.97077 3.23101 8.80482 3.28228 8.54808C3.37543 8.07021 3.46897 7.59116 3.56603 7.09959H3.56642Z" fill="#5096EE"/>
<path d="M15.9986 4.09577V14.7804C15.9891 14.7986 15.9815 14.8178 15.9759 14.8375C15.8514 15.5385 15.2268 16.0081 14.4949 16.0038C12.2562 15.9897 10.0176 15.9987 7.77888 15.9987H7.58984C7.64738 15.9275 7.68417 15.879 7.72409 15.8336C8.33777 15.1322 8.94714 14.4274 9.56748 13.7323C9.91972 13.3378 10.0285 12.8849 9.95885 12.3734C9.89741 11.9147 9.84144 11.4556 9.78391 10.9965C9.68528 10.2023 9.58717 9.40793 9.48959 8.61344C9.38992 7.80877 9.28947 7.00422 9.18823 6.19981C9.08882 5.40584 8.98915 4.61173 8.88922 3.8175C8.85008 3.49892 8.81094 3.18033 8.7718 2.84375H8.94166C10.8054 2.84375 12.6693 2.84375 14.5333 2.84375C15.0119 2.84375 15.4178 3.01243 15.6894 3.40733C15.8283 3.61163 15.8972 3.86407 15.9986 4.09577ZM13.8026 8.10934H12.4719C12.4965 8.07021 12.511 8.04477 12.5275 8.02011C12.7039 7.74612 12.7741 7.41702 12.7246 7.09489C12.6751 6.77276 12.5095 6.47986 12.259 6.27144C11.6383 5.74073 10.6352 5.90745 10.2406 6.60606C10.1588 6.75087 10.1827 6.89451 10.3025 6.97865C10.4312 7.06906 10.5764 7.03932 10.6833 6.90038C10.7056 6.87142 10.7224 6.83932 10.7455 6.81075C10.8521 6.67059 11.0012 6.56866 11.1705 6.5202C11.3398 6.47174 11.5202 6.47935 11.6848 6.54188C12.0179 6.67142 12.2457 7.03266 12.2065 7.36807C12.1615 7.75084 11.8958 8.03694 11.5251 8.09995C11.4688 8.10934 11.4113 8.11208 11.3549 8.12108C11.2921 8.12836 11.2342 8.15839 11.1921 8.20548C11.15 8.25257 11.1266 8.31347 11.1263 8.37666C11.131 8.50972 11.1968 8.60444 11.3318 8.63536C11.3925 8.64905 11.4555 8.65062 11.5173 8.65884C11.9388 8.71363 12.266 9.14376 12.2011 9.55627C12.1459 9.90538 11.9083 10.1735 11.5878 10.2486C11.2402 10.3296 10.9295 10.204 10.7079 9.89246C10.5941 9.73278 10.4446 9.69129 10.3087 9.78209C10.1729 9.87289 10.1569 10.0204 10.2555 10.1809C10.58 10.7073 11.259 10.9378 11.8551 10.7234C12.4386 10.514 12.8183 9.91516 12.7239 9.31126C12.6887 9.08701 12.5916 8.87214 12.5251 8.65962H13.8084V9.66898C13.8084 9.96056 13.8057 10.2521 13.8084 10.5433C13.8088 10.6119 13.8358 10.6776 13.8837 10.7267C13.9316 10.7757 13.9967 10.8043 14.0652 10.8063C14.1338 10.8074 14.2002 10.7823 14.2511 10.7363C14.3019 10.6902 14.3334 10.6266 14.3391 10.5582C14.3419 10.5114 14.3419 10.4645 14.3391 10.4177V6.48865C14.473 6.48865 14.5869 6.49139 14.7004 6.48865C14.8984 6.48239 15.0135 6.3775 15.01 6.21469C15.0064 6.05187 14.8926 5.95951 14.7016 5.95833C14.2841 5.95599 13.8675 5.95599 13.4519 5.95833C13.2511 5.95833 13.1306 6.05852 13.1278 6.21781C13.1251 6.37711 13.2453 6.48356 13.4433 6.48943C13.5607 6.49295 13.6781 6.48943 13.7998 6.48943L13.8026 8.10934Z" fill="#5096EE"/>
<path d="M5.47656 14.1328H7.91758C7.90287 14.1593 7.88626 14.1847 7.86788 14.2087C7.39431 14.7293 6.92192 15.2498 6.45501 15.7711C6.38965 15.8443 6.34112 15.8529 6.25932 15.8032C5.8288 15.5426 5.59398 15.1586 5.53879 14.662C5.51766 14.4917 5.4977 14.3218 5.47656 14.1328Z" fill="#5096EE"/>
<path d="M3.75781 6.14889C3.88266 5.52269 4.00634 4.90705 4.1304 4.28711H4.33901C4.46269 4.90666 4.58636 5.52386 4.7116 6.14889H3.75781Z" fill="#5096EE"/>
</svg>
