<svg width="14" height="20" viewBox="0 0 14 20" fill="none" xmlns="http://www.w3.org/2000/svg">
<path d="M6.95316 19.0001C5.31227 19.0001 3.67139 19.0001 2.0305 19.0001C1.1081 19.0001 0.456709 18.3213 0.489463 17.3973C0.5835 14.7558 2.29359 12.5898 4.8442 11.912C5.27749 11.8025 5.72181 11.7424 6.16864 11.7329C6.86599 11.7118 7.57021 11.6949 8.26122 11.7688C10.1504 11.9722 11.5895 12.9279 12.5932 14.5302C13.1516 15.4199 13.41 16.4057 13.4338 17.4533C13.4533 18.3271 12.7919 18.9996 11.9144 19.0001C10.2612 19.0026 8.60743 19.0026 6.95316 19.0001Z" fill="#FD8948"/>
<path d="M6.95919 4.74414C7.38135 4.74393 7.79941 4.82688 8.18952 4.98824C8.57962 5.1496 8.93411 5.38622 9.23277 5.68458C9.53143 5.98294 9.7684 6.33721 9.93014 6.72715C10.0919 7.11709 10.1752 7.53508 10.1755 7.95723C10.1764 8.37938 10.0938 8.79755 9.93263 9.18771C9.77142 9.57786 9.53469 9.93231 9.23607 10.2307C8.93744 10.5291 8.58279 10.7655 8.1925 10.9264C7.80221 11.0873 7.38398 11.1695 6.96183 11.1682C6.5398 11.1698 6.12161 11.088 5.73129 10.9275C5.34096 10.767 4.9862 10.5309 4.68739 10.2329C4.38857 9.93488 4.15158 9.58074 3.99005 9.19084C3.82851 8.80094 3.74561 8.38297 3.7461 7.96093C3.74568 7.1083 4.08395 6.29041 4.6865 5.68716C5.28906 5.08391 6.10656 4.7447 6.95919 4.74414Z" fill="#FD8948"/>
<path d="M2.02653 4.36754L3.11006 4.99621C3.29074 5.10187 3.41436 5.24715 3.44341 5.45847C3.47775 5.70518 3.40908 5.91756 3.2004 6.06601C2.9838 6.21974 2.74554 6.24299 2.51362 6.11884C2.2072 5.95401 1.90925 5.77228 1.60706 5.59847C1.54578 5.56307 1.48239 5.53137 1.38993 5.48224C1.38993 5.60164 1.39575 5.69673 1.38993 5.79182C1.36563 6.13997 1.11258 6.38246 0.774469 6.38774C0.610498 6.39424 0.450531 6.3361 0.329 6.22584C0.207469 6.11557 0.134092 5.96199 0.124666 5.79816C0.083459 5.33326 0.0364413 4.86836 0.00315872 4.40241C-0.0221995 4.03947 0.103534 3.84189 0.437945 3.68551C0.824657 3.50378 1.21243 3.32468 1.60019 3.14506C1.98796 2.96544 2.35143 3.06529 2.51943 3.39178C2.68743 3.71826 2.55905 4.07275 2.18396 4.28407C2.14223 4.30573 2.10208 4.32633 2.02653 4.36754Z" fill="#FD8948"/>
<path d="M12.5375 5.47773C12.1412 5.70595 11.7809 5.92044 11.4127 6.12225C11.2865 6.18867 11.142 6.21178 11.0014 6.18801C10.8608 6.16424 10.7319 6.09491 10.6345 5.9907C10.5431 5.89015 10.4871 5.76244 10.4751 5.62708C10.4631 5.49171 10.4957 5.35613 10.568 5.24105C10.6452 5.13583 10.7432 5.04755 10.8559 4.98166C11.1914 4.77668 11.5353 4.58491 11.9046 4.37201C11.8153 4.32235 11.7503 4.28589 11.6848 4.25103C11.3678 4.07933 11.2558 3.7539 11.4048 3.42847C11.5538 3.10304 11.8903 2.9567 12.2252 3.10462C12.6701 3.30062 13.1096 3.50771 13.546 3.71745C13.8006 3.83895 13.9422 4.04922 13.9237 4.33397C13.8899 4.84536 13.8492 5.35728 13.7922 5.86602C13.7552 6.19885 13.4588 6.407 13.1086 6.37794C12.9523 6.37054 12.8051 6.30237 12.6984 6.18798C12.5917 6.07359 12.534 5.92203 12.5375 5.76565C12.5375 5.68059 12.5375 5.59554 12.5375 5.47773Z" fill="#FD8948"/>
<path d="M6.33531 1.87375C6.2381 1.93609 6.16943 1.98311 6.09811 2.02484C5.80173 2.19971 5.46785 2.12575 5.2634 1.841C5.05895 1.55625 5.09487 1.19912 5.36906 0.995724C5.78007 0.688784 6.2006 0.392938 6.62693 0.108715C6.8541 -0.0429053 7.10609 -0.0333965 7.33326 0.121394C7.73582 0.394523 8.13521 0.673463 8.52774 0.960856C8.83415 1.18538 8.8854 1.54885 8.66932 1.84522C8.45325 2.1416 8.10563 2.20235 7.78178 1.99103L7.61431 1.88062C7.6085 1.95194 7.60058 2.00582 7.60058 2.06024C7.60058 2.43586 7.60375 2.81095 7.60058 3.18604C7.59904 3.35268 7.53141 3.5119 7.41253 3.62869C7.29366 3.74549 7.13327 3.8103 6.96662 3.8089C6.80043 3.80876 6.64103 3.74293 6.52317 3.62576C6.40531 3.50859 6.33854 3.34958 6.33743 3.1834C6.33214 2.75548 6.33531 2.3302 6.33531 1.87375Z" fill="#FD8948"/>
</svg>
