<svg width="17" height="18" viewBox="0 0 17 18" fill="none" xmlns="http://www.w3.org/2000/svg">
<path d="M8.86038 0.00742159C9.49845 0.271222 9.99143 0.72133 10.3921 1.26377C10.8867 1.92904 11.5173 2.15327 12.3228 2.06094C12.7561 2.01311 13.1937 2.01727 13.6261 2.07331C14.3483 2.16646 14.8223 2.638 14.9162 3.35686C14.9732 3.78916 14.978 4.22676 14.9303 4.6602C14.8388 5.46396 15.0564 6.10038 15.7192 6.59665C16.0332 6.83679 16.3174 7.11354 16.5658 7.42103C17.1429 8.12175 17.1429 8.84472 16.579 9.54874C16.3347 9.8604 16.0522 10.1401 15.7381 10.3814C15.0605 10.8842 14.8313 11.5289 14.9311 12.3483C14.9781 12.7685 14.9739 13.1929 14.9187 13.6121C14.8247 14.354 14.354 14.8289 13.6113 14.9228C13.1784 14.9772 12.7407 14.9806 12.3071 14.9327C11.5182 14.8445 10.8966 15.0663 10.4053 15.7085C10.1455 16.0431 9.84631 16.3451 9.51411 16.6079C8.85461 17.133 8.144 17.1379 7.48368 16.6194C7.14847 16.3607 6.84811 16.0598 6.59006 15.7241C6.09543 15.0646 5.45901 14.8421 4.65525 14.9336C4.22157 14.9815 3.7837 14.9771 3.35108 14.9204C2.63388 14.828 2.15904 14.3532 2.06588 13.6335C2.00847 13.201 2.00377 12.763 2.05187 12.3294C2.1442 11.5248 1.92327 10.89 1.258 10.397C0.716382 9.99473 0.260503 9.50505 0 8.86451V8.12257C0.257894 7.5172 0.681356 6.99687 1.22172 6.62138C1.93316 6.10615 2.15409 5.43593 2.0461 4.5893C2.00034 4.18405 2.00616 3.77465 2.06341 3.37087C2.15821 2.6347 2.63058 2.15904 3.36922 2.06341C3.78695 2.00725 4.20999 2.00254 4.62887 2.0494C5.44417 2.14667 6.09378 1.93399 6.59418 1.25388C6.99318 0.712262 7.48285 0.259678 8.12257 0L8.86038 0.00742159ZM4.79127 13.8833C5.90005 13.6277 6.79203 14.2131 7.5249 15.1735C7.69093 15.3726 7.87349 15.5574 8.07063 15.7258C8.34597 15.9797 8.6411 15.9805 8.90985 15.7258C9.16887 15.4834 9.41228 15.2249 9.63859 14.9517C10.2791 14.1644 11.0771 13.7662 12.1117 13.8602C12.5049 13.8965 12.9031 13.8817 13.2988 13.8841C13.6945 13.8866 13.8817 13.6896 13.8759 13.3071C13.8701 12.9246 13.8858 12.5132 13.8512 12.1191C13.7613 11.0895 14.152 10.289 14.9451 9.65096C15.2181 9.42451 15.4762 9.18053 15.7175 8.92057C15.9764 8.65017 15.969 8.35174 15.7175 8.08217C15.4987 7.83842 15.2617 7.61161 15.0086 7.40371C14.1521 6.73432 13.7399 5.89181 13.8561 4.79704C13.8817 4.42913 13.8883 4.06015 13.8759 3.69155C13.8759 3.30575 13.6797 3.10955 13.293 3.11449C12.9064 3.11944 12.4992 3.1046 12.1051 3.13922C11.0755 3.22825 10.275 2.8375 9.63777 2.04362C9.42039 1.78073 9.18721 1.53131 8.93953 1.29674C8.64522 1.00903 8.32866 1.0148 8.03271 1.30169C7.78697 1.5382 7.55415 1.7878 7.33529 2.0494C6.70547 2.82184 5.92396 3.22661 4.90586 3.14005C4.49862 3.10542 4.08725 3.11943 3.67754 3.11531C3.28843 3.11119 3.10048 3.31316 3.10048 3.69732C3.10048 4.06582 3.08316 4.43926 3.12026 4.80281C3.2332 5.89676 2.82596 6.74256 1.96613 7.40371C1.726 7.60372 1.50063 7.82083 1.2918 8.05332C1.00491 8.34927 1.01068 8.66336 1.2918 8.95601C1.517 9.19377 1.75622 9.41786 2.00818 9.62706C2.81112 10.2709 3.22578 11.0738 3.12933 12.1241C3.09223 12.5313 3.10789 12.9427 3.10954 13.3524C3.10954 13.7019 3.30245 13.88 3.64704 13.8858C3.97431 13.8874 4.30241 13.8833 4.79127 13.8833Z" fill="#33C9DB"/>
<path d="M8.0503 9.1519C8.3545 9.33821 8.63808 9.50226 8.91013 9.6828C9.20443 9.87735 9.28769 10.203 9.11128 10.4561C8.9093 10.7446 8.64056 10.7504 8.35285 10.5987C8.22425 10.5278 8.09977 10.4453 7.96787 10.3629C7.83597 10.2805 7.71643 10.2186 7.50704 10.0991C7.5969 10.3143 7.64801 10.4486 7.70819 10.5781C7.85823 10.8955 7.76672 11.1551 7.47489 11.3068C7.18306 11.4585 6.91432 11.3464 6.74697 11.0595C6.66453 10.9177 6.60682 10.7636 6.53758 10.6152C6.1798 9.84932 5.81872 9.0843 5.46589 8.31598C5.25237 7.85186 5.33976 7.61609 5.80471 7.40175C6.08317 7.25921 6.374 7.14222 6.6736 7.05222C7.60514 6.81727 8.46909 7.69523 8.23991 8.62843C8.18606 8.80617 8.12277 8.9809 8.0503 9.1519ZM6.68102 8.11649L6.62908 8.28136L6.83765 8.6515L6.97944 8.68201L7.16657 8.2253L6.68102 8.11649Z" fill="#33C9DB"/>
<path d="M12.5841 7.20535C12.6666 7.37023 12.7276 7.49883 12.7993 7.64474C12.9741 7.56725 13.1183 7.49554 13.2684 7.43783C13.5701 7.32242 13.8141 7.41639 13.9592 7.69338C14.1043 7.97037 14.0144 8.23665 13.7399 8.38833C13.4172 8.56411 13.0847 8.72127 12.7441 8.85905C12.4283 8.98765 12.1736 8.86894 12.031 8.56887C11.5875 7.63458 11.1508 6.69699 10.721 5.7561C10.5628 5.41151 10.6658 5.14441 11.0054 4.97789C11.2866 4.8394 11.5685 4.70337 11.857 4.58137C12.1686 4.44864 12.4481 4.47915 12.6245 4.8089C12.7762 5.0933 12.6657 5.35793 12.3269 5.54589C12.1975 5.61678 12.0648 5.67944 11.9106 5.75775L12.1134 6.18395C12.5396 6.07184 13.0334 5.6275 13.3055 6.30184C13.5363 6.87725 12.9642 6.96958 12.5841 7.20535Z" fill="#33C9DB"/>
<path d="M10.1893 8.33842L10.3904 8.76215C10.5514 8.68397 10.7165 8.61462 10.885 8.55441C11.1975 8.45878 11.4621 8.5305 11.5915 8.85613C11.7111 9.16032 11.5915 9.3895 11.3088 9.53129C11.0046 9.68462 10.6979 9.83301 10.3855 9.96656C10.0557 10.1067 9.78697 10.0152 9.63281 9.69204C9.1882 8.75775 8.75101 7.81961 8.32123 6.87762C8.16543 6.53551 8.26765 6.26594 8.60399 6.09529C8.89582 5.94773 9.19177 5.80594 9.49432 5.68311C9.79686 5.56027 10.0837 5.63529 10.2189 5.94443C10.3541 6.25357 10.2412 6.50501 9.93618 6.65999C9.80346 6.72759 9.66991 6.79354 9.51575 6.87021C9.58005 7.0153 9.64023 7.14884 9.71195 7.3096C10.1241 7.19995 10.5792 6.76304 10.9065 7.39203C11.0681 7.70942 10.9024 7.91139 10.1893 8.33842Z" fill="#33C9DB"/>
<path d="M4.21665 9.3457L4.4145 9.77768C4.8374 9.65155 5.33367 9.23112 5.60325 9.89226C5.83819 10.4693 5.25783 10.5592 4.89181 10.79C5.02288 11.0818 5.15479 11.3613 5.27432 11.6449C5.43013 12.0126 5.34522 12.3456 5.04927 12.4462C4.71952 12.5583 4.45984 12.4404 4.30733 12.1164C3.87535 11.1898 3.43844 10.2649 3.01388 9.33417C2.86714 9.01184 2.95618 8.74226 3.27851 8.57904C3.58188 8.42488 3.89102 8.27896 4.20593 8.14789C4.52084 8.01681 4.78299 8.09925 4.92726 8.40756C5.07152 8.71588 4.9421 8.96072 4.65109 9.11983C4.52249 9.19155 4.38977 9.25667 4.21665 9.3457Z" fill="#33C9DB"/>
</svg>
