<svg width="18" height="18" viewBox="0 0 18 18" fill="none" xmlns="http://www.w3.org/2000/svg">
<path d="M17.9937 9.73347C17.8678 9.96762 17.7627 10.2176 17.6121 10.4341C16.6804 11.7818 15.739 13.1232 14.7998 14.4656C14.1414 15.4065 13.2372 15.8786 12.0874 15.8819C10.1544 15.8845 8.22156 15.8845 6.28887 15.8819C6.18324 15.8819 6.10975 15.8713 6.05385 15.7582C5.09293 13.8217 4.12894 11.8852 3.16186 9.94869C3.15174 9.92801 3.14382 9.90468 3.13281 9.88091C4.04165 8.96856 5.06932 8.2921 6.41607 8.30487C7.3315 8.31367 8.15099 8.61558 8.83009 9.23879C8.94268 9.34805 9.07654 9.433 9.22335 9.48834C9.37015 9.54369 9.52677 9.56825 9.68347 9.56051C10.5087 9.54291 11.3348 9.55171 12.1609 9.55611C12.4066 9.55615 12.6447 9.64188 12.834 9.79853C13.0233 9.95518 13.1521 10.1729 13.1982 10.4143C13.2429 10.6435 13.209 10.8811 13.1021 11.0887C12.9952 11.2963 12.8214 11.4619 12.6089 11.5586C12.4538 11.6253 12.287 11.6605 12.1182 11.6621C11.451 11.6735 10.7829 11.6656 10.1152 11.6673C9.83619 11.6673 9.63594 11.7963 9.5598 12.0137C9.43217 12.3781 9.68523 12.7179 10.0967 12.721C10.7177 12.7263 11.3387 12.7249 11.9593 12.721C12.193 12.7266 12.4268 12.7163 12.6591 12.6902C12.9467 12.6485 13.2066 12.4959 13.3831 12.265C14.2783 11.1594 15.1801 10.0592 16.0744 8.95271C16.3525 8.60854 16.7007 8.44042 17.1364 8.52272C17.5721 8.60502 17.8485 8.87833 17.9625 9.31053C17.9664 9.32417 17.9836 9.33473 17.9946 9.34661L17.9937 9.73347Z" fill="#33C9DB"/>
<path d="M9.8055 0C10.1765 0.0902234 10.5273 0.220058 10.8314 0.463001C11.1595 0.730817 11.4025 1.08832 11.5308 1.49189C11.6591 1.89546 11.6672 2.32766 11.5541 2.73575C11.3204 3.56141 10.581 4.19209 9.73993 4.28187C8.60663 4.4029 7.56884 3.56625 7.3906 2.38938C7.23259 1.34323 8.05473 0.232822 9.12949 0.0369708C9.16812 0.0275443 9.20605 0.0154861 9.24304 0.000881088L9.8055 0Z" fill="#33C9DB"/>
<path d="M5.20942 16.5595C5.18742 17.0392 5.03734 17.346 4.70945 17.5383C4.44657 17.6902 4.17565 17.8277 3.89788 17.9502C3.62017 18.0752 3.34818 17.959 3.19898 17.6651C2.9085 17.0929 2.62287 16.5172 2.33592 15.9433C1.59652 14.466 0.857424 12.9884 0.118619 11.5105C-0.101438 11.0704 -0.0235374 10.8156 0.421418 10.6065C0.720256 10.4661 1.02129 10.3033 1.3395 10.2355C1.76553 10.1453 2.1317 10.3297 2.34912 10.7099C2.62199 11.1919 2.85745 11.6953 3.10568 12.1914C3.75323 13.4862 4.39873 14.782 5.04218 16.0789C5.13064 16.258 5.17509 16.4587 5.20942 16.5595Z" fill="#33C9DB"/>
<path d="M7.12457 4.26758C8.43259 5.65086 10.5473 5.71115 11.8681 4.29311C12.2871 4.75655 12.5617 5.29129 12.6449 5.90833C12.6889 6.23665 12.6828 6.5729 12.6859 6.90562C12.6889 7.23835 12.4658 7.4496 12.1326 7.45004C10.9904 7.4518 9.84844 7.4518 8.70678 7.45004C8.10339 7.45004 7.50043 7.45004 6.89703 7.45004C6.54142 7.45004 6.33633 7.23791 6.32488 6.88406C6.30596 6.24677 6.33369 5.61697 6.64397 5.04042C6.78524 4.78031 6.95909 4.53649 7.12457 4.26758Z" fill="#33C9DB"/>
</svg>
