<svg width="18" height="18" viewBox="0 0 18 18" fill="none" xmlns="http://www.w3.org/2000/svg">
<path d="M13.038 17.6069H0.379902C0.150215 17.4939 0 17.3345 0 17.0556C0.00275624 12.3226 0.00275624 7.58948 0 2.8564C0 2.51187 0.210392 2.30515 0.560435 2.30515C1.1221 2.30515 1.68376 2.30515 2.24542 2.30515C2.29503 2.30515 2.34464 2.31066 2.4062 2.31479C2.4062 2.51921 2.4062 2.71307 2.4062 2.90647C2.40942 3.87115 3.07321 4.53862 4.03652 4.53954C5.81889 4.53954 7.60126 4.53954 9.38363 4.53954C10.3359 4.53954 11.002 3.86932 11.0066 2.91657C11.0066 2.71767 11.0066 2.51876 11.0066 2.30469H12.8441C13.2116 2.30469 13.4146 2.50819 13.4146 2.87936C13.4146 4.00253 13.4146 5.1257 13.4179 6.24887C13.4204 6.30481 13.4105 6.3606 13.389 6.41229C13.3675 6.46398 13.3348 6.51029 13.2934 6.54792C11.828 8.00781 10.3655 9.47092 8.90588 10.9372C8.74893 11.0874 8.61834 11.2629 8.51955 11.4563C8.09279 12.3613 7.68303 13.2741 7.27327 14.1873C7.13152 14.5044 7.1079 14.8617 7.20666 15.1947C7.46758 16.1364 8.46443 16.5834 9.38501 16.17C9.96903 15.9075 10.552 15.6425 11.1338 15.3748C12.512 14.7399 12.0604 15.0496 13.1142 14.01C13.2061 13.9204 13.2902 13.8262 13.3779 13.7307L13.4151 13.7578V13.9415C13.4151 14.9384 13.4068 15.9357 13.4197 16.9325C13.4261 17.2481 13.3342 17.4778 13.038 17.6069ZM4.65667 7.33529C4.6337 7.32702 4.62038 7.32564 4.61349 7.31875C4.47063 7.17818 4.3296 7.03624 4.18581 6.89659C3.94051 6.65772 3.63916 6.64348 3.42371 6.85892C3.20827 7.07437 3.22067 7.37801 3.46 7.62056C3.71725 7.88149 3.97634 8.14073 4.23726 8.39828C4.50278 8.66058 4.7853 8.66334 5.04852 8.40196C5.59701 7.85714 6.14367 7.31064 6.68849 6.76245C6.92874 6.52036 6.9416 6.2158 6.72753 6.00035C6.51346 5.78491 6.20752 5.79593 5.96589 6.03526C5.57129 6.42619 5.1799 6.82033 4.78714 7.21264C4.74396 7.25628 4.69802 7.29716 4.65667 7.33529ZM4.65667 14.0421C4.6337 14.0334 4.62084 14.0325 4.61349 14.0252C4.47063 13.8873 4.3296 13.7426 4.18581 13.603C3.94097 13.3646 3.63916 13.3503 3.42371 13.5658C3.20827 13.7812 3.22113 14.0849 3.46092 14.3279C3.71817 14.5888 3.97711 14.8479 4.23772 15.1051C4.50324 15.3674 4.78622 15.3697 5.04944 15.1084C5.59763 14.5635 6.14413 14.017 6.68895 13.4689C6.92966 13.2268 6.94206 12.9222 6.72799 12.7068C6.51392 12.4913 6.20798 12.5028 5.96589 12.7426C5.57129 13.1335 5.18036 13.5277 4.78714 13.92C4.74396 13.9627 4.69802 14.004 4.65622 14.0417L4.65667 14.0421ZM4.63508 10.7227C4.46328 10.5426 4.31077 10.3722 4.14677 10.2142C4.05055 10.1181 3.9201 10.0641 3.78409 10.0641C3.64808 10.0641 3.51763 10.1181 3.42142 10.2142C3.3741 10.2604 3.33642 10.3156 3.31056 10.3765C3.28469 10.4374 3.27115 10.5028 3.27073 10.569C3.2703 10.6352 3.28299 10.7008 3.30807 10.762C3.33314 10.8232 3.37011 10.8789 3.41682 10.9258C3.70194 11.2228 3.99288 11.5138 4.28963 11.7986C4.3363 11.8457 4.39188 11.8831 4.45315 11.9085C4.51441 11.9339 4.58013 11.9469 4.64646 11.9466C4.71279 11.9464 4.7784 11.9329 4.83947 11.907C4.90053 11.8811 4.95583 11.8433 5.00212 11.7958C5.58093 11.2253 6.15576 10.6509 6.72661 10.0727C6.78742 10.0153 6.83214 9.94302 6.85632 9.86299C6.88049 9.78296 6.88329 9.69799 6.86442 9.61654C6.82262 9.42223 6.71008 9.28258 6.51806 9.22745C6.42482 9.19763 6.32499 9.19515 6.23039 9.22031C6.13579 9.24547 6.05037 9.2972 5.98427 9.3694C5.54464 9.81132 5.10364 10.2523 4.63462 10.7223L4.63508 10.7227ZM2.06259 11.7692C2.162 11.7674 2.25867 11.7363 2.34049 11.6798C2.42231 11.6233 2.48565 11.5439 2.52257 11.4516C2.55949 11.3593 2.56836 11.2581 2.54806 11.1608C2.52776 11.0634 2.4792 10.9743 2.40845 10.9044C2.3377 10.8345 2.24791 10.7871 2.15033 10.768C2.05275 10.7489 1.95171 10.7591 1.85986 10.7972C1.76802 10.8352 1.68944 10.8996 1.63399 10.9821C1.57853 11.0646 1.54865 11.1617 1.54809 11.2611C1.54863 11.3283 1.5624 11.3947 1.58862 11.4566C1.61484 11.5185 1.65299 11.5746 1.7009 11.6217C1.7488 11.6689 1.80552 11.7061 1.86782 11.7313C1.93011 11.7566 1.99676 11.7693 2.06397 11.7687L2.06259 11.7692ZM2.0681 7.39363C1.96617 7.39282 1.86628 7.42225 1.78107 7.4782C1.69586 7.53416 1.62916 7.61412 1.58939 7.70799C1.54963 7.80185 1.53859 7.9054 1.55768 8.00553C1.57677 8.10567 1.62512 8.1979 1.69662 8.27055C1.76812 8.34321 1.85956 8.39304 1.95938 8.41372C2.05919 8.43441 2.1629 8.42504 2.25739 8.38679C2.35188 8.34853 2.43291 8.28312 2.49022 8.19882C2.54754 8.11452 2.57856 8.01512 2.57939 7.91318C2.57668 7.77784 2.52239 7.64865 2.42762 7.55199C2.33285 7.45534 2.20474 7.39853 2.06948 7.39317L2.0681 7.39363ZM2.57939 14.6205C2.58038 14.5186 2.55114 14.4187 2.49535 14.3334C2.43957 14.2481 2.35975 14.1812 2.26598 14.1413C2.17222 14.1013 2.06872 14.0901 1.96856 14.109C1.8684 14.1278 1.77609 14.176 1.70329 14.2473C1.63049 14.3186 1.58047 14.4099 1.55955 14.5097C1.53863 14.6094 1.54775 14.7132 1.58576 14.8077C1.62378 14.9023 1.68897 14.9834 1.77311 15.041C1.85724 15.0985 1.95654 15.1298 2.05845 15.1309C2.19431 15.1286 2.32415 15.0744 2.42129 14.9794C2.51843 14.8844 2.5755 14.7558 2.58076 14.62L2.57939 14.6205Z" fill="#33C9DB"/>
<path d="M12.1214 13.5487L9.9375 11.3639C9.9646 11.335 10.0018 11.2932 10.0413 11.2532L14.5753 6.7201C14.8873 6.40772 15.1555 6.40589 15.4647 6.71413C15.9066 7.15513 16.3481 7.59659 16.7891 8.0385C17.0734 8.32377 17.0739 8.60629 16.7891 8.89018C15.2661 10.4141 13.7426 11.9374 12.2188 13.46C12.1829 13.4959 12.1425 13.528 12.1214 13.5487Z" fill="#33C9DB"/>
<path d="M4.81585 1.10181C4.81585 0.891415 4.81585 0.708585 4.81585 0.525755C4.81998 0.221649 5.03176 0.00298593 5.33265 0.00206718C6.24894 -0.000689061 7.16555 -0.000689061 8.08246 0.00206718C8.38289 0.00206718 8.59374 0.222567 8.59742 0.527591C8.59971 0.711341 8.59742 0.895093 8.59742 1.10135C8.67138 1.10135 8.73523 1.10135 8.80322 1.10135C9.96038 1.07149 10.0013 1.12248 9.97416 2.27964C9.96865 2.50933 9.97416 2.73902 9.97416 2.9687C9.97416 3.29348 9.76101 3.50847 9.43899 3.50893C7.61711 3.50893 5.79493 3.50893 3.97244 3.50893C3.65731 3.50893 3.4414 3.29532 3.43957 2.98341C3.43681 2.53138 3.43681 2.07905 3.43957 1.62642C3.43694 1.55707 3.44863 1.48793 3.47389 1.42331C3.49916 1.35868 3.53747 1.29995 3.58642 1.25077C3.63538 1.2016 3.69394 1.16304 3.75846 1.13749C3.82298 1.11194 3.89206 1.09995 3.96142 1.10227C4.23704 1.09722 4.51772 1.10181 4.81585 1.10181Z" fill="#33C9DB"/>
<path d="M9.2829 12.2578L11.2307 14.206C10.9242 14.3438 10.6041 14.4922 10.2834 14.6378C9.84196 14.8381 9.4005 15.0398 8.95767 15.2378C8.70363 15.3517 8.4914 15.3195 8.32557 15.151C8.16709 14.9893 8.13493 14.7697 8.24288 14.5313C8.57455 13.7981 8.90759 13.0654 9.24202 12.3332C9.2558 12.3033 9.27372 12.2748 9.2829 12.2578Z" fill="#33C9DB"/>
</svg>
