<svg width="17" height="18" viewBox="0 0 17 18" fill="none" xmlns="http://www.w3.org/2000/svg">
<g clip-path="url(#clip0_9730_24117)">
<path d="M3.91315 15.7987C3.74705 16.3996 3.34743 16.5589 2.82372 16.5511C2.04207 16.5393 1.26921 16.5374 0.49244 16.5511C0.137764 16.5569 0.00390625 16.4133 0.00390625 16.0625C0.0117228 13.8921 0.0117228 11.7224 0.00390625 9.5533C0.00390625 9.20156 0.129948 9.06476 0.49244 9.07258C1.3337 9.09212 2.17593 9.07258 3.01816 9.08626C3.20185 9.08626 3.45882 9.12437 3.55164 9.24552C3.83793 9.61681 4.20627 9.57675 4.59417 9.58359C5.12631 9.58038 5.65806 9.61302 6.18581 9.6813C6.81505 9.779 7.32312 10.1347 7.72665 10.6212C7.81415 10.7359 7.92996 10.8258 8.06272 10.8822C8.19548 10.9385 8.34062 10.9594 8.48388 10.9427C8.88741 10.9173 9.29386 10.9368 9.69837 10.9368C10.8963 10.9368 11.3662 11.3726 11.4571 12.6301C11.6281 12.5666 11.7864 12.5148 11.9388 12.4513C12.9813 12.0126 14.019 11.5641 15.0654 11.1342C15.8773 10.8 16.531 10.9915 16.8554 11.6315C17.0161 11.9712 17.0442 12.3587 16.9342 12.718C16.8241 13.0773 16.5838 13.3826 16.2604 13.5739C15.7015 13.8934 15.1025 14.1465 14.5173 14.4201C12.7458 15.2467 10.9705 16.0655 9.20007 16.895C8.84268 17.0685 8.45219 17.1631 8.05503 17.1726C7.65787 17.182 7.26333 17.106 6.8981 16.9497C5.92299 16.5618 4.94201 16.1944 3.91315 15.7987ZM3.92684 10.1552C3.92684 11.7361 3.93856 13.272 3.91707 14.8089C3.91218 15.1499 4.03919 15.2906 4.33622 15.401C5.25987 15.745 6.17767 16.1032 7.0896 16.4758C7.3861 16.6059 7.70768 16.6687 8.03132 16.6599C8.35496 16.6512 8.67266 16.5709 8.96167 16.425C10.3638 15.7616 11.7786 15.1226 13.1865 14.4709C14.0805 14.0576 14.9794 13.6511 15.8656 13.2193C16.402 12.9574 16.618 12.3995 16.4099 11.9246C16.2144 11.4693 15.8607 11.3833 15.2139 11.6638C13.6731 12.3311 12.1381 13.0131 10.5973 13.6785C10.4066 13.7658 10.201 13.8159 9.99149 13.826C9.19811 13.8436 8.40376 13.8504 7.61135 13.8192C7.45698 13.8133 7.30944 13.6238 7.15897 13.5173C7.31237 13.4352 7.46382 13.2877 7.61918 13.2818C8.3637 13.2574 9.1092 13.274 9.85373 13.2691C10.482 13.2691 10.907 12.9095 10.9285 12.3848C10.95 11.8602 10.5308 11.4742 9.89965 11.4576C9.34956 11.4429 8.79849 11.4371 8.2484 11.4576C8.09662 11.4732 7.94337 11.4499 7.80315 11.3897C7.66294 11.3295 7.54042 11.2345 7.44721 11.1137C7.05639 10.6418 6.59911 10.2245 5.97183 10.1669C5.3172 10.1053 4.64791 10.1552 3.92684 10.1552ZM1.85252 15.2144L2.08311 15.2086C2.21501 15.0063 2.4329 14.8177 2.45928 14.5999C2.49641 14.2911 2.25409 14.0996 1.93361 14.1113C1.61314 14.123 1.38549 14.3321 1.43922 14.635C1.47635 14.8441 1.70792 15.0219 1.85252 15.2144Z" fill="#5096EE"/>
<path d="M8.01757 8.50787C7.57887 8.61437 7.20562 8.72184 6.82554 8.78829C6.75889 8.79573 6.69143 8.78876 6.62771 8.76786C6.56398 8.74696 6.50551 8.7126 6.45622 8.66713C6.4015 8.60655 6.43276 8.41993 6.48552 8.32125C6.67905 7.94825 6.89134 7.58529 7.1216 7.23377C7.27109 7.00807 7.25838 6.85662 7.08447 6.64069C6.02239 5.31969 5.82014 3.85116 6.5334 2.32498C7.22321 0.852542 8.45529 0.0513454 10.0733 0.000537928C11.6913 -0.0502696 12.9811 0.676669 13.7197 2.13152C14.5014 3.65966 14.3431 5.179 13.2967 6.55373C13.0651 6.8576 13.0544 7.05301 13.2595 7.34515C13.4702 7.65171 13.658 7.97339 13.8214 8.30757C13.877 8.41895 13.8995 8.61437 13.837 8.69839C13.7744 8.78242 13.581 8.81076 13.4589 8.78829C13.0944 8.72087 12.7368 8.61534 12.3157 8.50982C12.2082 8.87622 12.1134 9.2436 11.9913 9.6012C11.9483 9.72724 11.8399 9.83082 11.7607 9.94513C11.6405 9.85427 11.4822 9.7888 11.406 9.6696C11.1383 9.24653 10.9038 8.80294 10.6449 8.37303C10.5975 8.28663 10.528 8.21435 10.4435 8.1636C10.359 8.11284 10.2625 8.08542 10.164 8.08412C10.0654 8.08283 9.96828 8.10772 9.88249 8.15624C9.7967 8.20477 9.72533 8.2752 9.67565 8.36033C9.39719 8.81564 9.1451 9.28659 8.86468 9.73995C8.80606 9.83765 8.66047 9.94416 8.57156 9.93048C8.48265 9.9168 8.36931 9.7761 8.33414 9.66862C8.21787 9.30027 8.12993 8.9241 8.01757 8.50787ZM10.1671 7.54057C11.0899 7.53866 11.9748 7.17331 12.6301 6.52363C13.2854 5.87396 13.6584 4.99227 13.6683 4.06955C13.6782 3.14682 13.3242 2.25734 12.683 1.59376C12.0417 0.930186 11.1649 0.545937 10.2424 0.524245C9.30189 0.513548 8.39558 0.876327 7.72224 1.53299C7.04891 2.18966 6.66353 3.08659 6.65065 4.02703C6.636 5.9499 8.21689 7.52884 10.172 7.54057H10.1671Z" fill="#5096EE"/>
<path d="M10.2007 6.87989C9.64027 6.87989 9.09244 6.7137 8.62647 6.40235C8.16051 6.09101 7.79734 5.64847 7.58288 5.13072C7.36842 4.61297 7.3123 4.04325 7.42163 3.4936C7.53096 2.94396 7.80083 2.43908 8.1971 2.0428C8.59337 1.64653 9.09825 1.37667 9.6479 1.26734C10.1975 1.15801 10.7673 1.21412 11.285 1.42858C11.8028 1.64304 12.2453 2.00622 12.5567 2.47218C12.868 2.93815 13.0342 3.48598 13.0342 4.04639C13.0275 4.79583 12.7269 5.51269 12.1969 6.04264C11.667 6.5726 10.9501 6.87325 10.2007 6.87989ZM8.65301 5.51199H11.8099C11.977 4.69125 11.8158 4.44503 10.9061 4.12162L10.5554 4.73718L10.2319 4.25744L9.9232 4.77333C9.79129 4.53883 9.66915 4.3229 9.54897 4.11185C8.62955 4.50952 8.52892 4.6678 8.6491 5.51785L8.65301 5.51199ZM11.0595 2.98139C11.0673 2.45182 10.8006 2.16846 10.2779 2.15283C9.75514 2.1372 9.39851 2.45572 9.38971 2.94719C9.38971 3.47383 9.80498 4.02196 10.2183 4.03662C10.6658 4.0542 11.0478 3.57349 11.0556 2.98725L11.0595 2.98139Z" fill="#5096EE"/>
</g>
<defs>
<clipPath id="clip0_9730_24117">
<rect width="17" height="17.1729" fill="white"/>
</clipPath>
</defs>
</svg>
