<svg width="15" height="18" viewBox="0 0 15 18" fill="none" xmlns="http://www.w3.org/2000/svg">
<path d="M7.04297 17.5856V16.748H12.7683V17.5856H7.04297Z" fill="#FFA775"/>
<path d="M9.8962 16.0853C9.12629 16.0853 8.35639 16.0772 7.5875 16.0853C7.20406 16.0913 7.05775 15.9309 7.03857 15.5474C7.02371 15.2872 6.94355 15.0349 6.80548 14.8139C6.20006 13.8724 5.56839 12.9481 4.93875 12.0228C4.72281 11.705 4.58053 11.3922 4.95287 11.1016C5.2465 10.8735 5.5361 11.0178 5.84588 11.4457C6.02751 11.6979 6.32417 12.1167 6.49167 12.0824C6.96592 11.9815 6.73082 11.5012 6.73687 11.1873C6.7631 9.85035 6.74696 8.51236 6.74797 7.17436C6.74797 6.59315 6.94372 6.28236 7.31404 6.26622C7.70253 6.25007 7.90535 6.56389 7.90535 7.19353C7.90535 8.51438 7.90534 9.83522 7.91342 11.1561C7.91342 11.3215 7.9669 11.5395 8.0789 11.6394C8.28071 11.816 8.53903 11.6253 8.54811 11.2943C8.56291 10.777 8.56291 10.2587 8.54811 9.73936C8.53802 9.33574 8.70855 9.06935 9.1162 9.08045C9.50267 9.08953 9.64394 9.36803 9.63788 9.73936C9.62981 10.3246 9.61568 10.9109 9.64999 11.4941C9.65907 11.6444 9.83868 11.7847 9.93958 11.929C10.0405 11.7827 10.2201 11.6424 10.2352 11.487C10.2655 11.0531 10.2696 10.6178 10.2473 10.1833C10.2383 9.80495 10.3815 9.55571 10.7831 9.55269C11.1847 9.54966 11.4511 9.75449 11.4592 10.1884C11.4693 10.7232 11.438 11.261 11.4774 11.7928C11.4915 11.9845 11.6489 12.3114 11.7629 12.3215C12.1302 12.3528 12.0707 12.0188 12.0757 11.7776C12.0828 11.4941 12.0757 11.2095 12.0757 10.925C12.0757 10.5718 12.2372 10.3367 12.6035 10.3246C12.9506 10.3125 13.2139 10.5012 13.222 10.8493C13.2472 11.9017 13.2442 12.9552 13.222 14.0076C13.222 14.2094 13.0424 14.4001 12.9788 14.605C12.887 14.9016 12.771 15.2104 12.7659 15.5131C12.7568 15.9571 12.5732 16.0994 12.1524 16.0883C11.4017 16.0691 10.6489 16.0853 9.8962 16.0853Z" fill="#FFA775"/>
<path d="M6.1327 9.03955C6.04794 9.09101 6.0318 9.10615 6.01969 9.10715C4.51924 9.19595 4.62216 9.0789 4.63931 7.88116C4.64436 7.56331 4.63931 7.24647 4.63931 6.85496C3.67366 6.85496 2.72818 6.84689 1.78371 6.86606C1.6828 6.86606 1.59098 7.02751 1.49815 7.11832C1.41762 7.20356 1.32074 7.2717 1.2133 7.31866C1.10586 7.36563 0.990056 7.39047 0.872803 7.3917C0.755549 7.39292 0.639251 7.3705 0.530851 7.32579C0.422452 7.28107 0.324174 7.21498 0.241885 7.13144C0.0885613 6.9742 0.00191151 6.7638 3.12495e-05 6.54418C-0.00184901 6.32457 0.0811851 6.11272 0.231794 5.95287C0.576888 5.57448 1.05921 5.58558 1.48402 5.92866C1.66589 6.07981 1.88928 6.17233 2.12477 6.19404C2.94109 6.22431 3.75841 6.20614 4.59996 6.20614C4.67665 5.39891 4.77452 4.65524 4.00765 4.10733C3.60403 3.81874 3.28517 3.4131 2.93301 3.05489C2.59801 2.71585 2.3175 2.34856 1.73023 2.39396C1.32661 2.42222 1.00473 1.8965 1.05417 1.48582C1.08206 1.25953 1.19679 1.05294 1.37415 0.909663C1.5515 0.766386 1.7776 0.697638 2.00469 0.717936C2.44665 0.751234 2.77258 1.13669 2.81193 1.59581C2.82393 1.81005 2.90221 2.01526 3.03594 2.18307C3.53542 2.72291 4.06315 3.23753 4.59895 3.74306C4.72508 3.86213 4.92285 3.90653 5.16402 4.02156C5.16402 3.32733 5.14384 2.77538 5.16402 2.22444C5.23566 0.551444 6.77849 -0.479803 8.15685 0.224512C8.8985 0.601895 9.3112 1.22751 9.34148 2.06804C9.36267 2.67347 9.34148 3.27184 9.34148 4.0155C9.59374 3.9146 9.81875 3.88029 9.95901 3.75315C10.4171 3.33742 10.845 2.8884 11.2809 2.44845C11.5533 2.17399 11.8459 1.95503 11.7975 1.45353C11.7541 0.999461 12.2748 0.669502 12.75 0.719954C12.9592 0.746514 13.1517 0.847903 13.2919 1.00538C13.4322 1.16286 13.5107 1.36578 13.5129 1.57664C13.5129 2.04988 13.1395 2.38387 12.6411 2.43836C12.4055 2.46262 12.1824 2.5564 12.0003 2.70778C11.4332 3.22744 10.9186 3.8036 10.3475 4.32225C10.0185 4.62497 9.8793 4.9408 9.92369 5.37368C9.94993 5.6209 9.92874 5.87215 9.92874 6.19908C10.9045 6.19908 11.8459 6.20715 12.7934 6.18798C12.8943 6.18798 12.9952 6.03158 13.0901 5.94278C13.4937 5.5765 13.9982 5.57852 14.3393 5.94884C14.4948 6.11575 14.5777 6.33757 14.5697 6.56556C14.5618 6.79355 14.4637 7.00906 14.2969 7.16474C13.9357 7.49873 13.417 7.46241 13.0396 7.08906C12.9387 6.98816 12.8116 6.86303 12.6945 6.86101C11.7945 6.84184 10.8934 6.84992 9.95094 6.84992V8.61474L8.54534 8.41293C8.54534 7.9972 8.54534 7.48965 8.54534 6.9821C8.53827 6.20009 8.04788 5.64915 7.35769 5.64007C6.6675 5.63099 6.13472 6.20413 6.12665 7.00026C6.12766 7.68137 6.1327 8.36551 6.1327 9.03955ZM8.65532 3.92166C8.65532 3.18001 8.7088 2.49487 8.64019 1.82083C8.57561 1.19017 8.0065 0.736099 7.40713 0.700782C6.73107 0.66042 6.08427 1.03881 5.97327 1.69368C5.85017 2.41919 5.87842 3.16992 5.83907 3.92166H8.65532Z" fill="#FFA775"/>
</svg>
