<svg width="16" height="13" viewBox="0 0 16 13" fill="none" xmlns="http://www.w3.org/2000/svg">
<path d="M15.5859 11.5764V6.22656C15.5349 6.24902 15.4846 6.27623 15.4315 6.2946C13.1243 7.06343 10.8144 7.82546 8.51067 8.60789C8.05327 8.77341 7.55261 8.77509 7.09411 8.61266C5.08971 7.93228 3.07987 7.26823 1.07071 6.59941C0.730519 6.48511 0.380804 6.37693 0.00591469 6.25922V11.0525C0.00591469 12.2629 0.73324 12.9977 1.93479 12.9984C5.83972 12.9984 9.74465 12.9984 13.6496 12.9984C13.8185 13.002 13.9874 12.9888 14.1537 12.9589C14.9205 12.8011 15.339 12.2745 15.5859 11.5764Z" fill="#FD8948"/>
<path d="M15.5859 5.27839V3.38285C15.2008 2.24185 14.4483 1.90506 13.4244 1.94793C12.5453 1.98467 11.6642 1.95609 10.7838 1.95473C10.6641 1.95473 10.545 1.94453 10.3919 1.93704C10.3919 1.74041 10.3919 1.57372 10.3919 1.40634C10.3763 0.513686 9.8653 0.00544304 8.97468 0.00204114C8.19633 -0.00068038 7.41775 -0.00068038 6.63894 0.00204114C5.72383 0.00204114 5.21558 0.507564 5.19858 1.41859C5.19858 1.59277 5.18361 1.76627 5.17612 1.92752C5.13998 1.93801 5.10315 1.94597 5.0659 1.95133C3.98274 1.95133 2.89957 1.95133 1.81641 1.95745C0.756373 1.96698 0.0120373 2.7222 0.00727463 3.77611C0.00727463 4.15984 0.0215626 4.54426 0.00115108 4.92663C-0.011096 5.15524 0.0596647 5.26002 0.282148 5.33486C2.68865 6.12546 5.09039 6.93035 7.49418 7.71619C7.68383 7.77535 7.8868 7.77677 8.07726 7.72027C10.1429 7.04738 12.2024 6.35611 14.2687 5.67505C14.7035 5.53081 15.1464 5.4097 15.5859 5.27839ZM9.06381 1.3281V1.93296H6.51987V1.3281H9.06381Z" fill="#FD8948"/>
</svg>
