<svg width="18" height="19" viewBox="0 0 18 19" fill="none" xmlns="http://www.w3.org/2000/svg">
<path d="M9.38143 0.00785803C10.057 0.287171 10.579 0.763748 11.0032 1.33809C11.5269 2.04248 12.1946 2.27989 13.0474 2.18213C13.5063 2.1315 13.9696 2.13589 14.4274 2.19523C15.192 2.29386 15.6939 2.79313 15.7934 3.55426C15.8538 4.01199 15.8587 4.47532 15.8083 4.93424C15.7114 5.78528 15.9418 6.45912 16.6436 6.98458C16.976 7.23884 17.277 7.53186 17.54 7.85743C18.151 8.59935 18.151 9.36485 17.554 10.1103C17.2953 10.4403 16.9962 10.7364 16.6636 10.9918C15.9462 11.5243 15.7035 12.2069 15.8091 13.0745C15.8589 13.5194 15.8545 13.9687 15.796 14.4126C15.6965 15.1981 15.1981 15.7009 14.4117 15.8004C13.9534 15.858 13.4899 15.8615 13.0308 15.8109C12.1955 15.7175 11.5374 15.9523 11.0172 16.6322C10.7422 16.9865 10.4253 17.3063 10.0736 17.5845C9.37532 18.1405 8.62292 18.1458 7.92376 17.5967C7.56885 17.3228 7.25082 17.0042 6.97759 16.6488C6.45388 15.9505 5.78004 15.7149 4.929 15.8117C4.46983 15.8625 4.00621 15.8578 3.54815 15.7978C2.78877 15.7 2.286 15.1973 2.18737 14.4353C2.12658 13.9773 2.1216 13.5136 2.17253 13.0544C2.27029 12.2025 2.03637 11.5304 1.33197 11.0084C0.758509 10.5825 0.275822 10.064 0 9.3858V8.60023C0.27306 7.95926 0.721424 7.40833 1.29357 7.01076C2.04684 6.46523 2.28077 5.75559 2.16642 4.85917C2.11797 4.4301 2.12413 3.99662 2.18475 3.5691C2.28513 2.78964 2.78528 2.28601 3.56735 2.18476C4.00965 2.12528 4.45756 2.1203 4.90107 2.16991C5.76432 2.27291 6.45213 2.04772 6.98196 1.32761C7.40442 0.754147 7.92289 0.274949 8.60023 0L9.38143 0.00785803ZM5.07302 14.6997C6.24701 14.4291 7.19144 15.0489 7.96741 16.0657C8.1432 16.2766 8.3365 16.4722 8.54524 16.6506C8.83677 16.9194 9.14925 16.9203 9.4338 16.6506C9.70806 16.3939 9.96577 16.1202 10.2054 15.8309C10.8836 14.9974 11.7285 14.5758 12.824 14.6753C13.2403 14.7137 13.6619 14.698 14.0809 14.7006C14.4998 14.7032 14.698 14.4946 14.6919 14.0896C14.6858 13.6846 14.7023 13.249 14.6657 12.8318C14.5705 11.7416 14.9843 10.8941 15.824 10.2185C16.1131 9.97873 16.3863 9.7204 16.6418 9.44515C16.9159 9.15885 16.908 8.84288 16.6418 8.55745C16.4101 8.29936 16.1592 8.05922 15.8912 7.8391C14.9843 7.13034 14.5479 6.23828 14.6709 5.07913C14.698 4.68959 14.705 4.29891 14.6919 3.90864C14.6919 3.50015 14.4841 3.29241 14.0748 3.29764C13.6654 3.30288 13.2342 3.28717 12.817 3.32383C11.7268 3.4181 10.8792 3.00436 10.2045 2.1638C9.97436 1.88545 9.72747 1.62136 9.46522 1.373C9.15361 1.06837 8.81844 1.07448 8.50508 1.37823C8.24489 1.62866 7.99838 1.89294 7.76665 2.16991C7.09979 2.98778 6.27233 3.41635 5.19435 3.3247C4.76316 3.28804 4.32761 3.30288 3.8938 3.29851C3.48181 3.29415 3.2828 3.508 3.2828 3.91475C3.2828 4.30491 3.26447 4.70032 3.30375 5.08525C3.42333 6.24352 2.99214 7.13907 2.08175 7.8391C1.8275 8.05087 1.58888 8.28074 1.36776 8.52691C1.06401 8.84026 1.07012 9.17282 1.36776 9.48268C1.60621 9.73442 1.8595 9.97168 2.12627 10.1932C2.97643 10.8749 3.41548 11.725 3.31335 12.8371C3.27407 13.2682 3.29066 13.7038 3.2924 14.1376C3.2924 14.5077 3.49665 14.6962 3.8615 14.7023C4.20803 14.7041 4.55542 14.6997 5.07302 14.6997Z" fill="#FFA775"/>
<path d="M8.52518 9.68975C8.84727 9.88702 9.14753 10.0607 9.43557 10.2519C9.74718 10.4579 9.83534 10.8026 9.64855 11.0706C9.4347 11.3761 9.15015 11.3822 8.84552 11.2216C8.70936 11.1465 8.57756 11.0593 8.4379 10.972C8.29824 10.8847 8.17168 10.8192 7.94997 10.6927C8.04511 10.9205 8.09923 11.0627 8.16295 11.1998C8.32181 11.5358 8.22492 11.8108 7.91593 11.9714C7.60694 12.132 7.32239 12.0133 7.1452 11.7095C7.05792 11.5594 6.99682 11.3962 6.9235 11.2391C6.54468 10.4282 6.16237 9.61818 5.78879 8.80468C5.56272 8.31326 5.65524 8.06363 6.14753 7.83669C6.44237 7.68576 6.7503 7.56189 7.06752 7.4666C8.05384 7.21783 8.96859 8.14742 8.72594 9.13549C8.66892 9.32368 8.60191 9.5087 8.52518 9.68975ZM7.07537 8.59345L7.02038 8.76802L7.24122 9.15993L7.39135 9.19222L7.58948 8.70867L7.07537 8.59345Z" fill="#FFA775"/>
<path d="M13.323 7.62961C13.4102 7.80418 13.4748 7.94034 13.5508 8.09484C13.7358 8.01279 13.8886 7.93686 14.0474 7.87576C14.3669 7.75356 14.6253 7.85306 14.7789 8.14634C14.9325 8.43962 14.8374 8.72155 14.5467 8.88215C14.205 9.06827 13.853 9.23468 13.4923 9.38056C13.158 9.51672 12.8883 9.39103 12.7373 9.07331C12.2677 8.08408 11.8054 7.09135 11.3503 6.09513C11.1827 5.73028 11.2918 5.44748 11.6514 5.27116C11.9491 5.12452 12.2476 4.9805 12.5531 4.85132C12.883 4.71079 13.1789 4.74308 13.3657 5.09223C13.5263 5.39336 13.4094 5.67355 13.0506 5.87256C12.9136 5.94762 12.7731 6.01396 12.6098 6.09688L12.8246 6.54814C13.2758 6.42944 13.7987 5.95897 14.0867 6.67296C14.3311 7.28221 13.7253 7.37998 13.323 7.62961Z" fill="#FFA775"/>
<path d="M10.7877 8.82795L11.0007 9.27659C11.1711 9.19382 11.3459 9.12039 11.5244 9.05664C11.8552 8.95539 12.1354 9.03132 12.2724 9.3761C12.399 9.69818 12.2724 9.94084 11.973 10.091C11.6509 10.2533 11.3262 10.4104 10.9954 10.5518C10.6463 10.7002 10.3617 10.6033 10.1985 10.2612C9.72775 9.27194 9.26484 8.27863 8.8098 7.28125C8.64483 6.91902 8.75306 6.63359 9.10919 6.45291C9.41818 6.29667 9.73153 6.14654 10.0519 6.01649C10.3722 5.88643 10.676 5.96586 10.8191 6.29318C10.9623 6.6205 10.8427 6.88672 10.5197 7.05082C10.3792 7.12239 10.2378 7.19222 10.0746 7.2734C10.1426 7.42702 10.2064 7.56842 10.2823 7.73862C10.7187 7.62254 11.2005 7.15992 11.5471 7.82591C11.7181 8.16196 11.5427 8.37581 10.7877 8.82795Z" fill="#FFA775"/>
<path d="M4.46328 9.89623L4.67277 10.3536C5.12054 10.2201 5.646 9.77491 5.93142 10.4749C6.18019 11.0859 5.5657 11.1811 5.17815 11.4255C5.31693 11.7345 5.45659 12.0304 5.58316 12.3306C5.74812 12.7199 5.65822 13.0726 5.34487 13.179C4.99572 13.2977 4.72078 13.1729 4.5593 12.8299C4.10192 11.8488 3.63931 10.8695 3.18979 9.88402C3.03442 9.54273 3.12869 9.25731 3.46998 9.08448C3.79119 8.92126 4.11851 8.76676 4.45194 8.62798C4.78537 8.4892 5.06293 8.57648 5.21568 8.90293C5.36843 9.22937 5.23139 9.48861 4.92328 9.65707C4.78711 9.73301 4.64658 9.80196 4.46328 9.89623Z" fill="#FFA775"/>
</svg>
