<svg width="16" height="21" viewBox="0 0 16 21" fill="none" xmlns="http://www.w3.org/2000/svg">
<path d="M7.28829 0C7.67766 0.17197 8.07259 0.331889 8.45361 0.520546C8.61863 0.602592 8.76186 0.735625 8.90277 0.858924C9.19155 1.11248 9.24069 1.44529 9.12666 1.78599C9.02288 2.09242 8.88823 2.3875 8.72477 2.6667C8.55002 2.96707 8.24641 3.06951 7.90757 3.06765C7.80374 3.06765 7.69991 3.05606 7.59608 3.05097C7.25538 3.03335 6.9272 3.04077 6.81781 3.4839L6.06828 3.11818C6.26111 2.4734 6.64862 2.23747 7.35179 2.31998C7.46707 2.33927 7.58411 2.34595 7.70083 2.33991C8.03133 2.30561 8.42302 1.73454 8.33031 1.41284C8.29891 1.30777 8.23102 1.21736 8.13887 1.1579C7.89562 1.0224 7.64351 0.903469 7.38424 0.801909C7.17287 0.718473 7.00461 0.822769 6.8637 1.09069C6.81735 1.17644 6.78397 1.26683 6.73484 1.37669L5.98438 1.01143C6.20177 0.594248 6.39229 0.182167 6.8586 0.00231709L7.28829 0Z" fill="#FD8948"/>
<path d="M14.5257 20.0014H0.441714V19.7836C0.441714 19.0669 0.456083 18.3503 0.438469 17.6346C0.412974 16.5977 0.89273 15.8111 1.64365 15.1649C1.88654 14.9554 2.17671 14.7941 2.46503 14.6467C3.11397 14.3199 3.77729 14.0172 4.43504 13.7057C4.48649 13.6812 4.5398 13.6594 4.60423 13.6325C5.12848 14.7227 5.64764 15.8023 6.18812 16.9273C6.46624 16.1722 6.72952 15.4625 6.98539 14.7714H7.98894L8.74449 16.8197L10.2987 13.5898C10.4215 13.6482 10.5305 13.6997 10.6408 13.7525C11.401 14.1234 12.1825 14.4515 12.9144 14.8692C13.7381 15.3397 14.2656 16.0744 14.4904 17.0065C14.5237 17.1587 14.5392 17.3143 14.5368 17.4701C14.541 18.2715 14.5368 19.0725 14.5368 19.8735C14.5368 19.9129 14.5298 19.9509 14.5257 20.0014Z" fill="#FD8948"/>
<path d="M11.1373 8.80044C11.0627 10.3843 10.5347 11.7564 9.34903 12.8332C8.86371 13.2726 8.29264 13.5465 7.63118 13.5855C6.88953 13.629 6.24985 13.3644 5.69732 12.8902C4.621 11.971 4.07033 10.7723 3.88677 9.38866C3.78943 8.65304 3.84923 7.93271 4.14913 7.24761C4.55657 6.31684 5.27319 5.72908 6.24059 5.45977C7.46153 5.11954 8.64214 5.2141 9.7231 5.91913C10.5111 6.42901 10.9283 7.19199 11.072 8.11024C11.1077 8.34293 11.1169 8.5747 11.1373 8.80044Z" fill="#FD8948"/>
<path d="M12.6074 5.72499L11.793 5.44362C11.9297 5.17246 12.0419 4.90917 12.1897 4.6686C12.3724 4.37055 12.6746 4.28201 13.0032 4.31817C13.5147 4.37729 14.009 4.53854 14.4569 4.79236C14.9844 5.08578 15.1448 5.44409 14.9978 6.02906C14.934 6.27382 14.8486 6.5124 14.7424 6.74198C14.5793 7.10121 14.2594 7.23054 13.8891 7.26438C13.7273 7.27921 13.5646 7.28802 13.4037 7.31073C13.1933 7.33808 13.0399 7.44098 12.9815 7.65838C12.9645 7.70437 12.9437 7.74887 12.9193 7.79141L12.1638 7.53091C12.3191 6.84349 12.5629 6.65715 13.1219 6.60709C13.2777 6.59318 13.4334 6.58206 13.5892 6.57186C13.8028 6.55842 13.9688 6.46339 14.0457 6.26268C14.116 6.0826 14.1693 5.89639 14.2052 5.70645C14.2199 5.63114 14.2067 5.55304 14.1678 5.48686C14.129 5.42069 14.0672 5.37102 13.9943 5.34721C13.73 5.24106 13.4588 5.15294 13.1826 5.08346C12.9365 5.02598 12.7817 5.16133 12.6834 5.46309C12.6579 5.54143 12.6371 5.62162 12.6074 5.72499Z" fill="#FD8948"/>
<path d="M2.34968 7.62255L1.69564 7.90808C1.41752 7.41303 1.39434 7.17153 1.72206 6.78634C1.7864 6.70458 1.85758 6.62844 1.93482 6.55874C2.33763 6.22361 2.16056 5.82961 1.88846 5.50235C1.83191 5.43375 1.66458 5.39759 1.57465 5.42726C1.33677 5.51116 1.10584 5.61361 0.883991 5.73365C0.819788 5.76129 0.768899 5.81289 0.74215 5.87746C0.715402 5.94204 0.714902 6.01451 0.740759 6.07945C0.782476 6.20831 0.830685 6.33532 0.887236 6.49663L0.210481 6.7956C0.138634 6.53093 0.0556598 6.29267 0.0116243 6.04747C-0.0416818 5.74941 0.0922784 5.51348 0.332851 5.34336C0.735179 5.05479 1.19517 4.85665 1.68127 4.76256C2.04097 4.69395 2.33392 4.81772 2.51933 5.12226C2.66983 5.37088 2.79292 5.63509 2.88645 5.91026C2.97267 6.16474 2.88645 6.41087 2.71911 6.62085C2.66273 6.69244 2.60188 6.76041 2.53694 6.82434C2.31352 7.04638 2.12579 7.27258 2.34968 7.62255Z" fill="#FD8948"/>
<path d="M6.11169 4.87834L5.35938 4.50752L5.75616 3.69727L6.5094 4.06299L6.11169 4.87834Z" fill="#FD8948"/>
<path d="M11.6328 8.99269C11.7325 8.70252 11.8261 8.43182 11.9253 8.14258L12.7133 8.4105C12.6155 8.6965 12.5209 8.97276 12.4222 9.26247L11.6328 8.99269Z" fill="#FD8948"/>
<path d="M2.21596 9.16599L1.89844 8.44473L2.56592 8.15039C2.67253 8.39004 2.77405 8.61809 2.88576 8.8684L2.21596 9.16599Z" fill="#FD8948"/>
</svg>
