<svg width="20" height="15" viewBox="0 0 20 15" fill="none" xmlns="http://www.w3.org/2000/svg">
<path d="M0.00390625 4.52734C0.577993 4.83194 1.14682 5.15147 1.72529 5.44641C3.03996 6.13256 4.43877 6.64369 5.8861 6.96677C6.24162 7.04314 6.34607 7.18974 6.33378 7.54613C6.31096 8.22467 6.53656 8.42394 7.21686 8.43271C7.49337 8.43271 7.76988 8.4371 8.04639 8.43271C8.64154 8.42306 8.8487 8.21063 8.85573 7.61109C8.85573 7.45308 8.85573 7.29507 8.85573 7.10459C11.0978 6.62769 13.2377 5.75719 15.1759 4.53349V6.96151C13.4353 7.46361 11.7253 7.95431 10.0171 8.45378C9.38856 8.63724 9.01813 9.07527 9.00584 9.61512C8.99355 10.155 9.34291 10.5895 9.93368 10.7958C10.0434 10.8335 10.1566 10.8616 10.2681 10.8941C10.8519 11.0644 10.8571 11.0697 10.7307 11.764H10.3138C7.24145 11.764 4.16911 11.7561 1.10117 11.7719C0.592038 11.7719 0.233892 11.6069 0.00390625 11.1574V4.52734Z" fill="#FD8948"/>
<path d="M0.00175197 2.52151C0.255439 2.06943 0.632898 1.90177 1.15519 1.91406C2.33058 1.94215 3.50597 1.92284 4.73578 1.92284C4.73578 1.52695 4.73578 1.1688 4.73578 0.809779C4.74368 0.238325 4.96401 0.00570576 5.52581 0.00395014C6.90865 -0.00131671 8.2912 -0.00131671 9.67345 0.00395014C10.2212 0.00395014 10.4328 0.221647 10.4503 0.770277C10.4556 0.959006 10.4503 1.14861 10.4503 1.33734V1.92284H11.3781C12.3235 1.92284 13.2698 1.91757 14.2161 1.92284C14.8683 1.92284 15.2493 2.33453 15.1966 2.97621C15.19 3.04415 15.1701 3.11012 15.1381 3.17037C15.106 3.23062 15.0623 3.28395 15.0096 3.32733C13.1812 4.57558 11.2008 5.48938 9.04054 5.99324C9.00104 6.00202 8.95277 5.98622 8.97033 5.98797C8.84831 5.53414 8.86938 4.88018 8.5955 4.71691C8.18644 4.472 7.57285 4.55451 7.04529 4.52379C6.68539 4.50272 6.41063 4.6616 6.35357 5.04257C6.30968 5.34015 6.31583 5.64563 6.29739 5.99236C5.16919 5.77056 4.07532 5.40042 3.04424 4.89159C2.12078 4.43601 1.24034 3.89528 0.34059 3.39317C0.229108 3.33085 0.114115 3.27642 0 3.21761L0.00175197 2.52151ZM9.40396 0.894926H5.7988V1.87895H9.40396V0.894926Z" fill="#FD8948"/>
<path d="M14.5998 14.0363C14.0187 13.9195 13.4358 13.8115 12.8573 13.6851C12.6461 13.6315 12.4403 13.558 12.2429 13.4657C11.8321 13.2901 11.6012 13.0013 11.6363 12.5176C11.6679 12.0884 11.6433 11.6548 11.6433 11.1641C12.393 11.3905 13.0917 11.5758 13.7729 11.8128C14.5601 12.0899 15.4179 12.093 16.2071 11.8215C16.9234 11.5907 17.6528 11.3993 18.463 11.1658C18.463 11.7873 18.5096 12.3658 18.4385 12.9302C18.4121 13.1418 18.1444 13.4209 17.9276 13.492C17.3131 13.693 16.6626 13.8036 16.0262 13.9476C15.8717 13.9827 15.7155 14.009 15.5601 14.0354L14.5998 14.0363Z" fill="#FD8948"/>
<path d="M19.1947 10.1217C18.2396 10.4192 17.3732 10.6624 16.527 10.96C15.5497 11.3157 14.4792 11.3206 13.4986 10.974C12.454 10.6229 11.3831 10.3446 10.3332 10.0084C10.1577 9.95224 10.0269 9.75912 9.875 9.6292C10.0321 9.5028 10.1708 9.31583 10.3499 9.26052C11.6526 8.85498 12.9649 8.48279 14.2702 8.08426C14.7274 7.93918 15.2184 7.94071 15.6747 8.08865C16.9493 8.48717 18.2335 8.85146 19.5089 9.24648C19.6845 9.30178 19.8373 9.45189 19.9997 9.55722C19.8943 9.69241 19.7828 9.82057 19.6871 9.96365C19.6277 10.04 19.5901 10.131 19.5783 10.227C19.5678 10.7537 19.5581 11.2733 19.5783 11.7956C19.588 12.0291 19.6907 12.2574 19.7223 12.4917C19.7468 12.677 19.4519 12.8604 19.71 13.0562C19.631 13.1202 19.5493 13.2405 19.473 13.237C19.3343 13.23 19.0902 13.1685 19.0797 13.1001C19.0355 12.7922 19.0255 12.4805 19.0499 12.1705C19.0779 11.7316 19.1473 11.2927 19.1842 10.8537C19.2096 10.6387 19.1947 10.4245 19.1947 10.1217Z" fill="#FD8948"/>
<path d="M6.97014 5.23633H8.19029V7.7293C7.85936 7.7293 7.5293 7.74511 7.20276 7.71877C7.14944 7.70293 7.10106 7.67372 7.06219 7.63394C7.02333 7.59415 6.99526 7.54509 6.98067 7.49142C6.96311 6.75494 6.97014 6.01758 6.97014 5.23633Z" fill="#FD8948"/>
</svg>
