<svg width="17" height="17" viewBox="0 0 17 17" fill="none" xmlns="http://www.w3.org/2000/svg">
<path d="M0 4.12823C1.19069 4.12823 2.38165 4.12823 3.5729 4.12823C3.93902 4.12823 4.1295 3.93732 4.12992 3.57036C4.12992 2.44303 4.12992 1.31583 4.12992 0.188784V0H10.902C11.778 0 12.3868 0.609625 12.3868 1.48482C12.3868 3.1252 12.3868 4.76557 12.3868 6.40594V6.58285C12.3083 6.52939 12.2532 6.49249 12.1984 6.45558C11.5197 5.9834 10.765 5.7242 9.94194 5.71996C7.43301 5.70765 4.92451 5.71402 2.41559 5.71486C2.11057 5.71486 1.90651 5.91892 1.90651 6.22395C1.9034 7.04951 1.9034 7.87507 1.90651 8.70063C1.90651 9.01074 2.11396 9.20971 2.43214 9.20971C3.48 9.21141 4.528 9.21141 5.57614 9.20971H5.75007C5.73565 9.52619 5.72208 9.83036 5.70765 10.1613H2.52165C2.47413 10.1613 2.42662 10.1613 2.37911 10.1613C2.11099 10.1774 1.90184 10.3904 1.90566 10.6423C1.90993 10.7651 1.96037 10.8817 2.04689 10.9688C2.13341 11.056 2.24963 11.1072 2.37232 11.1124C2.50977 11.12 2.64765 11.1124 2.7851 11.1124C3.78035 11.1124 4.77518 11.1124 5.77044 11.1099C5.88286 11.1099 5.93037 11.1434 5.9728 11.249C6.08267 11.5209 6.21291 11.784 6.34103 12.064H6.17134C4.93286 12.064 3.69438 12.064 2.45589 12.064C2.22978 12.064 2.0499 12.1399 1.95148 12.3507C1.80597 12.6621 2.03293 13.0075 2.39226 13.0168C2.70449 13.0253 3.01673 13.0189 3.32897 13.0189C4.57834 13.0189 5.82729 13.0189 7.07666 13.0227C7.1633 13.0253 7.24721 13.0536 7.31762 13.1042C8.41088 13.9102 9.61273 14.1622 10.9308 13.8169C11.0581 13.7834 11.1306 13.8101 11.2172 13.8988C11.5605 14.2515 11.9087 14.5993 12.2617 14.9424C12.3503 15.0272 12.3728 15.104 12.335 15.2203C12.1628 15.7523 11.8098 16.0874 11.2681 16.2249C11.2384 16.2341 11.2092 16.245 11.1807 16.2575H1.20695C0.882831 16.1697 0.587563 16.0361 0.358476 15.7773C0.170964 15.5652 0.0789055 15.3132 0.00042206 15.051L0 4.12823ZM7.76604 2.86019C8.50124 2.86019 9.23643 2.86019 9.97206 2.86019C10.2639 2.86019 10.4811 2.65104 10.4811 2.38462C10.4811 2.1182 10.2631 1.90863 9.97206 1.90863C8.51241 1.90637 7.05247 1.90722 5.59226 1.91118C5.48745 1.91455 5.38523 1.94464 5.2953 1.99857C5.21116 2.04988 5.14667 2.12792 5.11214 2.22021C5.0776 2.31251 5.07503 2.41372 5.10481 2.50765C5.17057 2.72953 5.34366 2.85977 5.59141 2.86061C6.31685 2.86019 7.04144 2.86019 7.76604 2.86019ZM7.78046 4.76543C8.49954 4.76543 9.21904 4.77222 9.93812 4.75949C10.078 4.75163 10.2129 4.70443 10.3271 4.62331C10.4828 4.51386 10.5151 4.29919 10.4472 4.12017C10.3764 3.9335 10.1978 3.81344 9.97375 3.8126C9.47655 3.81005 8.97935 3.8126 8.48215 3.8126H5.6262C5.37378 3.8126 5.19433 3.92205 5.11712 4.11762C4.98985 4.44428 5.22784 4.76415 5.60499 4.76543C6.33128 4.76585 7.05587 4.76373 7.78046 4.76373V4.76543Z" fill="#33C9DB"/>
<path d="M15.1224 16.26C14.8343 16.1752 14.6264 15.9762 14.4202 15.7683C13.6645 15.0047 12.9052 14.245 12.1421 13.4893C12.0914 13.4481 12.0374 13.4112 11.9805 13.379C12.5384 13.0342 13.0103 12.5665 13.3601 12.0117C13.4084 12.0571 13.45 12.094 13.4895 12.1335C14.2981 12.9395 15.0918 13.7647 15.9191 14.5516C16.5448 15.1481 16.2512 16.0789 15.5262 16.2379C15.5177 16.2379 15.5109 16.2515 15.5037 16.2587L15.1224 16.26Z" fill="#33C9DB"/>
<path d="M6.67191 9.84977C6.67001 9.43243 6.7506 9.01884 6.90906 8.63276C7.06751 8.24667 7.3007 7.89571 7.59523 7.60004C7.88976 7.30437 8.23982 7.06982 8.62528 6.90987C9.01075 6.74992 9.42403 6.66772 9.84137 6.66801C10.2586 6.66599 10.6722 6.74647 11.0582 6.9048C11.4443 7.06314 11.7952 7.29621 12.0909 7.59063C12.3866 7.88505 12.6211 8.235 12.7811 8.62037C12.9411 9.00574 13.0234 9.41893 13.0231 9.83619C13.025 10.2549 12.9439 10.6698 12.7845 11.0569C12.625 11.4441 12.3904 11.7958 12.0941 12.0917C11.7979 12.3875 11.4459 12.6218 11.0586 12.7807C10.6712 12.9397 10.2562 13.0204 9.83755 13.018C8.99777 13.0172 8.19265 12.683 7.59907 12.089C7.0055 11.4949 6.67202 10.6895 6.67191 9.84977ZM9.85367 11.1148C10.1973 11.1148 10.5414 11.1148 10.885 11.1148C11.1086 11.1148 11.2244 10.9935 11.2214 10.7691C11.2146 10.2384 10.8196 9.73565 10.2949 9.62365C10.0959 9.58123 9.88548 9.58504 9.68016 9.58674C9.37043 9.59295 9.07463 9.71659 8.85261 9.93263C8.63058 10.1487 8.49891 10.441 8.48424 10.7504C8.47406 10.9837 8.59878 11.1127 8.83847 11.1131C9.17701 11.1153 9.51555 11.1148 9.85409 11.1148H9.85367ZM9.17489 8.77857C9.17387 8.95779 9.24377 9.13015 9.36934 9.25803C9.49492 9.3859 9.66597 9.45893 9.84518 9.46117C9.93528 9.46139 10.0245 9.44381 10.1078 9.40944C10.1911 9.37506 10.2667 9.32457 10.3304 9.26087C10.3942 9.19716 10.4446 9.1215 10.479 9.03822C10.5134 8.95494 10.531 8.8657 10.5307 8.7756C10.528 8.59676 10.4555 8.42606 10.3287 8.29989C10.2019 8.17373 10.0308 8.10208 9.85197 8.10022C9.67276 8.10134 9.50126 8.17329 9.37489 8.30037C9.24853 8.42746 9.17755 8.59936 9.17744 8.77857H9.17489Z" fill="#33C9DB"/>
<path d="M2.86328 8.24792V6.68164H7.18666C7.16163 6.70879 7.14423 6.73128 7.12302 6.74994C6.6841 7.13406 6.33307 7.60822 6.09383 8.14016C6.06201 8.21185 6.03062 8.25895 5.93474 8.25852C4.93567 8.25428 3.93617 8.25555 2.93667 8.25513C2.91674 8.25513 2.89637 8.25046 2.86328 8.24792Z" fill="#33C9DB"/>
<path d="M3.17145 0.34375V3.16321H0.351562L3.17145 0.34375Z" fill="#33C9DB"/>
</svg>
