<svg xmlns="http://www.w3.org/2000/svg" width="22" height="22" viewBox="0 0 22 22" fill="none"><path d="M11.7617 0H18.9111V10.353H16.5585V10.1347C16.5585 9.1773 16.5585 8.21989 16.5585 7.26247C16.5585 6.9748 16.4652 6.88099 16.1787 6.88042C15.6101 6.88042 15.0429 6.88042 14.477 6.88042C14.1928 6.88042 14.095 6.97821 14.0944 7.26646C14.0944 8.20947 14.0944 9.15267 14.0944 10.0961V10.3564H11.7634L11.7617 0ZM17.3862 1.4492H13.2121V2.89612H17.3862V1.4492ZM13.2069 5.60804H17.3789V4.1685H13.2069V5.60804Z" fill="#FD8948"></path><path d="M9.3166 14.8211V20.5877C9.3166 20.9169 9.22791 21.0073 8.90611 21.0085H7.79065V20.7719C7.79065 20.1761 7.77985 19.578 7.79406 18.985C7.80657 18.4546 7.57062 18.0686 7.10499 17.8662C6.70133 17.6905 6.26242 17.5967 5.85137 17.4682C5.88776 17.4312 5.95882 17.3664 6.02193 17.2936C6.48643 16.7484 6.61492 16.1242 6.40228 15.4476C6.22149 14.8717 5.62055 14.5453 4.97412 14.6301C4.31291 14.717 3.87344 15.1656 3.82454 15.7955C3.77224 16.4647 3.95303 17.0406 4.49769 17.4904C4.19409 17.5591 3.90243 17.6041 3.62612 17.6933C3.39787 17.7663 3.1806 17.87 2.98027 18.0015C2.65848 18.2158 2.50838 18.5376 2.50952 18.927C2.50952 19.5371 2.50952 20.1466 2.50952 20.7566V21.0039C2.07971 21.0039 1.67036 21.0107 1.25874 21.0005C1.09614 20.9965 1.00802 20.8817 0.986412 20.7236C0.980812 20.6601 0.979482 20.5963 0.982432 20.5326V14.8211C0.774916 14.8211 0.579909 14.8211 0.385469 14.8211C0.214909 14.8211 0.0687951 14.787 0.0142157 14.605C-0.0403638 14.4231 0.071069 14.3287 0.197852 14.2361C1.76891 13.0956 3.3392 11.9538 4.90874 10.8106C5.07646 10.6884 5.22143 10.6838 5.39029 10.8072C6.96438 11.9549 8.54036 13.1003 10.1182 14.2434C10.253 14.3407 10.3354 14.4549 10.2825 14.6198C10.2297 14.7847 10.0966 14.8211 9.94142 14.8205C9.74641 14.8205 9.54799 14.8211 9.3166 14.8211Z" fill="#FD8948"></path><path d="M11.1573 10.3622H9.65234V2.38281H11.1573V10.3622Z" fill="#FD8948"></path><path d="M19.5117 2.37695H21.0058V10.3535H19.5117V2.37695Z" fill="#FD8948"></path><path d="M7.23185 21.0025H3.08893C3.08495 20.9247 3.07812 20.8507 3.07812 20.7751C3.07812 20.2066 3.07812 19.6398 3.07812 19.0746C3.07812 18.6318 3.19183 18.4441 3.61539 18.2912C4.21 18.076 4.84509 17.996 5.4745 18.057C5.84005 18.0907 6.20225 18.154 6.55756 18.2463C7.09369 18.3867 7.23241 18.5937 7.23241 19.1389V21.0008L7.23185 21.0025Z" fill="#FD8948"></path><path d="M6.79302 2.02219C6.65032 1.88574 6.50477 1.75213 6.36605 1.61227C6.21084 1.45592 6.19549 1.29105 6.31772 1.1637C6.43996 1.03634 6.61222 1.04317 6.7663 1.19553C7.07937 1.50368 7.38998 1.81448 7.69813 2.12793C7.87437 2.30702 7.86869 2.43722 7.69074 2.62028C7.38752 2.92843 7.08165 3.23411 6.77312 3.53733C6.61734 3.69141 6.44962 3.70448 6.32398 3.58168C6.19833 3.45888 6.21027 3.28775 6.35979 3.1331C6.50136 2.98926 6.64918 2.84884 6.83054 2.67828C6.70831 2.67259 6.64747 2.6669 6.58664 2.6669C5.41697 2.6669 4.2475 2.6669 3.07821 2.6669C2.33172 2.6669 1.89224 3.10411 1.8911 3.85742C1.88845 5.75026 1.88845 7.64292 1.8911 9.53538C1.89368 9.62033 1.88912 9.70534 1.87746 9.78952C1.86999 9.8578 1.83603 9.92042 1.78286 9.9639C1.7297 10.0074 1.66159 10.0283 1.59319 10.0221C1.52459 10.024 1.45789 9.99933 1.40704 9.95324C1.35619 9.90715 1.32511 9.8432 1.32029 9.77474C1.31346 9.71131 1.31118 9.64747 1.31347 9.58371C1.31347 7.68423 1.33564 5.78419 1.30494 3.88528C1.28789 2.80165 2.12364 2.04891 3.11459 2.07222C4.25508 2.09894 5.3967 2.07847 6.53831 2.07847H6.76573L6.79302 2.02219Z" fill="#FD8948"></path><path d="M12.0766 18.4521C12.2215 18.5862 12.3705 18.7164 12.5098 18.8563C12.6678 19.0143 12.6803 19.1741 12.5502 19.3026C12.42 19.4311 12.2625 19.4231 12.1039 19.2668C11.7908 18.9586 11.48 18.648 11.1715 18.3349C11.0106 18.1712 11.0106 18.0183 11.1715 17.8551C11.4796 17.542 11.7904 17.2312 12.1039 16.9227C12.2608 16.7686 12.4245 16.7589 12.5507 16.8869C12.6769 17.0148 12.6644 17.174 12.5098 17.3337C12.3711 17.4747 12.2255 17.6089 12.0413 17.7886C12.155 17.7982 12.2119 17.8073 12.2687 17.8073C13.9846 17.8073 15.7006 17.8073 17.4168 17.8073C18.1855 17.8073 18.6238 17.3599 18.625 16.5855C18.625 15.1832 18.625 13.7793 18.625 12.3738C18.6224 12.296 18.6258 12.2181 18.6352 12.1407C18.6477 12.0758 18.6824 12.0173 18.7333 11.9753C18.7843 11.9332 18.8483 11.9102 18.9143 11.9102C18.9804 11.9102 19.0444 11.9332 19.0954 11.9753C19.1463 12.0173 19.181 12.0758 19.1935 12.1407C19.201 12.1973 19.2038 12.2543 19.202 12.3113C19.202 13.7508 19.2049 15.1898 19.202 16.6293C19.1992 17.5134 18.7023 18.1644 17.8847 18.348C17.7108 18.3803 17.5339 18.3938 17.3571 18.3884C15.6834 18.3914 14.01 18.3914 12.337 18.3884H12.1095L12.0766 18.4521Z" fill="#FD8948"></path><path d="M15.9815 10.3605H14.6875V7.46094H15.9815V10.3605Z" fill="#FD8948"></path><path d="M5.9321 16.0416C5.93634 16.3282 5.84536 16.6082 5.67342 16.8376C5.38176 17.2208 4.92863 17.2191 4.63754 16.8319C4.3925 16.5067 4.33395 16.1326 4.41013 15.7443C4.48631 15.356 4.8081 15.1587 5.222 15.1934C5.63589 15.228 5.88207 15.4532 5.91845 15.8534C5.92528 15.9148 5.92755 15.9785 5.9321 16.0416Z" fill="#FD8948"></path></svg>