<svg xmlns="http://www.w3.org/2000/svg" width="21" height="24" viewBox="0 0 21 24" fill="none"><path d="M13.0097 23.1301C12.8858 23.1359 12.7998 23.1429 12.7133 23.1429C9.50626 23.1429 6.29919 23.1429 3.09211 23.1429C1.92307 23.1429 1.00829 22.663 0.403314 21.6501C0.146491 21.2344 0.00879753 20.7562 0.00525869 20.2677C0.00525869 18.9065 0.00350713 17.5454 0 16.1842C0 11.828 0 7.47191 0 3.11606C0 1.91662 0.489242 0.997752 1.52501 0.385758C1.99555 0.10811 2.51402 0.000558273 3.0588 0.000558273C6.07142 0.000558273 9.08424 0.000558273 12.0972 0.000558273C12.3744 -0.00597651 12.6499 0.0449185 12.9064 0.150041C13.1629 0.255164 13.3949 0.412239 13.5878 0.611383C15.1504 2.18102 16.7138 3.74987 18.278 5.31795C18.4539 5.48678 18.5937 5.68957 18.689 5.91402C18.7842 6.13848 18.8329 6.37994 18.8321 6.62377C18.8348 8.50008 18.8333 10.3766 18.8274 12.2533C18.8194 12.3026 18.8004 12.3494 18.772 12.3904C18.7436 12.4315 18.7064 12.4657 18.6632 12.4906C18.5024 12.5736 18.4165 12.462 18.3709 12.3153C18.1511 11.6471 17.7507 11.1293 17.0481 10.9621C16.5479 10.8476 16.0369 10.7865 15.5237 10.7797C15.1145 10.7709 14.6925 10.8446 14.2857 10.9264C13.6158 11.062 13.1687 11.4811 12.9127 12.1101C12.7011 12.6303 12.8028 12.5362 12.3229 12.4707C11.5344 12.3632 10.92 12.6239 10.4255 13.2347C9.96041 13.8094 9.58967 14.4544 9.3272 15.1455C9.05131 15.8674 9.12145 16.5448 9.6294 17.1399C9.841 17.3877 9.86321 17.5619 9.63525 17.822C9.11444 18.42 9.05072 19.108 9.33305 19.8416C9.60794 20.5594 9.99981 21.2268 10.4927 21.8166C10.9966 22.4193 11.6518 22.621 12.4012 22.4777C12.6935 22.4193 12.8104 22.5216 12.884 22.7665C12.915 22.8776 12.9565 22.9845 13.0097 23.1301ZM17.2989 6.73424L17.3492 6.65241C15.6482 4.92106 13.9336 3.20393 12.2054 1.50102L12.1224 1.55948V5.48804C12.1224 6.32274 12.5368 6.73366 13.3797 6.73483H17.2989V6.73424ZM7.80628 10.7604C9.0402 10.7604 10.2747 10.7657 11.5086 10.7604C11.9996 10.7569 12.3755 10.3887 12.3661 9.95145C12.3568 9.51423 11.9973 9.18456 11.5121 9.16994C11.2783 9.16235 11.0445 9.16994 10.8107 9.16994C8.61409 9.16994 6.41765 9.16994 4.22141 9.16994C3.91863 9.16994 3.63689 9.21144 3.43581 9.46747C3.23474 9.72349 3.18856 10.0152 3.34053 10.315C3.50303 10.6365 3.78477 10.7645 4.13081 10.7651C5.35479 10.7635 6.57898 10.762 7.80336 10.7604H7.80628ZM5.92237 16.7003C5.30044 16.7003 4.67792 16.6968 4.05599 16.7003C3.59597 16.7038 3.25403 17.0423 3.25403 17.4824C3.25633 17.694 3.34182 17.8961 3.49202 18.0451C3.64221 18.1941 3.84502 18.2779 4.05657 18.2785C5.30043 18.284 6.5445 18.284 7.78875 18.2785C7.89346 18.2804 7.99748 18.2611 8.0946 18.2219C8.19172 18.1827 8.27996 18.1243 8.35407 18.0503C8.42819 17.9763 8.48666 17.8882 8.526 17.7911C8.56535 17.6941 8.58477 17.5901 8.58311 17.4853C8.58311 17.0358 8.25403 16.7062 7.78875 16.7027C7.16623 16.7003 6.54371 16.7003 5.92237 16.7003ZM5.88847 14.5043C6.51975 14.5043 7.15103 14.509 7.78231 14.5043C8.25636 14.499 8.58194 14.1758 8.58311 13.7275C8.58428 13.2791 8.23941 12.9325 7.76478 12.9313C6.54079 12.9271 5.3168 12.9271 4.09281 12.9313C3.61584 12.9313 3.25929 13.2727 3.2552 13.7169C3.2511 14.1612 3.59714 14.5008 4.08229 14.5055C4.68377 14.5101 5.28583 14.506 5.88847 14.506V14.5043ZM5.23906 7.19075C5.51613 7.19075 5.73883 7.1779 5.95861 7.19426C6.16436 7.21004 6.22983 7.12003 6.24736 6.93123C6.25788 6.81432 6.29821 6.61968 6.36076 6.60448C6.54814 6.55685 6.74446 6.55685 6.93184 6.60448C7.00139 6.62377 7.0049 6.83829 7.0616 6.95519C7.10427 7.04287 7.17851 7.17205 7.24865 7.17906C7.50584 7.20654 7.7677 7.19017 8.06347 7.19017C8.04243 7.05164 8.03249 6.94876 8.01145 6.84764C7.79712 5.83135 7.58143 4.81526 7.36438 3.79936C7.18903 2.99097 7.18902 2.99798 6.36602 3.00558C6.16786 3.00558 6.09421 3.08157 6.05973 3.26394C5.97614 3.71227 5.87853 4.15826 5.78501 4.60425C5.60848 5.44888 5.42962 6.29176 5.23906 7.19251V7.19075ZM3.66086 5.56929C3.80816 5.56929 3.91278 5.56929 4.01741 5.56929C4.75216 5.55994 5.17769 5.1122 5.18646 4.33829C5.19522 3.56438 4.7393 3.0313 4.02384 3.0126C3.68365 3.00324 3.34287 3.0237 3.00385 3.00617C2.76595 2.99389 2.68353 3.06462 2.68646 3.31421C2.69873 4.37336 2.69172 5.43368 2.69172 6.49342C2.69172 7.20537 2.69172 7.19835 3.39314 7.19485C3.59422 7.19485 3.66845 7.1364 3.66261 6.93006C3.65208 6.49634 3.66027 6.06204 3.66027 5.57105L3.66086 5.56929ZM9.44762 5.56929C9.58849 5.56929 9.69253 5.56929 9.79833 5.56929C10.5582 5.56111 10.9715 5.12097 10.9755 4.32134C10.9791 3.53691 10.5266 3.02896 9.80125 3.01201C9.46164 3.00441 9.12087 3.0237 8.78185 3.00617C8.54804 2.99389 8.48608 3.08274 8.48959 3.3072C8.49894 4.38564 8.49367 5.46408 8.49367 6.54252C8.49367 7.19718 8.49367 7.18842 9.15594 7.19543C9.37981 7.19835 9.4669 7.14458 9.45638 6.90317C9.43534 6.47121 9.44878 6.03808 9.44878 5.57105L9.44762 5.56929Z" fill="#FFA775"></path><path d="M12.1146 13.4962C12.2461 13.5132 12.4957 13.5471 12.7464 13.5757C13.2403 13.6312 13.4478 13.5073 13.6419 13.0567C13.7004 12.9222 13.7763 12.7948 13.8173 12.6557C13.9698 12.0969 14.3731 11.8794 14.9051 11.8753C15.4744 11.8718 16.0443 11.8964 16.6124 11.9297C16.955 11.9496 17.1783 12.1594 17.3086 12.471C17.3945 12.6767 17.4752 12.8848 17.5646 13.0894C17.74 13.4985 17.9738 13.6271 18.4245 13.5775C18.5603 13.5705 18.6955 13.5537 18.8289 13.5272C19.4024 13.377 19.8226 13.5886 20.1079 14.079C20.3931 14.5694 20.6643 15.0545 20.911 15.5578C21.063 15.8664 21.0098 16.1833 20.7941 16.4621C20.6632 16.631 20.5322 16.7999 20.4054 16.9718C20.1365 17.3371 20.1359 17.6311 20.4054 17.9941C20.5322 18.1665 20.6591 18.3384 20.7918 18.5056C21.0209 18.7937 21.0396 19.1059 20.9087 19.4408C20.6736 20.0699 20.3306 20.6532 19.8951 21.1645C19.6718 21.4229 19.4035 21.5275 19.0669 21.4749C18.8079 21.4346 18.5472 21.4036 18.2871 21.3744C18.0457 21.3469 17.7236 21.5305 17.6242 21.7497C17.5428 21.9044 17.4752 22.0659 17.422 22.2325C17.2607 22.8649 16.8083 23.1046 16.2138 23.1157C15.6924 23.1256 15.1681 23.1011 14.6473 23.0625C14.2679 23.0344 14.0043 22.8217 13.8716 22.4528C13.7997 22.2529 13.7039 22.0612 13.6203 21.8648C13.4613 21.489 13.2029 21.3387 12.8019 21.3908C12.7145 21.3944 12.6276 21.4049 12.5418 21.4223C11.8211 21.6374 11.3143 21.3639 10.9677 20.7338C10.7257 20.2919 10.4878 19.847 10.2745 19.3894C10.1319 19.0848 10.1868 18.7826 10.4002 18.5126C10.5451 18.3298 10.687 18.1447 10.8257 17.9573C11.0718 17.6247 11.0694 17.3342 10.8257 17.0092C10.6912 16.8309 10.5597 16.6497 10.4165 16.4767C10.1827 16.1926 10.15 15.8846 10.2803 15.5479C10.5192 14.9098 10.8671 14.318 11.3085 13.799C11.4891 13.5886 11.7106 13.4728 12.1146 13.4962ZM15.6012 16.1651C15.4286 16.1626 15.2571 16.1944 15.0968 16.2587C14.9366 16.323 14.7907 16.4185 14.6677 16.5397C14.5446 16.6608 14.4469 16.8053 14.3802 16.9645C14.3135 17.1238 14.2791 17.2948 14.279 17.4674C14.2761 17.6424 14.3079 17.8161 14.3726 17.9786C14.4373 18.1412 14.5336 18.2892 14.6559 18.4143C14.7782 18.5393 14.9241 18.6388 15.0852 18.7071C15.2463 18.7753 15.4193 18.8109 15.5942 18.8118C15.9478 18.8095 16.2862 18.6673 16.5352 18.4163C16.7843 18.1652 16.9239 17.8258 16.9234 17.4721C16.9206 17.1237 16.78 16.7906 16.5322 16.5456C16.2844 16.3007 15.9496 16.1639 15.6012 16.1651Z" fill="#FFA775"></path><path d="M6.8774 5.82849H6.41797C6.48051 5.3825 6.53955 4.95755 6.59918 4.5326L6.66698 4.52734L6.8774 5.82849Z" fill="#FFA775"></path><path d="M3.74807 3.80664C3.88368 3.88438 4.10346 3.93757 4.13619 4.04688C4.19203 4.2541 4.18491 4.47325 4.11574 4.67641C4.08184 4.77402 3.86381 4.80793 3.67969 4.89385V3.89607L3.74807 3.80664Z" fill="#FFA775"></path><path d="M9.46094 4.911V3.80859C9.63629 3.87815 9.86484 3.9027 9.89465 3.9933C9.96512 4.20465 9.97425 4.43165 9.92096 4.64797C9.89173 4.7526 9.6626 4.80228 9.46094 4.911Z" fill="#FFA775"></path></svg>