<svg xmlns="http://www.w3.org/2000/svg" width="23" height="24" viewBox="0 0 23 24" fill="none"><path d="M3.70535 23.001C3.4827 22.9056 3.34526 22.7327 3.22523 22.5251C2.21337 20.7622 1.19831 19.0018 0.180041 17.2437C-0.126638 16.7126 -0.0510184 16.4299 0.480119 16.1226C1.43637 15.5685 2.39461 15.0149 3.35486 14.462C3.84639 14.1781 4.14107 14.2579 4.42794 14.7543C5.46021 16.5399 6.49207 18.326 7.52354 20.1125C7.78221 20.5608 7.69999 20.8927 7.25947 21.1483C6.2044 21.7561 5.14813 22.362 4.09065 22.9662C4.07985 22.9722 4.07505 22.989 4.06785 23.001H3.70535Z" fill="#5297EE"></path><path d="M13.5579 11.3808C10.4095 11.3724 7.86066 8.81392 7.87506 5.67631C7.88946 2.50209 10.4371 -0.0113643 13.6276 3.86457e-05C16.7322 0.0114416 19.263 2.58071 19.2516 5.71232C19.2464 7.21844 18.644 8.66101 17.5767 9.72364C16.5093 10.7863 15.0641 11.3822 13.5579 11.3808ZM15.6357 4.04689C15.6292 3.67787 15.5071 3.32018 15.2866 3.02421C15.0661 2.72824 14.7583 2.50889 14.4066 2.39706C14.2985 2.36045 14.2265 2.33704 14.2235 2.19541C14.2073 1.7891 13.936 1.52323 13.5633 1.52323C13.1906 1.52323 12.9428 1.7831 12.8924 2.19421C12.8849 2.23247 12.8689 2.26854 12.8455 2.29973C12.8221 2.33091 12.792 2.35639 12.7573 2.37425C12.0371 2.63052 11.5894 3.12505 11.5 3.88845C11.4178 4.59543 11.7131 5.14877 12.2802 5.56888C12.8768 6.00659 13.4719 6.44671 14.0657 6.88922C14.2397 7.01826 14.3477 7.1803 14.2787 7.40956C14.2151 7.61961 14.0561 7.72044 13.7938 7.72344C13.6438 7.72344 13.4937 7.72344 13.3449 7.72344C13.0004 7.72344 12.8648 7.59861 12.8245 7.24932C12.8175 7.15979 12.7924 7.0726 12.7509 6.993C12.7093 6.91339 12.6521 6.843 12.5826 6.78606C12.5132 6.72911 12.4329 6.68678 12.3467 6.66161C12.2605 6.63643 12.1701 6.62893 12.0809 6.63956C11.9081 6.65953 11.7497 6.74571 11.639 6.88C11.5283 7.01429 11.474 7.18624 11.4874 7.35974C11.5012 7.72084 11.6252 8.06906 11.8428 8.35758C12.0604 8.64609 12.3611 8.86105 12.7045 8.97356C12.8521 9.02097 12.8978 9.08339 12.9056 9.23403C12.9085 9.31843 12.9281 9.40141 12.9633 9.47817C12.9986 9.55493 13.0487 9.62394 13.1107 9.68121C13.1728 9.73848 13.2456 9.78286 13.3249 9.8118C13.4043 9.84074 13.4886 9.85365 13.5729 9.84979C13.6573 9.8509 13.741 9.83533 13.8192 9.80397C13.8975 9.77262 13.9688 9.7261 14.0291 9.66709C14.0893 9.60808 14.1373 9.53775 14.1702 9.46013C14.2032 9.38251 14.2205 9.29915 14.2211 9.21482C14.2253 9.06719 14.2811 9.02157 14.4138 8.97476C15.1063 8.7269 15.5294 8.24077 15.6195 7.50138C15.7041 6.8016 15.4352 6.24405 14.8777 5.82515C14.2679 5.36723 13.6528 4.91591 13.0394 4.46279C12.8666 4.33436 12.7783 4.16752 12.8467 3.95626C12.9152 3.74501 13.0868 3.64538 13.3143 3.64478C13.4643 3.64478 13.6143 3.64478 13.7638 3.64478C14.1149 3.64838 14.2667 3.78702 14.3039 4.13511C14.3423 4.5012 14.655 4.78088 15.0001 4.75747C15.1777 4.74542 15.3435 4.66429 15.4619 4.53146C15.5804 4.39863 15.6421 4.22468 15.6339 4.04689H15.6357Z" fill="#5297EE"></path><path d="M11.5948 19.5009C10.6946 19.5009 9.79794 19.4973 8.89951 19.5039C8.84165 19.5095 8.78348 19.4969 8.73312 19.4679C8.68277 19.4388 8.64274 19.3948 8.61864 19.3419C7.76642 17.8579 6.91019 16.3757 6.04997 14.8953C6.01431 14.8447 5.99546 14.7841 5.99611 14.7222C5.99676 14.6603 6.01686 14.6001 6.05357 14.5502C6.82897 13.2677 7.96807 12.5055 9.43485 12.2696C10.8482 12.044 12.0755 12.4755 13.1192 13.4519C13.2014 13.5214 13.3051 13.5604 13.4127 13.5624C14.2289 13.5714 15.0451 13.5624 15.8613 13.569C16.0844 13.5694 16.2997 13.6511 16.467 13.7988C16.6342 13.9465 16.7419 14.15 16.7699 14.3714C16.8234 14.8047 16.5185 15.232 16.0732 15.337C15.9777 15.3551 15.8804 15.3623 15.7833 15.3586C14.6754 15.3586 13.5675 15.3586 12.4596 15.3586C12.1229 15.3586 11.8757 15.5435 11.7851 15.8448C11.7409 15.9772 11.7424 16.1206 11.7894 16.252C11.8364 16.3835 11.9262 16.4954 12.0443 16.5697C12.1779 16.6499 12.3297 16.6945 12.4854 16.6994C13.5405 16.7102 14.596 16.7102 15.6519 16.6994C16.2006 16.6948 16.7333 16.5133 17.1708 16.182C18.4996 15.2098 19.8343 14.2465 21.1751 13.2923C21.2756 13.2167 21.3902 13.1619 21.5122 13.1313C21.6342 13.1007 21.7611 13.0948 21.8854 13.1141C22.0097 13.1333 22.1289 13.1773 22.236 13.2433C22.343 13.3094 22.4357 13.3963 22.5086 13.4988C22.5827 13.5984 22.636 13.7119 22.6655 13.8326C22.6949 13.9532 22.6999 14.0785 22.6801 14.2011C22.6603 14.3237 22.6161 14.441 22.5502 14.5463C22.4842 14.6515 22.3979 14.7424 22.2962 14.8137C20.6157 16.038 18.9353 17.2647 17.2357 18.4626C16.1986 19.1936 15.0265 19.5303 13.7512 19.5057C13.0328 19.4895 12.3138 19.5009 11.5948 19.5009Z" fill="#5297EE"></path></svg>