<svg xmlns="http://www.w3.org/2000/svg" width="22" height="22" viewBox="0 0 22 22" fill="none"><path d="M12.3294 21.9976C11.9224 21.8828 11.5596 21.6968 11.3059 21.3409C11.1148 21.0881 11.0085 20.7813 11.0023 20.4644C10.9992 19.176 10.9992 17.8874 11.0023 16.5986C11.0023 16.5653 11.008 16.5314 11.0132 16.4763C11.1108 16.5234 11.194 16.5601 11.2749 16.6026C12.8706 17.4349 14.4686 18.2643 16.0597 19.1058C16.3697 19.2694 16.6424 19.2648 16.95 19.1023C18.5681 18.2482 20.1913 17.4056 21.8129 16.559C21.876 16.5263 21.938 16.4895 22 16.4551V20.6659C21.8806 21.0792 21.7015 21.4609 21.3233 21.6991C21.1212 21.8248 20.8876 21.9011 20.6683 21.9999L12.3294 21.9976Z" fill="#32C9DB"></path><path d="M9.16611 19.2467H0.792124C0.262329 19.2467 1.48759e-05 18.9855 1.48759e-05 18.4592C1.48759e-05 17.4214 1.48759e-05 16.3832 1.48759e-05 15.3447C-0.00275021 14.29 0.380046 13.2706 1.07637 12.4784C1.7727 11.6862 2.73454 11.1758 3.78091 11.0432C4.22575 10.9858 4.68035 10.999 5.13036 10.9984C7.47857 10.9956 9.82677 10.9933 12.175 11.0047C12.563 11.0047 12.9499 11.0782 13.3373 11.1195L13.3413 11.189C13.2225 11.2958 13.0997 11.3997 12.9849 11.511C12.6394 11.8355 12.3702 12.2327 12.1968 12.6739C12.1768 12.7401 12.1384 12.7992 12.086 12.8443C12.0337 12.8895 11.9696 12.9187 11.9012 12.9288C10.5196 13.2594 9.62932 14.11 9.26942 15.4871C9.20012 15.7938 9.16775 16.1077 9.17299 16.4221C9.16094 17.3502 9.16611 18.2807 9.16611 19.2467Z" fill="#32C9DB"></path><path d="M8.24819 9.16781C5.72262 9.16781 3.65625 7.10431 3.65625 4.58219C3.65883 3.36602 4.14377 2.20054 5.00464 1.3415C5.86552 0.48245 7.03202 -2.74587e-06 8.24819 0C9.46416 -3.42941e-06 10.6305 0.482292 11.4913 1.34109C12.3522 2.19989 12.8372 3.36507 12.8401 4.58104C12.8401 7.10431 10.7738 9.16724 8.24819 9.16781Z" fill="#32C9DB"></path><path d="M21.5574 15.1494C21.0046 15.4364 20.4869 15.7096 19.9685 15.9794C18.8613 16.5574 17.7541 17.1366 16.6428 17.7077C16.6015 17.7275 16.5566 17.7387 16.5108 17.7406C16.465 17.7425 16.4193 17.735 16.3765 17.7186C14.7693 16.8897 13.1665 16.0555 11.5682 15.216C11.5372 15.1999 11.5108 15.1792 11.4648 15.1523C12.11 14.4595 12.9572 14.716 13.7482 14.6443C13.7482 14.4095 13.7482 14.1822 13.7482 13.9555C13.7517 13.5362 13.9205 13.1352 14.218 12.8397C14.5156 12.5443 14.9177 12.3782 15.337 12.3776C16.1096 12.3741 16.8822 12.3741 17.6548 12.3776C17.8644 12.3775 18.072 12.4189 18.2656 12.4993C18.4592 12.5797 18.635 12.6977 18.7829 12.8463C18.9308 12.9949 19.0478 13.1713 19.1272 13.3653C19.2067 13.5593 19.247 13.7671 19.2459 13.9767C19.2459 14.1966 19.2459 14.4164 19.2459 14.6431C19.9094 14.7166 20.5885 14.5203 21.1934 14.8819C21.3128 14.9514 21.4185 15.0461 21.5574 15.1494ZM17.8723 14.6483C17.8723 14.4233 17.8723 14.2235 17.8723 14.0238C17.8723 13.8516 17.7839 13.7506 17.6112 13.75C16.865 13.7466 16.1222 13.7414 15.3789 13.758C15.2928 13.758 15.1493 13.8837 15.1367 13.967C15.1022 14.188 15.1252 14.4181 15.1252 14.6483H17.8723Z" fill="#32C9DB"></path></svg>